<svg width="699" height="814" viewBox="0 0 699 814" fill="none" xmlns="http://www.w3.org/2000/svg">
<path d="M436.276 306.329V313.756C436.276 315.047 435.064 316.087 433.565 316.087C432.067 316.087 430.854 315.036 430.854 313.756V299.29C430.854 297.999 429.642 296.959 428.144 296.959C426.645 296.959 425.433 297.999 425.433 299.29V304.889V319.355C425.433 320.646 424.22 321.686 422.722 321.686C421.224 321.686 420.011 320.635 420.011 319.355V304.889V299.29C420.011 297.999 418.799 296.959 417.301 296.959C415.802 296.959 414.59 297.999 414.59 299.29V313.756C414.59 315.047 413.377 316.087 411.879 316.087C410.381 316.087 409.168 315.036 409.168 313.756V304.329C409.168 303.038 407.956 301.998 406.457 301.998C404.959 301.998 403.747 303.038 403.747 304.329V306.329V327.548C403.747 328.839 402.534 329.879 401.036 329.879C399.537 329.879 398.325 328.839 398.325 327.548V299.278C398.325 297.987 397.113 296.947 395.614 296.947C394.116 296.947 392.903 297.987 392.903 299.278V306.317V313.745C392.903 315.036 391.691 316.076 390.193 316.076C388.694 316.076 387.482 315.024 387.482 313.745V306.317H373.699L392.778 334.804L411.868 363.291L430.969 334.804L450.059 306.317H436.276V306.329Z" fill="white"/>
<path d="M494.049 513.999C489.931 513.861 487.129 527.197 483.103 537.766L463.533 529.173C462.686 528.156 460.948 525.985 460.319 524.648C459.461 522.82 458.557 522.672 458.168 522.717C457.756 522.774 458.26 523.963 458.363 524.785C458.431 525.62 459.77 527.197 458.706 526.979C457.665 526.762 452.792 523.963 451.546 524.9C450.974 525.345 449.956 525.014 453.033 528.453C455.206 530.922 458.935 532.476 460.868 533.161C470.212 542.166 483.446 547.57 483.446 547.57C484.91 547.993 486.546 547.41 486.546 547.41C493.1 542.211 496.565 531.573 497.869 521.643C498.796 514.559 494.049 513.999 494.049 513.999Z" fill="#EFB184"/>
<path d="M492.47 513.301C494.598 512.661 498.647 513.153 498.647 519.666C498.647 526.168 498.429 528.408 496.21 533.698C495.135 536.315 487.3 535.115 485.23 530.864C484.052 528.362 488.227 514.581 492.47 513.301Z" fill="#50499E"/>
<path opacity="0.1" d="M444.603 642.961C429.001 651.954 428.91 666.558 444.431 675.562C459.929 684.566 485.15 684.566 500.751 675.562C516.341 666.558 516.433 651.954 500.934 642.984C485.402 633.957 460.204 633.957 444.603 642.961Z" fill="#010101"/>
<path d="M478.482 643.509C478.482 643.509 474.639 644.081 475.577 646.298C476.503 648.526 480.93 651.885 481.501 653.291C482.108 654.685 485.722 659.701 486.866 659.256C488.055 658.776 491.075 659.484 490.72 653.759C490.377 648.035 483.617 643.258 478.482 643.509Z" fill="#141416"/>
<path d="M471.127 664.478C471.127 664.478 472.98 669.94 468.325 671.231C463.658 672.522 465.053 669.608 454.919 672.179C444.774 674.739 443.596 669.494 443.825 668.329C444.053 667.163 450.836 665.061 453.066 664.478C455.262 663.895 459.46 662.844 459.46 662.844H471.504L471.127 664.478Z" fill="#141416"/>
<path d="M490.297 568.321C490.297 568.321 490.354 601.402 490.354 605.127C490.354 608.841 494.529 638.196 492.024 651.028C492.024 651.028 484.795 658.25 478.413 651.028C478.413 651.028 476.366 614.268 474.524 605.984C472.671 597.688 473.289 572.321 473.289 572.321L490.297 568.321Z" fill="#60B9E7"/>
<path d="M477.636 573.007C477.636 573.007 475.988 594.375 474.296 615.537C474.296 615.537 473.209 657.588 472.225 663.644C472.225 663.644 458.66 667.015 457.299 660.616C457.299 660.616 457.654 623.616 457.299 615.88C456.967 608.144 456.167 586.582 459.232 574.138C462.286 561.717 477.636 573.007 477.636 573.007Z" fill="#60B9E7"/>
<path d="M472.225 663.655C473.209 657.599 474.296 615.548 474.296 615.548C475.439 601.299 476.549 586.97 477.155 579.108L468.771 581.154C468.771 581.154 462.72 597.003 463.658 620.782C464.379 639.179 464.665 657.268 464.768 664.524C468.508 664.569 472.225 663.655 472.225 663.655Z" fill="#7FCFF4"/>
<path d="M492.036 651.028C494.529 638.196 490.366 608.841 490.366 605.127C490.366 601.573 490.309 571.406 490.309 568.55L483.023 574.149C483.023 574.149 480.724 597.791 483.023 611.263C485.127 623.535 483.778 647.394 484.807 654.239C488.833 654.239 492.036 651.028 492.036 651.028Z" fill="#7FCFF4"/>
<path d="M493.843 512.159C493.843 512.159 500.077 515.427 496.291 526.042C492.516 536.658 489.874 543.514 489.988 547.502C490.126 551.478 491.315 564.928 492.116 567.659C492.116 567.659 492.997 576.48 472.774 581.325C472.774 581.325 456.178 582.662 459.118 571.818C462.057 560.985 463.453 543.422 463.109 539.217C462.778 535.012 460.433 526.591 471.024 521.14C481.616 515.69 487.152 511.61 493.843 512.159Z" fill="#5E53A3"/>
<path d="M463.098 539.218C463.441 543.423 462.046 560.986 459.106 571.818C457.07 579.349 464.413 580.994 469.126 581.303C470.715 576.48 468.359 567.75 472.054 557.215C476.617 544.188 476.194 535.504 474.01 528.454C472.603 523.906 469.881 523.723 467.959 523.049C460.925 528.397 462.812 535.47 463.098 539.218Z" fill="#50499E"/>
<path d="M492.104 567.659C491.303 564.928 490.114 551.478 489.977 547.502C489.862 543.514 492.607 536.681 496.279 526.042C499.779 515.975 495.982 513.244 493.831 512.159C492.63 517.381 474.421 519.232 474.776 522.751C475.199 526.648 479.991 530.396 480.129 537.389C480.266 544.382 479.156 554.689 477.83 559.843C476.686 564.322 477.006 575.177 477.921 579.862C492.836 574.903 492.104 567.659 492.104 567.659Z" fill="#5E53A3"/>
<path d="M486.499 506.731C486.499 506.731 485.722 512.307 487.563 515.838C489.245 519.049 476.034 521.677 475.782 518.729C475.748 518.421 478.367 513.656 475.302 507.908C473.7 504.88 486.499 506.731 486.499 506.731Z" fill="#EFB184"/>
<path d="M487.506 516.032C486.145 513.393 486.202 509.656 486.351 507.919L476.64 512.479C476.64 512.49 476.64 512.502 476.64 512.513C477.006 512.604 483.446 514.376 484.75 519.072C486.751 518.284 488.112 517.198 487.506 516.032Z" fill="#DD956A"/>
<path d="M472.946 491.636C472.946 491.636 470.796 496.675 471.116 501.04C471.459 505.748 470.727 506.685 470.979 508.776C471.104 509.668 471.139 511.027 471.997 511.873C473.426 513.301 476.4 513.873 480.483 512.479C485.402 510.776 490.709 504.16 488.73 498.058C486.763 491.956 480.415 486.837 472.946 491.636Z" fill="#EFB184"/>
<path d="M488.387 504.594C486.534 499.109 481.799 492.482 481.844 492.128C481.879 491.922 480.266 490.882 478.459 489.751C476.72 489.82 474.867 490.402 472.946 491.636C472.946 491.636 472.362 492.985 471.848 494.882C472.991 496.207 475.348 497.738 475.702 498.847C476.48 501.475 475.931 505.417 475.107 507.165C474.295 508.891 477.372 511.519 476.709 513.05C476.663 513.107 476.652 513.187 476.674 513.256C477.795 513.187 479.076 512.982 480.495 512.479C483.652 511.393 486.923 508.285 488.387 504.594Z" fill="#E7A477"/>
<path d="M467.913 489.751C467.913 489.751 471.836 494.15 474.97 496.036C477.418 497.521 477.212 501.486 477.063 502.252C476.949 503.018 476.103 506.514 476.4 506.96C476.995 507.828 479.054 505.189 480.026 505.383C482.451 505.908 481.444 508.16 479.179 510.491C476.766 512.982 482.942 514.124 485.859 512.102C487.403 511.028 487.964 510.365 490.068 506.434C493.088 500.686 493.374 493.739 486.58 489.888C479.831 486.049 470.509 488.3 467.913 489.751Z" fill="#25170D"/>
<path d="M485.871 512.113C487.415 511.039 488.604 510.651 490.663 506.697C493.683 500.961 494.415 491.271 486.648 488.654C479.248 486.163 469.537 488.38 467.913 489.751C467.913 489.751 472.488 491.122 472.637 492.128C474.799 492.528 479.614 492.962 481.09 495.544C482.92 498.721 485.036 497.761 484.795 501.646C484.567 505.406 485.436 510.365 479.077 512.365C481.41 514.101 484.738 512.89 485.871 512.113Z" fill="#25170D"/>
<path d="M476.549 516.992L472.202 520.523C472.202 520.523 485.47 524.603 489.508 518.147C490.068 517.232 489.462 514.124 487.152 513.507C487.152 513.507 486.58 518.809 476.549 516.992Z" fill="#DEEFF8"/>
<path d="M475.039 524.957C472.202 521.963 460.81 529.436 450.482 534.11L442.681 514.216C442.784 512.902 443.081 510.159 443.584 508.754C444.248 506.869 443.733 506.114 443.401 505.874C443.081 505.646 442.612 506.834 442.075 507.463C441.548 508.091 441.388 510.159 440.794 509.268C440.21 508.377 438.712 502.972 437.156 502.755C436.447 502.652 435.967 501.738 435.692 506.32C435.532 509.6 437.065 513.336 437.957 515.199C438.22 528.157 443.802 541.309 443.802 541.309H443.813C444.557 542.634 446.135 543.366 446.135 543.366C454.439 544.28 464.401 539.172 472.328 533.059C478.001 528.682 475.039 524.957 475.039 524.957Z" fill="#EFB184"/>
<path d="M474.41 523.346C476.377 524.386 478.893 527.596 474.318 532.201C469.72 536.818 468.005 538.246 462.697 540.452C460.078 541.549 455.366 535.161 456.91 530.682C457.813 528.099 470.498 521.277 474.41 523.346Z" fill="#5E53A3"/>
<g opacity="0.2">
<path opacity="0.2" d="M197.121 637.488C181.748 646.355 181.668 660.753 196.949 669.631C212.219 678.498 237.073 678.498 252.469 669.631C267.841 660.753 267.921 646.366 252.64 637.499C237.371 628.621 212.516 628.621 197.121 637.488Z" fill="#010101"/>
</g>
<path d="M322.103 500.698C321.245 501.201 320.342 501.875 319.427 502.743C313.422 508.377 310.15 526.237 301.835 531.036C293.497 535.835 293.886 516.17 291.198 501.304C289.791 493.431 284.69 492.276 279.623 495.213C275.105 497.83 270.598 503.646 268.665 510.856C264.605 526.031 266.172 551.09 249.003 561.5L335.623 511.873C331.711 501.429 327.41 497.636 322.103 500.698Z" fill="url(#paint0_linear)"/>
<path d="M230.977 491.145C228.621 489.18 226.276 489.043 223.989 490.357C213.557 496.367 204.59 532.727 202.211 561.934C200.472 583.165 193.987 592.946 187.925 596.432C183.841 598.797 248.157 561.968 248.157 561.968C235.06 568.562 244.073 502.001 230.977 491.145Z" fill="url(#paint1_linear)"/>
<path d="M186.976 516.227C184.528 514.193 182.103 514.056 179.735 515.416C168.915 521.644 159.639 559.318 157.157 589.599C155.361 611.584 148.647 621.719 142.368 625.341C138.124 627.787 204.784 589.644 204.784 589.644C191.185 596.455 200.529 527.494 186.976 516.227Z" fill="url(#paint2_linear)"/>
<path d="M349.84 506.16C336.252 512.982 345.596 444.021 332.031 432.755C329.583 430.721 327.159 430.583 324.791 431.943C313.982 438.171 304.695 475.833 302.224 506.114C301.103 520.009 297.992 529.162 294.286 534.933C290.534 526.283 286.405 523.266 281.418 526.134C280.515 526.648 279.6 527.345 278.639 528.248C272.428 534.087 269.031 552.598 260.418 557.569C251.771 562.54 252.172 542.154 249.404 526.751C247.94 518.604 242.667 517.404 237.405 520.444C232.716 523.14 228.061 529.174 226.047 536.635C221.85 552.37 223.462 578.343 205.688 589.118L295.441 537.698C295.395 537.572 295.338 537.481 295.293 537.355C312.163 527.722 349.84 506.16 349.84 506.16Z" fill="url(#paint3_linear)"/>
<path opacity="0.1167" d="M465.58 428.298C465.58 488.38 416.82 537.104 356.68 537.104C296.528 537.104 247.768 488.391 247.768 428.298C247.768 368.205 296.528 319.492 356.68 319.492C416.82 319.504 465.58 368.205 465.58 428.298Z" fill="white"/>
<path opacity="0.2333" d="M446.318 428.721C446.318 478.108 406.24 518.136 356.817 518.136C307.382 518.136 267.304 478.096 267.304 428.721C267.304 379.335 307.382 339.307 356.817 339.307C406.24 339.307 446.318 379.335 446.318 428.721Z" fill="white"/>
<path opacity="0.35" d="M427.046 429.144C427.046 467.823 395.66 499.178 356.943 499.178C318.225 499.178 286.84 467.823 286.84 429.144C286.84 390.464 318.225 359.109 356.943 359.109C395.66 359.109 427.046 390.464 427.046 429.144Z" fill="white"/>
<path opacity="0.4667" d="M407.784 429.566C407.784 457.539 385.08 480.221 357.08 480.221C329.08 480.221 306.375 457.539 306.375 429.566C306.375 401.594 329.08 378.912 357.08 378.912C385.08 378.912 407.784 401.594 407.784 429.566Z" fill="white"/>
<path opacity="0.5833" d="M388.511 429.989C388.511 447.255 374.488 461.253 357.206 461.253C339.923 461.253 325.912 447.255 325.912 429.989C325.912 412.724 339.934 398.714 357.206 398.714C374.5 398.714 388.511 412.712 388.511 429.989Z" fill="white"/>
<path opacity="0.7" d="M369.25 430.4C369.25 436.959 363.92 442.284 357.343 442.284C350.789 442.284 345.448 436.959 345.448 430.4C345.448 423.841 350.778 418.517 357.343 418.517C363.92 418.517 369.25 423.841 369.25 430.4Z" fill="white"/>
<g opacity="0.2">
<path opacity="0.2" d="M416.626 555.992C450.013 575.246 450.207 606.487 417.038 625.752C383.845 645.029 329.858 645.018 296.471 625.752C263.083 606.498 262.889 575.257 296.082 555.992C329.24 536.726 383.216 536.738 416.626 555.992Z" fill="#010101"/>
</g>
<path d="M432.73 382.728C432.707 383.105 432.696 383.493 432.661 383.87C432.627 384.19 432.581 384.51 432.536 384.819C432.49 385.196 432.433 385.573 432.364 385.95C432.295 386.27 432.227 386.59 432.158 386.91C432.067 387.276 431.987 387.641 431.884 388.007C431.804 388.327 431.712 388.647 431.609 388.967C431.495 389.332 431.369 389.698 431.243 390.064C431.14 390.372 431.026 390.681 430.9 390.989C430.74 391.378 430.591 391.755 430.408 392.143C430.271 392.44 430.122 392.749 429.985 393.046C429.802 393.423 429.596 393.812 429.39 394.189C429.241 394.474 429.081 394.772 428.898 395.057C428.647 395.503 428.372 395.948 428.086 396.383C427.915 396.646 427.755 396.908 427.572 397.16C427.24 397.651 426.874 398.131 426.496 398.622C426.359 398.817 426.222 399.022 426.062 399.217C425.467 399.971 424.815 400.713 424.14 401.456C423.969 401.65 423.763 401.833 423.58 402.027C423.054 402.587 422.493 403.147 421.91 403.696C421.647 403.947 421.384 404.199 421.109 404.439C420.766 404.747 420.4 405.056 420.045 405.376C419.714 405.661 419.371 405.947 419.016 406.221C418.661 406.518 418.273 406.815 417.872 407.112C417.518 407.398 417.14 407.672 416.763 407.947C416.362 408.244 415.951 408.529 415.539 408.804C415.139 409.078 414.738 409.352 414.326 409.626C413.903 409.901 413.469 410.175 413.023 410.438C412.451 410.803 411.879 411.157 411.273 411.512C409.671 412.437 407.99 413.306 406.274 414.14C405.828 414.357 405.371 414.563 404.913 414.768C403.369 415.488 401.779 416.174 400.155 416.802C399.949 416.882 399.755 416.974 399.549 417.042C397.822 417.705 396.037 418.299 394.23 418.871C392.995 419.259 391.725 419.602 390.456 419.956C389.472 420.219 388.5 420.505 387.493 420.745C386.178 421.064 384.817 421.339 383.467 421.613C382.449 421.819 381.454 422.047 380.424 422.219C380.013 422.299 379.601 422.356 379.189 422.424C377.485 422.71 375.769 422.95 374.042 423.156C373.55 423.213 373.058 423.281 372.555 423.338C371.549 423.441 370.554 423.498 369.547 423.59C367.889 423.727 366.241 423.853 364.583 423.921C363.508 423.967 362.421 423.99 361.335 424.013C359.996 424.035 358.658 424.047 357.297 424.024C356.176 424.013 355.032 423.978 353.9 423.933C352.653 423.887 351.407 423.818 350.16 423.727C349.016 423.647 347.872 423.556 346.728 423.441C345.493 423.316 344.246 423.178 343.023 423.03C341.924 422.893 340.826 422.733 339.728 422.561C338.413 422.356 337.086 422.127 335.771 421.876C334.753 421.682 333.746 421.476 332.74 421.259C331.173 420.916 329.629 420.527 328.085 420.128C327.124 419.865 326.152 419.636 325.202 419.35C324.665 419.19 324.127 419.019 323.601 418.848C322.091 418.379 320.604 417.865 319.129 417.328C318.694 417.168 318.248 417.019 317.825 416.848C316.498 416.334 315.217 415.762 313.936 415.203C313.284 414.917 312.621 414.654 311.98 414.346C310.127 413.466 308.297 412.517 306.547 411.523C300.165 407.844 295.178 403.65 291.586 399.182C286.977 393.435 284.678 387.218 284.689 381.014L284.117 585.404C284.083 596.443 291.38 607.492 305.975 615.914C307.725 616.919 309.532 617.856 311.397 618.736C312.037 619.045 312.712 619.296 313.353 619.582C314.439 620.062 315.526 620.576 316.658 621.022C316.841 621.102 317.047 621.159 317.241 621.239C317.665 621.399 318.111 621.547 318.534 621.707C320.009 622.256 321.519 622.77 323.041 623.25C323.555 623.41 324.058 623.57 324.573 623.73C324.939 623.833 325.282 623.958 325.637 624.061C326.266 624.232 326.929 624.358 327.547 624.53C329.068 624.93 330.578 625.307 332.134 625.649C332.545 625.741 332.946 625.866 333.369 625.946C333.964 626.072 334.581 626.152 335.188 626.266C336.503 626.506 337.818 626.746 339.145 626.952C339.671 627.032 340.186 627.146 340.712 627.226C341.273 627.306 341.856 627.341 342.439 627.421C343.663 627.581 344.898 627.718 346.134 627.832C346.728 627.889 347.312 627.98 347.907 628.038C348.467 628.072 349.016 628.083 349.565 628.129C350.812 628.22 352.058 628.278 353.305 628.335C353.934 628.358 354.563 628.415 355.192 628.438C355.696 628.449 356.188 628.426 356.691 628.426C358.041 628.449 359.379 628.438 360.717 628.403C361.415 628.392 362.09 628.426 362.764 628.403C363.165 628.392 363.565 628.335 363.977 628.323C365.635 628.255 367.282 628.129 368.941 627.992C369.627 627.935 370.302 627.923 370.977 627.855C371.297 627.821 371.617 627.775 371.938 627.74C372.429 627.683 372.933 627.626 373.413 627.569C375.14 627.363 376.867 627.123 378.572 626.838C378.983 626.769 379.384 626.712 379.795 626.644C379.99 626.609 380.196 626.586 380.402 626.541C381.225 626.392 382.014 626.186 382.838 626.015C384.199 625.741 385.549 625.478 386.864 625.147C387.882 624.907 388.854 624.621 389.838 624.358C391.096 624.015 392.354 623.673 393.578 623.284C393.853 623.204 394.139 623.136 394.413 623.044C395.934 622.553 397.444 622.016 398.92 621.456C399.114 621.376 399.297 621.296 399.491 621.216C401.127 620.576 402.717 619.89 404.284 619.17C404.741 618.953 405.188 618.759 405.634 618.542C407.349 617.708 409.031 616.851 410.632 615.914C410.941 615.742 411.238 615.56 411.536 615.388C411.822 615.217 412.096 615.034 412.371 614.863C412.817 614.588 413.251 614.314 413.674 614.028C414.086 613.766 414.475 613.491 414.887 613.217C415.299 612.931 415.722 612.646 416.122 612.349C416.5 612.074 416.866 611.8 417.22 611.514C417.609 611.217 417.998 610.92 418.375 610.623C418.73 610.338 419.073 610.04 419.416 609.755C419.771 609.446 420.125 609.149 420.469 608.852C420.606 608.715 420.766 608.589 420.903 608.452C421.04 608.326 421.155 608.201 421.292 608.075C421.864 607.527 422.413 606.978 422.939 606.418C423.122 606.224 423.317 606.041 423.488 605.847C424.163 605.104 424.815 604.361 425.41 603.607C425.433 603.573 425.456 603.55 425.478 603.516C425.616 603.344 425.73 603.173 425.844 603.002C426.222 602.522 426.565 602.042 426.908 601.55C427.091 601.288 427.251 601.025 427.423 600.762C427.697 600.316 427.972 599.882 428.235 599.436C428.304 599.322 428.384 599.208 428.452 599.082C428.555 598.911 428.635 598.739 428.727 598.557C428.933 598.179 429.127 597.802 429.31 597.425C429.459 597.117 429.596 596.808 429.733 596.488C429.905 596.123 430.065 595.746 430.214 595.368C430.282 595.209 430.362 595.026 430.42 594.866C430.477 594.717 430.523 594.557 430.58 594.409C430.706 594.043 430.831 593.689 430.934 593.323C431.026 593.003 431.129 592.683 431.209 592.363C431.312 591.998 431.392 591.632 431.472 591.266C431.518 591.072 431.575 590.889 431.621 590.695C431.655 590.569 431.666 590.432 431.678 590.306C431.746 589.929 431.804 589.564 431.861 589.187C431.907 588.867 431.952 588.535 431.975 588.227C432.021 587.85 432.044 587.473 432.067 587.084C432.078 586.867 432.101 586.661 432.101 586.444C432.101 586.227 432.101 586.01 432.112 585.793C432.307 517.666 432.49 449.54 432.696 381.402C432.776 381.871 432.753 382.293 432.73 382.728Z" fill="url(#paint4_linear)"/>
<path d="M410.918 350.927C439.925 367.656 440.096 394.783 411.273 411.512C382.449 428.252 335.565 428.24 306.559 411.512C277.563 394.783 277.392 367.656 306.215 350.916C335.05 334.198 381.923 334.198 410.918 350.927Z" fill="#49449B"/>
<path d="M404.845 354.71C430.454 369.484 430.603 393.446 405.154 408.221C379.681 423.007 338.265 423.007 312.655 408.221C287.034 393.446 286.886 369.484 312.358 354.698C337.807 339.912 379.224 339.923 404.845 354.71Z" fill="#4E55A5"/>
<path d="M343.252 372.889C351.018 377.369 351.075 384.636 343.343 389.115C335.623 393.606 323.064 393.606 315.309 389.115C307.543 384.636 307.485 377.369 315.217 372.889C322.927 368.41 335.474 368.41 343.252 372.889Z" fill="#49449B"/>
<path d="M404.993 368.547C412.76 373.027 412.805 380.294 405.085 384.773C397.364 389.253 384.805 389.253 377.039 384.773C369.273 380.294 369.227 373.027 376.947 368.547C384.668 364.057 397.215 364.057 404.993 368.547Z" fill="#49449B"/>
<path opacity="0.4" d="M429.528 344.071C390.604 322.097 327.707 322.097 289.036 344.071C250.364 366.045 250.57 401.673 289.493 423.647C328.417 445.632 391.325 445.632 429.985 423.647C468.668 401.685 468.451 366.056 429.528 344.071ZM427.366 422.173C390.136 443.324 329.595 443.324 292.113 422.173C254.642 401.022 254.448 366.719 291.678 345.568C328.897 324.406 389.449 324.406 426.92 345.568C464.39 366.719 464.585 401.011 427.366 422.173Z" fill="#413193"/>
<path opacity="0.4" d="M419.588 348.127C386.189 329.273 332.237 329.273 299.044 348.127C265.863 366.982 266.034 397.548 299.433 416.402C332.832 435.257 386.807 435.257 419.977 416.402C453.17 397.56 452.998 366.993 419.588 348.127ZM417.735 415.145C385.778 433.291 333.838 433.291 301.675 415.145C269.534 396.988 269.363 367.564 301.309 349.407C333.243 331.262 385.194 331.262 417.346 349.407C449.498 367.564 449.67 396.988 417.735 415.145Z" fill="#413193"/>
<path d="M449.647 540.201L445.129 537.572C445.358 536.853 449.853 523.255 446.742 515.987L451.26 518.615C454.382 525.883 449.887 539.481 449.647 540.201Z" fill="#9EDBF0"/>
<path d="M461.462 455.128C461.691 455.265 461.92 455.402 462.137 455.528C463.418 456.271 464.699 457.014 465.98 457.756C464.608 456.957 462.697 457.071 460.593 458.282L456.063 455.654C458.191 454.443 460.09 454.328 461.462 455.128Z" fill="#9EDBF0"/>
<path d="M404.101 543.24L399.572 540.612C398.222 539.823 397.376 538.144 397.376 535.755L401.905 538.384C401.894 540.772 402.74 542.451 404.101 543.24Z" fill="#9EDBF0"/>
<path d="M401.894 538.384L397.364 535.756L397.261 498.31L401.779 500.938L401.894 538.384Z" fill="#9EDBF0"/>
<path d="M409.363 487.843L404.822 485.215L456.075 455.654L460.604 458.282L409.363 487.843Z" fill="#9EDBF0"/>
<path d="M401.779 500.938L397.261 498.31C397.238 493.499 400.636 487.637 404.833 485.215L409.363 487.843C405.153 490.254 401.779 496.127 401.779 500.938Z" fill="#9EDBF0"/>
<path d="M460.605 458.282C464.802 455.871 468.188 457.814 468.211 462.624L468.314 500.081C468.279 501.281 467.57 524.055 449.647 540.212C449.887 539.492 454.382 525.894 451.26 518.627L409.5 542.714C405.314 545.137 401.894 543.206 401.894 538.395L401.779 500.95C401.768 496.139 405.154 490.277 409.363 487.855L460.605 458.282Z" fill="#CCEBF4"/>
<path d="M452.77 474.485C454.268 473.617 455.503 474.303 455.503 476.051C455.515 477.776 454.279 479.902 452.781 480.77L417.335 501.213C415.825 502.081 414.59 501.373 414.59 499.647C414.578 497.899 415.814 495.808 417.312 494.928L452.77 474.485Z" fill="#D66867"/>
<path d="M452.77 487.306C454.268 486.449 455.503 487.123 455.503 488.871C455.515 490.597 454.279 492.711 452.781 493.579L417.335 514.033C415.825 514.902 414.59 514.193 414.59 512.468C414.578 510.719 415.814 508.628 417.312 507.748L452.77 487.306Z" fill="#D66867"/>
<path d="M452.77 500.127C454.268 499.258 455.503 499.944 455.503 501.681C455.515 503.406 454.279 505.532 452.781 506.389L417.335 526.843C415.825 527.711 414.59 527.003 414.59 525.289C414.578 523.54 415.814 521.438 417.312 520.569L452.77 500.127Z" fill="#D66867"/>
<path d="M276.489 541.343L281.018 538.715C280.778 538.007 276.283 524.397 279.394 517.13L274.876 519.758C271.753 527.014 276.249 540.623 276.489 541.343Z" fill="#9EDBF0"/>
<path d="M264.662 456.271C264.445 456.408 264.216 456.534 263.987 456.659C262.706 457.402 261.425 458.145 260.155 458.899C261.528 458.099 263.427 458.202 265.531 459.425L270.061 456.797C267.945 455.574 266.034 455.471 264.662 456.271Z" fill="#9EDBF0"/>
<path d="M322.034 544.371L326.552 541.743C327.913 540.955 328.76 539.275 328.76 536.887L324.242 539.515C324.23 541.903 323.395 543.583 322.034 544.371Z" fill="#9EDBF0"/>
<path d="M324.242 539.526L328.76 536.898L328.875 499.453L324.345 502.069L324.242 539.526Z" fill="#9EDBF0"/>
<path d="M316.784 488.974L321.302 486.357L270.049 456.796L265.52 459.413L316.784 488.974Z" fill="#9EDBF0"/>
<path d="M324.345 502.069L328.863 499.441C328.874 494.631 325.488 488.757 321.302 486.346L316.784 488.974C320.97 491.397 324.356 497.259 324.345 502.069Z" fill="#9EDBF0"/>
<path d="M265.52 459.413C261.333 457.002 257.936 458.945 257.925 463.767L257.811 501.212C257.856 502.412 258.554 525.197 276.477 541.343C276.248 540.623 271.742 527.025 274.853 519.758L316.613 543.845C320.811 546.268 324.219 544.337 324.242 539.526L324.345 502.069C324.356 497.259 320.971 491.397 316.773 488.974L265.52 459.413Z" fill="#CCEBF4"/>
<path d="M273.366 475.616C271.868 474.748 270.633 475.434 270.621 477.171C270.621 478.896 271.845 481.021 273.355 481.89L308.812 502.344C310.311 503.212 311.546 502.504 311.546 500.778C311.557 499.03 310.322 496.939 308.824 496.059L273.366 475.616Z" fill="#D66867"/>
<path d="M273.366 488.437C271.868 487.569 270.633 488.254 270.621 490.002C270.621 491.728 271.845 493.842 273.355 494.71L308.812 515.164C310.311 516.033 311.546 515.324 311.546 513.599C311.557 511.85 310.322 509.748 308.824 508.879L273.366 488.437Z" fill="#D66867"/>
<path d="M273.366 501.258C271.868 500.39 270.633 501.064 270.621 502.812C270.621 504.538 271.845 506.663 273.355 507.532L308.812 527.985C310.311 528.854 311.546 528.145 311.546 526.431C311.557 524.683 310.322 522.581 308.824 521.712L273.366 501.258Z" fill="#D66867"/>
<path d="M204.246 652.297C204.246 652.297 199.934 654.834 202.737 657.427C205.539 660.021 205.619 657.462 211.773 662.947C217.949 668.431 219.196 663.998 219.459 663.084C219.722 662.181 217.217 659.45 215.89 658.239C214.529 657.027 209.073 652.365 209.073 652.365L204.921 651.108L204.246 652.297Z" fill="#181817"/>
<path d="M239.452 647.943C239.452 647.943 242.323 649.258 241.111 650.777C239.887 652.308 235.666 653.942 234.9 654.914C234.134 655.874 230.393 658.467 229.375 658.353C227.671 658.17 226.047 657.61 227.603 653.223C229.147 648.846 235.506 646.606 239.452 647.943Z" fill="#181817"/>
<path d="M212.539 566.665C212.539 566.665 203.32 577.623 213.786 592.18C213.786 592.18 222.021 614.131 221.426 618.668C220.843 623.238 218.189 634.334 222.078 643.018C222.078 643.018 226.23 652.251 226.596 654.571C227.168 658.273 230.622 655.816 230.897 653.074C231.48 647.486 229.307 638.493 229.604 634.197C230.588 620.119 231.103 612.783 228.941 603.562C226.802 594.374 227.237 574.206 227.237 574.206C227.237 574.206 215.868 573.475 212.539 566.665Z" fill="#D258A1"/>
<path d="M222.192 566.127C222.192 566.127 211.418 576.412 219.63 592.032L219.093 617.719C219.093 617.719 209.451 627.386 204.692 652.068C204.692 652.068 207.701 657.359 209.897 653.839C212.081 650.331 229.135 626.141 231.24 618.051C233.344 609.961 243.17 585.302 240.39 569.875C240.379 569.887 231.972 571.018 222.192 566.127Z" fill="#E16CA9"/>
<path d="M239.498 532.064C239.498 532.064 225.087 515.77 218.464 521.346C218.464 521.346 209.359 525.757 211.784 541.469C214.232 557.181 215.696 557.843 211.864 567.27C211.864 567.27 225.052 583.439 240.882 572.287C240.882 572.287 238.984 560.826 240.859 556.244C243.627 549.467 247.493 541.057 243.307 536.167C239.098 531.287 239.498 532.064 239.498 532.064Z" fill="#7FCFF4"/>
<path d="M239.452 538.212C236.433 536.018 231.514 538.098 233.733 542.714C235.952 547.319 251.291 561.02 260.818 560.46C260.807 560.46 266.617 558.129 239.452 538.212Z" fill="#EFB184"/>
<path d="M260.567 560.483C260.567 560.483 265.828 559.991 275.39 553.672C275.39 553.672 281.876 554.427 284.426 545.354C284.426 545.354 284.289 543.88 280.434 547.41C280.434 547.41 277.907 549.307 278.467 546.793C279.028 544.257 278.787 542.577 277.472 544.542C276.145 546.519 273.972 550.176 273.972 550.176L256.083 554.564L260.567 560.483Z" fill="#EFB184"/>
<path d="M236.982 536.167C235.3 536.212 232.761 536.772 232.086 540.703C231.446 544.428 240.836 552.736 244.222 554.541C244.222 554.541 251.325 552.187 250.067 544.794C250.067 544.805 241.648 536.075 236.982 536.167Z" fill="#4EBBE7"/>
<path d="M237.497 522.729L234.923 531.139C234.923 531.139 226.756 533.664 222.845 526.283L225.43 517.85C225.43 517.85 231.355 522.032 237.497 522.729Z" fill="#EFB184"/>
<path d="M238.011 496.744C238.011 496.744 244.554 498.001 246.041 503.349C247.55 508.697 248.191 516.307 244.302 519.735C240.162 523.414 241.34 526.374 242.609 528.088C243.867 529.802 224.034 532.407 218.464 518.912C218.464 518.912 219.162 488.403 238.011 496.744Z" fill="#25170D"/>
<g opacity="0.5">
<path opacity="0.8" d="M439.684 677.916C462.16 690.874 498.475 690.874 520.825 677.904C543.163 664.935 543.026 643.921 520.562 630.952C498.063 617.994 461.76 617.994 439.41 630.952C417.072 643.921 417.209 664.935 439.684 677.916Z" fill="#FDFEFF"/>
<path opacity="0.6667" d="M432.581 657.565C459.014 672.168 501.712 672.168 527.973 657.553C554.235 642.939 554.086 619.262 527.665 604.67C501.22 590.067 458.534 590.067 432.261 604.67C406.011 619.274 406.16 642.95 432.581 657.565Z" fill="#FDFEFF"/>
<path opacity="0.5333" d="M425.479 637.225C455.858 653.463 504.938 653.463 535.122 637.225C565.307 620.976 565.135 594.626 534.768 578.4C504.377 562.163 455.309 562.163 425.124 578.4C394.939 594.626 395.111 620.965 425.479 637.225Z" fill="#FDFEFF"/>
<path opacity="0.4" d="M418.375 616.874C452.7 634.757 508.163 634.757 542.259 616.874C576.367 598.98 576.173 569.979 541.859 552.107C507.534 534.225 452.071 534.225 417.964 552.107C383.867 569.979 384.062 598.98 418.375 616.874Z" fill="#FDFEFF"/>
<path opacity="0.2667" d="M411.273 596.523C449.555 616.04 511.389 616.04 549.408 596.523C587.439 576.983 587.222 545.32 548.962 525.814C510.691 506.298 448.846 506.298 410.827 525.814C372.795 545.331 373.013 576.995 411.273 596.523Z" fill="#FDFEFF"/>
<path opacity="0.1333" d="M404.169 576.184C446.398 597.346 514.625 597.346 556.557 576.184C598.511 555.01 598.271 520.684 556.065 499.533C513.847 478.371 445.62 478.371 403.678 499.533C361.723 520.684 361.963 554.998 404.169 576.184Z" fill="#FDFEFF"/>
</g>
<g opacity="0.5">
<path opacity="0.8" d="M179.449 674.351C201.925 687.309 238.24 687.309 260.59 674.339C282.928 661.37 282.791 640.345 260.327 627.398C237.84 614.44 201.524 614.44 179.175 627.398C156.848 640.356 156.985 661.37 179.449 674.351Z" fill="#FDFEFF"/>
<path opacity="0.6667" d="M172.346 654C198.779 668.603 241.465 668.603 267.738 653.988C294 639.374 293.851 615.697 267.429 601.105C240.996 586.502 198.299 586.502 172.026 601.105C145.776 615.709 145.936 639.385 172.346 654Z" fill="#FDFEFF"/>
<path opacity="0.5333" d="M165.243 633.66C195.623 649.898 244.703 649.898 274.876 633.66C305.06 617.411 304.889 591.061 274.521 574.835C244.142 558.598 195.062 558.598 164.877 574.835C134.716 591.061 134.887 617.4 165.243 633.66Z" fill="#FDFEFF"/>
<path opacity="0.4" d="M158.14 613.309C192.477 631.192 247.928 631.192 282.024 613.309C316.132 595.415 315.938 566.413 281.624 548.542C247.299 530.659 191.836 530.659 157.728 548.542C123.643 566.413 123.838 595.415 158.14 613.309Z" fill="#FDFEFF"/>
<path opacity="0.2667" d="M151.049 592.969C189.332 612.486 251.165 612.486 289.185 592.969C327.216 573.43 326.998 541.766 288.739 522.261C250.467 502.732 188.622 502.732 150.603 522.261C112.572 541.766 112.789 573.43 151.049 592.969Z" fill="#FDFEFF"/>
<path opacity="0.1333" d="M143.946 572.618C186.186 593.781 254.402 593.781 296.333 572.618C338.287 551.444 338.058 517.118 295.841 495.967C253.624 474.805 185.397 474.805 143.454 495.967C101.5 517.118 101.74 551.444 143.946 572.618Z" fill="#FDFEFF"/>
</g>
<path d="M348.284 250.189V343.557L363.188 347.031C367.477 349.522 387.265 327.697 391.588 325.206L409.237 315.024L406.377 313.379C404.948 312.556 403.792 310.557 403.804 308.923C403.804 307.289 404.97 306.626 406.4 307.449L414.395 312.053L416.603 310.785L418.055 309.94L418.136 309.894L406.423 303.141C404.993 302.318 403.838 300.318 403.85 298.684C403.85 297.05 405.016 296.387 406.446 297.21L419.691 304.855C420.675 305.415 421.521 306.534 421.956 307.711L423.214 306.991L425.57 305.632L424.815 291.931L348.284 250.189ZM403.85 288.446C403.85 286.812 405.016 286.149 406.446 286.972L419.691 294.616C421.121 295.439 422.276 297.439 422.265 299.073C422.265 300.707 421.098 301.369 419.668 300.547L406.423 292.902C404.993 292.079 403.85 290.08 403.85 288.446ZM397.41 284.732C397.41 286.366 396.243 287.029 394.814 286.206L381.569 278.562C380.139 277.739 378.984 275.739 378.995 274.105C378.995 272.471 380.162 271.808 381.591 272.631L394.836 280.276C396.255 281.098 397.41 283.098 397.41 284.732ZM397.376 294.97C397.376 296.605 396.209 297.267 394.779 296.445L381.534 288.8C380.104 287.977 378.949 285.978 378.961 284.344C378.961 282.71 380.127 282.047 381.557 282.87L394.802 290.514C396.232 291.337 397.387 293.336 397.376 294.97ZM397.353 305.209C397.353 306.843 396.186 307.506 394.756 306.683L381.511 299.038C380.082 298.216 378.926 296.216 378.938 294.582C378.938 292.948 380.104 292.285 381.534 293.108L394.779 300.752C396.198 301.575 397.353 303.575 397.353 305.209ZM378.903 304.832C378.903 303.198 380.07 302.535 381.5 303.358L394.745 311.002C396.175 311.825 397.33 313.825 397.319 315.459C397.319 317.093 396.152 317.755 394.722 316.933L381.477 309.288C380.047 308.466 378.892 306.466 378.903 304.832ZM372.544 270.392C372.544 272.026 371.377 272.688 369.948 271.866L356.702 264.221C355.273 263.398 354.117 261.399 354.129 259.765C354.129 258.131 355.296 257.468 356.725 258.291L369.97 265.935C371.4 266.758 372.555 268.757 372.544 270.392ZM372.521 280.63C372.521 282.264 371.354 282.927 369.925 282.104L356.68 274.459C355.25 273.637 354.095 271.637 354.106 270.003C354.106 268.369 355.273 267.706 356.702 268.529L369.948 276.173C371.366 276.996 372.521 278.996 372.521 280.63ZM372.487 290.868C372.487 292.502 371.32 293.165 369.89 292.342L356.645 284.698C355.216 283.875 354.06 281.875 354.072 280.241C354.072 278.607 355.238 277.945 356.668 278.767L369.913 286.412C371.343 287.235 372.498 289.234 372.487 290.868ZM354.037 290.491C354.037 288.857 355.204 288.194 356.634 289.017L369.879 296.662C371.309 297.484 372.464 299.484 372.452 301.118C372.452 302.752 371.286 303.415 369.856 302.592L356.611 294.948C355.193 294.125 354.037 292.125 354.037 290.491Z" fill="url(#paint5_linear)"/>
<path d="M425.456 339.855L428.281 309.505C428.281 309.505 421.773 311.459 421.441 311.676C421.121 311.894 407.121 321.538 406.469 321.652C405.817 321.755 395.18 326.2 395.18 326.2C395.18 326.2 398.542 332.485 398.542 332.919C398.542 333.353 411.89 339.855 411.89 339.855C411.89 339.855 418.948 343.112 419.6 342.243C420.252 341.375 425.456 339.855 425.456 339.855Z" fill="url(#paint6_linear)"/>
<path d="M310.653 211.166C311.351 210.755 312.323 210.812 313.387 211.429C315.515 212.652 317.23 215.623 317.219 218.057C317.219 219.268 316.784 220.125 316.098 220.525L314.531 221.428C315.217 221.028 315.652 220.171 315.652 218.96C315.663 216.526 313.948 213.555 311.82 212.332C310.756 211.715 309.784 211.658 309.086 212.069L310.653 211.166Z" fill="url(#paint7_linear)"/>
<path d="M311.832 212.344C309.704 211.121 307.977 212.104 307.977 214.538C307.966 216.971 309.681 219.942 311.809 221.176C313.936 222.399 315.663 221.416 315.663 218.983C315.675 216.537 313.959 213.566 311.832 212.344Z" fill="url(#paint8_linear)"/>
<path d="M369.81 399.697L369.41 392.167L369.982 391.835L370.382 399.366C370.405 399.891 370.245 400.223 369.982 400.383L369.41 400.714C369.685 400.566 369.845 400.223 369.81 399.697Z" fill="url(#paint9_linear)"/>
<path d="M359.917 386.693L367.397 399.571C367.683 400.074 368.037 400.417 368.381 400.623C369.135 401.057 369.867 400.771 369.81 399.708L369.41 392.178L359.917 386.693Z" fill="url(#paint10_linear)"/>
<path d="M359.024 398.28L363.611 395.617C362.982 395.983 362.593 396.748 362.593 397.857C362.582 400.074 364.137 402.759 366.07 403.867C367.042 404.427 367.912 404.473 368.552 404.107L363.965 406.77C363.336 407.135 362.456 407.09 361.483 406.53C359.562 405.421 358.006 402.725 358.006 400.519C358.006 399.422 358.395 398.645 359.024 398.28Z" fill="url(#paint11_linear)"/>
<path d="M362.341 398.017C360.42 396.909 358.853 397.8 358.841 400.005C358.83 402.222 360.385 404.907 362.318 406.016C364.24 407.124 365.807 406.233 365.818 404.028C365.818 401.822 364.263 399.125 362.341 398.017Z" fill="url(#paint12_linear)"/>
<path d="M361.667 392.269C362.799 391.606 364.366 391.709 366.105 392.703C369.547 394.692 372.327 399.502 372.315 403.456C372.315 405.421 371.618 406.804 370.497 407.455L365.91 410.118C367.031 409.467 367.729 408.084 367.729 406.118C367.74 402.165 364.961 397.354 361.518 395.366C359.779 394.372 358.212 394.269 357.08 394.932L361.667 392.269Z" fill="url(#paint13_linear)"/>
<path d="M367.729 406.13C367.717 410.084 364.915 411.672 361.472 409.695C358.029 407.707 355.25 402.896 355.261 398.943C355.273 394.989 358.075 393.401 361.518 395.377C364.961 397.366 367.74 402.176 367.729 406.13ZM361.483 406.53C363.405 407.638 364.972 406.747 364.983 404.542C364.995 402.325 363.439 399.64 361.506 398.531C359.585 397.423 358.018 398.314 358.006 400.52C358.006 402.736 359.562 405.422 361.483 406.53Z" fill="url(#paint14_linear)"/>
<path d="M362.822 396.749L369.559 392.829L369.524 392.109L362.788 396.017L362.822 396.749Z" fill="url(#paint15_linear)"/>
<path d="M362.788 396.017L353.283 390.544L353.889 391.595L362.822 396.749L362.788 396.017Z" fill="url(#paint16_linear)"/>
<path d="M362.673 403.833L362.273 396.303L362.845 395.972L363.245 403.502C363.268 404.028 363.108 404.359 362.845 404.519L362.273 404.85C362.547 404.69 362.708 404.359 362.673 403.833Z" fill="url(#paint17_linear)"/>
<path d="M353.351 390.487L353.363 390.498L360.02 386.625H360.031L360.488 386.362L369.993 391.835L369.422 392.167L362.787 396.017H362.776L362.284 396.303L352.779 390.818L353.351 390.487Z" fill="url(#paint18_linear)"/>
<path d="M352.779 390.818L360.26 403.696C360.546 404.199 360.9 404.542 361.243 404.748C361.998 405.182 362.73 404.896 362.673 403.833L362.273 396.303L352.779 390.818Z" fill="url(#paint19_linear)"/>
<path d="M327.445 375.792L327.044 368.262L327.616 367.93L328.017 375.46C328.04 375.986 327.879 376.317 327.616 376.477L327.044 376.809C327.319 376.66 327.479 376.317 327.445 375.792Z" fill="url(#paint20_linear)"/>
<path d="M317.551 362.777L325.031 375.655C325.317 376.158 325.672 376.5 326.015 376.706C326.77 377.14 327.502 376.855 327.445 375.792L327.044 368.262L317.551 362.777Z" fill="url(#paint21_linear)"/>
<path d="M316.659 374.375L321.245 371.712C320.616 372.078 320.227 372.844 320.227 373.952C320.216 376.157 321.771 378.854 323.704 379.963C324.677 380.522 325.557 380.568 326.186 380.203L321.6 382.865C320.971 383.231 320.09 383.185 319.118 382.625C317.196 381.517 315.641 378.82 315.641 376.614C315.641 375.518 316.03 374.741 316.659 374.375Z" fill="url(#paint22_linear)"/>
<path d="M319.976 374.112C318.054 373.004 316.487 373.895 316.476 376.101C316.464 378.306 318.02 381.003 319.953 382.111C321.874 383.219 323.441 382.328 323.453 380.123C323.453 377.917 321.897 375.221 319.976 374.112Z" fill="url(#paint23_linear)"/>
<path d="M319.301 368.364C320.433 367.702 322 367.805 323.739 368.799C327.182 370.787 329.961 375.598 329.95 379.551C329.95 381.517 329.252 382.899 328.131 383.551L323.544 386.213C324.665 385.562 325.363 384.179 325.363 382.214C325.374 378.26 322.595 373.449 319.152 371.461C317.414 370.467 315.847 370.364 314.714 371.027L319.301 368.364Z" fill="url(#paint24_linear)"/>
<path d="M325.363 382.214C325.351 386.167 322.549 387.756 319.106 385.779C315.664 383.79 312.884 378.98 312.896 375.026C312.907 371.072 315.709 369.484 319.152 371.461C322.595 373.449 325.374 378.271 325.363 382.214ZM319.118 382.625C321.039 383.733 322.606 382.842 322.618 380.637C322.629 378.431 321.074 375.735 319.141 374.626C317.219 373.518 315.652 374.409 315.641 376.614C315.641 378.82 317.196 381.517 319.118 382.625Z" fill="url(#paint25_linear)"/>
<path d="M320.456 372.832L327.193 368.924L327.159 368.205L320.422 372.113L320.456 372.832Z" fill="url(#paint26_linear)"/>
<path d="M320.422 372.112L310.917 366.639L311.523 367.69L320.456 372.832L320.422 372.112Z" fill="url(#paint27_linear)"/>
<path d="M320.308 379.928L319.907 372.398L320.479 372.066L320.879 379.597C320.902 380.122 320.742 380.454 320.479 380.614L319.907 380.945C320.182 380.785 320.342 380.454 320.308 379.928Z" fill="url(#paint28_linear)"/>
<path d="M310.985 366.582H310.997L317.654 362.72H317.665L318.123 362.445L327.628 367.93L327.056 368.262L320.422 372.112H320.41L319.918 372.398L310.414 366.913L310.985 366.582Z" fill="url(#paint29_linear)"/>
<path d="M310.414 366.913L317.894 379.791C318.18 380.294 318.534 380.637 318.878 380.842C319.633 381.277 320.365 380.991 320.307 379.928L319.907 372.398L310.414 366.913Z" fill="url(#paint30_linear)"/>
<path d="M300.017 329.845L303.436 331.33L307.188 329.148L307.142 345.168C307.131 349.773 310.379 355.407 314.394 357.715L372.098 391.001C373.905 392.041 374.489 394.406 373.299 396.12C373.276 396.143 373.265 396.166 373.242 396.2C372.167 397.709 370.108 398.143 368.507 397.217L310.631 363.828C304.729 360.423 299.948 352.15 299.971 345.385L300.017 329.845Z" fill="url(#paint31_linear)"/>
<path d="M309.373 213.92C309.853 213.635 310.528 213.68 311.271 214.103C312.747 214.949 313.936 217.017 313.936 218.708C313.936 219.554 313.639 220.137 313.159 220.422L266.526 247.492C267.007 247.218 267.304 246.624 267.304 245.778C267.304 244.087 266.114 242.03 264.639 241.173C263.895 240.75 263.221 240.705 262.74 240.99L309.373 213.92Z" fill="url(#paint32_linear)"/>
<path d="M265.428 241.516C263.952 240.67 262.751 241.344 262.751 243.036C262.751 244.727 263.941 246.784 265.416 247.641C266.892 248.486 268.093 247.812 268.093 246.121C268.093 244.43 266.903 242.361 265.428 241.516Z" fill="url(#paint33_linear)"/>
<path d="M268.322 246.144C266.046 243.584 269.637 239.985 272.165 242.304C272.176 242.316 272.188 242.327 272.199 242.338L277.484 247.309C282.025 251.594 285.387 258.107 286.028 263.912L288.087 282.389L285.49 283.898C283.797 282.915 282.368 280.664 282.139 278.596L280.538 264.209C280.046 259.764 277.472 254.771 273.995 251.503L268.585 246.418C268.505 246.326 268.413 246.235 268.322 246.144Z" fill="url(#paint34_linear)"/>
<path d="M310.345 222.582C308.069 220.022 311.66 216.423 314.188 218.742C314.199 218.754 314.211 218.765 314.222 218.776L319.507 223.747C324.047 228.032 327.41 234.545 328.051 240.35L330.11 258.827L327.513 260.336C325.82 259.353 324.391 257.102 324.162 255.034L322.561 240.647C322.069 236.202 319.495 231.209 316.018 227.941L310.608 222.856C310.528 222.776 310.436 222.684 310.345 222.582Z" fill="url(#paint35_linear)"/>
<path d="M408.208 378.249L407.808 370.719L408.379 370.387L408.78 377.917C408.803 378.443 408.643 378.774 408.379 378.934L407.808 379.266C408.071 379.106 408.231 378.774 408.208 378.249Z" fill="url(#paint36_linear)"/>
<path d="M398.314 365.234L405.794 378.112C406.08 378.615 406.435 378.957 406.778 379.163C407.533 379.597 408.265 379.312 408.208 378.249L407.807 370.719L398.314 365.234Z" fill="url(#paint37_linear)"/>
<path d="M397.411 376.832L401.997 374.169C401.368 374.535 400.979 375.301 400.979 376.409C400.968 378.614 402.523 381.311 404.456 382.42C405.429 382.979 406.309 383.025 406.938 382.66L402.352 385.322C401.723 385.688 400.842 385.642 399.87 385.082C397.948 383.974 396.393 381.277 396.393 379.071C396.404 377.963 396.793 377.186 397.411 376.832Z" fill="url(#paint38_linear)"/>
<path d="M400.728 376.558C398.806 375.449 397.239 376.34 397.228 378.546C397.216 380.763 398.772 383.448 400.705 384.556C402.626 385.665 404.193 384.773 404.205 382.568C404.216 380.363 402.661 377.666 400.728 376.558Z" fill="url(#paint39_linear)"/>
<path d="M400.064 370.821C401.196 370.159 402.763 370.262 404.502 371.256C407.945 373.244 410.724 378.055 410.713 382.008C410.713 383.974 410.015 385.356 408.894 386.008L404.308 388.67C405.429 388.019 406.126 386.636 406.126 384.671C406.138 380.717 403.358 375.906 399.915 373.918C398.177 372.924 396.61 372.821 395.478 373.484L400.064 370.821Z" fill="url(#paint40_linear)"/>
<path d="M406.126 384.671C406.115 388.624 403.312 390.213 399.87 388.236C396.427 386.248 393.647 381.437 393.659 377.483C393.67 373.53 396.472 371.93 399.915 373.918C403.347 375.906 406.126 380.717 406.126 384.671ZM399.87 385.071C401.791 386.179 403.358 385.288 403.369 383.082C403.381 380.866 401.825 378.18 399.892 377.072C397.971 375.964 396.404 376.855 396.392 379.06C396.392 381.277 397.948 383.962 399.87 385.071Z" fill="url(#paint41_linear)"/>
<path d="M401.208 375.289L407.956 371.37L407.922 370.65L401.173 374.569L401.208 375.289Z" fill="url(#paint42_linear)"/>
<path d="M401.173 374.569L391.668 369.084L392.286 370.136L401.208 375.289L401.173 374.569Z" fill="url(#paint43_linear)"/>
<path d="M401.07 382.374L400.67 374.844L401.242 374.512L401.642 382.042C401.665 382.568 401.505 382.899 401.242 383.059L400.67 383.391C400.933 383.242 401.093 382.899 401.07 382.374Z" fill="url(#paint44_linear)"/>
<path d="M391.749 369.027L391.76 369.039L398.417 365.165L398.886 364.902L408.391 370.376L407.807 370.707L401.173 374.569L401.162 374.558L400.67 374.844L391.177 369.359L391.749 369.027Z" fill="url(#paint45_linear)"/>
<path d="M391.177 369.359L398.657 382.237C398.943 382.74 399.298 383.082 399.641 383.288C400.396 383.722 401.128 383.437 401.07 382.374L400.67 374.844L391.177 369.359Z" fill="url(#paint46_linear)"/>
<path d="M365.842 354.333L365.441 346.803L366.013 346.471L366.414 354.001C366.437 354.527 366.276 354.858 366.013 355.018L365.441 355.35C365.704 355.201 365.865 354.858 365.842 354.333Z" fill="url(#paint47_linear)"/>
<path d="M355.948 341.329L363.428 354.207C363.714 354.71 364.069 355.053 364.412 355.258C365.167 355.693 365.899 355.407 365.842 354.344L365.441 346.814L355.948 341.329Z" fill="url(#paint48_linear)"/>
<path d="M355.056 352.916L359.642 350.253C359.013 350.619 358.624 351.385 358.624 352.493C358.613 354.698 360.168 357.395 362.101 358.504C363.074 359.063 363.954 359.109 364.583 358.744L359.997 361.406C359.368 361.772 358.487 361.726 357.515 361.166C355.593 360.058 354.038 357.361 354.038 355.156C354.038 354.059 354.427 353.282 355.056 352.916Z" fill="url(#paint49_linear)"/>
<path d="M358.361 352.653C356.44 351.545 354.873 352.436 354.861 354.642C354.85 356.847 356.406 359.544 358.339 360.652C360.26 361.76 361.827 360.869 361.838 358.664C361.85 356.458 360.294 353.762 358.361 352.653Z" fill="url(#paint50_linear)"/>
<path d="M357.698 346.905C358.83 346.243 360.397 346.346 362.136 347.34C365.579 349.328 368.358 354.139 368.347 358.092C368.347 360.058 367.649 361.44 366.528 362.092L361.941 364.754C363.062 364.103 363.76 362.72 363.76 360.755C363.771 356.801 360.992 351.99 357.549 350.002C355.811 349.008 354.244 348.905 353.111 349.568L357.698 346.905Z" fill="url(#paint51_linear)"/>
<path d="M363.76 360.766C363.748 364.72 360.946 366.308 357.503 364.331C354.06 362.343 351.281 357.533 351.293 353.579C351.304 349.625 354.106 348.037 357.549 350.014C360.98 351.991 363.76 356.813 363.76 360.766ZM357.503 361.166C359.425 362.275 360.992 361.383 361.003 359.178C361.015 356.961 359.459 354.276 357.526 353.168C355.605 352.059 354.038 352.95 354.026 355.156C354.026 357.361 355.582 360.058 357.503 361.166Z" fill="url(#paint52_linear)"/>
<path d="M358.841 351.373L365.59 347.465L365.555 346.746L358.807 350.654L358.841 351.373Z" fill="url(#paint53_linear)"/>
<path d="M358.807 350.653L349.302 345.18L349.92 346.231L358.841 351.373L358.807 350.653Z" fill="url(#paint54_linear)"/>
<path d="M358.704 358.469L358.304 350.939L358.876 350.607L359.276 358.138C359.299 358.663 359.139 358.995 358.876 359.155L358.304 359.486C358.567 359.326 358.727 358.995 358.704 358.469Z" fill="url(#paint55_linear)"/>
<path d="M349.382 345.123H349.394L356.051 341.261L356.52 340.986L366.025 346.471L365.441 346.803L358.807 350.653H358.796L358.304 350.939L348.811 345.454L349.382 345.123Z" fill="url(#paint56_linear)"/>
<path d="M348.811 345.454L356.291 358.332C356.577 358.835 356.931 359.178 357.275 359.383C358.03 359.818 358.762 359.532 358.704 358.469L358.304 350.939L348.811 345.454Z" fill="url(#paint57_linear)"/>
<path d="M338.402 308.386L341.822 309.871L345.574 307.688L345.528 323.709C345.517 328.314 348.765 333.947 352.78 336.255L410.484 369.542C412.291 370.581 412.874 372.947 411.685 374.661C411.662 374.684 411.651 374.707 411.628 374.741C410.553 376.249 408.494 376.683 406.892 375.758L349.017 342.369C343.115 338.964 338.334 330.691 338.357 323.926L338.402 308.386Z" fill="url(#paint58_linear)"/>
<path d="M282.047 270.506C282.047 271.808 288.361 330.142 290.157 331.193L361.77 347.911C366.059 350.402 385.846 328.577 390.17 326.086L407.819 315.904L404.959 314.259C403.529 313.436 402.374 311.436 402.386 309.802C402.386 308.168 403.552 307.506 404.982 308.328L412.977 312.933L415.185 311.665L416.637 310.819L416.717 310.774L405.005 304.02C403.575 303.198 402.42 301.198 402.431 299.564C402.431 297.93 403.598 297.267 405.028 298.09L418.273 305.735C419.257 306.294 420.103 307.414 420.538 308.591L421.796 307.871L424.266 306.443L426.714 305.026L431.907 302.032C433.703 300.992 434.743 299.655 434.743 298.364C434.743 297.062 433.76 295.77 431.964 294.731L342.497 242.784C340.358 241.539 337.475 240.922 334.582 240.922C331.688 240.922 328.794 241.539 326.632 242.784L284.918 266.849C283.088 267.866 282.059 269.203 282.047 270.506ZM402.443 289.314C402.443 287.68 403.609 287.017 405.039 287.84L418.284 295.485C419.714 296.307 420.869 298.307 420.858 299.941C420.858 301.575 419.691 302.238 418.261 301.415L405.016 293.771C403.587 292.948 402.431 290.948 402.443 289.314ZM396.003 285.601C396.003 287.235 394.837 287.897 393.407 287.075L380.162 279.43C378.732 278.607 377.577 276.608 377.588 274.974C377.588 273.34 378.755 272.677 380.185 273.5L393.43 281.144C394.848 281.967 396.003 283.955 396.003 285.601ZM395.969 295.839C395.969 297.473 394.802 298.136 393.373 297.313L380.127 289.668C378.698 288.846 377.542 286.846 377.554 285.212C377.554 283.578 378.721 282.915 380.15 283.738L393.395 291.382C394.825 292.205 395.969 294.205 395.969 295.839ZM395.946 306.077C395.946 307.711 394.779 308.374 393.35 307.551L380.105 299.907C378.675 299.084 377.52 297.084 377.531 295.45C377.531 293.816 378.698 293.154 380.127 293.976L393.373 301.621C394.791 302.444 395.946 304.443 395.946 306.077ZM377.497 305.7C377.497 304.066 378.663 303.403 380.093 304.226L393.338 311.871C394.768 312.693 395.923 314.693 395.912 316.327C395.912 317.961 394.745 318.624 393.315 317.801L380.07 310.157C378.641 309.334 377.485 307.334 377.497 305.7ZM371.137 271.26C371.137 272.894 369.971 273.557 368.541 272.734L355.296 265.09C353.866 264.267 352.711 262.267 352.722 260.633C352.722 258.999 353.889 258.336 355.319 259.159L368.564 266.804C369.993 267.626 371.149 269.626 371.137 271.26ZM371.114 281.498C371.114 283.132 369.948 283.795 368.518 282.972L355.273 275.328C353.843 274.505 352.688 272.505 352.699 270.871C352.699 269.237 353.866 268.575 355.296 269.397L368.541 277.042C369.959 277.865 371.114 279.864 371.114 281.498ZM371.08 291.737C371.08 293.371 369.913 294.034 368.484 293.211L355.239 285.566C353.809 284.744 352.654 282.744 352.665 281.11C352.665 279.476 353.832 278.813 355.261 279.636L368.507 287.28C369.936 288.103 371.08 290.103 371.08 291.737ZM352.631 291.36C352.631 289.726 353.797 289.063 355.227 289.886L368.472 297.53C369.902 298.353 371.057 300.353 371.046 301.987C371.046 303.621 369.879 304.283 368.449 303.461L355.204 295.816C353.774 294.993 352.631 292.994 352.631 291.36Z" fill="#1C1E47"/>
<path d="M296.631 329.422L338.345 305.358L338.299 305.38L338.654 305.175C340.621 304.043 343.778 303.781 345.711 304.592L423.512 337.672L389.873 359.349C389.873 359.349 360.912 361.006 360.146 361.006C359.391 361.006 312.438 343.774 312.118 343.66C311.786 343.58 296.631 329.422 296.631 329.422Z" fill="#BD2025"/>
<path opacity="0.1" d="M379.796 331.045C379.853 331.056 379.899 331.068 379.956 331.068C382.964 331.536 385.069 334.29 384.657 337.307L381.214 362.948C380.951 364.902 379.498 366.49 377.565 366.925C377.531 366.936 377.508 366.936 377.474 366.948C374.408 367.633 371.538 365.188 371.732 362.057L373.31 336.187C373.505 332.884 376.524 330.508 379.796 331.045Z" fill="white"/>
<path d="M263.266 238.157C263.964 237.745 264.936 237.802 266 238.42C268.127 239.642 269.843 242.613 269.832 245.047C269.832 246.258 269.397 247.115 268.711 247.515L267.144 248.418C267.83 248.018 268.265 247.161 268.265 245.95C268.276 243.516 266.56 240.545 264.433 239.322C263.369 238.705 262.397 238.648 261.699 239.059L263.266 238.157Z" fill="url(#paint59_linear)"/>
<path d="M264.444 239.334C262.317 238.111 260.59 239.094 260.59 241.528C260.578 243.962 262.294 246.933 264.422 248.167C266.549 249.389 268.276 248.407 268.276 245.973C268.276 243.527 266.56 240.556 264.444 239.334Z" fill="url(#paint60_linear)"/>
<path d="M284.015 275.545L373.482 327.491C378.298 330.291 386.133 330.291 390.971 327.491L432.685 303.426C437.535 300.627 437.557 296.102 432.742 293.302L343.275 241.356C338.459 238.556 330.624 238.556 325.786 241.356L284.072 265.421C279.234 268.22 279.2 272.745 284.015 275.545ZM282.048 270.506C282.048 269.214 283.088 267.866 284.884 266.826L326.598 242.762C328.76 241.516 331.654 240.899 334.548 240.899C337.441 240.899 340.324 241.516 342.463 242.762L431.93 294.708C433.726 295.747 434.721 297.039 434.709 298.341C434.709 299.632 433.668 300.969 431.873 302.009L424.61 306.191L421.762 307.837L390.159 326.063C385.847 328.554 378.584 328.554 374.294 326.063L284.827 274.117C283.043 273.088 282.048 271.797 282.048 270.506Z" fill="url(#paint61_linear)"/>
<path d="M370.302 307.688L365.944 313.185L353.671 316.716L399.286 343.054L403.781 336.393L415.928 334.039L370.302 307.688Z" fill="#D3D3DD"/>
<path d="M359.779 250.349L355.765 317.207L399.091 342.197L397.261 271.957L359.779 250.349Z" fill="url(#paint62_linear)"/>
<path d="M409.74 264.712L413.766 333.684L402.9 335.913L399.091 342.197L397.261 271.957L401.196 267.009L409.74 264.712Z" fill="url(#paint63_linear)"/>
<path d="M409.74 264.712L401.196 267.009L397.261 271.957L359.779 250.349L368.323 248.052L372.27 243.093L409.74 264.712Z" fill="url(#paint64_linear)"/>
<path d="M372.407 243.812L368.644 248.532L361.209 250.531L397.124 271.248L400.876 266.529L408.322 264.529L372.407 243.812Z" fill="#EAAFD0"/>
<path d="M368.643 248.532L372.407 243.812L370.84 256.085L368.163 254.542L368.643 248.532Z" fill="#F0D8E9"/>
<path d="M401.196 267.009L402.9 335.912L399.091 342.197L397.261 271.957L401.196 267.009Z" fill="#F0D8E9"/>
<path d="M377.885 289.246C379.899 290.366 381.809 290.16 383.536 288.629C384.885 287.44 386.144 285.441 387.276 282.698C389.186 278.047 390.101 272.757 390.113 272.7L389.335 272.106C389.301 272.311 385.743 292.719 377.874 288.354C370.005 283.978 365.853 259.285 365.807 259.033L365.029 258.771C365.041 258.828 366.104 265.215 368.175 272.083C369.399 276.139 370.725 279.579 372.132 282.298C373.939 285.783 375.872 288.126 377.885 289.246Z" fill="#D3D3DD"/>
<path d="M377.405 289.428C379.407 290.582 381.306 290.399 383.067 288.903C384.44 287.737 385.732 285.76 386.899 283.029C388.889 278.413 389.884 273.134 389.895 273.076L389.129 272.459C389.095 272.665 385.206 293.016 377.405 288.514C369.605 284.012 365.853 259.261 365.819 259.01L365.052 258.736C365.064 258.804 366.024 265.203 367.98 272.094C369.136 276.173 370.417 279.624 371.766 282.366C373.505 285.909 375.404 288.285 377.405 289.428Z" fill="white"/>
<path d="M365.613 258.062C366.07 258.325 366.436 258.964 366.436 259.49C366.436 260.016 366.059 260.221 365.601 259.959C365.144 259.696 364.778 259.056 364.778 258.53C364.778 258.016 365.155 257.799 365.613 258.062Z" fill="#DFDFDE"/>
<path d="M389.586 271.899C390.044 272.162 390.41 272.802 390.41 273.328C390.41 273.853 390.033 274.059 389.575 273.796C389.117 273.533 388.751 272.894 388.751 272.368C388.763 271.842 389.129 271.625 389.586 271.899Z" fill="#DFDFDE"/>
<path d="M325.912 317.916L320.593 324.6L305.655 328.897L361.175 360.949L366.642 352.847L381.42 349.979L325.912 317.916Z" fill="#D3D3DD"/>
<path d="M313.101 260.324L308.206 329.49L360.946 359.908L358.704 286.629L313.101 260.324Z" fill="#F16A36"/>
<path d="M373.894 277.807L378.789 349.544L365.578 352.253L360.946 359.908L358.704 286.629L363.497 280.607L373.894 277.807Z" fill="url(#paint65_linear)"/>
<path d="M373.894 277.807L363.497 280.607L358.704 286.629L313.102 260.324L323.499 257.525L328.291 251.503L373.894 277.807Z" fill="url(#paint66_linear)"/>
<path d="M328.462 252.371L323.887 258.119L314.84 260.553L358.544 285.76L363.119 280.012L372.167 277.579L328.462 252.371Z" fill="url(#paint67_linear)"/>
<path d="M323.887 258.119L314.84 260.553L323.304 265.432L323.887 258.119Z" fill="#F0D8E9"/>
<path d="M363.497 280.607L365.578 352.253L360.946 359.909L358.704 286.629L363.497 280.607Z" fill="#F0D8E9"/>
<path d="M334.787 308.054C337.224 309.459 339.534 309.242 341.685 307.414C343.354 305.997 344.921 303.586 346.351 300.261C348.776 294.639 349.977 288.217 349.988 288.16L349.051 287.417C349.005 287.669 344.281 312.442 334.787 306.957C325.294 301.484 320.73 271.351 320.684 271.054L319.747 270.723C319.758 270.803 320.925 278.584 323.304 286.983C324.711 291.942 326.266 296.147 327.913 299.484C330.041 303.769 332.351 306.648 334.787 308.054Z" fill="white"/>
<path d="M320.193 269.717C320.754 270.037 321.2 270.814 321.2 271.454C321.2 272.094 320.742 272.345 320.193 272.026C319.633 271.706 319.187 270.929 319.187 270.289C319.187 269.649 319.633 269.397 320.193 269.717Z" fill="#DFDFDE"/>
<path d="M349.371 286.549C349.932 286.869 350.378 287.646 350.378 288.286C350.378 288.926 349.92 289.177 349.371 288.857C348.811 288.537 348.365 287.76 348.365 287.12C348.365 286.48 348.822 286.229 349.371 286.549Z" fill="#DFDFDE"/>
<path d="M281.887 270.312L288.658 332.37H288.704C288.922 333.673 290.008 334.861 291.998 335.73L366.436 367.965C369.719 369.393 374.569 369.507 378.881 368.49V328.165C377.428 327.811 376.078 327.297 374.9 326.623L285.433 274.677C283.328 273.454 282.15 271.9 281.887 270.312ZM364.732 330.885C364.732 332.519 363.565 333.182 362.136 332.359L348.89 324.714C347.461 323.892 346.305 321.892 346.317 320.258C346.317 318.624 347.484 317.961 348.913 318.784L362.158 326.428C363.577 327.251 364.732 329.251 364.732 330.885ZM364.698 341.123C364.698 342.757 363.531 343.42 362.101 342.597L348.856 334.953C347.426 334.13 346.271 332.13 346.283 330.496C346.283 328.862 347.449 328.2 348.879 329.022L362.124 336.667C363.554 337.49 364.709 339.489 364.698 341.123ZM346.248 340.735C346.248 339.101 347.415 338.438 348.845 339.261L362.09 346.905C363.52 347.728 364.675 349.728 364.663 351.362C364.663 352.996 363.497 353.658 362.067 352.836L348.822 345.191C347.404 344.38 346.248 342.38 346.248 340.735ZM339.866 316.544C339.866 318.178 338.699 318.841 337.27 318.018L324.024 310.374C322.595 309.551 321.439 307.551 321.451 305.917C321.451 304.283 322.618 303.621 324.047 304.443L337.292 312.088C338.722 312.911 339.877 314.91 339.866 316.544ZM339.843 326.783C339.843 328.417 338.676 329.079 337.247 328.257L324.002 320.612C322.572 319.789 321.417 317.79 321.428 316.156C321.428 314.522 322.595 313.859 324.024 314.682L337.27 322.326C338.688 323.149 339.843 325.149 339.843 326.783ZM339.809 337.021C339.809 338.655 338.642 339.318 337.212 338.495L323.967 330.851C322.538 330.028 321.382 328.028 321.394 326.394C321.394 324.76 322.56 324.097 323.99 324.92L337.235 332.565C338.665 333.387 339.82 335.387 339.809 337.021ZM321.359 336.644C321.359 335.01 322.526 334.347 323.956 335.17L337.201 342.814C338.631 343.637 339.786 345.637 339.774 347.271C339.774 348.905 338.608 349.568 337.178 348.745L323.933 341.1C322.515 340.278 321.359 338.278 321.359 336.644ZM315.011 302.204C315.011 303.838 313.845 304.5 312.415 303.678L299.17 296.033C297.74 295.21 296.585 293.211 296.596 291.577C296.596 289.943 297.763 289.28 299.193 290.103L312.438 297.747C313.856 298.57 315.011 300.57 315.011 302.204ZM314.977 312.442C314.977 314.076 313.81 314.739 312.381 313.916L299.136 306.272C297.706 305.449 296.551 303.449 296.562 301.815C296.562 300.181 297.729 299.518 299.158 300.341L312.404 307.986C313.833 308.808 314.989 310.808 314.977 312.442ZM314.954 322.692C314.954 324.326 313.788 324.989 312.358 324.166L299.113 316.521C297.683 315.699 296.528 313.699 296.539 312.065C296.539 310.431 297.706 309.768 299.136 310.591L312.381 318.235C313.799 319.047 314.954 321.046 314.954 322.692ZM296.505 322.303C296.505 320.669 297.672 320.007 299.101 320.829L312.346 328.474C313.776 329.296 314.931 331.296 314.92 332.93C314.92 334.564 313.753 335.227 312.323 334.404L299.078 326.76C297.649 325.937 296.493 323.937 296.505 322.303Z" fill="url(#paint68_linear)"/>
<path d="M280.48 271.168L287.252 333.227H287.297C287.515 334.53 288.601 335.718 290.592 336.587L365.03 368.822C369.685 370.833 377.463 370.239 382.415 367.496L425.056 343.888C427.583 342.494 428.887 340.803 428.933 339.215L436.253 299.255C435.91 300.775 434.732 302.249 432.708 303.415L390.994 327.48C386.144 330.279 378.309 330.279 373.505 327.48L284.038 275.533C281.91 274.322 280.732 272.768 280.48 271.168ZM363.314 331.753C363.314 333.387 362.147 334.05 360.717 333.227L347.472 325.583C346.043 324.76 344.887 322.76 344.899 321.126C344.899 319.492 346.065 318.83 347.495 319.652L360.74 327.297C362.17 328.119 363.325 330.108 363.314 331.753ZM363.291 341.992C363.291 343.626 362.124 344.288 360.695 343.466L347.449 335.821C346.02 334.998 344.864 332.999 344.876 331.365C344.876 329.731 346.043 329.068 347.472 329.891L360.717 337.535C362.136 338.358 363.291 340.358 363.291 341.992ZM344.842 341.603C344.842 339.969 346.008 339.306 347.438 340.129L360.683 347.774C362.113 348.596 363.268 350.596 363.257 352.23C363.257 353.864 362.09 354.527 360.66 353.704L347.415 346.06C345.985 345.237 344.842 343.249 344.842 341.603ZM338.459 317.413C338.459 319.047 337.293 319.709 335.863 318.887L322.618 311.242C321.188 310.419 320.033 308.42 320.044 306.786C320.044 305.152 321.211 304.489 322.641 305.312L335.886 312.956C337.304 313.779 338.459 315.779 338.459 317.413ZM338.425 327.651C338.425 329.285 337.258 329.948 335.828 329.125L322.583 321.481C321.154 320.658 319.998 318.658 320.01 317.024C320.01 315.39 321.177 314.727 322.606 315.55L335.851 323.195C337.281 324.017 338.436 326.017 338.425 327.651ZM338.402 337.889C338.402 339.523 337.235 340.186 335.806 339.363L322.561 331.719C321.131 330.896 319.976 328.897 319.987 327.262C319.987 325.628 321.154 324.966 322.583 325.788L335.828 333.433C337.247 334.256 338.402 336.255 338.402 337.889ZM319.953 337.512C319.953 335.878 321.119 335.216 322.549 336.038L335.794 343.683C337.224 344.505 338.379 346.505 338.368 348.139C338.368 349.773 337.201 350.436 335.771 349.613L322.526 341.969C321.096 341.146 319.941 339.146 319.953 337.512ZM313.593 303.072C313.593 304.706 312.427 305.369 310.997 304.546L297.752 296.902C296.322 296.079 295.167 294.079 295.178 292.445C295.178 290.811 296.345 290.148 297.775 290.971L311.02 298.616C312.449 299.438 313.605 301.438 313.593 303.072ZM313.57 313.31C313.57 314.944 312.404 315.607 310.974 314.784L297.729 307.14C296.299 306.317 295.144 304.318 295.155 302.684C295.155 301.049 296.322 300.387 297.752 301.209L310.997 308.854C312.415 309.677 313.57 311.676 313.57 313.31ZM313.536 323.549C313.536 325.183 312.369 325.846 310.94 325.023L297.695 317.378C296.265 316.556 295.11 314.556 295.121 312.922C295.121 311.288 296.288 310.625 297.717 311.448L310.962 319.092C312.392 319.915 313.547 321.915 313.536 323.549ZM295.087 323.172C295.087 321.538 296.253 320.875 297.683 321.698L310.928 329.342C312.358 330.165 313.513 332.165 313.502 333.799C313.502 335.433 312.335 336.095 310.905 335.273L297.66 327.628C296.242 326.805 295.087 324.806 295.087 323.172Z" fill="url(#paint69_linear)"/>
<path d="M422.939 307.174L421.773 307.848L390.17 326.074C385.858 328.565 378.595 328.565 374.305 326.074L292.502 278.573H289.265L373.493 327.479C378.309 330.279 386.144 330.279 390.982 327.479L426.199 307.174H422.939Z" fill="url(#paint70_linear)"/>
<defs>
<linearGradient id="paint0_linear" x1="249.008" y1="527.617" x2="335.622" y2="527.617" gradientUnits="userSpaceOnUse">
<stop stop-color="#505AA7"/>
<stop offset="0.4537" stop-color="#48489D"/>
<stop offset="1" stop-color="#3D2F90"/>
</linearGradient>
<linearGradient id="paint1_linear" x1="187.747" y1="543.022" x2="248.167" y2="543.022" gradientUnits="userSpaceOnUse">
<stop stop-color="#505AA7"/>
<stop offset="0.4537" stop-color="#48489D"/>
<stop offset="1" stop-color="#3D2F90"/>
</linearGradient>
<linearGradient id="paint2_linear" x1="142.181" y1="569.987" x2="204.789" y2="569.987" gradientUnits="userSpaceOnUse">
<stop stop-color="#E3D969"/>
<stop offset="0.1329" stop-color="#E4C478"/>
<stop offset="0.3394" stop-color="#E5A583"/>
<stop offset="0.5358" stop-color="#E68C88"/>
<stop offset="0.7169" stop-color="#E77A8A"/>
<stop offset="0.8772" stop-color="#E86E8B"/>
<stop offset="1" stop-color="#E8698B"/>
</linearGradient>
<linearGradient id="paint3_linear" x1="205.662" y1="510.092" x2="349.835" y2="510.092" gradientUnits="userSpaceOnUse">
<stop stop-color="#E3D969"/>
<stop offset="0.1329" stop-color="#E4C478"/>
<stop offset="0.3394" stop-color="#E5A583"/>
<stop offset="0.5358" stop-color="#E68C88"/>
<stop offset="0.7169" stop-color="#E77A8A"/>
<stop offset="0.8772" stop-color="#E86E8B"/>
<stop offset="1" stop-color="#E8698B"/>
</linearGradient>
<linearGradient id="paint4_linear" x1="264.057" y1="434.538" x2="459.904" y2="554.04" gradientUnits="userSpaceOnUse">
<stop stop-color="#505AA7"/>
<stop offset="0.1902" stop-color="#4B4DA0"/>
<stop offset="0.5052" stop-color="#433D97"/>
<stop offset="0.7854" stop-color="#3F3391"/>
<stop offset="1" stop-color="#3D2F90"/>
</linearGradient>
<linearGradient id="paint5_linear" x1="425.535" y1="298.711" x2="309.127" y2="298.711" gradientUnits="userSpaceOnUse">
<stop stop-color="#F9B9BA"/>
<stop offset="0.1746" stop-color="#F79F9E"/>
<stop offset="0.4283" stop-color="#F4817F"/>
<stop offset="0.6594" stop-color="#F2696A"/>
<stop offset="0.8577" stop-color="#F1595F"/>
<stop offset="1" stop-color="#F0535B"/>
</linearGradient>
<linearGradient id="paint6_linear" x1="411.733" y1="524.992" x2="411.733" y2="204.677" gradientUnits="userSpaceOnUse">
<stop stop-color="#F8B0B6"/>
<stop offset="0.00849748" stop-color="#F7AEB3"/>
<stop offset="0.2145" stop-color="#E6857E"/>
<stop offset="0.4112" stop-color="#DC665A"/>
<stop offset="0.5933" stop-color="#D54C40"/>
<stop offset="0.7578" stop-color="#CF3730"/>
<stop offset="0.8988" stop-color="#CD2728"/>
<stop offset="1" stop-color="#CB2026"/>
</linearGradient>
<linearGradient id="paint7_linear" x1="358.383" y1="195.994" x2="124.5" y2="299.941" gradientUnits="userSpaceOnUse">
<stop stop-color="#F9B9BA"/>
<stop offset="0.1746" stop-color="#F79F9E"/>
<stop offset="0.4283" stop-color="#F4817F"/>
<stop offset="0.6594" stop-color="#F2696A"/>
<stop offset="0.8577" stop-color="#F1595F"/>
<stop offset="1" stop-color="#F0535B"/>
</linearGradient>
<linearGradient id="paint8_linear" x1="311.819" y1="247.789" x2="311.819" y2="215.105" gradientUnits="userSpaceOnUse">
<stop stop-color="#F9B9BA"/>
<stop offset="0.1746" stop-color="#F79F9E"/>
<stop offset="0.4283" stop-color="#F4817F"/>
<stop offset="0.6594" stop-color="#F2696A"/>
<stop offset="0.8577" stop-color="#F1595F"/>
<stop offset="1" stop-color="#F0535B"/>
</linearGradient>
<linearGradient id="paint9_linear" x1="369.904" y1="376.867" x2="369.904" y2="411.717" gradientUnits="userSpaceOnUse">
<stop stop-color="#F3F4F5"/>
<stop offset="0.5523" stop-color="#C2D4EB"/>
<stop offset="1" stop-color="#A0BFE5"/>
</linearGradient>
<linearGradient id="paint10_linear" x1="353.361" y1="409.453" x2="367.036" y2="390.429" gradientUnits="userSpaceOnUse">
<stop stop-color="#F3F4F5"/>
<stop offset="0.5523" stop-color="#C2D4EB"/>
<stop offset="1" stop-color="#A0BFE5"/>
</linearGradient>
<linearGradient id="paint11_linear" x1="367.331" y1="398.881" x2="347.987" y2="411.557" gradientUnits="userSpaceOnUse">
<stop stop-color="#4790CD"/>
<stop offset="1" stop-color="#334B71"/>
</linearGradient>
<linearGradient id="paint12_linear" x1="343.54" y1="420.648" x2="361.625" y2="402.685" gradientUnits="userSpaceOnUse">
<stop stop-color="#4790CD"/>
<stop offset="1" stop-color="#334B71"/>
</linearGradient>
<linearGradient id="paint13_linear" x1="360.477" y1="392.511" x2="378.091" y2="418.03" gradientUnits="userSpaceOnUse">
<stop stop-color="#4790CD"/>
<stop offset="1" stop-color="#334B71"/>
</linearGradient>
<linearGradient id="paint14_linear" x1="338.02" y1="431.007" x2="367.37" y2="395.334" gradientUnits="userSpaceOnUse">
<stop stop-color="#4790CD"/>
<stop offset="1" stop-color="#334B71"/>
</linearGradient>
<linearGradient id="paint15_linear" x1="366.172" y1="376.867" x2="366.172" y2="411.716" gradientUnits="userSpaceOnUse">
<stop stop-color="#F3F4F5"/>
<stop offset="0.5523" stop-color="#C2D4EB"/>
<stop offset="1" stop-color="#A0BFE5"/>
</linearGradient>
<linearGradient id="paint16_linear" x1="362.819" y1="393.643" x2="353.282" y2="393.643" gradientUnits="userSpaceOnUse">
<stop stop-color="#F3F4F5"/>
<stop offset="0.5523" stop-color="#C2D4EB"/>
<stop offset="1" stop-color="#A0BFE5"/>
</linearGradient>
<linearGradient id="paint17_linear" x1="362.766" y1="376.866" x2="362.766" y2="411.717" gradientUnits="userSpaceOnUse">
<stop stop-color="#F3F4F5"/>
<stop offset="0.5523" stop-color="#C2D4EB"/>
<stop offset="1" stop-color="#A0BFE5"/>
</linearGradient>
<linearGradient id="paint18_linear" x1="395.48" y1="372.254" x2="350.872" y2="397.262" gradientUnits="userSpaceOnUse">
<stop stop-color="#F3F4F5"/>
<stop offset="0.5523" stop-color="#C2D4EB"/>
<stop offset="1" stop-color="#A0BFE5"/>
</linearGradient>
<linearGradient id="paint19_linear" x1="346.627" y1="421.164" x2="356.729" y2="399.64" gradientUnits="userSpaceOnUse">
<stop stop-color="#F3F4F5"/>
<stop offset="0.6435" stop-color="#ACC2E3"/>
<stop offset="1" stop-color="#8BADDB"/>
</linearGradient>
<linearGradient id="paint20_linear" x1="327.538" y1="352.958" x2="327.538" y2="387.809" gradientUnits="userSpaceOnUse">
<stop stop-color="#F3F4F5"/>
<stop offset="0.5523" stop-color="#C2D4EB"/>
<stop offset="1" stop-color="#A0BFE5"/>
</linearGradient>
<linearGradient id="paint21_linear" x1="310.995" y1="385.546" x2="324.67" y2="366.521" gradientUnits="userSpaceOnUse">
<stop stop-color="#F3F4F5"/>
<stop offset="0.5523" stop-color="#C2D4EB"/>
<stop offset="1" stop-color="#A0BFE5"/>
</linearGradient>
<linearGradient id="paint22_linear" x1="324.965" y1="374.973" x2="305.621" y2="387.649" gradientUnits="userSpaceOnUse">
<stop stop-color="#4790CD"/>
<stop offset="1" stop-color="#334B71"/>
</linearGradient>
<linearGradient id="paint23_linear" x1="301.175" y1="396.74" x2="319.259" y2="378.777" gradientUnits="userSpaceOnUse">
<stop stop-color="#4790CD"/>
<stop offset="1" stop-color="#334B71"/>
</linearGradient>
<linearGradient id="paint24_linear" x1="318.111" y1="368.603" x2="335.726" y2="394.123" gradientUnits="userSpaceOnUse">
<stop stop-color="#4790CD"/>
<stop offset="1" stop-color="#334B71"/>
</linearGradient>
<linearGradient id="paint25_linear" x1="295.655" y1="407.099" x2="325.004" y2="371.426" gradientUnits="userSpaceOnUse">
<stop stop-color="#4790CD"/>
<stop offset="1" stop-color="#334B71"/>
</linearGradient>
<linearGradient id="paint26_linear" x1="323.807" y1="352.959" x2="323.807" y2="387.809" gradientUnits="userSpaceOnUse">
<stop stop-color="#F3F4F5"/>
<stop offset="0.5523" stop-color="#C2D4EB"/>
<stop offset="1" stop-color="#A0BFE5"/>
</linearGradient>
<linearGradient id="paint27_linear" x1="320.454" y1="369.735" x2="310.916" y2="369.735" gradientUnits="userSpaceOnUse">
<stop stop-color="#F3F4F5"/>
<stop offset="0.5523" stop-color="#C2D4EB"/>
<stop offset="1" stop-color="#A0BFE5"/>
</linearGradient>
<linearGradient id="paint28_linear" x1="320.401" y1="352.958" x2="320.401" y2="387.809" gradientUnits="userSpaceOnUse">
<stop stop-color="#F3F4F5"/>
<stop offset="0.5523" stop-color="#C2D4EB"/>
<stop offset="1" stop-color="#A0BFE5"/>
</linearGradient>
<linearGradient id="paint29_linear" x1="353.115" y1="348.346" x2="308.507" y2="373.354" gradientUnits="userSpaceOnUse">
<stop stop-color="#F3F4F5"/>
<stop offset="0.5523" stop-color="#C2D4EB"/>
<stop offset="1" stop-color="#A0BFE5"/>
</linearGradient>
<linearGradient id="paint30_linear" x1="304.261" y1="397.256" x2="314.364" y2="375.732" gradientUnits="userSpaceOnUse">
<stop stop-color="#F3F4F5"/>
<stop offset="0.6435" stop-color="#ACC2E3"/>
<stop offset="1" stop-color="#8BADDB"/>
</linearGradient>
<linearGradient id="paint31_linear" x1="394.464" y1="409.172" x2="253.295" y2="305.634" gradientUnits="userSpaceOnUse">
<stop stop-color="#F3F4F5"/>
<stop offset="0.5523" stop-color="#C2D4EB"/>
<stop offset="1" stop-color="#A0BFE5"/>
</linearGradient>
<linearGradient id="paint32_linear" x1="397.126" y1="182.269" x2="163.242" y2="286.217" gradientUnits="userSpaceOnUse">
<stop stop-color="#922A8E"/>
<stop offset="0.2495" stop-color="#90298B"/>
<stop offset="1" stop-color="#8D2788"/>
</linearGradient>
<linearGradient id="paint33_linear" x1="265.421" y1="303.68" x2="265.421" y2="246.079" gradientUnits="userSpaceOnUse">
<stop stop-color="#F9B9BA"/>
<stop offset="0.1746" stop-color="#F79F9E"/>
<stop offset="0.4283" stop-color="#F4817F"/>
<stop offset="0.6594" stop-color="#F2696A"/>
<stop offset="0.8577" stop-color="#F1595F"/>
<stop offset="1" stop-color="#F0535B"/>
</linearGradient>
<linearGradient id="paint34_linear" x1="285.936" y1="257.156" x2="275.966" y2="263.942" gradientUnits="userSpaceOnUse">
<stop stop-color="#F3F4F5"/>
<stop offset="0.5523" stop-color="#C2D4EB"/>
<stop offset="1" stop-color="#A0BFE5"/>
</linearGradient>
<linearGradient id="paint35_linear" x1="327.961" y1="233.599" x2="317.992" y2="240.385" gradientUnits="userSpaceOnUse">
<stop stop-color="#F3F4F5"/>
<stop offset="0.5523" stop-color="#C2D4EB"/>
<stop offset="1" stop-color="#A0BFE5"/>
</linearGradient>
<linearGradient id="paint36_linear" x1="408.295" y1="355.409" x2="408.295" y2="390.259" gradientUnits="userSpaceOnUse">
<stop stop-color="#F3F4F5"/>
<stop offset="0.5523" stop-color="#C2D4EB"/>
<stop offset="1" stop-color="#A0BFE5"/>
</linearGradient>
<linearGradient id="paint37_linear" x1="391.752" y1="387.995" x2="405.427" y2="368.971" gradientUnits="userSpaceOnUse">
<stop stop-color="#F3F4F5"/>
<stop offset="0.5523" stop-color="#C2D4EB"/>
<stop offset="1" stop-color="#A0BFE5"/>
</linearGradient>
<linearGradient id="paint38_linear" x1="405.722" y1="377.423" x2="386.378" y2="390.1" gradientUnits="userSpaceOnUse">
<stop stop-color="#4790CD"/>
<stop offset="1" stop-color="#334B71"/>
</linearGradient>
<linearGradient id="paint39_linear" x1="381.932" y1="399.19" x2="400.017" y2="381.227" gradientUnits="userSpaceOnUse">
<stop stop-color="#4790CD"/>
<stop offset="1" stop-color="#334B71"/>
</linearGradient>
<linearGradient id="paint40_linear" x1="398.869" y1="371.053" x2="416.483" y2="396.573" gradientUnits="userSpaceOnUse">
<stop stop-color="#4790CD"/>
<stop offset="1" stop-color="#334B71"/>
</linearGradient>
<linearGradient id="paint41_linear" x1="376.412" y1="409.549" x2="405.761" y2="373.876" gradientUnits="userSpaceOnUse">
<stop stop-color="#4790CD"/>
<stop offset="1" stop-color="#334B71"/>
</linearGradient>
<linearGradient id="paint42_linear" x1="404.564" y1="355.408" x2="404.564" y2="390.259" gradientUnits="userSpaceOnUse">
<stop stop-color="#F3F4F5"/>
<stop offset="0.5523" stop-color="#C2D4EB"/>
<stop offset="1" stop-color="#A0BFE5"/>
</linearGradient>
<linearGradient id="paint43_linear" x1="401.211" y1="372.185" x2="391.673" y2="372.185" gradientUnits="userSpaceOnUse">
<stop stop-color="#F3F4F5"/>
<stop offset="0.5523" stop-color="#C2D4EB"/>
<stop offset="1" stop-color="#A0BFE5"/>
</linearGradient>
<linearGradient id="paint44_linear" x1="401.158" y1="355.408" x2="401.158" y2="390.259" gradientUnits="userSpaceOnUse">
<stop stop-color="#F3F4F5"/>
<stop offset="0.5523" stop-color="#C2D4EB"/>
<stop offset="1" stop-color="#A0BFE5"/>
</linearGradient>
<linearGradient id="paint45_linear" x1="433.872" y1="350.797" x2="389.264" y2="375.804" gradientUnits="userSpaceOnUse">
<stop stop-color="#F3F4F5"/>
<stop offset="0.5523" stop-color="#C2D4EB"/>
<stop offset="1" stop-color="#A0BFE5"/>
</linearGradient>
<linearGradient id="paint46_linear" x1="385.019" y1="399.706" x2="395.122" y2="378.182" gradientUnits="userSpaceOnUse">
<stop stop-color="#F3F4F5"/>
<stop offset="0.6435" stop-color="#ACC2E3"/>
<stop offset="1" stop-color="#8BADDB"/>
</linearGradient>
<linearGradient id="paint47_linear" x1="365.929" y1="331.501" x2="365.929" y2="366.352" gradientUnits="userSpaceOnUse">
<stop stop-color="#F3F4F5"/>
<stop offset="0.5523" stop-color="#C2D4EB"/>
<stop offset="1" stop-color="#A0BFE5"/>
</linearGradient>
<linearGradient id="paint48_linear" x1="349.386" y1="364.088" x2="363.062" y2="345.063" gradientUnits="userSpaceOnUse">
<stop stop-color="#F3F4F5"/>
<stop offset="0.5523" stop-color="#C2D4EB"/>
<stop offset="1" stop-color="#A0BFE5"/>
</linearGradient>
<linearGradient id="paint49_linear" x1="363.356" y1="353.516" x2="344.012" y2="366.192" gradientUnits="userSpaceOnUse">
<stop stop-color="#4790CD"/>
<stop offset="1" stop-color="#334B71"/>
</linearGradient>
<linearGradient id="paint50_linear" x1="339.566" y1="375.282" x2="357.651" y2="357.32" gradientUnits="userSpaceOnUse">
<stop stop-color="#4790CD"/>
<stop offset="1" stop-color="#334B71"/>
</linearGradient>
<linearGradient id="paint51_linear" x1="356.502" y1="347.145" x2="374.117" y2="372.665" gradientUnits="userSpaceOnUse">
<stop stop-color="#4790CD"/>
<stop offset="1" stop-color="#334B71"/>
</linearGradient>
<linearGradient id="paint52_linear" x1="334.046" y1="385.642" x2="363.395" y2="349.969" gradientUnits="userSpaceOnUse">
<stop stop-color="#4790CD"/>
<stop offset="1" stop-color="#334B71"/>
</linearGradient>
<linearGradient id="paint53_linear" x1="362.198" y1="331.502" x2="362.198" y2="366.351" gradientUnits="userSpaceOnUse">
<stop stop-color="#F3F4F5"/>
<stop offset="0.5523" stop-color="#C2D4EB"/>
<stop offset="1" stop-color="#A0BFE5"/>
</linearGradient>
<linearGradient id="paint54_linear" x1="358.845" y1="348.277" x2="349.307" y2="348.277" gradientUnits="userSpaceOnUse">
<stop stop-color="#F3F4F5"/>
<stop offset="0.5523" stop-color="#C2D4EB"/>
<stop offset="1" stop-color="#A0BFE5"/>
</linearGradient>
<linearGradient id="paint55_linear" x1="358.792" y1="331.501" x2="358.792" y2="366.351" gradientUnits="userSpaceOnUse">
<stop stop-color="#F3F4F5"/>
<stop offset="0.5523" stop-color="#C2D4EB"/>
<stop offset="1" stop-color="#A0BFE5"/>
</linearGradient>
<linearGradient id="paint56_linear" x1="391.506" y1="326.889" x2="346.899" y2="351.896" gradientUnits="userSpaceOnUse">
<stop stop-color="#F3F4F5"/>
<stop offset="0.5523" stop-color="#C2D4EB"/>
<stop offset="1" stop-color="#A0BFE5"/>
</linearGradient>
<linearGradient id="paint57_linear" x1="342.653" y1="375.798" x2="352.755" y2="354.274" gradientUnits="userSpaceOnUse">
<stop stop-color="#F3F4F5"/>
<stop offset="0.6435" stop-color="#ACC2E3"/>
<stop offset="1" stop-color="#8BADDB"/>
</linearGradient>
<linearGradient id="paint58_linear" x1="425.912" y1="376.078" x2="297.09" y2="292.284" gradientUnits="userSpaceOnUse">
<stop stop-color="#F3F4F5"/>
<stop offset="0.5523" stop-color="#C2D4EB"/>
<stop offset="1" stop-color="#A0BFE5"/>
</linearGradient>
<linearGradient id="paint59_linear" x1="360.483" y1="201.03" x2="126.595" y2="304.98" gradientUnits="userSpaceOnUse">
<stop stop-color="#F9B9BA"/>
<stop offset="0.1746" stop-color="#F79F9E"/>
<stop offset="0.4283" stop-color="#F4817F"/>
<stop offset="0.6594" stop-color="#F2696A"/>
<stop offset="0.8577" stop-color="#F1595F"/>
<stop offset="1" stop-color="#F0535B"/>
</linearGradient>
<linearGradient id="paint60_linear" x1="264.427" y1="274.779" x2="264.427" y2="242.095" gradientUnits="userSpaceOnUse">
<stop stop-color="#922A8E"/>
<stop offset="0.2495" stop-color="#90298B"/>
<stop offset="1" stop-color="#8D2788"/>
</linearGradient>
<linearGradient id="paint61_linear" x1="358.387" y1="277.805" x2="358.387" y2="512.606" gradientUnits="userSpaceOnUse">
<stop stop-color="#F9B9BA"/>
<stop offset="0.1746" stop-color="#F79F9E"/>
<stop offset="0.4283" stop-color="#F4817F"/>
<stop offset="0.6594" stop-color="#F2696A"/>
<stop offset="0.8577" stop-color="#F1595F"/>
<stop offset="1" stop-color="#F0535B"/>
</linearGradient>
<linearGradient id="paint62_linear" x1="355.762" y1="296.272" x2="399.095" y2="296.272" gradientUnits="userSpaceOnUse">
<stop stop-color="#19B2A3"/>
<stop offset="1" stop-color="#248E79"/>
</linearGradient>
<linearGradient id="paint63_linear" x1="501.102" y1="462.603" x2="395.283" y2="288.081" gradientUnits="userSpaceOnUse">
<stop stop-color="#4790CD"/>
<stop offset="1" stop-color="#334B71"/>
</linearGradient>
<linearGradient id="paint64_linear" x1="366.23" y1="264.525" x2="516.018" y2="207.872" gradientUnits="userSpaceOnUse">
<stop stop-color="#4790CD"/>
<stop offset="1" stop-color="#334B71"/>
</linearGradient>
<linearGradient id="paint65_linear" x1="463.534" y1="477.068" x2="352.127" y2="293.33" gradientUnits="userSpaceOnUse">
<stop stop-color="#FEDA1B"/>
<stop offset="1" stop-color="#F99D1C"/>
</linearGradient>
<linearGradient id="paint66_linear" x1="320.947" y1="277.58" x2="503.232" y2="208.637" gradientUnits="userSpaceOnUse">
<stop stop-color="#FEDA1B"/>
<stop offset="1" stop-color="#F99D1C"/>
</linearGradient>
<linearGradient id="paint67_linear" x1="343.5" y1="347.118" x2="343.5" y2="261.432" gradientUnits="userSpaceOnUse">
<stop stop-color="#FEDA1B"/>
<stop offset="1" stop-color="#F99D1C"/>
</linearGradient>
<linearGradient id="paint68_linear" x1="368.899" y1="319.733" x2="180.685" y2="319.733" gradientUnits="userSpaceOnUse">
<stop stop-color="#F9B9BA"/>
<stop offset="0.1746" stop-color="#F79F9E"/>
<stop offset="0.4283" stop-color="#F4817F"/>
<stop offset="0.6594" stop-color="#F2696A"/>
<stop offset="0.8577" stop-color="#F1595F"/>
<stop offset="1" stop-color="#F0535B"/>
</linearGradient>
<linearGradient id="paint69_linear" x1="570.123" y1="320.601" x2="294.908" y2="320.601" gradientUnits="userSpaceOnUse">
<stop stop-color="#922A8E"/>
<stop offset="0.2495" stop-color="#90298B"/>
<stop offset="1" stop-color="#8D2788"/>
</linearGradient>
<linearGradient id="paint70_linear" x1="357.726" y1="277.804" x2="357.726" y2="512.606" gradientUnits="userSpaceOnUse">
<stop stop-color="#F9B9BA"/>
<stop offset="0.1746" stop-color="#F79F9E"/>
<stop offset="0.4283" stop-color="#F4817F"/>
<stop offset="0.6594" stop-color="#F2696A"/>
<stop offset="0.8577" stop-color="#F1595F"/>
<stop offset="1" stop-color="#F0535B"/>
</linearGradient>
</defs>
</svg>
