<svg width="94" height="89" viewBox="0 0 94 89" fill="none" xmlns="http://www.w3.org/2000/svg">
<path fill-rule="evenodd" clip-rule="evenodd" d="M29.2703 13.0802C25.3371 13.0802 22.1357 16.9219 22.1357 21.6783V59.5468C22.1357 64.2117 25.3371 68.1449 29.2703 68.1449C33.2035 68.1449 36.4049 64.3032 36.4049 59.5468V21.5868C36.4049 16.9219 33.2035 13.0802 29.2703 13.0802ZM7.13463 0C3.20144 0 0 3.84173 0 8.59815V26.6177C0 31.2826 3.20144 35.2158 7.13463 35.2158C11.0678 35.2158 14.2693 31.3741 14.2693 26.6177V8.59815C14.2693 3.84173 11.0678 0 7.13463 0ZM72.5355 13.0802C68.6023 13.0802 65.4008 16.9219 65.4008 21.6783V59.5468C65.4008 64.2117 68.6023 68.1449 72.5355 68.1449C76.4687 68.1449 79.6701 64.3032 79.6701 59.5468V21.5868C79.6701 16.9219 76.4687 13.0802 72.5355 13.0802ZM94.6711 0C90.7379 0 87.5365 3.84173 87.5365 8.59815V26.6177C87.5365 31.2826 90.7379 35.2158 94.6711 35.2158C98.6043 35.2158 101.806 31.3741 101.806 26.6177V8.59815C101.806 3.84173 98.6043 0 94.6711 0ZM50.9486 44.7287C47.0154 44.7287 43.814 48.5704 43.814 53.3268V80.4018C43.814 85.0668 47.0154 89 50.9486 89C54.8818 89 58.0833 85.1583 58.0833 80.4018V53.2354C57.9918 48.5704 54.7903 44.7287 50.9486 44.7287Z" fill="url(#paint0_linear)"/>
<defs>
<linearGradient id="paint0_linear" x1="50.9029" y1="0" x2="50.9029" y2="89" gradientUnits="userSpaceOnUse">
<stop stop-color="#5173DB"/>
<stop offset="1" stop-color="#3D7FF6" stop-opacity="0"/>
</linearGradient>
</defs>
</svg>
