<svg width="102" height="63" viewBox="0 0 102 63" fill="none" xmlns="http://www.w3.org/2000/svg">
<path opacity="0.3" fill-rule="evenodd" clip-rule="evenodd" d="M29.2703 -12.9198C25.3371 -12.9198 22.1357 -9.07811 22.1357 -4.32169V33.5468C22.1357 38.2117 25.3371 42.1449 29.2703 42.1449C33.2035 42.1449 36.4049 38.3032 36.4049 33.5468V-4.41315C36.4049 -9.07811 33.2035 -12.9198 29.2703 -12.9198ZM7.13463 -26C3.20144 -26 0 -22.1583 0 -17.4019V0.617678C0 5.28263 3.20144 9.21583 7.13463 9.21583C11.0678 9.21583 14.2693 5.3741 14.2693 0.617678V-17.4019C14.2693 -22.1583 11.0678 -26 7.13463 -26ZM72.5355 -12.9198C68.6023 -12.9198 65.4008 -9.07811 65.4008 -4.32169V33.5468C65.4008 38.2117 68.6023 42.1449 72.5355 42.1449C76.4687 42.1449 79.6701 38.3032 79.6701 33.5468V-4.41315C79.6701 -9.07811 76.4687 -12.9198 72.5355 -12.9198ZM94.6711 -26C90.7379 -26 87.5365 -22.1583 87.5365 -17.4019V0.617678C87.5365 5.28263 90.7379 9.21583 94.6711 9.21583C98.6043 9.21583 101.806 5.3741 101.806 0.617678V-17.4019C101.806 -22.1583 98.6043 -26 94.6711 -26ZM50.9486 18.7287C47.0154 18.7287 43.814 22.5704 43.814 27.3268V54.4018C43.814 59.0668 47.0154 63 50.9486 63C54.8818 63 58.0833 59.1583 58.0833 54.4018V27.2354C57.9918 22.5704 54.7903 18.7287 50.9486 18.7287Z" fill="url(#paint0_linear)"/>
<defs>
<linearGradient id="paint0_linear" x1="50.9029" y1="-26" x2="50.9029" y2="63" gradientUnits="userSpaceOnUse">
<stop stop-color="#5173DB"/>
<stop offset="1" stop-color="#3D7FF6" stop-opacity="0"/>
</linearGradient>
</defs>
</svg>
