<svg width="679" height="344" viewBox="0 0 679 344" fill="none" xmlns="http://www.w3.org/2000/svg">
<mask id="mask0" mask-type="alpha" maskUnits="userSpaceOnUse" x="0" y="0" width="852" height="236">
<path d="M76.4751 190.744C104.591 153.551 113.344 109.815 157.71 109.815C202.076 109.815 205.971 213.803 242.97 213.803C279.969 213.803 294.442 170.426 331.441 163.571C368.44 156.717 383.256 224.688 417.582 224.688C451.891 224.688 454.564 123.49 501.962 115.592C549.376 107.693 557.46 227.022 583.196 227.022C608.932 227.022 609.372 196.896 635.744 196.896C662.1 196.896 649.924 239.376 677.339 233.077C704.754 226.777 699.881 207.993 737.858 216.985C775.835 225.978 773.895 236.977 795.687 233.077C817.479 229.176 812.882 218.585 832.441 227.022C851.69 235.345 852 235.476 852 235.476C852 235.476 851.707 235.231 832.441 219.646C812.882 203.816 817.479 223.66 795.687 230.988C773.895 238.299 775.851 217.671 737.858 200.829C699.881 183.971 704.754 219.172 677.339 230.988C649.924 242.803 662.1 163.18 635.744 163.18C609.389 163.18 608.932 219.646 583.196 219.646C557.46 219.646 549.376 -3.96566 501.962 10.8362C454.548 25.6381 451.891 215.256 417.582 215.256C383.272 215.256 368.44 87.8974 331.441 100.725C294.442 113.552 279.969 194.84 242.97 194.84C205.971 194.856 202.076 0 157.71 0C113.344 0 104.591 81.9244 76.4751 151.642C48.3593 221.343 0 235.492 0 235.492C0 235.492 48.3593 227.936 76.4751 190.744Z" fill="url(#paint0_linear)"/>
</mask>
<g mask="url(#mask0)">
<path d="M76.4751 190.744C104.591 153.551 113.344 109.815 157.71 109.815C202.076 109.815 205.971 213.803 242.97 213.803C279.969 213.803 294.442 170.426 331.441 163.571C368.44 156.717 383.256 224.688 417.582 224.688C451.891 224.688 454.564 123.49 501.962 115.592C549.376 107.693 557.46 227.022 583.196 227.022C608.932 227.022 609.372 196.896 635.744 196.896C662.1 196.896 649.924 239.376 677.339 233.077C704.754 226.777 699.881 207.993 737.858 216.985C775.835 225.978 773.895 236.977 795.687 233.077C817.479 229.176 812.882 218.585 832.441 227.022C851.69 235.345 852 235.476 852 235.476C852 235.476 851.707 235.231 832.441 219.646C812.882 203.816 817.479 223.66 795.687 230.988C773.895 238.299 775.851 217.671 737.858 200.829C699.881 183.971 704.754 219.172 677.339 230.988C649.924 242.803 662.1 163.18 635.744 163.18C609.389 163.18 608.932 219.646 583.196 219.646C557.46 219.646 549.376 -3.96566 501.962 10.8362C454.548 25.6381 451.891 215.256 417.582 215.256C383.272 215.256 368.44 87.8974 331.441 100.725C294.442 113.552 279.969 194.84 242.97 194.84C205.971 194.856 202.076 0 157.71 0C113.344 0 104.591 81.9244 76.4751 151.642C48.3593 221.343 0 235.492 0 235.492C0 235.492 48.3593 227.936 76.4751 190.744Z" fill="url(#paint1_linear)"/>
</g>
<mask id="mask1" mask-type="alpha" maskUnits="userSpaceOnUse" x="0" y="235" width="852" height="236">
<path d="M832.441 243.945C812.882 252.383 817.479 241.808 795.687 237.891C773.895 233.991 775.851 244.99 737.858 253.982C699.881 262.974 704.754 244.19 677.339 237.891C649.924 231.592 662.1 274.071 635.744 274.071C609.389 274.071 608.932 243.945 583.196 243.945C557.46 243.945 549.376 363.291 501.962 355.376C454.548 347.477 451.891 246.279 417.582 246.279C383.272 246.279 368.44 314.25 331.441 307.396C294.442 300.542 279.969 257.164 242.97 257.164C205.971 257.164 202.076 361.153 157.71 361.153C113.344 361.153 104.591 317.433 76.4751 280.224C48.3593 243.048 0 235.492 0 235.492C0 235.492 48.3593 249.657 76.4751 319.358C104.591 389.059 113.344 470.984 157.71 470.984C202.076 470.984 205.971 276.128 242.97 276.128C279.969 276.128 294.442 357.399 331.441 370.243C368.44 383.07 383.256 255.712 417.582 255.712C451.891 255.712 454.564 445.329 501.962 460.131C549.376 474.949 557.46 251.322 583.196 251.322C608.932 251.322 609.372 307.788 635.744 307.788C662.1 307.788 649.924 228.181 677.339 239.98C704.754 251.795 699.881 286.98 737.858 270.138C775.835 253.297 773.895 232.669 795.687 239.98C817.479 247.291 812.882 267.136 832.441 251.306C851.69 235.72 852 235.476 852 235.476C851.984 235.508 851.69 235.622 832.441 243.945Z" fill="url(#paint2_linear)"/>
</mask>
<g mask="url(#mask1)">
<path d="M832.441 243.945C812.882 252.383 817.479 241.808 795.687 237.891C773.895 233.991 775.851 244.99 737.858 253.982C699.881 262.974 704.754 244.19 677.339 237.891C649.924 231.592 662.1 274.071 635.744 274.071C609.389 274.071 608.932 243.945 583.196 243.945C557.46 243.945 549.376 363.291 501.962 355.376C454.548 347.477 451.891 246.279 417.582 246.279C383.272 246.279 368.44 314.25 331.441 307.396C294.442 300.542 279.969 257.164 242.97 257.164C205.971 257.164 202.076 361.153 157.71 361.153C113.344 361.153 104.591 317.433 76.4751 280.224C48.3593 243.048 0 235.492 0 235.492C0 235.492 48.3593 249.657 76.4751 319.358C104.591 389.059 113.344 470.984 157.71 470.984C202.076 470.984 205.971 276.128 242.97 276.128C279.969 276.128 294.442 357.399 331.441 370.243C368.44 383.07 383.256 255.712 417.582 255.712C451.891 255.712 454.564 445.329 501.962 460.131C549.376 474.949 557.46 251.322 583.196 251.322C608.932 251.322 609.372 307.788 635.744 307.788C662.1 307.788 649.924 228.181 677.339 239.98C704.754 251.795 699.881 286.98 737.858 270.138C775.835 253.297 773.895 232.669 795.687 239.98C817.479 247.291 812.882 267.136 832.441 251.306C851.69 235.72 852 235.476 852 235.476C851.984 235.508 851.69 235.622 832.441 243.945Z" fill="url(#paint3_linear)"/>
</g>
<defs>
<linearGradient id="paint0_linear" x1="0" y1="117.749" x2="851.991" y2="117.749" gradientUnits="userSpaceOnUse">
<stop stop-color="white"/>
<stop offset="1" stop-color="#1A1A1A"/>
</linearGradient>
<linearGradient id="paint1_linear" x1="0" y1="117.745" x2="852.012" y2="117.745" gradientUnits="userSpaceOnUse">
<stop stop-color="#6681F7"/>
<stop offset="1" stop-color="#4462E3"/>
</linearGradient>
<linearGradient id="paint2_linear" x1="0" y1="353.248" x2="851.996" y2="353.248" gradientUnits="userSpaceOnUse">
<stop stop-color="white"/>
<stop offset="1" stop-color="#1A1A1A"/>
</linearGradient>
<linearGradient id="paint3_linear" x1="0" y1="353.229" x2="852.012" y2="353.229" gradientUnits="userSpaceOnUse">
<stop stop-color="#6681F7"/>
<stop offset="1" stop-color="#4462E3"/>
</linearGradient>
</defs>
</svg>
