<svg width="253" height="384" viewBox="0 0 253 384" fill="none" xmlns="http://www.w3.org/2000/svg">
<path d="M219.172 375.216C205.538 366.708 196.429 352.139 180.574 349.846C159.295 346.764 142.58 368.448 121.649 373.741C99.0384 379.454 75.2205 373.291 50.8703 355.415C28.8845 339.27 19.1097 316.255 23.3574 290.608C30.5939 246.851 76.633 207.413 44.9133 164.987C31.3922 146.896 7.50264 135.726 1.53536 110.991C-4.44215 86.2047 7.41052 51.7842 30.3482 27.2947C62.897 -7.46363 94.9135 0.911124 95.6096 0.829219C97.4417 1.15684 140.809 9.28588 167.851 55.777C205.211 119.99 254.607 42.8361 322.755 32.9256C329.562 31.9325 337.443 31.4002 344.26 34.9118C357.719 41.843 359.347 59.6163 356.665 72.7416C352.571 92.6751 340.401 109.681 338.62 129.399C336.45 153.326 358.272 161.864 375.529 175.389C402.929 196.878 403.554 224.572 373.114 242.489C362.858 248.53 351.404 252.522 342.069 259.249C301.987 288.12 325.488 362.346 269.019 381.113C252.785 386.498 233.686 384.276 219.172 375.216ZM181.291 344.87C192.99 346.559 201.219 353.859 209.182 360.913C213.205 364.476 217.36 368.151 221.833 370.946C235.068 379.209 252.54 381.266 267.412 376.321C320.728 358.609 296.716 285.684 339.101 255.154C348.948 248.059 360.452 244.076 370.534 238.138C397.853 222.054 397.044 198.67 372.397 179.341C355.181 165.837 331.117 156.162 333.584 128.928C335.457 108.257 347.76 90.9654 351.711 71.7075C354.229 59.4116 352.182 44.6482 341.936 39.3654C336.378 36.4987 329.48 37.0106 323.451 37.8809C287.801 43.0716 261.025 65.5851 228.23 80.1539C200.4 92.5215 179.213 85.3651 163.46 58.2854C137.647 13.8725 96.5717 6.11207 94.7395 5.78445C43.9614 -2.98959 -4.04297 66.3837 6.42792 109.814C11.9551 132.747 34.9746 143.282 48.9358 161.967C82.7436 207.198 35.3329 248.99 28.3216 291.427C24.4014 315.108 33.47 336.393 53.8488 351.361C76.9298 368.305 99.325 374.192 120.41 368.868C128.189 366.902 135.415 362.398 143.071 357.616C155.231 350.04 167.074 342.812 181.291 344.87Z" fill="url(#paint0_linear)"/>
<path d="M243.297 357.985C209.152 357.985 203.686 331.735 182.795 328.704C164.535 326.053 150.093 344.594 132.038 349.078C112.498 353.941 91.9453 348.576 70.9319 333.127C51.9451 319.173 43.4701 299.28 47.0525 277.135C53.1324 239.49 92.4673 205.407 65.374 168.929C53.767 153.264 33.3267 143.579 28.2397 122.171C18.7412 81.9766 62.2215 18.8076 109.704 26.824V26.8548C117.002 27.4793 151.26 37.9938 172.304 73.8783C204.576 128.785 246.869 62.8519 305.785 54.559C311.67 53.7297 318.487 53.2997 324.393 56.3609C336.041 62.3912 337.515 77.7892 335.242 89.133C331.824 106.159 321.394 121.137 319.91 137.979C318.088 158.496 336.757 165.898 351.537 177.611C374.987 196.193 375.713 220.252 349.347 235.896C340.595 241.097 330.677 244.629 322.642 250.444C288.21 275.384 308.026 339.27 259.234 355.456C254.136 357.166 248.722 357.985 243.297 357.985ZM183.471 324.077C198.773 326.298 207.145 339.424 218.527 346.478C229.93 353.532 244.965 355.282 257.76 351.034C303.625 335.82 283.359 273.132 319.899 246.667C328.466 240.462 338.159 237.114 346.962 231.883C370.534 217.908 369.48 197.8 348.63 181.286C333.85 169.574 313.164 161.148 315.252 137.569C316.829 119.745 327.341 104.767 330.667 88.2116C332.776 77.6869 330.995 65.0326 322.254 60.5073C317.504 58.0502 311.598 58.4597 306.44 59.1866C275.785 63.4969 252.703 82.6933 224.392 95.1223C184.975 112.476 171.158 78.895 168.271 76.2433C154.535 52.8288 132.918 36.97 108.926 31.4312C65.374 24.0802 23.9203 83.5226 32.7945 121.096C37.4823 140.825 57.1447 149.958 69.1304 166.144C98.1787 205.253 57.5643 241.332 51.6687 277.882C48.3831 298.215 56.203 316.49 73.7057 329.36C93.542 343.949 112.785 349.047 130.912 344.532C137.595 342.874 143.829 339.024 150.42 334.95C160.881 328.51 171.158 322.295 183.471 324.077Z" fill="url(#paint1_linear)"/>
<path d="M212.949 325.694C203.02 319.603 196.378 309.221 185.026 307.573C169.817 305.361 157.595 320.749 142.437 324.435C125.978 328.448 108.67 323.882 91.0034 310.87C75.0259 299.096 67.8303 282.346 70.7577 263.692C75.6912 232.046 108.363 203.472 85.855 172.911C76.1927 159.704 59.1507 151.452 54.9644 133.382C47.1445 99.3096 83.8079 46.3173 123.818 52.839V52.8492C127.759 53.1051 136.838 56.4837 142.979 59.6985C152.652 64.7663 166.367 74.4823 176.766 91.9997C203.921 137.528 239.233 82.8673 288.824 76.2125C293.788 75.547 299.541 75.2194 304.546 77.8301C314.382 82.9697 315.703 95.972 313.83 105.555C311.015 119.991 302.407 132.368 301.199 146.589C299.725 163.697 315.263 169.983 327.545 179.873C347.269 195.712 347.658 216.106 325.58 229.333C318.251 233.746 309.93 236.787 303.215 241.681C274.269 262.802 290.687 316.193 249.448 329.851C237.401 333.823 223.43 332.093 212.949 325.694ZM185.641 303.293C198.568 305.177 205.61 316.122 215.201 322.009C224.771 327.855 237.381 329.288 248.087 325.746C286.532 313.02 269.94 260.601 300.667 238.189C307.862 232.937 315.999 230.06 323.349 225.627C342.704 214.027 342.356 197.298 324.833 183.231C312.499 173.311 295.181 166.113 296.89 146.221C298.18 131.14 306.869 118.67 309.582 104.736C311.291 95.972 309.766 85.437 302.54 81.6592C298.609 79.6116 293.686 79.9187 289.397 80.492C263.768 83.932 244.29 99.8113 220.523 110.08C200.216 118.905 184.689 113.704 173.061 94.2008C155.374 64.3978 127.575 57.9273 123.818 57.1901L123.798 57.2004C123.45 57.2925 101.894 51.2725 79.376 75.2911C63.6133 92.0918 55.3124 115.578 59.1711 132.399C62.9992 148.893 79.3452 156.684 89.3351 170.342C113.624 203.329 79.8058 233.685 75.0259 264.348C72.3647 281.333 78.9461 296.608 93.5725 307.378C110.164 319.592 126.265 323.923 141.423 320.227C147.012 318.866 152.242 315.681 157.78 312.313C166.705 306.877 175.272 301.788 185.641 303.293Z" fill="url(#paint2_linear)"/>
<path d="M209.837 300.928C201.772 296.055 196.347 287.752 187.248 286.421C174.975 284.639 165.18 296.864 152.826 299.761C139.632 302.873 125.19 299.014 111.065 288.581C98.0865 278.998 92.1909 265.382 94.4529 250.229C98.2503 224.552 124.167 201.578 106.316 176.853C98.5676 166.134 84.934 159.284 81.6688 144.552C75.4969 116.796 105.262 73.7757 137.923 78.8333V78.864C140.799 78.9767 147.555 81.0857 153.675 84.2288C161.526 88.2626 172.683 96.0231 181.229 110.1C203.195 146.323 231.69 102.842 271.864 97.8557C275.907 97.354 280.595 97.139 284.679 99.2993C292.704 103.538 293.86 114.155 292.407 121.966C290.257 133.535 283.41 143.784 282.489 155.179C281.363 168.898 293.267 173.648 303.564 182.105C319.316 195.005 319.838 211.724 301.834 222.74C299.347 224.265 296.726 225.596 294.198 226.876C279.51 234.34 274.178 238.138 267.023 265.525C262.847 281.486 258.538 297.99 239.684 304.215C230.011 307.399 218.578 306.17 209.837 300.928ZM187.821 282.5C198.363 284.035 204.106 292.82 211.884 297.529C219.622 302.167 229.807 303.293 238.435 300.447C269.479 290.199 256.552 248.069 281.455 229.702C291.864 222.023 310.391 217.959 311.363 203.687C311.783 197.534 308.118 190.961 301.046 185.166C291.138 177.027 277.207 171.078 278.538 154.861C279.52 142.668 286.429 132.45 288.507 121.239C289.715 114.749 288.947 106.026 282.827 102.801C279.705 101.152 275.774 101.367 272.345 101.787C233.543 106.609 202.048 152.056 177.841 112.158C163.225 88.0578 140.891 83.3176 137.995 82.8159L137.933 82.8467C137.647 82.9286 120.175 78.2088 101.966 97.6509C89.2738 111.196 82.5184 130.136 85.5378 143.702C88.4857 156.97 101.536 163.472 109.54 174.549C128.987 201.475 102.048 226.067 98.3834 250.823C96.3465 264.46 101.689 276.736 113.44 285.407C126.787 295.267 139.745 298.799 151.935 295.922C156.429 294.867 160.656 292.349 165.129 289.677C172.314 285.366 179.336 281.261 187.821 282.5Z" fill="url(#paint3_linear)"/>
<path d="M206.736 276.162C200.503 272.507 196.337 266.282 189.479 265.279C180.206 263.927 172.703 273.009 163.215 275.107C153.051 277.38 141.966 274.34 131.137 266.313C121.167 258.921 116.551 248.437 118.158 236.786C120.809 217.17 140.031 199.632 126.787 180.815C120.973 172.542 110.748 167.126 108.373 155.741C103.839 133.965 126.961 101.326 152.007 104.848C154.463 104.858 159.817 106.517 164.361 108.769C170.4 111.759 178.998 117.564 185.661 128.221C202.488 155.096 223.942 122.867 254.894 119.519C258.016 119.191 261.629 119.079 264.802 120.778C271.004 124.116 272.008 132.347 270.974 138.378C269.449 147.285 264.392 155.107 263.768 163.789C262.99 174.129 271.956 177.897 279.572 184.377C292.018 194.902 291.322 207.833 278.067 216.177C264.177 224.92 258.814 222.217 251.445 248.836C248.046 261.102 244.536 273.787 229.889 278.599C222.263 281.076 213.604 280.196 206.736 276.162ZM189.991 261.716C198.118 262.904 202.611 269.579 208.548 273.06C214.433 276.51 222.181 277.319 228.763 275.159C241.578 270.951 244.679 259.73 247.975 247.854C254.024 226.016 258.773 222.443 270.554 216.238C272.427 215.256 274.362 214.232 276.143 213.105C287.637 205.867 287.525 195.793 277.238 187.091C269.807 180.763 259.234 176.033 260.175 163.492C260.861 154.062 265.958 146.322 267.422 137.743C268.251 132.88 267.617 126.348 263.092 123.921C260.779 122.683 257.842 122.795 255.262 123.072C239.633 124.761 227.473 133.955 212.744 139.985C199.909 145.237 190.052 142.002 182.591 130.095C171.864 112.956 155.211 108.636 152.171 108.39L152.027 108.462C151.782 108.534 138.496 105.063 124.566 119.929C114.934 130.218 109.704 144.633 111.863 154.984C113.962 165.068 123.644 170.136 129.694 178.726C144.341 199.54 124.238 218.399 121.689 237.257C120.277 247.546 124.381 256.832 133.245 263.405C143.348 270.9 153.153 273.654 162.396 271.585C165.804 270.828 169.029 268.975 172.437 267.009C178.077 263.774 183.45 260.754 189.991 261.716Z" fill="url(#paint4_linear)"/>
<path d="M203.635 251.406C199.254 248.97 196.316 244.823 191.69 244.137C185.446 243.206 180.185 249.154 173.573 250.444C166.449 251.867 158.721 249.646 151.188 244.025C144.248 238.834 140.922 231.493 141.843 223.344C143.368 209.758 155.886 197.677 147.227 184.746C143.337 178.931 136.531 174.948 135.067 166.891C132.283 151.636 148.23 128.775 166.091 130.832C172.12 130.72 183.43 136.248 190.103 146.282C201.761 163.83 216.419 142.811 237.954 141.142C240.155 140.978 242.693 140.978 244.955 142.227C249.326 144.654 250.196 150.285 249.561 154.738C249.152 157.605 248.23 160.328 247.34 162.96C243.42 174.559 244.126 177.334 252.407 183.948C257.186 187.766 262.038 192.251 261.547 198.875C261.055 205.519 255.426 209.072 250.288 211.959C242.857 216.136 240.175 218.092 235.886 232.097C233.256 240.677 230.544 249.543 220.103 252.942C214.709 254.703 208.548 254.14 203.635 251.406ZM192.171 240.933C197.882 241.783 201.106 246.298 205.211 248.581C209.264 250.843 214.597 251.335 219.111 249.871C235.324 244.598 229.796 222.986 242.99 212.747C246.112 210.321 249.459 208.908 252.529 206.871C260.134 201.823 260.093 195.046 253.43 189.026C248.64 184.685 241.291 180.968 241.823 172.164C242.222 165.611 245.508 160.124 246.347 154.288C246.808 151.053 246.316 146.691 243.379 145.063C241.874 144.224 239.919 144.244 238.2 144.377C217.422 145.985 200.953 168.478 187.401 148.084C179.704 136.504 168.302 134.057 166.367 134.017L166.183 134.109C165.958 134.18 156.93 131.877 147.227 142.248C140.635 149.282 136.95 159.182 138.25 166.318C139.489 173.126 145.927 176.986 149.919 182.955C156.49 192.773 152.734 201.926 149.1 210.782C145.712 219.023 140.052 231.678 153.133 241.435C160.001 246.564 166.664 248.53 172.949 247.27C175.262 246.82 177.493 245.622 179.847 244.352C183.87 242.182 187.596 240.247 192.171 240.933Z" fill="url(#paint5_linear)"/>
<path d="M200.585 226.671C198.118 225.473 196.327 223.354 193.921 222.985C190.605 222.484 187.647 225.289 183.911 225.79C179.827 226.343 175.456 224.941 171.26 221.736C167.35 218.757 165.323 214.569 165.549 209.962C165.927 202.396 171.813 195.742 167.677 188.657C165.702 185.289 162.335 182.688 161.782 178.02C160.707 168.908 169.806 156.479 179.919 156.837C182.335 156.356 189.479 157.881 194.515 164.341C197.043 167.577 199.991 168.457 204.085 167.198C208.589 165.805 220.042 160.646 225.129 163.727C227.258 165.017 228.384 167.761 228.149 171.088C228.026 172.767 227.627 174.354 227.238 175.9C225.651 182.156 225.979 183.446 230.011 187.275C232.703 189.834 235.006 192.517 234.669 196.356C234.321 200.359 231.291 202.581 228.364 204.505C224.495 207.055 223.174 208.099 220.37 215.399C218.486 220.282 216.552 225.34 210.318 227.316C207.227 228.299 203.573 228.125 200.585 226.671ZM194.351 220.139C197.626 220.641 199.571 222.975 201.833 224.07C204.106 225.166 206.951 225.35 209.448 224.562C214.351 223.006 215.897 218.992 217.678 214.354C220.728 206.42 222.427 204.956 226.777 202.089C229.008 200.615 231.547 198.967 231.792 196.09C232.038 193.233 229.858 191.094 228.016 189.343C222.959 184.531 222.693 182.084 224.433 175.173C225.037 172.808 226.357 167.822 223.625 166.174C222.898 165.734 221.956 165.672 221.055 165.662C209.5 165.631 200.359 176.504 192.232 166.092C187.616 160.175 181.465 159.509 180.584 159.611L180.349 159.724L179.981 159.704C171.587 159.304 163.747 170.218 164.617 177.671C165.057 181.388 168.046 183.61 170.144 187.193C177.176 199.223 160.912 210.239 172.99 219.443C176.613 222.207 180.165 223.384 183.512 222.934C184.73 222.77 185.958 222.228 187.258 221.654C189.602 220.63 191.772 219.75 194.351 220.139Z" fill="url(#paint6_linear)"/>
<path d="M197.995 202.018C192.478 202.018 187.984 197.523 187.984 192.005C187.984 186.487 192.478 181.992 197.995 181.992C203.512 181.992 208.005 186.487 208.005 192.005C208.005 197.523 203.512 202.018 197.995 202.018ZM197.995 184.501C193.86 184.501 190.502 187.859 190.502 191.995C190.502 196.131 193.86 199.489 197.995 199.489C202.13 199.489 205.487 196.131 205.487 191.995C205.487 187.869 202.12 184.501 197.995 184.501Z" fill="url(#paint7_linear)"/>
<defs>
<linearGradient id="paint0_linear" x1="268.274" y1="455.094" x2="108.318" y2="-100.203" gradientUnits="userSpaceOnUse">
<stop stop-color="#FFCE62"/>
<stop offset="1" stop-color="#EC704A"/>
</linearGradient>
<linearGradient id="paint1_linear" x1="258.743" y1="419.418" x2="120.499" y2="-60.4586" gradientUnits="userSpaceOnUse">
<stop stop-color="#FFCE62"/>
<stop offset="1" stop-color="#EC704A"/>
</linearGradient>
<linearGradient id="paint2_linear" x1="249.234" y1="383.747" x2="132.703" y2="-20.672" gradientUnits="userSpaceOnUse">
<stop stop-color="#FFCE62"/>
<stop offset="1" stop-color="#EC704A"/>
</linearGradient>
<linearGradient id="paint3_linear" x1="239.716" y1="348.078" x2="144.891" y2="19.0819" gradientUnits="userSpaceOnUse">
<stop stop-color="#FFCE62"/>
<stop offset="1" stop-color="#EC704A"/>
</linearGradient>
<linearGradient id="paint4_linear" x1="230.195" y1="312.449" x2="157.064" y2="58.8616" gradientUnits="userSpaceOnUse">
<stop stop-color="#FFCE62"/>
<stop offset="1" stop-color="#EC704A"/>
</linearGradient>
<linearGradient id="paint5_linear" x1="220.669" y1="276.767" x2="169.238" y2="98.6006" gradientUnits="userSpaceOnUse">
<stop stop-color="#FFCE62"/>
<stop offset="1" stop-color="#EC704A"/>
</linearGradient>
<linearGradient id="paint6_linear" x1="211.152" y1="241.109" x2="181.366" y2="138.268" gradientUnits="userSpaceOnUse">
<stop stop-color="#FFCE62"/>
<stop offset="1" stop-color="#EC704A"/>
</linearGradient>
<linearGradient id="paint7_linear" x1="201.547" y1="205.725" x2="192.984" y2="176.908" gradientUnits="userSpaceOnUse">
<stop stop-color="#FFCE62"/>
<stop offset="1" stop-color="#EC704A"/>
</linearGradient>
</defs>
</svg>
