<svg width="693" height="370" viewBox="0 0 693 370" fill="none" xmlns="http://www.w3.org/2000/svg">
<g opacity="0.2">
<mask id="mask0" mask-type="alpha" maskUnits="userSpaceOnUse" x="87" y="0" width="670" height="370">
<path d="M103.049 172.358C118.414 159.938 114.803 175.508 131.922 181.244C149.042 186.98 147.518 170.809 177.352 157.582C207.186 144.368 203.357 171.974 224.894 181.244C246.431 190.514 236.866 128.042 257.57 128.042C278.275 128.042 278.621 172.345 298.838 172.345C319.056 172.345 325.42 -3.09863 362.668 8.51482C399.915 20.1283 402.002 168.901 428.968 168.901C455.934 168.901 467.573 68.9765 496.638 79.0406C525.704 89.1048 537.074 152.883 566.14 152.883C595.206 152.883 598.253 0 633.106 0C667.959 0 674.835 64.2773 696.922 118.964C719.01 173.664 757 184.765 757 184.765C757 184.765 719.01 195.879 696.922 250.566C674.835 305.253 667.972 369.543 633.106 369.543C598.253 369.543 595.193 216.661 566.127 216.661C537.061 216.661 525.691 280.426 496.626 290.503C467.56 300.567 455.921 200.643 428.955 200.643C401.989 200.643 399.902 349.415 362.655 361.029C325.42 372.642 319.069 197.185 298.851 197.185C278.633 197.185 278.288 241.488 257.583 241.488C236.879 241.488 246.443 179.029 224.907 188.286C203.37 197.557 207.198 225.163 177.365 211.949C147.531 198.735 149.054 182.55 131.935 188.286C114.816 194.023 118.427 209.593 103.061 197.185C87.9397 184.957 87.6964 184.765 87.6964 184.765C87.6964 184.765 87.9269 184.573 103.049 172.358Z" fill="url(#paint0_linear)"/>
</mask>
<g mask="url(#mask0)">
<path d="M103.049 172.358C118.414 159.938 114.803 175.508 131.922 181.244C149.042 186.98 147.518 170.809 177.352 157.582C207.186 144.368 203.357 171.974 224.894 181.244C246.431 190.514 236.866 128.042 257.57 128.042C278.275 128.042 278.621 172.345 298.838 172.345C319.056 172.345 325.42 -3.09863 362.668 8.51482C399.915 20.1283 402.002 168.901 428.968 168.901C455.934 168.901 467.573 68.9765 496.638 79.0406C525.704 89.1048 537.074 152.883 566.14 152.883C595.206 152.883 598.253 0 633.106 0C667.959 0 674.835 64.2773 696.922 118.964C719.01 173.664 757 184.765 757 184.765C757 184.765 719.01 195.879 696.922 250.566C674.835 305.253 667.972 369.543 633.106 369.543C598.253 369.543 595.193 216.661 566.127 216.661C537.061 216.661 525.691 280.426 496.626 290.503C467.56 300.567 455.921 200.643 428.955 200.643C401.989 200.643 399.902 349.415 362.655 361.029C325.42 372.642 319.069 197.185 298.851 197.185C278.633 197.185 278.288 241.488 257.583 241.488C236.879 241.488 246.443 179.029 224.907 188.286C203.37 197.557 207.198 225.163 177.365 211.949C147.531 198.735 149.054 182.55 131.935 188.286C114.816 194.023 118.427 209.593 103.061 197.185C87.9397 184.957 87.6964 184.765 87.6964 184.765C87.6964 184.765 87.9269 184.573 103.049 172.358Z" fill="url(#paint1_linear)"/>
</g>
<mask id="mask1" mask-type="alpha" maskUnits="userSpaceOnUse" x="62" y="86" width="695" height="198">
<path d="M78.887 178.145C94.8283 171.513 91.0767 179.823 108.823 182.896C126.57 185.956 124.982 177.326 155.93 170.271C186.865 163.216 182.896 177.953 205.227 182.896C227.557 187.838 217.634 154.509 239.107 154.509C260.579 154.509 260.938 178.158 281.898 178.158C302.859 178.158 309.453 84.5208 348.071 90.7308C386.701 96.9281 388.865 176.327 416.817 176.327C444.768 176.327 456.843 122.998 486.984 128.375C517.125 133.753 528.918 167.774 559.059 167.774C589.2 167.774 592.363 86.1853 628.509 86.1853C664.656 86.1853 671.775 120.488 694.682 149.682C717.614 178.837 757 184.765 757 184.765C757 184.765 717.614 190.694 694.707 219.874C671.801 249.068 664.681 283.371 628.535 283.371C592.389 283.371 589.213 201.782 559.085 201.782C528.944 201.782 517.151 235.816 487.01 241.194C456.868 246.571 444.794 193.242 416.842 193.242C388.891 193.242 386.727 272.641 348.096 278.838C309.479 285.035 302.885 191.411 281.924 191.411C260.963 191.411 260.605 215.06 239.132 215.06C217.659 215.06 227.583 181.731 205.252 186.673C182.922 191.615 186.891 206.353 155.956 199.298C125.008 192.243 126.596 183.613 108.849 186.673C91.1022 189.733 94.8411 198.043 78.9126 191.423C63.2274 184.893 62.9841 184.804 62.9841 184.791C62.9585 184.765 63.2018 184.663 78.887 178.145Z" fill="url(#paint2_linear)"/>
</mask>
<g mask="url(#mask1)">
<path d="M78.887 178.145C94.8283 171.513 91.0767 179.823 108.823 182.896C126.57 185.956 124.982 177.326 155.93 170.271C186.865 163.216 182.896 177.953 205.227 182.896C227.557 187.838 217.634 154.509 239.107 154.509C260.579 154.509 260.938 178.158 281.898 178.158C302.859 178.158 309.453 84.5208 348.071 90.7308C386.701 96.9281 388.865 176.327 416.817 176.327C444.768 176.327 456.843 122.998 486.984 128.375C517.125 133.753 528.918 167.774 559.059 167.774C589.2 167.774 592.363 86.1853 628.509 86.1853C664.656 86.1853 671.775 120.488 694.682 149.682C717.614 178.837 757 184.765 757 184.765C757 184.765 717.614 190.694 694.707 219.874C671.801 249.068 664.681 283.371 628.535 283.371C592.389 283.371 589.213 201.782 559.085 201.782C528.944 201.782 517.151 235.816 487.01 241.194C456.868 246.571 444.794 193.242 416.842 193.242C388.891 193.242 386.727 272.641 348.096 278.838C309.479 285.035 302.885 191.411 281.924 191.411C260.963 191.411 260.605 215.06 239.132 215.06C217.659 215.06 227.583 181.731 205.252 186.673C182.922 191.615 186.891 206.353 155.956 199.298C125.008 192.243 126.596 183.613 108.849 186.673C91.1022 189.733 94.8411 198.043 78.9126 191.423C63.2274 184.893 62.9841 184.804 62.9841 184.791C62.9585 184.765 63.2018 184.663 78.887 178.145Z" fill="url(#paint3_linear)"/>
</g>
<mask id="mask2" mask-type="alpha" maskUnits="userSpaceOnUse" x="44" y="179" width="13" height="13">
<path d="M44.6227 185.853C44.6227 189.119 47.2732 191.756 50.5255 191.756C53.7906 191.756 56.4282 189.119 56.4282 185.853C56.4282 182.588 53.7778 179.951 50.5255 179.951C47.2732 179.951 44.6227 182.588 44.6227 185.853Z" fill="url(#paint4_linear)"/>
</mask>
<g mask="url(#mask2)">
<path d="M44.6227 185.853C44.6227 189.119 47.2732 191.756 50.5255 191.756C53.7906 191.756 56.4282 189.119 56.4282 185.853C56.4282 182.588 53.7778 179.951 50.5255 179.951C47.2732 179.951 44.6227 182.588 44.6227 185.853Z" fill="url(#paint5_linear)"/>
</g>
<mask id="mask3" mask-type="alpha" maskUnits="userSpaceOnUse" x="22" y="179" width="13" height="13">
<path d="M22.5743 185.853C22.5743 189.119 25.2121 191.756 28.4771 191.756C31.7422 191.756 34.3799 189.119 34.3799 185.853C34.3799 182.588 31.7294 179.951 28.4771 179.951C25.2249 179.951 22.5743 182.588 22.5743 185.853Z" fill="url(#paint6_linear)"/>
</mask>
<g mask="url(#mask3)">
<path d="M22.5743 185.853C22.5743 189.119 25.2121 191.756 28.4771 191.756C31.7422 191.756 34.3799 189.119 34.3799 185.853C34.3799 182.588 31.7294 179.951 28.4771 179.951C25.2249 179.951 22.5743 182.588 22.5743 185.853Z" fill="url(#paint7_linear)"/>
</g>
<mask id="mask4" mask-type="alpha" maskUnits="userSpaceOnUse" x="0" y="179" width="12" height="13">
<path d="M0.000104904 185.853C0.000104904 189.119 2.65064 191.756 5.90292 191.756C9.16801 191.756 11.8057 189.119 11.8057 185.853C11.8057 182.588 9.1552 179.951 5.90292 179.951C2.65064 179.951 0.000104904 182.588 0.000104904 185.853Z" fill="url(#paint8_linear)"/>
</mask>
<g mask="url(#mask4)">
<path d="M0.000104904 185.853C0.000104904 189.119 2.65064 191.756 5.90292 191.756C9.16801 191.756 11.8057 189.119 11.8057 185.853C11.8057 182.588 9.1552 179.951 5.90292 179.951C2.65064 179.951 0.000104904 182.588 0.000104904 185.853Z" fill="url(#paint9_linear)"/>
</g>
</g>
<defs>
<linearGradient id="paint0_linear" x1="757" y1="184.771" x2="87.6868" y2="184.771" gradientUnits="userSpaceOnUse">
<stop stop-color="white"/>
<stop offset="1" stop-color="#1A1A1A"/>
</linearGradient>
<linearGradient id="paint1_linear" x1="757" y1="184.771" x2="87.6868" y2="184.771" gradientUnits="userSpaceOnUse">
<stop stop-color="white"/>
<stop offset="1" stop-color="white" stop-opacity="0"/>
</linearGradient>
<linearGradient id="paint2_linear" x1="757" y1="184.771" x2="62.9559" y2="184.771" gradientUnits="userSpaceOnUse">
<stop stop-color="white"/>
<stop offset="1" stop-color="#4D4D4D"/>
</linearGradient>
<linearGradient id="paint3_linear" x1="757" y1="184.771" x2="62.9559" y2="184.771" gradientUnits="userSpaceOnUse">
<stop stop-color="#4B72EC"/>
<stop offset="1" stop-color="#3561E8"/>
</linearGradient>
<linearGradient id="paint4_linear" x1="66.3613" y1="184.189" x2="-16.7555" y2="192.938" gradientUnits="userSpaceOnUse">
<stop stop-color="#4D4D4D"/>
<stop offset="1" stop-color="white"/>
</linearGradient>
<linearGradient id="paint5_linear" x1="66.3613" y1="184.189" x2="-16.7555" y2="192.938" gradientUnits="userSpaceOnUse">
<stop stop-color="#28B7FF"/>
<stop offset="1" stop-color="#D844FF"/>
</linearGradient>
<linearGradient id="paint6_linear" x1="66.1199" y1="181.894" x2="-16.9976" y2="190.643" gradientUnits="userSpaceOnUse">
<stop stop-color="#4D4D4D"/>
<stop offset="1" stop-color="white"/>
</linearGradient>
<linearGradient id="paint7_linear" x1="66.1199" y1="181.894" x2="-16.9976" y2="190.643" gradientUnits="userSpaceOnUse">
<stop stop-color="#28B7FF"/>
<stop offset="1" stop-color="#D844FF"/>
</linearGradient>
<linearGradient id="paint8_linear" x1="65.8773" y1="179.543" x2="-17.2492" y2="188.293" gradientUnits="userSpaceOnUse">
<stop stop-color="#4D4D4D"/>
<stop offset="1" stop-color="white"/>
</linearGradient>
<linearGradient id="paint9_linear" x1="65.8773" y1="179.543" x2="-17.2492" y2="188.293" gradientUnits="userSpaceOnUse">
<stop stop-color="#28B7FF"/>
<stop offset="1" stop-color="#D844FF"/>
</linearGradient>
</defs>
</svg>

