<!-- Generated by IcoMoon.io -->
<svg version="1.1" xmlns="http://www.w3.org/2000/svg" width="32" height="32" viewBox="0 0 32 32">
<title>amazon</title>
<path d="M23.245 17.647c-0.582-0.921-1.002-1.935-1.242-2.998v-7.331c-0.061-3.386-2.855-6.081-6.24-6.020-0.142 0.003-0.283 0.010-0.424 0.022-4.301 0-6.909 1.905-7.973 5.823-0.097 0.355 0.113 0.721 0.468 0.818 0.011 0.003 0.023 0.006 0.034 0.008 1.352 0.298 2.72 0.525 4.096 0.68 0.304 0.020 0.583-0.17 0.677-0.46 0.392-1.21 0.689-1.538 2.031-1.538 1.557 0 1.934 0.8 1.991 2.696-7.361 0.406-10.655 2.464-10.655 6.633 0 3.003 3.224 5.331 5.998 5.331 1.912 0.167 3.811-0.444 5.267-1.694 0.724 0.68 1.557 1.234 2.463 1.639 0.084 0.036 0.175 0.055 0.267 0.055 0.177 0 0.347-0.070 0.472-0.195l2.666-2.666c0.214-0.214 0.256-0.545 0.104-0.806zM16.473 17.46c-0.633 0.707-1.52 1.134-2.467 1.188-0.608 0-2.594-0.24-2.666-3.316-0.007-0.634 0.248-1.242 0.704-1.682 1.513-1.163 3.388-1.753 5.294-1.666 0.357-0 0.651 0.28 0.666 0.637 0.192 1.757-0.364 3.513-1.531 4.84z"></path>
<path d="M31.503 22.669c-0.188-0.048-4.613-1.186-6.639 0.84-0.256 0.265-0.248 0.687 0.016 0.942 0.258 0.25 0.668 0.25 0.926 0 1.066-1.066 3.501-0.864 4.831-0.61-0.115 1.477-0.562 3.807-1.542 4.182-0.346 0.127-0.523 0.509-0.396 0.855s0.509 0.523 0.855 0.397c0.006-0.002 0.012-0.004 0.017-0.007 2.242-0.858 2.416-5.421 2.428-5.943 0.005-0.307-0.2-0.578-0.497-0.656z"></path>
<path d="M29.334 25.978c0-0.736-0.597-1.333-1.333-1.333-0.271 0.001-0.536 0.087-0.756 0.247-8.974 3.568-16.838 2.919-26.251-2.166-0.32-0.181-0.727-0.068-0.908 0.253-0.151 0.267-0.1 0.604 0.124 0.814 4.674 4.605 9.854 6.911 15.486 6.911 4.377-0.113 8.663-1.279 12.494-3.4 0.658-0.094 1.146-0.66 1.143-1.325z"></path>
</svg>
