<!-- Generated by IcoMoon.io -->
<svg version="1.1" xmlns="http://www.w3.org/2000/svg" width="32" height="32" viewBox="0 0 32 32">
<title>analytics</title>
<path d="M16 0.917c2.983 0 5.899 0.885 8.38 2.542s4.414 4.013 5.555 6.769c1.142 2.756 1.44 5.789 0.858 8.715s-2.019 5.613-4.128 7.723c-2.11 2.109-4.797 3.546-7.723 4.128s-5.959 0.283-8.715-0.858c-2.756-1.142-5.112-3.075-6.769-5.555s-2.542-5.397-2.542-8.38c0-0.833 0.675-1.508 1.508-1.508s1.508 0.675 1.508 1.508c0 2.387 0.708 4.72 2.034 6.704s3.21 3.531 5.415 4.444c2.205 0.913 4.631 1.152 6.972 0.687s4.491-1.615 6.178-3.302c1.688-1.688 2.837-3.838 3.302-6.178s0.227-4.767-0.687-6.972-2.46-4.089-4.444-5.415-4.317-2.034-6.704-2.034c-0.833 0-1.508-0.675-1.508-1.508s0.675-1.508 1.508-1.508zM16 6.95c2.4 0 4.702 0.954 6.399 2.651s2.651 3.999 2.651 6.399-0.954 4.702-2.651 6.399c-1.697 1.697-3.999 2.651-6.399 2.651-0.833 0-1.508-0.675-1.508-1.508s0.675-1.508 1.508-1.508c1.6 0 3.135-0.636 4.266-1.767s1.767-2.666 1.767-4.266-0.636-3.135-1.767-4.266c-1.131-1.131-2.666-1.767-4.266-1.767-0.833 0-1.508-0.675-1.508-1.508s0.675-1.508 1.508-1.508z"></path>
</svg>
