<!-- Generated by IcoMoon.io -->
<svg version="1.1" xmlns="http://www.w3.org/2000/svg" width="32" height="32" viewBox="0 0 32 32">
<title>arrow-down</title>
<path d="M29.091 16c0 7.23-5.861 13.091-13.091 13.091s-13.091-5.861-13.091-13.091c0-7.23 5.861-13.091 13.091-13.091s13.091 5.861 13.091 13.091zM16 32c8.836 0 16-7.164 16-16s-7.164-16-16-16c-8.837 0-16 7.163-16 16s7.163 16 16 16z"></path>
<path d="M20.79 14.972c0.568-0.568 1.489-0.568 2.057 0s0.568 1.489 0 2.057l-5.818 5.818c-0.568 0.568-1.489 0.568-2.057 0l-5.818-5.818c-0.568-0.568-0.568-1.489 0-2.057s1.489-0.568 2.057 0l3.335 3.335v-8.125c0-0.803 0.651-1.455 1.455-1.455s1.455 0.651 1.455 1.455v8.125l3.335-3.335z"></path>
</svg>
