<!-- Generated by IcoMoon.io -->
<svg version="1.1" xmlns="http://www.w3.org/2000/svg" width="19" height="32" viewBox="0 0 19 32">
<title>icn_arrow-back</title>
<path d="M2.909 32c-0.005 0-0.011 0-0.017 0-0.799 0-1.523-0.322-2.049-0.844l0 0c-0.531-0.527-0.861-1.258-0.861-2.065s0.329-1.538 0.86-2.065l0-0 11.055-11.025-11.055-11.025c-0.529-0.529-0.856-1.259-0.856-2.065 0-1.613 1.308-2.921 2.921-2.921 0.807 0 1.537 0.327 2.065 0.856l13.091 13.091c0.532 0.527 0.861 1.258 0.861 2.065s-0.329 1.538-0.86 2.065l-13.091 13.091c-0.526 0.521-1.249 0.844-2.049 0.844-0.006 0-0.012-0-0.018-0h0.001z"></path>
</svg>
