<!-- Generated by IcoMoon.io -->
<svg version="1.1" xmlns="http://www.w3.org/2000/svg" width="32" height="32" viewBox="0 0 32 32">
<title>burger</title>
<path d="M29.875 9.063h-27.75c-0.639 0-1.156-0.518-1.156-1.156s0.518-1.156 1.156-1.156v0h27.75c0.639 0 1.156 0.518 1.156 1.156s-0.518 1.156-1.156 1.156v0z"></path>
<path d="M29.875 17.156h-27.75c-0.639 0-1.156-0.518-1.156-1.156s0.518-1.156 1.156-1.156v0h27.75c0.639 0 1.156 0.518 1.156 1.156s-0.518 1.156-1.156 1.156v0z"></path>
<path d="M29.875 25.25h-27.75c-0.639 0-1.156-0.518-1.156-1.156s0.518-1.156 1.156-1.156v0h27.75c0.639 0 1.156 0.518 1.156 1.156s-0.518 1.156-1.156 1.156v0z"></path>
</svg>
