<svg width="36" height="36" viewBox="0 0 36 36" fill="none" xmlns="http://www.w3.org/2000/svg">
<path fill-rule="evenodd" clip-rule="evenodd" d="M0.5 6C0.5 5.44772 0.947715 5 1.5 5H4.5C4.95095 5 5.34611 5.30182 5.46476 5.73688L6.50444 9.54902L28.5657 11.0022C29.0914 11.0368 29.5 11.4732 29.5 12V21C29.5 21.5225 29.0977 21.957 28.5767 21.9971L9.0767 23.4971C8.59845 23.5338 8.16144 23.2259 8.03524 22.7631L4.76251 10.7631L3.7362 7H1.5C0.947715 7 0.5 6.55228 0.5 6ZM11.4701 13.2574C11.3362 12.7216 10.7933 12.3959 10.2575 12.5298C9.72167 12.6638 9.39591 13.2067 9.52986 13.7425L11.0299 19.7425C11.1638 20.2783 11.7067 20.6041 12.2425 20.4701C12.7783 20.3362 13.1041 19.7932 12.9701 19.2574L11.4701 13.2574ZM17.1086 12.8851C17.6553 12.8069 18.1618 13.1868 18.24 13.7336L18.99 18.9836C19.0681 19.5303 18.6882 20.0368 18.1414 20.115C17.5947 20.1931 17.0882 19.8132 17.01 19.2664L16.2601 14.0164C16.1819 13.4697 16.5618 12.9632 17.1086 12.8851ZM25 14.25C25 13.6977 24.5523 13.25 24 13.25C23.4477 13.25 23 13.6977 23 14.25V18.75C23 19.3023 23.4477 19.75 24 19.75C24.5523 19.75 25 19.3023 25 18.75V14.25ZM15 28.5C15 30.1569 13.6569 31.5 12 31.5C10.3432 31.5 9.00001 30.1569 9.00001 28.5C9.00001 26.8432 10.3432 25.5 12 25.5C13.6569 25.5 15 26.8432 15 28.5ZM24 31.5C25.6568 31.5 27 30.1569 27 28.5C27 26.8432 25.6568 25.5 24 25.5C22.3431 25.5 21 26.8432 21 28.5C21 30.1569 22.3431 31.5 24 31.5Z" fill="#00B58F"/>
</svg>
