<!-- Generated by IcoMoon.io -->
<svg version="1.1" xmlns="http://www.w3.org/2000/svg" width="32" height="32" viewBox="0 0 32 32">
<title>art</title>
<path d="M0.444 5.333c0-0.491 0.398-0.889 0.889-0.889h2.667c0.401 0 0.752 0.268 0.858 0.655l0.924 3.389 19.61 1.292c0.467 0.031 0.831 0.419 0.831 0.887v8c0 0.464-0.358 0.851-0.821 0.886l-17.333 1.333c-0.425 0.033-0.814-0.241-0.926-0.652l-3.821-14.012h-1.988c-0.491 0-0.889-0.398-0.889-0.889zM10.196 11.784c-0.119-0.476-0.602-0.766-1.078-0.647s-0.766 0.602-0.647 1.078l1.333 5.333c0.119 0.476 0.602 0.766 1.078 0.647s0.766-0.602 0.647-1.078l-1.333-5.333zM15.208 11.453c0.486-0.069 0.936 0.268 1.006 0.754l0.667 4.667c0.069 0.486-0.268 0.936-0.754 1.006s-0.936-0.268-1.006-0.754l-0.667-4.667c-0.069-0.486 0.268-0.936 0.754-1.006zM22.222 12.667c0-0.491-0.398-0.889-0.889-0.889s-0.889 0.398-0.889 0.889v4c0 0.491 0.398 0.889 0.889 0.889s0.889-0.398 0.889-0.889v-4zM13.333 25.333c0 1.473-1.194 2.667-2.667 2.667s-2.667-1.194-2.667-2.667c0-1.473 1.194-2.667 2.667-2.667s2.667 1.194 2.667 2.667zM21.333 28c1.473 0 2.667-1.194 2.667-2.667s-1.194-2.667-2.667-2.667c-1.473 0-2.667 1.194-2.667 2.667s1.194 2.667 2.667 2.667z"></path>
</svg>
