<!-- Generated by IcoMoon.io -->
<svg version="1.1" xmlns="http://www.w3.org/2000/svg" width="32" height="32" viewBox="0 0 32 32">
<title>chat_camera</title>
<path d="M28.563 5.688h-1v9.687c0 2.929-2.383 5.313-5.312 5.313h-13.145l-2.169 2.345c0.622 0.886 1.652 1.467 2.814 1.467h13.965l6.659 7.199c0.259 0.28 0.666 0.379 1.030 0.236 0.359-0.141 0.596-0.487 0.596-0.873v-21.937c0-1.895-1.542-3.437-3.437-3.437z"></path>
<path d="M22.25 0c1.895 0 3.437 1.542 3.437 3.438v11.937c0 1.895-1.542 3.438-3.438 3.438h-13.965l-6.659 7.199c-0.258 0.279-0.666 0.379-1.030 0.236-0.359-0.141-0.596-0.487-0.596-0.873v-21.937c0-1.895 1.542-3.438 3.438-3.438h18.812zM15.089 5.333h-8.707c-0.579 0.001-1.049 0.47-1.049 1.049v6.906c0.001 0.579 0.47 1.049 1.049 1.049h8.707c0.579-0.001 1.049-0.47 1.049-1.049v-6.906c-0.001-0.579-0.47-1.049-1.049-1.049zM16.838 11.273l3.606 1.969v-6.79l-3.606 1.969v2.852z"></path>
</svg>
