<?xml version="1.0" encoding="utf-8"?>
<!-- Generator: Adobe Illustrator 23.0.2, SVG Export Plug-In . SVG Version: 6.00 Build 0)  -->
<svg version="1.1" id="Слой_1" xmlns="http://www.w3.org/2000/svg" xmlns:xlink="http://www.w3.org/1999/xlink" x="0px" y="0px"
	 viewBox="0 0 17.3 17" style="enable-background:new 0 0 17.3 17;" xml:space="preserve">
<title>close</title>
<path d="M0.8,2.4c-0.5-0.5-0.5-1.3,0-1.7s1.3-0.5,1.7,0l13.9,13.9c0.5,0.5,0.5,1.3,0,1.7c-0.5,0.5-1.3,0.5-1.7,0
	C14.8,16.3,0.8,2.4,0.8,2.4z"/>
<path d="M0.8,16.3c-0.5-0.5-0.5-1.3,0-1.7L14.8,0.6c0.5-0.5,1.3-0.5,1.7,0s0.5,1.3,0,1.7L2.6,16.3C2.1,16.8,1.3,16.8,0.8,16.3z"/>
</svg>
