<!-- Generated by IcoMoon.io -->
<svg version="1.1" xmlns="http://www.w3.org/2000/svg" width="32" height="32" viewBox="0 0 32 32">

<path d="M28.235 5.647v20.706c2.079 0 3.765-1.685 3.765-3.765v-18.824c0-2.079-1.685-3.765-3.765-3.765h-18.824c-2.079 0-3.765 1.685-3.765 3.765h20.706c1.040 0 1.882 0.843 1.882 1.882zM3.765 5.647h18.824c2.079 0 3.765 1.686 3.765 3.765v18.824c0 2.079-1.685 3.765-3.765 3.765h-18.824c-2.079 0-3.765-1.685-3.765-3.765v-18.824c0-2.079 1.685-3.765 3.765-3.765zM3.765 9.412v18.824h18.824v-18.824h-18.824z"></path>
</svg>