<!-- Generated by IcoMoon.io -->
<svg version="1.1" xmlns="http://www.w3.org/2000/svg" width="32" height="32" viewBox="0 0 32 32">
<title>discount</title>
<path d="M16 31.167c-8.376 0-15.167-6.79-15.167-15.167s6.79-15.167 15.167-15.167c8.376 0 15.167 6.79 15.167 15.167s-6.79 15.167-15.167 15.167zM16 28.409c6.853 0 12.409-5.556 12.409-12.409s-5.556-12.409-12.409-12.409c-6.853 0-12.409 5.556-12.409 12.409s5.556 12.409 12.409 12.409zM18.758 20.136c0 1.523 1.235 2.758 2.758 2.758s2.758-1.235 2.758-2.758c0-1.523-1.235-2.758-2.758-2.758s-2.758 1.235-2.758 2.758zM10.485 14.621c-1.523 0-2.758-1.235-2.758-2.758s1.235-2.758 2.758-2.758 2.758 1.235 2.758 2.758c0 1.523-1.235 2.758-2.758 2.758zM13.405 24.273l8.273-16.545h-3.083l-8.273 16.545h3.083z"></path>
</svg>
