<!-- Generated by IcoMoon.io -->
<svg version="1.1" xmlns="http://www.w3.org/2000/svg" width="32" height="32" viewBox="0 0 32 32">
<title>email</title>
<path d="M13.334 16.714c0-1.57 1-2.966 2.486-3.472l7-2.38c0.376-0.128 0.774-0.196 1.18-0.196 0.404 0 0.804 0.068 1.188 0.2l4.144 1.41v-8.942c0.002-1.842-1.49-3.334-3.332-3.334h-22.666c-1.842 0-3.334 1.492-3.334 3.334v12c0 1.84 1.492 3.334 3.334 3.334h10v-1.954zM2.666 3.294l12 5.6 12-5.6v2.214l-11.294 5.266c-0.226 0.106-0.466 0.16-0.706 0.16s-0.48-0.054-0.706-0.16l-11.294-5.266v-2.214z"></path>
<path d="M31.322 15.768l-7-2.38c-0.208-0.072-0.434-0.072-0.644 0l-7 2.38c-0.406 0.138-0.678 0.518-0.678 0.946v5.358c0 6.54 7.298 9.716 7.61 9.85 0.124 0.052 0.258 0.078 0.39 0.078s0.266-0.026 0.39-0.080c0.312-0.132 7.61-3.31 7.61-9.848v-5.358c0-0.428-0.272-0.808-0.678-0.946zM28.734 20.466l-4 5.334c-0.232 0.31-0.586 0.502-0.972 0.53-0.032 0.002-0.064 0.004-0.096 0.004-0.352 0-0.692-0.14-0.942-0.39l-2.666-2.666c-0.52-0.52-0.52-1.364 0-1.886s1.364-0.52 1.886 0l1.58 1.58 3.078-4.104c0.442-0.588 1.278-0.71 1.866-0.266 0.588 0.44 0.708 1.276 0.266 1.864z"></path>
</svg>
