<!-- Generated by IcoMoon.io -->
<svg version="1.1" xmlns="http://www.w3.org/2000/svg" width="39" height="32" viewBox="0 0 39 32">
<title>email-simple</title>
<path d="M3.78 9.538c0.498 0.352 2 1.396 4.505 3.132s4.425 3.073 5.758 4.011c0.146 0.103 0.458 0.326 0.934 0.671s0.872 0.623 1.187 0.835c0.315 0.212 0.696 0.451 1.143 0.714s0.868 0.462 1.264 0.593c0.396 0.132 0.762 0.198 1.099 0.198h0.044c0.337 0 0.703-0.066 1.099-0.198 0.395-0.131 0.817-0.33 1.264-0.593s0.828-0.502 1.143-0.714c0.315-0.212 0.71-0.491 1.187-0.835s0.788-0.568 0.934-0.671c1.348-0.938 4.777-3.319 10.286-7.143 1.070-0.747 1.963-1.648 2.681-2.703s1.077-2.161 1.077-3.318c0-0.967-0.348-1.795-1.044-2.484s-1.52-1.033-2.472-1.033h-32.352c-1.128 0-1.996 0.381-2.604 1.143s-0.912 1.714-0.912 2.857c0 0.923 0.403 1.923 1.209 3s1.663 1.923 2.571 2.538z"></path>
<path d="M37.186 11.89c-4.805 3.252-8.454 5.78-10.945 7.583-0.835 0.615-1.513 1.095-2.033 1.439s-1.212 0.696-2.077 1.055c-0.864 0.359-1.67 0.538-2.417 0.538h-0.044c-0.747 0-1.553-0.179-2.418-0.538s-1.557-0.71-2.077-1.055c-0.52-0.344-1.198-0.824-2.033-1.439-1.978-1.45-5.619-3.978-10.923-7.583-0.835-0.556-1.575-1.194-2.22-1.912v17.45c0 0.968 0.344 1.795 1.033 2.484s1.517 1.033 2.484 1.033h32.352c0.967 0 1.795-0.344 2.483-1.033s1.033-1.516 1.033-2.484v-17.45c-0.63 0.703-1.362 1.341-2.198 1.912z"></path>
</svg>
