<!-- Generated by IcoMoon.io -->
<svg version="1.1" xmlns="http://www.w3.org/2000/svg" width="32" height="32" viewBox="0 0 32 32">
<title>error</title>
<path d="M0 16c0 8.837 7.163 16 16 16s16-7.163 16-16c0-8.837-7.163-16-16-16s-16 7.163-16 16zM29.091 16c0 7.23-5.861 13.091-13.091 13.091s-13.091-5.861-13.091-13.091c0-7.23 5.861-13.091 13.091-13.091s13.091 5.861 13.091 13.091zM16 24.725c0.804 0 1.455-0.651 1.455-1.455s-0.651-1.455-1.455-1.455c-0.803 0-1.455 0.651-1.455 1.455s0.652 1.455 1.455 1.455zM17.46 7.27h-2.91v11.636h2.91v-11.636z"></path>
</svg>
