<!-- Generated by IcoMoon.io -->
<svg version="1.1" xmlns="http://www.w3.org/2000/svg" width="32" height="32" viewBox="0 0 32 32">
<title>fix</title>
<path d="M9.597 5.619l0.663-0.663c0.432-0.432 0.341-1.154-0.18-1.467l-5.022-3.013c-1.318-0.789-2.996-0.583-4.079 0.503-1.086 1.085-1.292 2.762-0.503 4.079l3.013 5.021c0.313 0.522 1.039 0.612 1.467 0.18l0.664-0.663 5.072 5.064 3.973-3.973-5.068-5.068z"></path>
<path d="M31.362 3.733c-0.276-0.578-1.048-0.722-1.509-0.259l-2.425 2.425c-0.355 0.355-0.97 0.355-1.326 0-0.365-0.365-0.365-0.96 0-1.326l2.425-2.425c0.456-0.456 0.325-1.23-0.259-1.509-2.506-1.198-5.507-0.682-7.47 1.283-1.803 1.802-2.385 4.48-1.543 6.844l-10.489 10.488c-2.363-0.842-5.042-0.26-6.844 1.543-1.964 1.964-2.479 4.966-1.283 7.47 0.279 0.586 1.054 0.714 1.509 0.259l2.425-2.425c0.366-0.364 0.961-0.365 1.326 0.001 0.365 0.363 0.368 0.955 0 1.325l-2.425 2.425c-0.456 0.456-0.325 1.23 0.259 1.509 0.9 0.43 1.864 0.639 2.822 0.639 1.707 0 3.39-0.664 4.647-1.922 1.803-1.802 2.385-4.48 1.543-6.845l10.489-10.488c2.362 0.841 5.042 0.26 6.845-1.543 1.964-1.964 2.479-4.966 1.283-7.47z"></path>
<path d="M30.616 24.073c-3.182-3.171-4.927-4.431-8.658-7.332l-5.302 5.303c2.622 3.366 4.21 5.537 7.189 8.517 0.974 0.974 2.269 1.429 3.542 1.429 0.935 0 1.858-0.222 2.633-0.779 1.131-0.815 1.843-2.070 1.954-3.442 0.111-1.374-0.384-2.72-1.358-3.694zM27.916 27.92c-0.373 0.34-0.955 0.307-1.312-0.050l-3.713-3.713c-0.357-0.357-0.39-0.939-0.050-1.312 0.363-0.398 0.98-0.409 1.357-0.032l3.75 3.75c0.377 0.377 0.366 0.994-0.032 1.357z"></path>
</svg>
