<!-- Generated by IcoMoon.io -->
<svg version="1.1" xmlns="http://www.w3.org/2000/svg" width="32" height="32" viewBox="0 0 32 32">
<title>home</title>
<path d="M14.974 0.802c0.588-0.514 1.465-0.514 2.052 0l12.467 10.908c0.338 0.296 0.532 0.723 0.532 1.173v17.142c0 0.861-0.698 1.558-1.558 1.558h-7.792c-0.861 0-1.558-0.698-1.558-1.558v-9.35h-6.233v9.35c0 0.861-0.698 1.558-1.558 1.558h-7.792c-0.861 0-1.558-0.698-1.558-1.558v-17.142c0-0.449 0.194-0.877 0.532-1.173l12.467-10.908zM5.092 13.591v14.876h4.675v-9.35c0-0.861 0.698-1.558 1.558-1.558h9.35c0.861 0 1.558 0.698 1.558 1.558v9.35h4.675v-14.876l-10.908-9.545-10.908 9.545z"></path>
</svg>
