<svg width="36" height="36" viewBox="0 0 36 36" fill="none" xmlns="http://www.w3.org/2000/svg">
<path d="M5.85156 24.464C4.05536 26.2696 3.95557 29.8809 3.95557 30.5831C3.95557 31.4859 4.65409 32.1881 5.55219 32.1881C6.3505 32.1881 9.84312 32.0878 11.5395 30.2822C12.6372 29.1787 12.8368 28.0753 12.8368 27.2727C12.8368 26.1693 12.4376 25.1661 11.5395 24.3636C9.74333 22.4577 7.2486 23.0596 5.85156 24.464Z" fill="#EC704A"/>
<path d="M35.8879 1.49202C35.7881 0.689507 35.1894 0.0876238 34.4909 0.0876238C24.6118 -0.714887 17.5268 4.10018 13.136 10.2193C10.6413 9.41681 8.0468 9.61744 5.65187 11.0218C3.35672 12.3259 1.46073 14.5328 0.16347 17.141C-0.135897 17.7429 -0.0361077 18.4451 0.562626 18.9466C1.06157 19.4482 1.76009 19.4482 2.35883 19.1473C4.85355 17.8432 7.64764 18.0438 9.34406 19.7491L16.2295 26.6708C17.9259 28.3761 18.2253 31.1849 16.8282 33.6928C16.5289 34.2947 16.6287 34.9969 17.0278 35.4984C17.3272 35.7994 17.7263 36 18.1255 36C18.3251 36 18.6244 36 18.824 35.7994C21.5183 34.4953 23.7137 32.5893 24.9111 30.2821C26.3082 27.8746 26.5078 25.2664 25.7095 22.7586C27.5057 21.4545 29.1023 20.0501 30.3995 18.4451C34.6905 13.9309 36.4867 8.11273 35.8879 1.49202ZM5.25271 15.235C6.94912 13.63 9.04469 12.5265 11.24 12.9278C10.6413 14.0313 10.1424 15.1347 9.64342 16.2382C8.34617 15.536 6.84933 15.1347 5.25271 15.235ZM20.9196 30.884C20.9196 29.279 20.6202 27.7743 19.9217 26.3699C21.0194 25.8683 22.1171 25.3667 23.2147 24.7648C23.5141 27.0721 22.5162 29.1787 20.9196 30.884ZM27.9048 8.21305C28.4038 8.71462 28.6033 9.3165 28.6033 10.0187C28.6033 10.7209 28.304 11.3228 27.9048 11.8243C27.4059 12.3259 26.8071 12.5265 26.1086 12.5265C25.4101 12.5265 24.8114 12.2256 24.3124 11.8243C23.8135 11.4231 23.6139 10.7209 23.6139 10.0187C23.6139 9.3165 23.9132 8.71462 24.3124 8.21305C24.8114 7.71148 25.4101 7.51085 26.1086 7.51085C26.7073 7.41054 27.4059 7.71148 27.9048 8.21305Z" fill="white"/>
</svg>
