<!-- Generated by IcoMoon.io -->
<svg version="1.1" xmlns="http://www.w3.org/2000/svg" width="32" height="32" viewBox="0 0 32 32">
<title>insights</title>
<path d="M10.133 7.933c0-0.81 0.657-1.467 1.467-1.467h17.6c0.81 0 1.467 0.657 1.467 1.467s-0.657 1.467-1.467 1.467h-17.6c-0.81 0-1.467-0.657-1.467-1.467z"></path>
<path d="M10.133 16c0-0.81 0.657-1.467 1.467-1.467h17.6c0.81 0 1.467 0.657 1.467 1.467s-0.657 1.467-1.467 1.467h-17.6c-0.81 0-1.467-0.657-1.467-1.467z"></path>
<path d="M10.133 24.067c0-0.81 0.657-1.467 1.467-1.467h17.6c0.81 0 1.467 0.657 1.467 1.467s-0.657 1.467-1.467 1.467h-17.6c-0.81 0-1.467-0.657-1.467-1.467z"></path>
<path d="M1.333 7.933c0-1.62 1.313-2.933 2.933-2.933s2.933 1.313 2.933 2.933c0 1.62-1.313 2.933-2.933 2.933s-2.933-1.313-2.933-2.933z"></path>
<path d="M1.333 16c0-1.62 1.313-2.933 2.933-2.933s2.933 1.313 2.933 2.933c0 1.62-1.313 2.933-2.933 2.933s-2.933-1.313-2.933-2.933z"></path>
<path d="M1.333 24.067c0-1.62 1.313-2.933 2.933-2.933s2.933 1.313 2.933 2.933c0 1.62-1.313 2.933-2.933 2.933s-2.933-1.313-2.933-2.933z"></path>
</svg>
