<!-- Generated by IcoMoon.io -->
<svg version="1.1" xmlns="http://www.w3.org/2000/svg" width="30" height="32" viewBox="0 0 30 32">
<title>lock</title>
<path d="M14.717 0c4.402 0 7.971 3.569 7.971 7.971v3.873h1.946c1.68 0 2.52 0 3.162 0.327 0.564 0.288 1.023 0.747 1.311 1.311 0.327 0.642 0.327 1.482 0.327 3.162v10.539c0 1.68 0 2.52-0.327 3.162-0.288 0.564-0.747 1.023-1.311 1.311-0.642 0.327-1.482 0.327-3.162 0.327h-19.834c-1.68 0-2.52 0-3.162-0.327-0.565-0.288-1.023-0.747-1.311-1.311-0.327-0.642-0.327-1.482-0.327-3.162v-10.539c0-1.68 0-2.52 0.327-3.162 0.288-0.564 0.747-1.023 1.311-1.311 0.642-0.327 1.482-0.327 3.162-0.327h1.946v-3.873c0-4.402 3.569-7.971 7.971-7.971zM20.688 11.844v-3.873c0-3.298-2.673-5.971-5.971-5.971s-5.971 2.673-5.971 5.971v3.873h11.942zM16.266 23.049c0.926-0.536 1.55-1.537 1.55-2.684 0-1.711-1.387-3.098-3.098-3.098s-3.098 1.387-3.098 3.098c0 1.147 0.623 2.148 1.549 2.684v3.288c0 0.552 0.448 1 1 1h1.098c0.552 0 1-0.448 1-1v-3.287z"></path>
</svg>
