<svg width="160" height="28" viewBox="0 0 160 28" fill="none" xmlns="http://www.w3.org/2000/svg">
<g>
<path d="M51.6464 17.8482L51.509 17.9867H50.28L50.1427 17.8482L47.0051 9.44175V8.47935L47.1353 8.34082H47.9594L48.0968 8.47935L50.8295 16.0546H50.9668L53.6995 8.47935L53.8369 8.34082H54.6538L54.7911 8.47935V9.44175L51.6464 17.8482Z" fill="#1C1D47"/>
<path d="M63.4015 8.20264C66.2932 8.20264 67.9054 10.2733 67.9054 13.1678C67.9054 16.0622 66.2715 18.1256 63.4015 18.1256C60.5314 18.1256 58.8904 16.0622 58.8904 13.1678C58.8904 10.2733 60.5314 8.20264 63.4015 8.20264ZM63.4015 16.8861C65.4474 16.8861 66.539 15.3696 66.539 13.1678C66.539 10.9659 65.4474 9.47855 63.4015 9.47855C61.3556 9.47855 60.2567 10.9367 60.2567 13.1678C60.2567 15.3988 61.3484 16.8861 63.4015 16.8861Z" fill="#1C1D47"/>
<path d="M74.0575 17.9867H72.9586L72.8213 17.8482V8.47935L72.9586 8.34082H74.0575L74.1949 8.47935V17.8482L74.0575 17.9867Z" fill="#1C1D47"/>
<path d="M79.1108 13.1678C79.1108 10.2514 80.7519 8.20264 83.622 8.20264C85.7908 8.20264 87.1716 9.44209 87.4463 11.119L87.3089 11.2575H86.2173L86.0799 11.119C85.9236 10.5988 85.593 10.1495 85.1448 9.84763C84.6965 9.5458 84.1583 9.4102 83.622 9.46397C81.5688 9.46397 80.4772 10.9805 80.4772 13.1896C80.4772 15.3988 81.5688 16.908 83.622 16.908C84.1775 16.9594 84.7326 16.806 85.1846 16.4762C85.6365 16.1465 85.9546 15.6626 86.0799 15.1144L86.2173 14.9759H87.3089L87.4463 15.1144C87.1716 16.7695 85.9426 18.1474 83.622 18.1474C80.7302 18.1474 79.1108 16.0841 79.1108 13.1896" fill="#1C1D47"/>
<path d="M98.6518 17.9867H92.4997L92.3623 17.8482V8.47935L92.4997 8.34082H98.6518L98.7892 8.47935V9.44175L98.6518 9.58028H93.866L93.7286 9.7188V12.3362L93.866 12.4748H98.3771L98.5145 12.6133V13.5757L98.3771 13.7142H93.866L93.7286 13.8528V16.6087L93.866 16.7472H98.6518L98.7892 16.8858V17.8482L98.6518 17.9867Z" fill="#1C1D47"/>
<path d="M110.262 9.02617H105.483L105.346 9.16469V12.7518L105.483 12.8904H109.987L110.125 13.0289V13.4372L109.987 13.5757H105.483L105.346 13.7142V17.8482L105.209 17.9867H104.659L104.522 17.8482V8.47935L104.659 8.34082H110.262L110.399 8.47935V8.89493L110.262 9.02617Z" fill="#1C1D47"/>
<path d="M118.598 13.5757H116.277L116.14 13.7142V17.8482L116.002 17.9867H115.453L115.315 17.8482V8.47935L115.453 8.34082H119.414C121.468 8.34082 122.422 9.16469 122.422 10.9583C122.453 11.3098 122.407 11.664 122.288 11.9957C122.168 12.3275 121.978 12.6288 121.73 12.8783C121.483 13.1279 121.184 13.3197 120.855 13.4402C120.526 13.5607 120.175 13.6069 119.827 13.5757V13.7142L122.176 17.4399V17.8482L122.039 17.9867H121.771L121.497 17.8482L118.901 13.7142L118.598 13.5757ZM119.552 9.02617H116.277L116.14 9.16469V12.7518L116.277 12.8904H119.414C120.781 12.8904 121.583 12.4748 121.583 10.9583C121.583 9.44175 120.759 9.02617 119.53 9.02617" fill="#1C1D47"/>
<path d="M126.796 13.1678C126.796 9.71915 128.842 8.20264 131.169 8.20264C133.497 8.20264 135.543 9.71915 135.543 13.1678C135.543 16.6164 133.49 18.1256 131.169 18.1256C128.849 18.1256 126.796 16.6091 126.796 13.1678ZM127.613 13.1678C127.613 16.0841 129.116 17.4402 131.169 17.4402C133.223 17.4402 134.719 16.0622 134.719 13.1678C134.719 10.2733 133.215 8.89527 131.169 8.89527C129.124 8.89527 127.613 10.2733 127.613 13.1678Z" fill="#1C1D47"/>
<path d="M147.84 17.9867H147.153L146.879 17.8482L141.413 9.7188H141.276V17.8482L141.139 17.9867H140.596L140.459 17.8482V8.47935L140.596 8.34082H141.276L141.551 8.47935L147.016 16.6087H147.153V8.47935L147.291 8.34082H147.84L147.978 8.47935V17.8482L147.84 17.9867Z" fill="#1C1D47"/>
<path d="M159.863 9.02617H156.855L156.718 9.16469V17.8482L156.581 17.9867H156.031L155.901 17.8482V9.16469L155.764 9.02617H152.756L152.619 8.89493V8.47935L152.756 8.34082H159.863L160 8.47935V8.89493L159.863 9.02617Z" fill="#1C1D47"/>
<path d="M25.7148 3.88566V6.96972C25.672 7.23644 25.5365 7.4791 25.3325 7.65424C25.1285 7.82938 24.8694 7.92556 24.6015 7.92556C24.3336 7.92556 24.0744 7.82938 23.8704 7.65424C23.6664 7.4791 23.5309 7.23644 23.4882 6.96972V0.969294C23.4454 0.702573 23.3099 0.459915 23.1059 0.284775C22.9019 0.109635 22.6427 0.0134531 22.3748 0.0134531C22.1069 0.0134531 21.8478 0.109635 21.6438 0.284775C21.4398 0.459915 21.3043 0.702573 21.2615 0.969294V9.28823C21.2188 9.55495 21.0833 9.79761 20.8793 9.97275C20.6753 10.1479 20.4161 10.2441 20.1482 10.2441C19.8803 10.2441 19.6211 10.1479 19.4172 9.97275C19.2132 9.79761 19.0776 9.55495 19.0349 9.28823V0.969294C18.9972 0.697538 18.8635 0.448666 18.6582 0.26856C18.4529 0.0884547 18.19 -0.0107422 17.9179 -0.0107422C17.6459 -0.0107422 17.383 0.0884547 17.1777 0.26856C16.9724 0.448666 16.8387 0.697538 16.801 0.969294V6.96972C16.7583 7.23644 16.6227 7.4791 16.4187 7.65424C16.2148 7.82938 15.9556 7.92556 15.6877 7.92556C15.4198 7.92556 15.1606 7.82938 14.9566 7.65424C14.7526 7.4791 14.6171 7.23644 14.5744 6.96972V3.0545C14.5522 2.77841 14.4228 2.52234 14.2142 2.34207C14.0057 2.16181 13.735 2.07196 13.4611 2.0921C13.1871 2.07196 12.9164 2.16181 12.7079 2.34207C12.4993 2.52234 12.3699 2.77841 12.3477 3.0545V12.6931C12.3255 12.9698 12.1964 13.2265 11.9881 13.408C11.7797 13.5894 11.5091 13.6809 11.2344 13.6628C10.9598 13.6809 10.6891 13.5894 10.4808 13.408C10.2725 13.2265 10.1433 12.9698 10.1211 12.6931V0.969294C10.1007 0.691897 9.97207 0.433981 9.76334 0.252174C9.5546 0.0703662 9.28286 -0.0204726 9.00777 -0.000398138C8.73269 -0.0204726 8.46094 0.0703662 8.2522 0.252174C8.04347 0.433981 7.9148 0.691897 7.89445 0.969294V6.96972C7.87226 7.24639 7.74307 7.50316 7.53477 7.68459C7.32647 7.86601 7.05577 7.95754 6.78113 7.93941C6.50529 7.95955 6.23273 7.86892 6.02285 7.68729C5.81296 7.50566 5.68275 7.24774 5.66058 6.96972V3.88566H0L7.84385 15.7042L15.6877 27.5155L23.5315 15.7042L31.3826 3.88566H25.7148Z" fill="#1C1D47"/>
</g>

</svg>
