<svg width="160" height="28" viewBox="0 0 160 28" fill="none" xmlns="http://www.w3.org/2000/svg">
<g clip-path="url(#clip0)">
<path d="M51.6466 17.8482L51.5093 17.9867H50.2803L50.1429 17.8482L47.0054 9.44175V8.47935L47.1355 8.34082H47.9596L48.097 8.47935L50.8297 16.0546H50.9671L53.6998 8.47935L53.8371 8.34082H54.654L54.7914 8.47935V9.44175L51.6466 17.8482Z" fill="white"/>
<path d="M63.4012 8.20215C66.293 8.20215 67.9051 10.2728 67.9051 13.1673C67.9051 16.0618 66.2713 18.1251 63.4012 18.1251C60.5312 18.1251 58.8901 16.0618 58.8901 13.1673C58.8901 10.2728 60.5312 8.20215 63.4012 8.20215ZM63.4012 16.8856C65.4472 16.8856 66.5388 15.3691 66.5388 13.1673C66.5388 10.9654 65.4472 9.47806 63.4012 9.47806C61.3553 9.47806 60.2565 10.9362 60.2565 13.1673C60.2565 15.3983 61.3481 16.8856 63.4012 16.8856Z" fill="white"/>
<path d="M74.0575 17.9867H72.9586L72.8213 17.8482V8.47935L72.9586 8.34082H74.0575L74.1949 8.47935V17.8482L74.0575 17.9867Z" fill="white"/>
<path d="M79.1108 13.1673C79.1108 10.2509 80.7519 8.20215 83.622 8.20215C85.7908 8.20215 87.1716 9.4416 87.4463 11.1185L87.3089 11.257H86.2173L86.0799 11.1185C85.9236 10.5983 85.593 10.149 85.1448 9.84714C84.6965 9.54531 84.1583 9.40971 83.622 9.46348C81.5688 9.46348 80.4772 10.98 80.4772 13.1891C80.4772 15.3983 81.5688 16.9075 83.622 16.9075C84.1775 16.9589 84.7326 16.8055 85.1846 16.4757C85.6365 16.146 85.9546 15.6621 86.0799 15.1139L86.2173 14.9754H87.3089L87.4463 15.1139C87.1716 16.769 85.9426 18.147 83.622 18.147C80.7302 18.147 79.1108 16.0836 79.1108 13.1891" fill="white"/>
<path d="M98.6518 17.9867H92.4997L92.3623 17.8482V8.47935L92.4997 8.34082H98.6518L98.7892 8.47935V9.44175L98.6518 9.58028H93.866L93.7286 9.7188V12.3362L93.866 12.4748H98.3771L98.5145 12.6133V13.5757L98.3771 13.7142H93.866L93.7286 13.8528V16.6087L93.866 16.7472H98.6518L98.7892 16.8858V17.8482L98.6518 17.9867Z" fill="white"/>
<path d="M110.262 9.02617H105.483L105.346 9.16469V12.7518L105.483 12.8904H109.987L110.125 13.0289V13.4372L109.987 13.5757H105.483L105.346 13.7142V17.8482L105.209 17.9867H104.659L104.522 17.8482V8.47935L104.659 8.34082H110.262L110.399 8.47935V8.89493L110.262 9.02617Z" fill="white"/>
<path d="M118.598 13.5757H116.277L116.14 13.7142V17.8482L116.002 17.9867H115.453L115.315 17.8482V8.47935L115.453 8.34082H119.414C121.468 8.34082 122.422 9.16469 122.422 10.9583C122.453 11.3098 122.407 11.664 122.288 11.9957C122.168 12.3275 121.978 12.6288 121.73 12.8783C121.483 13.1279 121.184 13.3197 120.855 13.4402C120.526 13.5607 120.175 13.6069 119.827 13.5757V13.7142L122.176 17.4399V17.8482L122.039 17.9867H121.771L121.497 17.8482L118.901 13.7142L118.598 13.5757ZM119.552 9.02617H116.277L116.14 9.16469V12.7518L116.277 12.8904H119.414C120.781 12.8904 121.583 12.4748 121.583 10.9583C121.583 9.44175 120.759 9.02617 119.53 9.02617" fill="white"/>
<path d="M126.795 13.1673C126.795 9.71866 128.841 8.20215 131.169 8.20215C133.497 8.20215 135.543 9.71866 135.543 13.1673C135.543 16.6159 133.49 18.1251 131.169 18.1251C128.849 18.1251 126.795 16.6086 126.795 13.1673ZM127.612 13.1673C127.612 16.0836 129.116 17.4397 131.169 17.4397C133.222 17.4397 134.719 16.0618 134.719 13.1673C134.719 10.2728 133.215 8.89479 131.169 8.89479C129.123 8.89479 127.612 10.2728 127.612 13.1673Z" fill="white"/>
<path d="M147.84 17.9867H147.153L146.879 17.8482L141.413 9.7188H141.276V17.8482L141.139 17.9867H140.596L140.459 17.8482V8.47935L140.596 8.34082H141.276L141.551 8.47935L147.016 16.6087H147.153V8.47935L147.291 8.34082H147.84L147.978 8.47935V17.8482L147.84 17.9867Z" fill="white"/>
<path d="M159.862 9.02617H156.855L156.718 9.16469V17.8482L156.58 17.9867H156.031L155.901 17.8482V9.16469L155.763 9.02617H152.756L152.619 8.89493V8.47935L152.756 8.34082H159.862L160 8.47935V8.89493L159.862 9.02617Z" fill="white"/>
<path d="M25.7148 3.88566V6.96972C25.672 7.23644 25.5365 7.4791 25.3325 7.65424C25.1285 7.82938 24.8694 7.92556 24.6015 7.92556C24.3336 7.92556 24.0744 7.82938 23.8704 7.65424C23.6664 7.4791 23.5309 7.23644 23.4882 6.96972V0.969294C23.4454 0.702573 23.3099 0.459915 23.1059 0.284775C22.9019 0.109635 22.6427 0.0134531 22.3748 0.0134531C22.1069 0.0134531 21.8478 0.109635 21.6438 0.284775C21.4398 0.459915 21.3043 0.702573 21.2615 0.969294V9.28823C21.2188 9.55495 21.0833 9.79761 20.8793 9.97275C20.6753 10.1479 20.4161 10.2441 20.1482 10.2441C19.8803 10.2441 19.6211 10.1479 19.4172 9.97275C19.2132 9.79761 19.0776 9.55495 19.0349 9.28823V0.969294C18.9972 0.697538 18.8635 0.448666 18.6582 0.26856C18.4529 0.0884547 18.19 -0.0107422 17.9179 -0.0107422C17.6459 -0.0107422 17.383 0.0884547 17.1777 0.26856C16.9724 0.448666 16.8387 0.697538 16.801 0.969294V6.96972C16.7583 7.23644 16.6227 7.4791 16.4187 7.65424C16.2148 7.82938 15.9556 7.92556 15.6877 7.92556C15.4198 7.92556 15.1606 7.82938 14.9566 7.65424C14.7526 7.4791 14.6171 7.23644 14.5744 6.96972V3.0545C14.5522 2.77841 14.4228 2.52234 14.2142 2.34207C14.0057 2.16181 13.735 2.07196 13.4611 2.0921C13.1871 2.07196 12.9164 2.16181 12.7079 2.34207C12.4993 2.52234 12.3699 2.77841 12.3477 3.0545V12.6931C12.3255 12.9698 12.1964 13.2265 11.9881 13.408C11.7797 13.5894 11.5091 13.6809 11.2344 13.6628C10.9598 13.6809 10.6891 13.5894 10.4808 13.408C10.2725 13.2265 10.1433 12.9698 10.1211 12.6931V0.969294C10.1007 0.691897 9.97207 0.433981 9.76334 0.252174C9.5546 0.0703662 9.28286 -0.0204726 9.00777 -0.000398138C8.73269 -0.0204726 8.46094 0.0703662 8.2522 0.252174C8.04347 0.433981 7.9148 0.691897 7.89445 0.969294V6.96972C7.87226 7.24639 7.74307 7.50316 7.53477 7.68459C7.32647 7.86601 7.05577 7.95754 6.78113 7.93941C6.50529 7.95955 6.23273 7.86892 6.02285 7.68729C5.81296 7.50566 5.68275 7.24774 5.66058 6.96972V3.88566H0L7.84385 15.7042L15.6877 27.5155L23.5315 15.7042L31.3826 3.88566H25.7148Z" fill="white"/>
</g>
<defs>
<clipPath id="clip0">
<rect width="160" height="27.5159" fill="white"/>
</clipPath>
</defs>
</svg>
