<!-- Generated by IcoMoon.io -->
<svg version="1.1" xmlns="http://www.w3.org/2000/svg" width="32" height="32" viewBox="0 0 32 32">
<title>icn_logout</title>
<path d="M6.176 4.739c2.685-2.527 6.321-4.106 10.415-4.106 8.225 0 15.012 6.787 15.012 15.012 0 8.214-6.635 15.012-15.012 15.012-4.094 0-7.729-1.578-10.415-4.106-0.618-0.582-0.647-1.554-0.066-2.172s1.554-0.648 2.172-0.066c2.137 2.012 5.027 3.27 8.308 3.27 6.659 0 11.938-5.401 11.938-11.939 0-6.527-5.411-11.938-11.938-11.938-3.282 0-6.171 1.259-8.308 3.27-0.618 0.582-1.59 0.552-2.172-0.066s-0.552-1.59 0.066-2.172zM14.796 8.152c0.613-0.586 1.586-0.564 2.172 0.049l6.099 6.383c0.568 0.594 0.568 1.529 0 2.123l-6.099 6.383c-0.586 0.614-1.559 0.636-2.172 0.049s-0.636-1.559-0.050-2.173l3.616-3.785h-16.193c-0.849 0-1.537-0.688-1.537-1.537s0.688-1.537 1.537-1.537h16.193l-3.616-3.785c-0.586-0.614-0.564-1.586 0.050-2.173z"></path>
</svg>
