<svg width="34" height="34" viewBox="0 0 34 34" fill="none" xmlns="http://www.w3.org/2000/svg">
<path d="M14.1674 17.7586C14.1674 16.0905 15.2299 14.6073 16.8088 14.0696L24.2463 11.5409C24.6458 11.4049 25.0686 11.3326 25.5 11.3326C25.9293 11.3326 26.3542 11.4049 26.7622 11.5451L31.1653 13.0432V3.54237C31.1674 1.58525 29.5821 0 27.625 0H3.54237C1.58525 0 0 1.58525 0 3.54237V16.2924C0 18.2474 1.58525 19.8347 3.54237 19.8347H14.1674V17.7586ZM2.83263 3.49988L15.5826 9.44987L28.3326 3.49988V5.85225L16.3328 11.4474C16.0926 11.56 15.8376 11.6174 15.5826 11.6174C15.3276 11.6174 15.0726 11.56 14.8325 11.4474L2.83263 5.85225V3.49988Z" fill="white"/>
<path d="M33.2796 16.7536L25.8421 14.2249C25.6211 14.1484 25.381 14.1484 25.1579 14.2249L17.7204 16.7536C17.289 16.9002 17 17.304 17 17.7587V23.4516C17 30.4004 24.7541 33.7749 25.0856 33.9172C25.2174 33.9725 25.3597 34.0001 25.5 34.0001C25.6403 34.0001 25.7826 33.9725 25.9144 33.9151C26.2459 33.7749 34 30.3982 34 23.4516V17.7587C34 17.304 33.711 16.9002 33.2796 16.7536ZM30.5299 21.7452L26.2799 27.4126C26.0334 27.742 25.6573 27.946 25.2471 27.9757C25.2131 27.9779 25.1791 27.98 25.1451 27.98C24.7711 27.98 24.4099 27.8312 24.1442 27.5656L21.3116 24.733C20.7591 24.1805 20.7591 23.2837 21.3116 22.7291C21.8641 22.1745 22.7609 22.1766 23.3155 22.7291L24.9942 24.4079L28.2646 20.0474C28.7343 19.4226 29.6225 19.293 30.2472 19.7647C30.872 20.2322 30.9995 21.1205 30.5299 21.7452Z" fill="#EC704A"/>
</svg>
