<!-- Generated by IcoMoon.io -->
<svg version="1.1" xmlns="http://www.w3.org/2000/svg" width="32" height="32" viewBox="0 0 32 32">
<title>orders-made</title>
<path d="M1 5.5c0-0.828 0.672-1.5 1.5-1.5h6.75c0.828 0 1.5 0.672 1.5 1.5s-0.672 1.5-1.5 1.5h-5.25v19.5h24v-19.5h-5.25c-0.828 0-1.5-0.672-1.5-1.5s0.672-1.5 1.5-1.5h6.75c0.828 0 1.5 0.672 1.5 1.5v22.5c0 0.828-0.672 1.5-1.5 1.5h-27c-0.398 0-0.779-0.158-1.061-0.439s-0.439-0.663-0.439-1.061v-22.5z"></path>
<path d="M2.5 19.75c0-0.828 0.672-1.5 1.5-1.5h6.857c0.828 0 1.5 0.672 1.5 1.5v1.5h7.286v-1.5c0-0.828 0.672-1.5 1.5-1.5h6.857c0.828 0 1.5 0.672 1.5 1.5s-0.672 1.5-1.5 1.5h-5.357v1.5c0 0.828-0.672 1.5-1.5 1.5h-10.286c-0.828 0-1.5-0.672-1.5-1.5v-1.5h-5.357c-0.828 0-1.5-0.672-1.5-1.5z"></path>
<path d="M8.742 9.783c0.452-0.695 1.381-0.892 2.075-0.44l3.682 2.394v-7.736c0-0.828 0.672-1.5 1.5-1.5s1.5 0.672 1.5 1.5v7.736l3.682-2.394c0.695-0.452 1.624-0.254 2.075 0.44s0.254 1.624-0.44 2.075l-6 3.9c-0.497 0.323-1.138 0.323-1.635 0l-6-3.9c-0.695-0.452-0.892-1.381-0.44-2.075z"></path>
</svg>
