<!-- Generated by IcoMoon.io -->
<svg version="1.1" xmlns="http://www.w3.org/2000/svg" width="34" height="32" viewBox="0 0 34 32">
<title>phone</title>
<path d="M15.77 10.141c0.829-1.117 1.126-2.295 0.189-3.334-2.104-2.944-3.519-4.764-4.406-5.641-1.687-1.667-4.463-1.441-5.924-0.001-0.785 0.773-1.051 1.039-1.857 1.858-4.489 4.491-1.751 13.986 5.526 21.271 7.276 7.283 16.77 10.022 21.268 5.521 0.744-0.717 1.373-1.347 1.87-1.872 1.432-1.514 1.649-4.167-0.009-5.891-0.85-0.884-2.587-2.23-5.654-4.425-0.94-0.84-2.054-0.658-3.075 0.012-0.491 0.322-0.849 0.648-1.524 1.324l-1.226 1.227c-0.161 0.162-2.354-0.936-4.483-3.067-2.13-2.132-3.227-4.324-3.066-4.485l1.227-1.228c0.214-0.214 0.317-0.318 0.448-0.456 0.274-0.288 0.5-0.549 0.697-0.813zM23.209 22.453l1.226-1.227c0.372-0.372 0.612-0.601 0.808-0.758 2.688 1.93 4.244 3.143 4.88 3.804 0.382 0.397 0.322 1.12-0.009 1.471-0.459 0.485-1.056 1.082-1.788 1.788-2.909 2.91-10.572 0.699-16.766-5.5-6.195-6.201-8.405-13.866-5.518-16.755 0.803-0.815 1.057-1.069 1.831-1.832 0.29-0.286 1.080-0.35 1.433-0.001 0.683 0.675 1.951 2.298 3.815 4.895-0.097 0.12-0.217 0.255-0.364 0.409-0.108 0.113-0.197 0.204-0.394 0.4l-1.226 1.226c-2.085 2.085-0.309 5.633 3.065 9.011 3.372 3.375 6.922 5.153 9.006 3.068z"></path>
</svg>
