<!-- Generated by IcoMoon.io -->
<svg version="1.1" xmlns="http://www.w3.org/2000/svg" width="37" height="32" viewBox="0 0 37 32">
<title>platform</title>
<path d="M29.388 4.453v3.525c-0.049 0.305-0.204 0.582-0.437 0.782s-0.529 0.31-0.835 0.31c-0.306 0-0.602-0.11-0.836-0.31s-0.388-0.477-0.437-0.782v-6.858c-0.049-0.305-0.204-0.582-0.437-0.782s-0.529-0.31-0.836-0.31c-0.306 0-0.602 0.11-0.835 0.31s-0.388 0.477-0.437 0.782v9.507c-0.049 0.305-0.204 0.582-0.437 0.782s-0.529 0.31-0.836 0.31-0.602-0.11-0.835-0.31c-0.233-0.2-0.388-0.477-0.437-0.782v-9.507c-0.043-0.311-0.196-0.595-0.43-0.801s-0.535-0.319-0.846-0.319c-0.311 0-0.611 0.113-0.846 0.319s-0.387 0.49-0.43 0.801v6.858c-0.049 0.305-0.204 0.582-0.437 0.782s-0.529 0.31-0.835 0.31-0.602-0.11-0.836-0.31c-0.233-0.2-0.388-0.477-0.437-0.782v-4.475c-0.025-0.316-0.173-0.608-0.412-0.814s-0.548-0.309-0.861-0.286c-0.313-0.023-0.623 0.080-0.861 0.286s-0.386 0.499-0.412 0.814v11.015c-0.025 0.316-0.173 0.61-0.411 0.817s-0.547 0.312-0.861 0.291c-0.314 0.021-0.623-0.084-0.861-0.291s-0.386-0.501-0.411-0.817v-13.399c-0.023-0.317-0.17-0.612-0.409-0.82s-0.549-0.312-0.864-0.289c-0.314-0.023-0.625 0.081-0.864 0.289s-0.386 0.503-0.409 0.82v6.858c-0.025 0.316-0.173 0.61-0.411 0.817s-0.547 0.312-0.861 0.291c-0.315 0.023-0.627-0.081-0.867-0.288s-0.389-0.502-0.414-0.82v-3.525h-6.469l17.929 27.006 17.937-27.006h-6.477z"></path>
</svg>
