<!-- Generated by IcoMoon.io -->
<svg version="1.1" xmlns="http://www.w3.org/2000/svg" width="32" height="32" viewBox="0 0 32 32">
<title>settings</title>
<path d="M17.533 4.837c-0.328-1.683-2.736-1.683-3.065 0-0.553 2.835-3.678 4.34-6.24 3.005-1.521-0.793-3.022 1.090-1.911 2.396 1.872 2.2 1.1 5.582-1.541 6.752v0c-1.568 0.695-1.032 3.042 0.682 2.988 2.887-0.092 5.050 2.62 4.318 5.415-0.434 1.659 1.735 2.704 2.761 1.33 1.728-2.315 5.197-2.315 6.926 0 1.026 1.374 3.196 0.329 2.761-1.33-0.732-2.794 1.431-5.507 4.318-5.415 1.714 0.054 2.25-2.293 0.682-2.988-2.641-1.17-3.413-4.552-1.541-6.752 1.111-1.306-0.39-3.189-1.911-2.396-2.562 1.335-5.687-0.17-6.24-3.005zM11.758 4.308c0.909-4.659 7.575-4.659 8.484 0 0.2 1.024 1.329 1.568 2.254 1.086 4.21-2.194 8.366 3.018 5.29 6.633-0.676 0.795-0.397 2.017 0.557 2.439 4.34 1.923 2.857 8.422-1.888 8.272-1.043-0.033-1.824 0.947-1.56 1.956 1.203 4.592-4.804 7.485-7.644 3.681-0.624-0.836-1.878-0.836-2.502 0-2.841 3.803-8.847 0.911-7.644-3.681 0.264-1.009-0.517-1.989-1.56-1.956-4.745 0.151-6.228-6.349-1.888-8.272 0.954-0.423 1.233-1.644 0.557-2.439-3.076-3.616 1.080-8.828 5.29-6.633 0.925 0.482 2.054-0.061 2.254-1.086zM16 13.239c-1.525 0-2.761 1.236-2.761 2.761s1.236 2.761 2.761 2.761 2.761-1.236 2.761-2.761c0-1.525-1.236-2.761-2.761-2.761zM10.479 16c0-3.050 2.472-5.522 5.522-5.522s5.522 2.472 5.522 5.522c0 3.050-2.472 5.522-5.522 5.522s-5.522-2.472-5.522-5.522z"></path>
</svg>
