<svg width="88" height="88" viewBox="0 0 88 88" fill="none" xmlns="http://www.w3.org/2000/svg">
<g clip-path="url(#clip0)">
<path d="M80.7381 37.4386C80.7381 35.0686 79.12 33.9118 76.7635 33.9118C73.2863 33.9118 68.6853 35.0176 64.2334 34.8853L64.7403 33.1713C65.8823 29.821 64.3381 26.1459 61.1463 24.6158L59.4289 23.7933C57.8478 23.0353 55.9552 23.7839 55.3207 25.4188L52.897 31.6593C52.7319 32.0856 52.5862 32.518 52.4432 32.9524C49.5918 41.5965 31.6147 59.252 17.3438 59.252V69.7793L56.9542 73.2692L88.0005 69.7793C88.0005 50.6005 80.7381 50.6945 80.7381 37.4386Z" fill="#F26A35"/>
<path d="M0.00390625 69.7793L9.28516 71.7142L17.3431 69.7793V59.252C7.76715 59.252 0.00390625 64.0309 0.00390625 69.7793Z" fill="#F7F7F7"/>
<path d="M0 69.7793H88V74.8489C88 77.0457 86.2195 78.8262 84.0227 78.8262H4.19751C1.87921 78.8262 0 76.947 0 74.6294V69.7793Z" fill="#EAECF0"/>
<path d="M74.8472 57.9665C74.8472 61.1711 72.2489 63.7693 69.0437 63.7693C65.8385 63.7693 63.2402 61.1711 63.2402 57.9665C63.2402 54.7613 65.8385 52.1631 69.0437 52.1631C72.2489 52.1631 74.8472 54.7613 74.8472 57.9665Z" fill="#F0F0F0"/>
<path d="M56.7164 47.3808C57.0803 47.5567 57.465 47.64 57.8436 47.64C58.8057 47.64 59.7302 47.1015 60.1774 46.177C60.8004 44.8893 60.262 43.3397 58.9743 42.7167L49.6393 38.1982C48.7255 39.5215 47.6419 40.9073 46.418 42.3091C46.5757 42.4401 46.7496 42.5562 46.9423 42.6495L56.7164 47.3808Z" fill="#F7F7F7"/>
<path d="M48.1757 54.7668C48.6792 55.2576 49.3318 55.502 49.9837 55.502C50.6578 55.502 51.3312 55.2401 51.8394 54.7191C52.8378 53.6946 52.8163 52.0544 51.7917 51.056L44.7227 44.1689C43.5679 45.3828 42.3225 46.5933 41.0039 47.7703C41.0328 47.8018 41.0603 47.834 41.0905 47.8636L48.1757 54.7668Z" fill="#F7F7F7"/>
<path d="M39.4922 59.9971C40.0018 60.6705 40.7766 61.025 41.5601 61.025C42.1052 61.025 42.6544 60.8538 43.1217 60.5C44.2624 59.6366 44.4873 58.0112 43.6239 56.8705L38.4146 49.9874C38.4106 49.9821 38.4059 49.9774 38.4019 49.9727C37.0577 51.0502 35.6606 52.0795 34.2285 53.0349C34.2473 53.0617 34.2634 53.0886 34.2829 53.1141L39.4922 59.9971Z" fill="#F7F7F7"/>
<path d="M28.8926 64.8502C29.329 65.8002 30.2669 66.3602 31.2478 66.3602C31.6097 66.3602 31.9776 66.2843 32.3281 66.1232C33.6279 65.5256 34.1979 63.9875 33.6003 62.687L30.3032 55.5106C30.2904 55.483 30.275 55.4575 30.2615 55.4307C28.7073 56.2699 27.1342 57.0017 25.5625 57.5925C25.5739 57.6194 25.5826 57.6469 25.5947 57.6738L28.8926 64.8502Z" fill="#F7F7F7"/>
<path d="M63.2383 57.9656C63.2383 61.1701 65.8365 63.7684 69.0417 63.7684V52.1621C65.8365 52.1621 63.2383 54.7604 63.2383 57.9656Z" fill="#F7F7F7"/>
</g>
<defs>
<clipPath id="clip0">
<rect width="88" height="88" fill="white"/>
</clipPath>
</defs>
</svg>
