<svg width="36" height="36" viewBox="0 0 36 36" fill="none" xmlns="http://www.w3.org/2000/svg">
<path opacity="0.4" d="M36 18C36 21.2378 35.1456 24.2757 33.6483 26.9008C33.5381 27.0948 33.4146 27.3019 33.2787 27.5201C31.3707 30.5764 28.5708 33.0193 25.2426 34.4835C24.6945 34.7245 24.1317 34.9398 23.5565 35.1256C23.2171 35.2358 22.8732 35.3365 22.5257 35.4261C22.2179 35.5062 21.9064 35.5782 21.5927 35.6414C20.4318 35.8766 19.2306 36 18 36C14.4309 36 11.1056 34.9619 8.30791 33.17C6.47634 31.9982 4.87174 30.503 3.57279 28.7663C1.32905 25.7635 0 22.0364 0 18C0 8.43651 7.45861 0.614953 16.8759 0.0345234C17.1096 0.0198281 17.3439 0.0102656 17.5797 0.00513281H17.5827C17.7216 0.00147656 17.8604 0 18 0C27.9411 0 36 8.05887 36 18Z" fill="#ABABAB"/>
<path d="M33.6482 26.901C33.538 27.095 33.4145 27.3021 33.2786 27.5203C31.3706 30.5766 28.5707 33.0195 25.2425 34.4837C24.6944 34.7246 24.1316 34.9399 23.5564 35.1258C23.217 35.2359 22.8731 35.3366 22.5256 35.4263L24.7877 4.15332L27.6002 6.61384L30.6235 6.68436L33.6482 26.901Z" fill="#009576"/>
<path d="M23.5197 4.56469C22.7527 2.56634 21.5361 0.783984 19.5406 1.10208C19.0828 0.495211 18.4525 0.057375 17.5826 0.00520313H17.5796C17.5224 0.00147656 17.4644 0 17.4048 0C17.227 0 17.0507 0.0117422 16.8759 0.0345234C13.774 0.440789 11.2341 4.3707 10.2806 8.86261L5.94439 10.2703L3.57275 28.7662C4.87171 30.503 6.47624 31.9981 8.30788 33.1699L21.5926 35.6414C22.2612 35.5062 22.9165 35.3336 23.5564 35.1257L24.7877 4.15315L23.5197 4.56469ZM11.6552 8.41669C11.6552 8.41669 12.2723 6.47339 13.1158 4.7153C13.9599 2.95791 16.7018 0.426164 18.2491 1.37538C18.2953 1.40407 18.3402 1.43487 18.3828 1.46798C16.6063 2.2879 15.2112 4.20469 14.4999 7.4932L11.6552 8.41669ZM19.4583 5.8834L15.9693 7.01557C15.9693 7.01557 16.6349 3.39497 19.1006 2.50601C19.6457 3.90635 19.4583 5.8834 19.4583 5.8834ZM20.7448 5.46539C20.7448 5.46539 20.7448 3.82774 20.1967 2.34513C21.4611 2.47739 22.1098 3.8314 22.4294 4.91878L20.7448 5.46539Z" fill="#00B58F"/>
<path d="M8.73041 25.3955C9.36245 25.8523 9.99476 26.3163 10.7269 26.6158C11.0418 26.7447 11.3631 26.8448 11.7005 26.8992C12.3062 26.997 12.8556 26.9161 13.2409 26.3864C13.6449 25.8312 13.5732 25.2389 13.3046 24.6554C13.1199 24.2544 12.8105 23.9461 12.483 23.6595C12.0599 23.2895 11.6323 22.9245 11.2027 22.5621C9.80837 21.3859 9.37665 19.86 9.62225 18.1112C10.0505 15.0623 12.3177 12.8837 15.3841 12.5102C16.7024 12.3496 17.9955 12.3625 19.2694 12.7926C19.5554 12.8892 19.5838 13.0056 19.4925 13.2687C19.0935 14.4172 18.7072 15.5703 18.3334 16.7273C18.2579 16.9609 18.1958 16.9995 17.9569 16.9016C16.9815 16.5018 15.9727 16.2633 14.9085 16.4417C14.1685 16.5657 13.5742 16.89 13.366 17.6768C13.2194 18.2305 13.4136 18.6909 13.8074 19.078C14.3522 19.6137 14.9872 20.0381 15.589 20.5032C16.3161 21.0653 16.9891 21.6804 17.4595 22.4823C18.2974 23.9109 18.3065 25.4356 17.8716 26.9678C17.1359 29.5594 14.9101 30.9579 12.2328 30.62C10.6767 30.4235 9.3031 29.8576 8.11173 28.8361C7.84384 28.6065 7.74308 28.3997 7.8752 28.0296C8.15413 27.2488 8.36703 26.4444 8.60631 25.6494C8.63267 25.5619 8.6364 25.4646 8.73041 25.3955Z" fill="#FDFEFD"/>
</svg>
