<!-- Generated by IcoMoon.io -->
<svg version="1.1" xmlns="http://www.w3.org/2000/svg" width="34" height="32" viewBox="0 0 34 32">
<title>switch</title>
<path d="M24.521 0.521c0.694-0.694 1.82-0.694 2.514 0l6.222 6.222c0.694 0.694 0.694 1.82 0 2.514l-6.222 6.222c-0.694 0.694-1.82 0.694-2.514 0s-0.694-1.82 0-2.514l3.187-3.187h-24.153c-0.982 0-1.778-0.796-1.778-1.778s0.796-1.778 1.778-1.778h24.153l-3.187-3.187c-0.694-0.694-0.694-1.82 0-2.514zM9.257 16.521c0.694 0.694 0.694 1.82 0 2.514l-3.187 3.187h24.152c0.982 0 1.778 0.796 1.778 1.778s-0.796 1.778-1.778 1.778h-24.152l3.187 3.187c0.694 0.694 0.694 1.82 0 2.514s-1.82 0.694-2.514 0l-6.222-6.222c-0.694-0.694-0.694-1.82 0-2.514l6.222-6.222c0.694-0.694 1.82-0.694 2.514 0z"></path>
</svg>