<svg width="257" height="223" viewBox="0 0 257 223" fill="none" xmlns="http://www.w3.org/2000/svg">
<path d="M212.634 34.8096H9.19789C4.14807 34.8096 0 38.9795 0 44.0559V182.57C0 187.646 4.14807 191.816 9.19789 191.816H212.453C217.503 191.816 221.651 187.646 221.651 182.57V44.0559C221.832 38.9795 217.684 34.8096 212.634 34.8096Z" fill="#6B8399"/>
<path d="M208.058 48.77H14V177.494H208.058V48.77Z" fill="white"/>
<path d="M152.938 191.816H68.3535V216.836H152.938V191.816Z" fill="#CDD6E0"/>
<path d="M191 177.416V49H30V177.416H191Z" fill="#F4F6FA"/>
<path d="M153.486 112.788C153.486 120.584 151.502 127.836 147.895 134C147.715 134.544 147.354 134.907 146.994 135.451C142.485 142.703 135.812 148.505 127.876 152.131C126.614 152.674 125.171 153.218 123.909 153.581C123.187 153.762 122.286 154.125 121.384 154.306C120.662 154.487 119.941 154.669 119.22 154.85C116.514 155.394 113.629 155.757 110.743 155.757C102.267 155.757 94.3312 153.218 87.6582 149.048C83.3298 146.329 79.5425 142.703 76.4765 138.533C71.066 131.281 68 122.397 68 112.788C68 89.9444 85.6744 71.2704 108.038 70.0013C108.579 70.0013 109.12 70.0013 109.661 70.0013C110.022 70.0013 110.382 70.0013 110.563 70.0013C134.369 69.82 153.486 89.0379 153.486 112.788Z" fill="#1C1D48"/>
<path d="M128.067 99.128V104.506C127.992 104.971 127.754 105.394 127.397 105.7C127.039 106.005 126.585 106.173 126.116 106.173C125.646 106.173 125.192 106.005 124.834 105.7C124.477 105.394 124.239 104.971 124.164 104.506V94.0425C124.09 93.5774 123.852 93.1542 123.495 92.8488C123.137 92.5434 122.683 92.3757 122.213 92.3757C121.744 92.3757 121.29 92.5434 120.932 92.8488C120.575 93.1542 120.337 93.5774 120.262 94.0425V108.549C120.187 109.014 119.95 109.437 119.592 109.743C119.235 110.048 118.781 110.216 118.311 110.216C117.841 110.216 117.387 110.048 117.03 109.743C116.672 109.437 116.435 109.014 116.36 108.549V94.0425C116.294 93.5686 116.059 93.1346 115.7 92.8205C115.34 92.5065 114.879 92.3335 114.402 92.3335C113.925 92.3335 113.465 92.5065 113.105 92.8205C112.745 93.1346 112.511 93.5686 112.445 94.0425V104.506C112.37 104.971 112.132 105.394 111.775 105.7C111.417 106.005 110.963 106.173 110.494 106.173C110.024 106.173 109.57 106.005 109.212 105.7C108.855 105.394 108.617 104.971 108.543 104.506V97.6786C108.504 97.1972 108.277 96.7506 107.911 96.4363C107.546 96.122 107.071 95.9653 106.591 96.0004C106.111 95.9653 105.637 96.122 105.271 96.4363C104.906 96.7506 104.679 97.1972 104.64 97.6786V114.486C104.601 114.969 104.375 115.417 104.01 115.733C103.645 116.049 103.17 116.209 102.689 116.177C102.208 116.209 101.733 116.049 101.368 115.733C101.003 115.417 100.777 114.969 100.738 114.486V94.0425C100.702 93.5588 100.477 93.109 100.111 92.792C99.745 92.4749 99.2688 92.3165 98.7867 92.3515C98.3046 92.3165 97.8283 92.4749 97.4625 92.792C97.0967 93.109 96.8712 93.5588 96.8355 94.0425V104.506C96.7966 104.988 96.5702 105.436 96.2052 105.753C95.8401 106.069 95.3657 106.229 94.8844 106.197C94.4009 106.232 93.9233 106.074 93.5554 105.757C93.1876 105.441 92.9594 104.991 92.9205 104.506V99.128H83L96.7468 119.737L110.494 140.333L124.24 119.737L138 99.128H128.067Z" fill="white"/>
</svg>
