<svg width="460" height="192" viewBox="0 0 460 192" fill="none" xmlns="http://www.w3.org/2000/svg">
<path fill-rule="evenodd" clip-rule="evenodd" d="M98 9C98 8.44772 98.4477 8 99 8H226V23C226 25.2091 227.791 27 230 27C232.209 27 234 25.2091 234 23V8H361C361.552 8 362 8.44772 362 9V23.1224C362 25.3316 363.791 27.1224 366 27.1224C368.209 27.1224 370 25.3316 370 23.1224V9C370 4.02943 365.971 0 361 0H99C94.0294 0 90 4.02944 90 9V23.1224C90 25.3316 91.7909 27.1224 94 27.1224C96.2091 27.1224 98 25.3316 98 23.1224V9Z" fill="#CDD6E0"/>
<g opacity="0.3" filter="url(#filter0_f)">
<rect x="186" y="93" width="88" height="44" fill="#898B98"/>
</g>
<rect x="170" y="34" width="120" height="104" rx="16" fill="white"/>
<path d="M266.336 52.7728L247.508 48.0656C247.333 48.022 247.154 48 246.975 48H214.025C213.846 48 213.667 48.022 213.492 48.0656L194.664 52.7728C193.686 53.0172 193 53.8961 193 54.9044V73.7325C193 74.9459 193.984 75.9297 195.197 75.9297H207.121V120.803C207.121 122.016 208.105 123 209.318 123H251.682C252.895 123 253.879 122.016 253.879 120.803V75.9297H265.803C267.016 75.9297 268 74.9459 268 73.7325V54.9044C268 53.8961 267.314 53.0172 266.336 52.7728Z" fill="#3B3A8F"/>
<path d="M242.268 48H218.732C217.519 48 216.535 48.9838 216.535 50.1973V54.9042C216.535 62.6043 222.8 68.869 230.5 68.869C238.2 68.869 244.465 62.6043 244.465 54.9042V50.1973C244.465 48.9838 243.481 48 242.268 48Z" fill="#2B2A69"/>
<g opacity="0.3" filter="url(#filter1_f)">
<rect x="322" y="92" width="88" height="44" fill="#898B98"/>
</g>
<rect x="306" y="33" width="120" height="104" rx="16" fill="white"/>
<path d="M384.814 48C381.334 48 332.784 48 335.568 48C334.872 48 334.176 48.522 334.176 49.3921V75.1462V121.608C334.176 122.304 334.872 123 335.568 123H360.626C361.322 123 362.018 122.478 362.018 121.608V86.4571C362.018 83.8469 364.106 81.7587 366.716 81.7587C368.979 81.7587 370.893 83.6729 370.893 85.935V121.434C370.893 122.13 371.415 122.826 372.285 122.826H397.343C398.039 122.826 398.735 122.304 398.735 121.434V49.3921C398.735 48.6961 398.213 48 397.343 48H384.814Z" fill="#C748A5"/>
<path fill-rule="evenodd" clip-rule="evenodd" d="M398.559 49.3921C398.559 48.6961 398.037 48 397.167 48H384.638H335.392C334.696 48 334 48.6961 334 49.3921V57.0487H334.174V77.9301C340.09 75.3199 344.267 69.4034 344.267 62.4428V57.0487H364.278V82.4547C365.496 81.7586 367.063 81.5846 368.455 82.2807V57.0487H388.641V62.4428C388.641 69.4034 392.817 75.3199 398.733 77.9301V56.5264H398.559H398.385V49.3921H398.559Z" fill="#AA2186"/>
<path d="M353.143 48H348.967V57.0487H353.143V48Z" fill="#C748A5"/>
<path d="M383.944 48H379.768V57.0487H383.944V48Z" fill="#C748A5"/>
<path d="M366.541 57.0487C369.04 57.0487 371.065 55.0231 371.065 52.5244C371.065 50.0256 369.04 48 366.541 48C364.042 48 362.017 50.0256 362.017 52.5244C362.017 55.0231 364.042 57.0487 366.541 57.0487Z" fill="#C748A5"/>
<g opacity="0.3" filter="url(#filter2_f)">
<rect x="50" y="92" width="88" height="44" fill="#898B98"/>
</g>
<rect x="34" y="33" width="120" height="104" rx="16" fill="white"/>

<path d="M130.738 70.4386C130.738 68.0686 129.12 66.9118 126.763 66.9118C123.286 66.9118 118.685 68.0176 114.233 67.8853L114.74 66.1713C115.882 62.821 114.338 59.1459 111.146 57.6158L109.429 56.7933C107.848 56.0353 105.955 56.7839 105.321 58.4188L102.897 64.6593C102.732 65.0856 102.586 65.518 102.443 65.9524C99.5918 74.5965 81.6147 92.252 67.3438 92.252V102.779L106.954 106.269L138 102.779C138 83.6005 130.738 83.6945 130.738 70.4386Z" fill="#F26A35"/>
<path d="M50.0039 102.779L59.2852 104.714L67.3431 102.779V92.252C57.7672 92.252 50.0039 97.0309 50.0039 102.779Z" fill="#F7F7F7"/>
<path d="M50 102.779H138V107.849C138 110.046 136.219 111.826 134.023 111.826H54.1975C51.8792 111.826 50 109.947 50 107.629V102.779Z" fill="#EAECF0"/>
<path d="M124.847 90.9665C124.847 94.1711 122.249 96.7693 119.044 96.7693C115.839 96.7693 113.24 94.1711 113.24 90.9665C113.24 87.7613 115.839 85.1631 119.044 85.1631C122.249 85.1631 124.847 87.7613 124.847 90.9665Z" fill="#F0F0F0"/>
<path d="M106.716 80.3808C107.08 80.5567 107.465 80.64 107.844 80.64C108.806 80.64 109.73 80.1015 110.177 79.177C110.8 77.8893 110.262 76.3397 108.974 75.7167L99.6393 71.1982C98.7255 72.5215 97.6419 73.9073 96.418 75.3091C96.5757 75.4401 96.7496 75.5562 96.9423 75.6495L106.716 80.3808Z" fill="#F7F7F7"/>
<path d="M98.1757 87.7668C98.6792 88.2576 99.3318 88.502 99.9837 88.502C100.658 88.502 101.331 88.2401 101.839 87.7191C102.838 86.6946 102.816 85.0544 101.792 84.056L94.7227 77.1689C93.5679 78.3828 92.3225 79.5933 91.0039 80.7703C91.0328 80.8018 91.0603 80.834 91.0905 80.8636L98.1757 87.7668Z" fill="#F7F7F7"/>
<path d="M89.4922 92.9971C90.0018 93.6705 90.7766 94.025 91.5601 94.025C92.1052 94.025 92.6544 93.8538 93.1217 93.5C94.2624 92.6366 94.4873 91.0112 93.6239 89.8705L88.4146 82.9874C88.4106 82.9821 88.4059 82.9774 88.4019 82.9727C87.0577 84.0502 85.6606 85.0795 84.2285 86.0349C84.2473 86.0617 84.2634 86.0886 84.2829 86.1141L89.4922 92.9971Z" fill="#F7F7F7"/>
<path d="M78.8926 97.8502C79.329 98.8002 80.2669 99.3602 81.2478 99.3602C81.6097 99.3602 81.9776 99.2843 82.3281 99.1232C83.6279 98.5256 84.1979 96.9875 83.6003 95.687L80.3032 88.5106C80.2904 88.483 80.275 88.4575 80.2615 88.4307C78.7073 89.2699 77.1342 90.0017 75.5625 90.5925C75.5739 90.6194 75.5826 90.6469 75.5947 90.6738L78.8926 97.8502Z" fill="#F7F7F7"/>
<path d="M113.238 90.9656C113.238 94.1701 115.837 96.7684 119.042 96.7684V85.1621C115.837 85.1621 113.238 87.7604 113.238 90.9656Z" fill="#F7F7F7"/>

<path d="M170 178.431H267.801V190.284C267.801 190.752 268.11 191.22 268.419 191.532C269.346 192.156 270.735 192.156 271.662 191.532L289.11 177.651C290.809 176.248 290.809 173.908 289.11 172.505L271.662 158.468C270.735 157.844 269.346 157.844 268.419 158.468C267.956 158.78 267.801 159.248 267.801 159.716V171.569H170" fill="#6B8399"/>
<defs>
<filter id="filter0_f" x="136" y="43" width="188" height="144" filterUnits="userSpaceOnUse" color-interpolation-filters="sRGB">
<feFlood flood-opacity="0" result="BackgroundImageFix"/>
<feBlend mode="normal" in="SourceGraphic" in2="BackgroundImageFix" result="shape"/>
<feGaussianBlur stdDeviation="25" result="effect1_foregroundBlur"/>
</filter>
<filter id="filter1_f" x="272" y="42" width="188" height="144" filterUnits="userSpaceOnUse" color-interpolation-filters="sRGB">
<feFlood flood-opacity="0" result="BackgroundImageFix"/>
<feBlend mode="normal" in="SourceGraphic" in2="BackgroundImageFix" result="shape"/>
<feGaussianBlur stdDeviation="25" result="effect1_foregroundBlur"/>
</filter>
<filter id="filter2_f" x="0" y="42" width="188" height="144" filterUnits="userSpaceOnUse" color-interpolation-filters="sRGB">
<feFlood flood-opacity="0" result="BackgroundImageFix"/>
<feBlend mode="normal" in="SourceGraphic" in2="BackgroundImageFix" result="shape"/>
<feGaussianBlur stdDeviation="25" result="effect1_foregroundBlur"/>
</filter>
<clipPath id="clip0">
<rect x="50" y="33" width="88" height="88" fill="white"/>
</clipPath>
</defs>
</svg>
