<svg width="86" height="85" viewBox="0 0 86 85" fill="none" xmlns="http://www.w3.org/2000/svg">
<circle cx="42.5" cy="42.5" r="42.5" fill="white"/>
<path d="M42.5019 0C19.0312 0 0 19.0275 0 42.5C0 65.9725 19.0293 85 42.5019 85C65.9763 85 85.0037 65.9725 85.0037 42.5C85.0037 19.0275 65.9763 0 42.5019 0ZM42.5019 12.708C50.2682 12.708 56.5615 19.0032 56.5615 26.7658C56.5615 34.5302 50.2682 40.8235 42.5019 40.8235C34.7393 40.8235 28.446 34.5302 28.446 26.7658C28.446 19.0032 34.7393 12.708 42.5019 12.708ZM42.4925 73.8882C34.7468 73.8882 27.6525 71.0673 22.1807 66.3982C20.8477 65.2613 20.0785 63.5941 20.0785 61.8448C20.0785 53.9721 26.4503 47.6713 34.3248 47.6713H50.6826C58.5591 47.6713 64.9065 53.9721 64.9065 61.8448C64.9065 63.596 64.1411 65.2594 62.8063 66.3963C57.3363 71.0673 50.2402 73.8882 42.4925 73.8882Z" fill="#AA2186"/>
</svg>
