<svg width="257" height="223" viewBox="0 0 257 223" fill="none" xmlns="http://www.w3.org/2000/svg">
<path d="M212.634 34.8096H9.19789C4.14807 34.8096 0 38.9795 0 44.0559V182.57C0 187.646 4.14807 191.816 9.19789 191.816H212.453C217.503 191.816 221.651 187.646 221.651 182.57V44.0559C221.832 38.9795 217.684 34.8096 212.634 34.8096Z" fill="#6B8399"/>
<path d="M207.944 48.77H13.8867V177.494H207.944V48.77Z" fill="white"/>
<path d="M152.938 191.816H68.3535V216.836H152.938V191.816Z" fill="#CDD6E0"/>
<path d="M178.908 217.017H42.9238V223H178.728V217.017H178.908Z" fill="#6B8399"/>
<path d="M191.893 52.0332V170.06C191.893 174.23 188.647 177.493 184.498 177.493H38.0536C33.9055 177.493 30.6592 174.23 30.6592 170.06V52.0332H191.893Z" fill="#F4F6FA"/>
<path d="M182.155 0H39.6774C34.6276 0 30.4795 4.16992 30.4795 9.24634V33.3593H191.713V9.24634C191.352 4.16992 187.204 0 182.155 0Z" fill="#3B3A8F"/>
<path d="M91.0772 22.3002C94.1432 22.3002 96.6681 19.762 96.6681 16.6799C96.6681 13.5978 94.1432 11.0596 91.0772 11.0596C88.0112 11.0596 85.4863 13.5978 85.4863 16.6799C85.4863 19.762 88.0112 22.3002 91.0772 22.3002Z" fill="#E7E7E7"/>
<path d="M69.796 22.3002C72.8619 22.3002 75.3868 19.762 75.3868 16.6799C75.3868 13.5978 72.8619 11.0596 69.796 11.0596C66.73 11.0596 64.2051 13.5978 64.2051 16.6799C64.2051 19.762 66.73 22.3002 69.796 22.3002Z" fill="#E7E7E7"/>
<path d="M48.5147 22.3002C51.5807 22.3002 54.1056 19.762 54.1056 16.6799C54.1056 13.5978 51.5807 11.0596 48.5147 11.0596C45.4487 11.0596 42.9238 13.5978 42.9238 16.6799C42.9238 19.762 45.4487 22.3002 48.5147 22.3002Z" fill="#E7E7E7"/>
<path d="M58.2534 52.0332H23.085L30.4793 33.5405H62.4015L58.2534 52.0332Z" fill="#00E8B7"/>
<path d="M93.4213 52.0332H58.2529L62.401 33.5405H94.6838L93.4213 52.0332Z" fill="#00C79D"/>
<path d="M128.41 52.0332H93.4219L94.8647 33.5405H127.147L128.41 52.0332Z" fill="#00E8B7"/>
<path d="M163.579 52.0332H128.411L126.968 33.5405H159.251L163.579 52.0332Z" fill="#00C79D"/>
<path d="M198.747 52.0332H163.579L159.431 33.5405H191.353L198.747 52.0332Z" fill="#00E8B7"/>
<path d="M58.2529 60.0104C58.2529 69.8007 66.1884 77.5966 75.747 77.5966C85.3056 77.5966 93.241 69.6194 93.241 60.0104V52.0332H58.2529V60.0104Z" fill="#00B58F"/>
<path d="M128.41 52.0332V60.0104C128.41 69.8007 136.346 77.5966 145.904 77.5966C155.463 77.5966 163.398 69.6194 163.398 60.0104V52.0332H128.41Z" fill="#00B58F"/>
<path d="M23.085 60.0104C23.085 69.8007 31.0204 77.5966 40.579 77.5966C50.1376 77.5966 58.073 69.6194 58.073 60.0104V52.0332H23.085V60.0104Z" fill="#00C79D"/>
<path d="M93.4219 60.0104C93.4219 69.8007 101.357 77.5966 110.916 77.5966C120.655 77.5966 128.41 69.6194 128.41 60.0104V52.0332H93.4219V60.0104Z" fill="#00C79D"/>
<path d="M163.578 52.0332V60.0104C163.578 69.8007 171.514 77.5966 181.072 77.5966C190.811 77.5966 198.566 69.6194 198.566 60.0104V52.0332H163.578Z" fill="#00C79D"/>
<path d="M154.02 127.455C154.02 135.251 152.036 142.503 148.429 148.667C148.248 149.211 147.888 149.573 147.527 150.117C143.018 157.369 136.345 163.171 128.41 166.797C127.147 167.341 125.704 167.885 124.442 168.247C123.721 168.429 122.819 168.791 121.917 168.973C121.196 169.154 120.474 169.335 119.753 169.517C117.048 170.06 114.162 170.423 111.276 170.423C102.8 170.423 94.8644 167.885 88.1915 163.715C83.863 160.995 80.0757 157.369 77.0097 153.199C71.5992 145.947 68.5332 137.064 68.5332 127.455C68.5332 104.611 86.2076 85.9369 108.571 84.6678C109.112 84.6678 109.653 84.6678 110.194 84.6678C110.555 84.6678 110.916 84.6678 111.096 84.6678C134.902 84.4865 154.02 103.704 154.02 127.455Z" fill="#1C1D48"/>
<path d="M148.429 148.667C148.248 149.211 147.888 149.573 147.527 150.117C143.018 157.369 136.345 163.171 128.41 166.797C127.147 167.341 125.704 167.884 124.442 168.247C123.721 168.428 122.819 168.791 121.917 168.972L127.328 94.2764L134.001 100.078L141.215 100.259L148.429 148.667Z" fill="#3E8E33"/>
<path d="M124.262 95.3644C122.458 90.6506 119.573 86.2993 114.883 87.0245C113.801 85.5741 112.359 84.4863 110.194 84.4863C110.014 84.4863 109.834 84.4863 109.834 84.4863C109.473 84.4863 108.932 84.4863 108.571 84.4863C101.177 85.3928 95.2252 94.8205 92.8806 105.517L82.6006 108.962L77.0098 153.018C80.0757 157.188 83.8631 160.814 88.1915 163.533L119.753 169.516C121.376 169.154 122.819 168.791 124.442 168.247L127.328 94.2766L124.262 95.3644ZM96.127 104.611C96.127 104.611 97.5698 99.8969 99.5536 95.727C101.537 91.5571 108.03 85.5741 111.817 87.7497C111.998 87.7497 111.998 87.931 112.178 87.931C108.03 89.9254 104.603 94.4579 102.98 102.254L96.127 104.611ZM114.703 98.6278L106.407 101.347C106.407 101.347 108.03 92.6449 113.801 90.6506C115.244 93.914 114.703 98.6278 114.703 98.6278ZM117.769 97.54C117.769 97.54 117.769 93.5514 116.507 90.1067C119.573 90.4693 121.015 93.7327 121.737 96.2709L117.769 97.54Z" fill="#7FC029"/>
<path d="M89.2736 145.041C90.7164 146.129 92.3395 147.217 93.9627 147.942C94.6841 148.304 95.4055 148.486 96.3073 148.667C97.7501 148.848 99.0125 148.667 99.9143 147.398C100.816 146.129 100.636 144.678 100.095 143.228C99.7339 142.321 98.8322 141.596 98.1108 140.871C97.0287 139.965 96.1269 139.058 95.0448 138.333C91.7985 135.613 90.7164 131.806 91.2574 127.636C92.3395 120.384 97.5697 115.126 104.964 114.22C108.03 113.857 111.096 113.857 114.162 114.945C114.883 115.126 114.883 115.489 114.703 116.033C113.801 118.752 112.9 121.472 111.998 124.373C111.817 124.917 111.637 125.098 111.096 124.735C108.751 123.829 106.407 123.285 103.882 123.647C102.078 124.01 100.636 124.735 100.275 126.548C99.9143 127.817 100.455 128.905 101.357 129.812C102.62 131.081 104.243 132.169 105.505 133.256C107.309 134.525 108.751 135.976 110.014 137.97C111.998 141.415 111.998 145.041 110.916 148.667C109.112 154.831 103.882 158.276 97.5697 157.369C93.9627 156.825 90.536 155.556 87.8308 153.199C87.1094 152.656 86.929 152.112 87.2897 151.205C88.0111 149.392 88.3718 147.398 89.0932 145.585C89.0932 145.585 89.0932 145.222 89.2736 145.041Z" fill="#FDFEFD"/>
<path d="M215.339 202.761C238.243 202.761 257 184.087 257 160.88C257 137.855 238.424 119 215.339 119C192.434 119 173.678 137.674 173.678 160.88C173.678 184.087 192.434 202.761 215.339 202.761Z" fill="#3B3A8F"/>
<path fill-rule="evenodd" clip-rule="evenodd" d="M215.519 132C209.165 132 203.907 137.299 203.907 143.664V151.278H201.272C198.026 151.278 195.501 153.998 195.32 157.261V178.473C195.32 181.737 198.026 184.456 201.272 184.456H229.407C232.653 184.456 235.358 181.737 235.358 178.473V157.261C235.358 153.998 232.653 151.278 229.407 151.278H227.131V143.664C227.131 137.299 221.872 132 215.519 132ZM223.746 151.278V143.664C223.746 139.151 219.986 135.385 215.519 135.385C211.051 135.385 207.292 139.151 207.292 143.664V151.278H223.746ZM221.291 164.332C221.291 161.069 218.766 158.35 215.52 158.35C212.274 158.35 209.568 160.888 209.568 164.151C209.568 166.327 210.831 168.502 212.815 169.409L211.913 175.754C211.733 176.48 212.274 177.024 212.995 177.024H213.175H217.865C218.586 177.024 219.127 176.48 219.127 175.936V175.754L218.225 169.409C220.029 168.684 221.291 166.508 221.291 164.332Z" fill="#00B58F"/>
</svg>
