<svg width="239" height="112" viewBox="0 0 239 112" fill="none" xmlns="http://www.w3.org/2000/svg">
<path d="M236.465 100.19L209.21 67.5613V16.1226C209.21 7.29355 201.916 0 193.087 0H16.5065C7.29355 0 0 7.29355 0 16.1226V95.2C0 104.029 7.29355 111.323 16.1226 111.323H230.706C236.848 111.706 240.303 104.797 236.465 100.19Z" fill="#00B58F"/>
<path d="M128.156 73.7565C125.944 73.7565 124.009 71.8184 124.009 69.6036V37.211C124.009 34.9961 125.944 33.0581 128.156 33.0581C130.368 33.0581 132.303 34.9961 132.303 37.211V69.6036C132.303 72.0953 130.368 73.7565 128.156 73.7565Z" fill="white"/>
<path d="M79.7712 73.7565C77.5594 73.7565 75.624 71.8184 75.624 69.6036V37.211C75.624 34.9961 77.5594 33.0581 79.7712 33.0581C81.9831 33.0581 83.9185 34.9961 83.9185 37.211V69.6036C83.642 72.0953 81.9831 73.7565 79.7712 73.7565Z" fill="white"/>
<path d="M112.12 93.9669C109.908 93.9669 107.973 92.0289 107.973 89.8141V21.1529C107.973 18.938 109.908 17 112.12 17C114.332 17 116.267 18.938 116.267 21.1529V90.0909C115.991 92.3058 114.332 93.9669 112.12 93.9669Z" fill="white"/>
<path d="M95.8074 93.9669C93.5955 93.9669 91.6602 92.0289 91.6602 89.8141V21.1529C91.6602 18.938 93.5955 17 95.8074 17C98.0192 17 99.9546 18.938 99.9546 21.1529V90.0909C99.9546 92.3058 98.0192 93.9669 95.8074 93.9669Z" fill="white"/>
<path d="M63.4607 61.5745C61.2488 61.5745 59.3135 59.6364 59.3135 57.4216V49.3926C59.3135 47.1778 61.2488 45.2397 63.4607 45.2397C65.6725 45.2397 67.6079 47.1778 67.6079 49.3926V57.4216C67.6079 59.9133 65.6725 61.5745 63.4607 61.5745Z" fill="white"/>
<path d="M47.1472 69.603C44.9354 69.603 43 67.665 43 65.4501V41.0865C43 38.8716 44.9354 36.9336 47.1472 36.9336C49.3591 36.9336 51.2944 38.8716 51.2944 41.0865V65.727C51.2944 67.9419 49.3591 69.603 47.1472 69.603Z" fill="white"/>
<path d="M160.78 69.603C158.568 69.603 156.633 67.665 156.633 65.4501V41.0865C156.633 38.8716 158.568 36.9336 160.78 36.9336C162.992 36.9336 164.927 38.8716 164.927 41.0865V65.727C164.651 67.9419 162.992 69.603 160.78 69.603Z" fill="white"/>
<path d="M144.469 61.5745C142.257 61.5745 140.321 59.6364 140.321 57.4216V49.3926C140.321 47.1778 142.257 45.2397 144.469 45.2397C146.68 45.2397 148.616 47.1778 148.616 49.3926V57.4216C148.616 59.9133 146.68 61.5745 144.469 61.5745Z" fill="white"/>
</svg>
