<svg width="540" height="253" viewBox="0 0 540 253" fill="none" xmlns="http://www.w3.org/2000/svg">
<path d="M404.078 205.051L401.243 200.336L415.822 191.573C420.092 188.764 425.831 189.948 428.641 194.218C429.308 195.232 429.769 196.367 429.998 197.558C430.448 199.792 432.623 201.237 434.857 200.788L452.375 197.205L453.466 202.596L435.967 206.191C430.762 207.257 425.677 203.906 424.605 198.702C424.257 196.655 422.314 195.278 420.267 195.626C419.683 195.726 419.131 195.962 418.655 196.315L404.078 205.051Z" fill="#00B58F"/>
<path d="M312.947 37.2265L308.079 34.6632L316.008 19.6145C318.204 14.9987 323.727 13.0379 328.343 15.2344C329.438 15.7558 330.421 16.4875 331.234 17.388C332.776 19.065 335.386 19.1745 337.063 17.633L350.19 5.49156L353.916 9.53652L340.811 21.6786C336.913 25.2875 330.827 25.0557 327.214 21.1607C325.855 19.5902 323.48 19.4186 321.91 20.7776C321.462 21.1653 321.112 21.6532 320.888 22.2021L312.947 37.2265Z" fill="#00B58F"/>
<path d="M406.87 144.592C401.42 141.372 399.612 134.344 402.831 128.894C406.051 123.444 413.079 121.635 418.53 124.855C423.98 128.075 425.788 135.103 422.568 140.553C419.343 145.996 412.322 147.802 406.87 144.592ZM415.732 129.592C412.897 127.917 409.242 128.858 407.568 131.692C405.894 134.526 406.834 138.181 409.668 139.856C412.503 141.53 416.158 140.589 417.832 137.755C419.503 134.92 418.563 131.268 415.732 129.592Z" fill="#F26A35"/>
<path d="M235.868 31.592C230.418 28.3724 228.61 21.3441 231.83 15.8939C235.049 10.4437 242.077 8.6354 247.528 11.855C252.978 15.0746 254.786 22.1029 251.567 27.5532C248.341 32.9956 241.32 34.802 235.868 31.592ZM244.73 16.5915C241.895 14.9173 238.24 15.8577 236.566 18.6919C234.892 21.5261 235.832 25.1813 238.666 26.8555C241.501 28.5298 245.156 27.5894 246.83 24.7552C248.501 21.9203 247.561 18.2679 244.73 16.5915Z" fill="#F26A35"/>
<path d="M478.688 163.438L476.755 158.29L499.781 149.667C502.803 148.483 506.062 148.025 509.294 148.332C511.514 148.568 513.693 149.103 515.77 149.921C515.868 149.96 515.964 150.004 516.057 150.053L539.318 162.516L536.714 167.367L513.603 154.973C512.033 154.365 510.39 153.967 508.716 153.789C506.337 153.577 503.943 153.926 501.724 154.809L478.688 163.438Z" fill="#00B58F"/>
<path d="M390.595 37.5531L378.736 51.7221L388.565 59.2088L390.595 37.5531Z" fill="#F26A35"/>
<path d="M487.145 229.089L468.726 230.578L468.297 218.229L487.145 229.089Z" fill="#F26A35"/>
<path d="M499.886 110.01L481.917 105.698L479.588 117.833L499.886 110.01Z" fill="#F26A35"/>
<path d="M453.738 72.4986L449.001 69.7006L458.095 54.307C460.799 49.7292 466.702 48.2104 471.28 50.9146C472.035 51.3638 472.915 51.5585 473.789 51.4702C475.48 51.1546 476.785 49.802 477.041 48.1009L480.321 31.4135L485.719 32.4748L482.439 49.1622C481.661 54.2113 476.937 57.6733 471.888 56.895C470.682 56.7092 469.524 56.2863 468.482 55.6511C466.52 54.4922 463.99 55.1432 462.831 57.105L453.738 72.4986Z" fill="#00B58F"/>
<path d="M107.434 205.051L110.269 200.336L95.6902 191.573C91.4198 188.764 85.6803 189.948 82.8706 194.218C82.2037 195.232 81.7426 196.367 81.5135 197.558C81.0634 199.792 78.8883 201.237 76.6551 200.788L59.1368 197.205L58.0453 202.596L75.545 206.191C80.7496 207.257 85.8347 203.906 86.9068 198.702C87.2551 196.655 89.1973 195.278 91.2445 195.626C91.8286 195.726 92.3809 195.962 92.8566 196.315L107.434 205.051Z" fill="#00B58F"/>
<path d="M104.641 144.592C110.092 141.372 111.9 134.344 108.68 128.894C105.461 123.444 98.4323 121.635 92.9821 124.855C87.5319 128.075 85.7236 135.103 88.9432 140.553C92.1686 145.996 99.1898 147.802 104.641 144.592ZM95.7801 129.592C98.6143 127.917 102.269 128.858 103.944 131.692C105.618 134.526 104.678 138.181 101.843 139.856C99.0092 141.53 95.354 140.589 93.6797 137.755C92.0087 134.92 92.9484 131.268 95.7801 129.592Z" fill="#00B58F"/>
<path d="M63.825 51.4385L65.758 46.2905L42.7322 37.6672C39.7096 36.4828 36.4508 36.0255 33.2188 36.3321C30.9985 36.568 28.8202 37.1028 26.7428 37.9214C26.645 37.9601 26.5491 38.0039 26.4561 38.0525L3.19443 50.516L5.79823 55.3673L28.9094 42.9735C30.4794 42.3655 32.123 41.9672 33.7971 41.7889C36.1755 41.5771 38.5701 41.9264 40.7888 42.8085L63.825 51.4385Z" fill="#00B58F"/>
<path d="M120.917 37.5531L132.776 51.7221L122.947 59.2088L120.917 37.5531Z" fill="#F26A35"/>
<path d="M64.0004 243.089L82.419 244.578L82.8488 232.229L64.0004 243.089Z" fill="#F26A35"/>
<path d="M37.0001 83.0098L54.9692 78.6979L57.2977 90.8328L37.0001 83.0098Z" fill="#F26A35"/>
<path d="M48.3237 134.015L46.0063 129.025L29.7911 136.557C24.9689 138.796 22.8755 144.521 25.1152 149.343C25.4877 150.139 25.5947 151.034 25.4207 151.895C24.9398 153.546 23.4652 154.712 21.7472 154.799L4.81767 156.417L5.3415 161.894L22.271 160.275C27.3722 159.999 31.2832 155.639 31.0065 150.537C30.9406 149.319 30.6338 148.126 30.1045 147.026C29.1447 144.959 30.0419 142.506 32.1084 141.546L48.3237 134.015Z" fill="#00B58F"/>
</svg>
