<svg width="174" height="258" viewBox="0 0 174 258" fill="none" xmlns="http://www.w3.org/2000/svg">
<path d="M167.288 146.822H6.71217C3.09792 146.822 0 149.659 0 153.529V211.826C0 224.982 9.55193 237.106 27.365 245.618C43.3709 253.615 64.5401 258 87 258C109.46 258 130.629 253.615 146.893 245.618C164.448 236.848 174.258 224.982 174.258 211.826V153.529C174 149.659 171.16 146.822 167.288 146.822Z" fill="#AA2186"/>
<path d="M50.3406 215.696C44.661 214.148 39.4978 212.342 34.8509 210.279C31.4949 208.731 27.6225 210.279 26.0735 213.632C24.5245 216.985 26.0735 220.855 29.4296 222.402C34.8509 224.982 40.7886 227.046 46.9845 228.593C47.5008 228.851 48.0171 228.851 48.7916 228.851C51.6314 228.851 54.4711 226.788 55.2456 223.95C56.0201 220.339 53.9548 216.469 50.3406 215.696Z" fill="#EAECF0"/>
<path d="M146.893 119.478C130.887 111.482 109.718 107.097 87 107.097C64.5401 107.097 43.3709 111.482 27.365 119.478C9.55193 128.249 0 140.115 0 153.528C0 166.684 9.55193 178.808 27.365 187.321C43.3709 195.317 64.5401 199.702 87 199.702C109.46 199.702 130.629 195.317 146.893 187.321C164.448 178.55 174.258 166.684 174.258 153.528C174 140.115 164.448 128.249 146.893 119.478Z" fill="#CC3DA6"/>
<path d="M87.0011 50.3467C78.2236 50.3467 69.7043 53.7001 63.5085 60.149C60.9269 62.7285 60.9269 66.8558 63.5085 69.4353C66.0901 72.0149 70.2206 72.0149 72.8022 69.4353C76.6746 65.566 81.5797 63.5024 86.7429 63.5024C92.1643 63.5024 97.0693 65.566 100.684 69.4353C101.974 70.7251 103.781 71.499 105.33 71.499C106.879 71.499 108.687 70.7251 109.977 69.4353C112.559 66.8558 112.559 62.7285 109.977 60.149C104.298 53.7001 95.7785 50.3467 87.0011 50.3467Z" fill="#7A98F4"/>
<path d="M121.594 45.1876C102.491 26.0989 71.5114 26.0989 52.6657 45.1876C50.0841 47.7671 50.0841 51.8944 52.6657 54.4739C55.2473 57.0535 59.3779 57.0535 61.9595 54.4739C75.9001 40.5444 98.3601 40.5444 112.043 54.4739C113.333 55.7637 115.14 56.5376 116.689 56.5376C118.497 56.5376 120.046 55.7637 121.336 54.4739C124.176 52.1523 124.176 47.7671 121.594 45.1876Z" fill="#7A98F4"/>
<path d="M94.2294 77.4317C94.2294 81.559 90.8734 84.6544 87.0009 84.6544C82.8704 84.6544 79.7725 81.301 79.7725 77.4317C79.7725 73.3044 83.1285 70.209 87.0009 70.209C91.1315 70.209 94.2294 73.5624 94.2294 77.4317Z" fill="#7A98F4"/>
<path fill-rule="evenodd" clip-rule="evenodd" d="M86.9987 127.475C83.3844 127.475 80.2865 130.571 80.2865 134.182V168.232C80.2865 171.843 83.3844 174.939 86.9987 174.939C90.6129 174.939 93.7108 171.843 93.7108 168.232V133.924C93.7108 130.313 90.6129 127.475 86.9987 127.475ZM66.6047 139.341C62.9905 139.341 59.8926 142.437 59.8926 146.048V156.366C59.8926 159.978 62.9905 163.073 66.6047 163.073C70.219 163.073 73.3169 159.978 73.3169 156.366V146.048C73.3169 142.179 70.4771 139.341 66.6047 139.341ZM100.682 146.048C100.682 142.437 103.779 139.341 107.394 139.341C111.008 139.341 113.848 142.179 114.106 146.048V156.366C114.106 159.978 111.008 163.073 107.394 163.073C103.779 163.073 100.682 159.978 100.682 156.366V146.048Z" fill="#EAECF0"/>
<path d="M129.486 42.7883C129.486 50.5842 127.502 57.8362 123.895 64.0005C123.715 64.5444 123.354 64.907 122.994 65.4509C118.485 72.7029 111.812 78.5045 103.876 82.1305C102.614 82.6744 101.171 83.2183 99.9088 83.5809C99.1874 83.7622 98.2856 84.1248 97.3839 84.3061C96.6624 84.4874 95.9411 84.6687 95.2196 84.85C92.5144 85.3939 89.6288 85.7565 86.7432 85.7565C78.2667 85.7565 70.3312 83.2183 63.6582 79.0484C59.3298 76.3289 55.5425 72.7029 52.4765 68.533C47.066 61.2809 44 52.3972 44 42.7883C44 19.9444 61.6744 1.27038 84.0379 0.00127232C84.5789 0.00127232 85.12 0.00127232 85.661 0.00127232C86.0217 0.00127232 86.3825 0.00127232 86.5628 0.00127232C110.369 -0.180028 129.486 19.0379 129.486 42.7883Z" fill="#1C1D48"/>
<path d="M104.067 28.7945V34.1725C103.992 34.6376 103.754 35.0607 103.397 35.3661C103.039 35.6715 102.585 35.8392 102.116 35.8392C101.646 35.8392 101.192 35.6715 100.834 35.3661C100.477 35.0607 100.239 34.6376 100.164 34.1725V23.709C100.09 23.2439 99.852 22.8207 99.4945 22.5153C99.137 22.2099 98.6828 22.0422 98.2133 22.0422C97.7438 22.0422 97.2896 22.2099 96.9321 22.5153C96.5746 22.8207 96.3371 23.2439 96.2622 23.709V38.2154C96.1872 38.6805 95.9497 39.1037 95.5922 39.4091C95.2347 39.7145 94.7805 39.8822 94.311 39.8822C93.8415 39.8822 93.3873 39.7145 93.0298 39.4091C92.6723 39.1037 92.4348 38.6805 92.3598 38.2154V23.709C92.2939 23.2351 92.0594 22.8011 91.6997 22.487C91.3399 22.173 90.8792 22 90.4023 22C89.9255 22 89.4647 22.173 89.105 22.487C88.7453 22.8011 88.5108 23.2351 88.4448 23.709V34.1725C88.3699 34.6376 88.1324 35.0607 87.7749 35.3661C87.4174 35.6715 86.9632 35.8392 86.4937 35.8392C86.0242 35.8392 85.57 35.6715 85.2125 35.3661C84.8549 35.0607 84.6174 34.6376 84.5425 34.1725V27.3451C84.5037 26.8637 84.2768 26.4172 83.9113 26.1028C83.5459 25.7885 83.0714 25.6318 82.5913 25.6669C82.1113 25.6318 81.6368 25.7885 81.2713 26.1028C80.9059 26.4172 80.679 26.8637 80.6402 27.3451V44.1528C80.6013 44.6353 80.3749 45.083 80.0098 45.3994C79.6448 45.7157 79.1703 45.8754 78.689 45.8437C78.2077 45.8754 77.7333 45.7157 77.3682 45.3994C77.0032 45.083 76.7767 44.6353 76.7379 44.1528V23.709C76.7022 23.2253 76.4767 22.7755 76.1109 22.4585C75.745 22.1414 75.2688 21.983 74.7867 22.018C74.3046 21.983 73.8283 22.1414 73.4625 22.4585C73.0967 22.7755 72.8712 23.2253 72.8355 23.709V34.1725C72.7966 34.6549 72.5702 35.1027 72.2052 35.419C71.8401 35.7354 71.3657 35.895 70.8844 35.8634C70.4009 35.8985 69.9233 35.7405 69.5554 35.4237C69.1876 35.107 68.9594 34.6573 68.9205 34.1725V28.7945H59L72.7468 49.4036L86.4937 70L100.24 49.4036L114 28.7945H104.067Z" fill="white"/>
<defs>
<clipPath id="clip0">
<rect y="31" width="174" height="227" fill="white"/>
</clipPath>
</defs>
</svg>
