<svg width="257" height="223" viewBox="0 0 257 223" fill="none" xmlns="http://www.w3.org/2000/svg">
<path d="M212.634 34.8096H9.19789C4.14807 34.8096 0 38.9795 0 44.0559V182.57C0 187.646 4.14807 191.816 9.19789 191.816H212.453C217.503 191.816 221.651 187.646 221.651 182.57V44.0559C221.832 38.9795 217.684 34.8096 212.634 34.8096Z" fill="#6B8399"/>
<path d="M207.944 48.77H13.8867V177.494H207.944V48.77Z" fill="white"/>
<path d="M152.938 191.816H68.3535V216.836H152.938V191.816Z" fill="#CDD6E0"/>
<path d="M192.234 52.0332V170.06C192.234 174.23 188.987 177.493 184.839 177.493H38.3944C34.2463 177.493 31 174.23 31 170.06V52.0332H192.234Z" fill="#F4F6FA"/>
<path d="M154.486 127.458C154.486 135.254 152.502 142.506 148.895 148.67C148.715 149.214 148.354 149.577 147.994 150.121C143.485 157.373 136.812 163.174 128.876 166.8C127.614 167.344 126.171 167.888 124.909 168.251C124.187 168.432 123.286 168.795 122.384 168.976C121.662 169.157 120.941 169.339 120.22 169.52C117.514 170.064 114.629 170.426 111.743 170.426C103.267 170.426 95.3312 167.888 88.6582 163.718C84.3298 160.999 80.5425 157.373 77.4765 153.203C72.066 145.951 69 137.067 69 127.458C69 104.614 86.6744 85.9403 109.038 84.6712C109.579 84.6712 110.12 84.6712 110.661 84.6712C111.022 84.6712 111.382 84.6712 111.563 84.6712C135.369 84.4899 154.486 103.708 154.486 127.458Z" fill="#1C1D48"/>
<path d="M129.067 113.798V119.176C128.992 119.641 128.754 120.064 128.397 120.37C128.039 120.675 127.585 120.843 127.116 120.843C126.646 120.843 126.192 120.675 125.834 120.37C125.477 120.064 125.239 119.641 125.164 119.176V108.712C125.09 108.247 124.852 107.824 124.495 107.519C124.137 107.213 123.683 107.046 123.213 107.046C122.744 107.046 122.29 107.213 121.932 107.519C121.575 107.824 121.337 108.247 121.262 108.712V123.219C121.187 123.684 120.95 124.107 120.592 124.413C120.235 124.718 119.781 124.886 119.311 124.886C118.841 124.886 118.387 124.718 118.03 124.413C117.672 124.107 117.435 123.684 117.36 123.219V108.712C117.294 108.239 117.059 107.805 116.7 107.49C116.34 107.176 115.879 107.003 115.402 107.003C114.925 107.003 114.465 107.176 114.105 107.49C113.745 107.805 113.511 108.239 113.445 108.712V119.176C113.37 119.641 113.132 120.064 112.775 120.37C112.417 120.675 111.963 120.843 111.494 120.843C111.024 120.843 110.57 120.675 110.212 120.37C109.855 120.064 109.617 119.641 109.543 119.176V112.349C109.504 111.867 109.277 111.421 108.911 111.106C108.546 110.792 108.071 110.635 107.591 110.67C107.111 110.635 106.637 110.792 106.271 111.106C105.906 111.421 105.679 111.867 105.64 112.349V129.156C105.601 129.639 105.375 130.086 105.01 130.403C104.645 130.719 104.17 130.879 103.689 130.847C103.208 130.879 102.733 130.719 102.368 130.403C102.003 130.086 101.777 129.639 101.738 129.156V108.712C101.702 108.229 101.477 107.779 101.111 107.462C100.745 107.145 100.269 106.986 99.7867 107.021C99.3046 106.986 98.8283 107.145 98.4625 107.462C98.0967 107.779 97.8712 108.229 97.8355 108.712V119.176C97.7966 119.658 97.5702 120.106 97.2052 120.422C96.8401 120.739 96.3657 120.898 95.8844 120.867C95.4009 120.902 94.9233 120.744 94.5554 120.427C94.1876 120.11 93.9594 119.661 93.9205 119.176V113.798H84L97.7468 134.407L111.494 155.003L125.24 134.407L139 113.798H129.067Z" fill="white"/>
<path d="M182.155 0H39.6774C34.6276 0 30.4795 4.16992 30.4795 9.24634V33.3593H191.713V9.24634C191.352 4.16992 187.204 0 182.155 0Z" fill="#3B3A8F"/>
<path d="M91.0772 22.3002C94.1432 22.3002 96.6681 19.762 96.6681 16.6799C96.6681 13.5978 94.1432 11.0596 91.0772 11.0596C88.0112 11.0596 85.4863 13.5978 85.4863 16.6799C85.4863 19.762 88.0112 22.3002 91.0772 22.3002Z" fill="#E7E7E7"/>
<path d="M69.796 22.3002C72.8619 22.3002 75.3868 19.762 75.3868 16.6799C75.3868 13.5978 72.8619 11.0596 69.796 11.0596C66.73 11.0596 64.2051 13.5978 64.2051 16.6799C64.2051 19.762 66.73 22.3002 69.796 22.3002Z" fill="#E7E7E7"/>
<path d="M48.5147 22.3002C51.5807 22.3002 54.1056 19.762 54.1056 16.6799C54.1056 13.5978 51.5807 11.0596 48.5147 11.0596C45.4487 11.0596 42.9238 13.5978 42.9238 16.6799C42.9238 19.762 45.4487 22.3002 48.5147 22.3002Z" fill="#E7E7E7"/>
<path d="M58.2534 52.0332H23.085L30.4793 33.5405H62.4015L58.2534 52.0332Z" fill="#00E8B7"/>
<path d="M93.4213 52.0332H58.2529L62.401 33.5405H94.6838L93.4213 52.0332Z" fill="#00C79D"/>
<path d="M128.41 52.0332H93.4219L94.8647 33.5405H127.147L128.41 52.0332Z" fill="#00E8B7"/>
<path d="M163.579 52.0332H128.411L126.968 33.5405H159.251L163.579 52.0332Z" fill="#00C79D"/>
<path d="M198.747 52.0332H163.579L159.431 33.5405H191.353L198.747 52.0332Z" fill="#00E8B7"/>
<path d="M58.2529 60.0104C58.2529 69.8007 66.1884 77.5966 75.747 77.5966C85.3056 77.5966 93.241 69.6194 93.241 60.0104V52.0332H58.2529V60.0104Z" fill="#00B58F"/>
<path d="M128.41 52.0332V60.0104C128.41 69.8007 136.346 77.5966 145.904 77.5966C155.463 77.5966 163.398 69.6194 163.398 60.0104V52.0332H128.41Z" fill="#00B58F"/>
<path d="M23.085 60.0104C23.085 69.8007 31.0204 77.5966 40.579 77.5966C50.1376 77.5966 58.073 69.6194 58.073 60.0104V52.0332H23.085V60.0104Z" fill="#00C79D"/>
<path d="M93.4219 60.0104C93.4219 69.8007 101.357 77.5966 110.916 77.5966C120.655 77.5966 128.41 69.6194 128.41 60.0104V52.0332H93.4219V60.0104Z" fill="#00C79D"/>
<path d="M163.578 52.0332V60.0104C163.578 69.8007 171.514 77.5966 181.072 77.5966C190.811 77.5966 198.566 69.6194 198.566 60.0104V52.0332H163.578Z" fill="#00C79D"/>
</svg>
