<svg width="85" height="85" viewBox="0 0 85 85" fill="none" xmlns="http://www.w3.org/2000/svg">
<path d="M85 42.4108C85 50.1379 83.0274 57.326 79.4409 63.4358C79.2616 63.9749 78.903 64.3344 78.5443 64.8735C74.0612 72.0615 67.4262 77.8119 59.5359 81.406C58.2806 81.9451 56.846 82.4842 55.5907 82.8436C54.8734 83.0233 53.9768 83.3827 53.0802 83.5624C52.3629 83.7421 51.6456 83.9218 50.9283 84.1015C48.2384 84.6406 45.3692 85 42.5 85C34.0717 85 26.1814 82.4842 19.5464 78.3511C15.2426 75.6555 11.4768 72.0615 8.42827 67.9284C3.04852 60.7403 0 51.935 0 42.4108C0 19.7684 17.5738 1.25917 39.8101 0.0012611C40.3481 0.0012611 40.8861 0.0012611 41.424 0.0012611C41.7827 0.0012611 42.1413 0.0012611 42.3207 0.0012611C65.9916 -0.17844 85 18.8699 85 42.4108Z" fill="#1C1D48"/>
<path d="M60.0668 29.7945V35.1725C59.9919 35.6376 59.7544 36.0607 59.3969 36.3661C59.0393 36.6715 58.5852 36.8392 58.1156 36.8392C57.6461 36.8392 57.1919 36.6715 56.8344 36.3661C56.4769 36.0607 56.2394 35.6376 56.1645 35.1725V24.709C56.0895 24.2439 55.852 23.8207 55.4945 23.5153C55.137 23.2099 54.6828 23.0422 54.2133 23.0422C53.7438 23.0422 53.2896 23.2099 52.9321 23.5153C52.5746 23.8207 52.3371 24.2439 52.2622 24.709V39.2154C52.1872 39.6805 51.9497 40.1037 51.5922 40.4091C51.2347 40.7145 50.7805 40.8822 50.311 40.8822C49.8415 40.8822 49.3873 40.7145 49.0298 40.4091C48.6723 40.1037 48.4348 39.6805 48.3598 39.2154V24.709C48.2939 24.2351 48.0594 23.8011 47.6997 23.487C47.3399 23.173 46.8792 23 46.4023 23C45.9255 23 45.4647 23.173 45.105 23.487C44.7453 23.8011 44.5108 24.2351 44.4448 24.709V35.1725C44.3699 35.6376 44.1324 36.0607 43.7749 36.3661C43.4174 36.6715 42.9632 36.8392 42.4937 36.8392C42.0242 36.8392 41.57 36.6715 41.2125 36.3661C40.8549 36.0607 40.6174 35.6376 40.5425 35.1725V28.3451C40.5037 27.8637 40.2768 27.4172 39.9113 27.1028C39.5459 26.7885 39.0714 26.6318 38.5913 26.6669C38.1113 26.6318 37.6368 26.7885 37.2713 27.1028C36.9059 27.4172 36.679 27.8637 36.6402 28.3451V45.1528C36.6013 45.6353 36.3749 46.083 36.0098 46.3994C35.6448 46.7157 35.1703 46.8754 34.689 46.8437C34.2077 46.8754 33.7333 46.7157 33.3682 46.3994C33.0032 46.083 32.7767 45.6353 32.7379 45.1528V24.709C32.7022 24.2253 32.4767 23.7755 32.1109 23.4585C31.745 23.1414 31.2688 22.983 30.7867 23.018C30.3046 22.983 29.8283 23.1414 29.4625 23.4585C29.0967 23.7755 28.8712 24.2253 28.8355 24.709V35.1725C28.7966 35.6549 28.5702 36.1027 28.2052 36.419C27.8401 36.7354 27.3657 36.895 26.8844 36.8634C26.4009 36.8985 25.9233 36.7405 25.5554 36.4237C25.1876 36.107 24.9594 35.6573 24.9205 35.1725V29.7945H15L28.7468 50.4036L42.4937 71L56.2405 50.4036L70 29.7945H60.0668Z" fill="white"/>
</svg>
