<svg width="238" height="112" viewBox="0 0 238 112" fill="none" xmlns="http://www.w3.org/2000/svg">
<path d="M221.963 0H45.3826C36.5536 0 29.26 7.29354 29.26 16.1226V67.5613L1.62133 100.19C-2.21738 104.797 1.23745 111.706 6.99552 111.706H221.579C230.408 111.706 237.702 104.413 237.702 95.5839V16.5064C238.086 7.29354 230.792 0 221.963 0Z" fill="#3B3A8F"/>
<path d="M161.156 74.7565C158.944 74.7565 157.009 72.8184 157.009 70.6036V38.211C157.009 35.9961 158.944 34.0581 161.156 34.0581C163.368 34.0581 165.303 35.9961 165.303 38.211V70.6036C165.303 73.0953 163.368 74.7565 161.156 74.7565Z" fill="white"/>
<path d="M112.771 74.7565C110.559 74.7565 108.624 72.8184 108.624 70.6036V38.211C108.624 35.9961 110.559 34.0581 112.771 34.0581C114.983 34.0581 116.918 35.9961 116.918 38.211V70.6036C116.642 73.0953 114.983 74.7565 112.771 74.7565Z" fill="white"/>
<path d="M145.12 94.9669C142.908 94.9669 140.973 93.0289 140.973 90.8141V22.1529C140.973 19.938 142.908 18 145.12 18C147.332 18 149.267 19.938 149.267 22.1529V91.0909C148.991 93.3058 147.332 94.9669 145.12 94.9669Z" fill="white"/>
<path d="M128.807 94.9669C126.596 94.9669 124.66 93.0289 124.66 90.8141V22.1529C124.66 19.938 126.596 18 128.807 18C131.019 18 132.955 19.938 132.955 22.1529V91.0909C132.955 93.3058 131.019 94.9669 128.807 94.9669Z" fill="white"/>
<path d="M96.4607 62.5745C94.2488 62.5745 92.3135 60.6364 92.3135 58.4216V50.3926C92.3135 48.1778 94.2488 46.2397 96.4607 46.2397C98.6725 46.2397 100.608 48.1778 100.608 50.3926V58.4216C100.608 60.9133 98.6725 62.5745 96.4607 62.5745Z" fill="white"/>
<path d="M80.1472 70.603C77.9354 70.603 76 68.665 76 66.4501V42.0865C76 39.8716 77.9354 37.9336 80.1472 37.9336C82.3591 37.9336 84.2944 39.8716 84.2944 42.0865V66.727C84.2944 68.9419 82.3591 70.603 80.1472 70.603Z" fill="white"/>
<path d="M193.78 70.603C191.568 70.603 189.633 68.665 189.633 66.4501V42.0865C189.633 39.8716 191.568 37.9336 193.78 37.9336C195.992 37.9336 197.927 39.8716 197.927 42.0865V66.727C197.651 68.9419 195.992 70.603 193.78 70.603Z" fill="white"/>
<path d="M177.469 62.5745C175.257 62.5745 173.321 60.6364 173.321 58.4216V50.3926C173.321 48.1778 175.257 46.2397 177.469 46.2397C179.68 46.2397 181.616 48.1778 181.616 50.3926V58.4216C181.616 60.9133 179.68 62.5745 177.469 62.5745Z" fill="white"/>
</svg>
