<!-- Generated by IcoMoon.io -->
<svg version="1.1" xmlns="http://www.w3.org/2000/svg" width="30" height="32" viewBox="0 0 30 32">
<title>voice</title>
<path d="M7.116 8.346c0-4.227 3.427-7.654 7.654-7.654s7.654 3.427 7.654 7.654v9.185c0 4.227-3.427 7.654-7.654 7.654s-7.654-3.427-7.654-7.654v-9.185zM14.77 3.754c-2.537 0-4.592 2.056-4.592 4.592v9.185c0 2.537 2.056 4.592 4.592 4.592s4.592-2.056 4.592-4.592v-9.185c0-2.536-2.056-4.592-4.592-4.592z"></path>
<path d="M3.289 10.642c0.845 0 1.531 0.685 1.531 1.531v0.765c0 5.495 4.455 9.95 9.95 9.95s9.95-4.455 9.95-9.95v-0.765c0-0.845 0.685-1.531 1.531-1.531s1.531 0.685 1.531 1.531v0.765c0 6.668-5.016 12.165-11.481 12.922v2.385h4.592c0.846 0 1.531 0.685 1.531 1.531s-0.685 1.531-1.531 1.531h-12.246c-0.845 0-1.531-0.685-1.531-1.531s0.685-1.531 1.531-1.531h4.592v-2.385c-6.465-0.758-11.481-6.254-11.481-12.922v-0.765c0-0.845 0.685-1.531 1.531-1.531z"></path>
</svg>
