<svg width="125" height="125" viewBox="0 0 125 125" fill="none" xmlns="http://www.w3.org/2000/svg">

<path d="M109.109 42.792H11.1445C8.72607 42.792 6.76562 44.7524 6.76562 47.1709V58.9336H113.488V47.1709C113.488 44.7527 111.527 42.792 109.109 42.792Z" fill="#5655AE"/>
<path d="M73.5426 18.4733L64.6711 108.284C64.4482 110.54 62.4386 112.188 60.1825 111.965L15.2314 107.525C12.9753 107.302 11.3271 105.293 11.55 103.037L20.4216 13.226C20.6445 10.9699 22.654 9.3217 24.9101 9.5446L69.8613 13.985C72.1171 14.2077 73.7653 16.2172 73.5426 18.4733Z" fill="#29D7B2"/>
<path d="M25.1862 25.9604L18.7143 91.4797C18.6218 92.4175 19.0632 93.3315 19.863 93.8301C22.0668 95.2041 23.7734 97.2654 24.7111 99.6855C25.0483 100.555 25.8534 101.155 26.7817 101.247L50.0842 103.549C51.0124 103.641 51.9196 103.21 52.4201 102.423C53.8132 100.233 55.8901 98.5452 58.3202 97.6289C59.2021 97.2964 59.8139 96.4865 59.9064 95.5488L66.3783 30.0295C66.4709 29.0918 66.0295 28.1777 65.2297 27.6792C63.0258 26.3052 61.3193 24.2439 60.3815 21.8237C60.0444 20.9541 59.2392 20.354 58.311 20.2622L35.0085 17.9604C34.0803 17.8687 33.173 18.2996 32.6725 19.0867C31.2795 21.2764 29.2026 22.9641 26.7724 23.8804C25.8908 24.2129 25.279 25.0227 25.1862 25.9604Z" fill="#00B58F"/>
<path d="M111.657 31.8539L60.8342 106.431C59.5576 108.304 57.0038 108.788 55.1306 107.512L17.8039 82.0744C15.9306 80.7978 15.4467 78.2441 16.7233 76.3708L67.5461 1.79365C68.8227 -0.0796447 71.3764 -0.563532 73.2497 0.71308L110.576 26.1503C112.45 27.4269 112.933 29.9804 111.657 31.8539Z" fill="#29D7B2"/>
<path d="M65.6255 15.2547L28.5491 69.6608C28.0184 70.4396 27.9681 71.4532 28.431 72.274C29.7071 74.536 30.2171 77.1629 29.8804 79.7367C29.7596 80.6615 30.1788 81.5741 30.9495 82.0992L50.2996 95.2858C51.0704 95.8111 52.073 95.8675 52.8897 95.4166C55.1619 94.1622 57.7933 93.6761 60.3653 94.0362C61.2986 94.1669 62.2237 93.7494 62.7544 92.9706L99.8309 38.5648C100.362 37.786 100.412 36.7723 99.9488 35.9515C98.6727 33.6896 98.1626 31.0626 98.4993 28.4891C98.6202 27.5643 98.201 26.6517 97.4302 26.1266L78.0801 12.9398C77.3094 12.4144 76.3067 12.358 75.49 12.8089C73.2178 14.0633 70.5865 14.5494 68.0145 14.1893C67.0813 14.0582 66.1561 14.4759 65.6255 15.2547Z" fill="#00B58F"/>
<path d="M69.8682 62.3516C77.2018 62.3516 83.147 56.4064 83.147 49.0728C83.147 41.7391 77.2018 35.7939 69.8682 35.7939C62.5345 35.7939 56.5894 41.7391 56.5894 49.0728C56.5894 56.4064 62.5345 62.3516 69.8682 62.3516Z" fill="#29D7B2"/>
<path d="M110.625 125H8.32715C4.83936 125 2.01172 122.173 2.01172 118.685V56.1865C2.01172 52.6987 4.83911 49.8711 8.32715 49.8711H110.625C114.113 49.8711 116.941 52.6985 116.941 56.1865V118.685C116.941 122.173 114.113 125 110.625 125Z" fill="#3B3A8F"/>
<path d="M120.7 75.3633H97.6755C91.0083 75.3633 85.6035 80.7681 85.6035 87.4353C85.6035 94.1025 91.0083 99.5073 97.6755 99.5073H120.7C121.964 99.5073 122.988 98.4829 122.988 97.2192V77.6514C122.988 76.3879 121.964 75.3633 120.7 75.3633Z" fill="#5655AE"/>
<path d="M98.1052 93.0415C101.201 93.0415 103.71 90.532 103.71 87.4363C103.71 84.3406 101.201 81.8311 98.1052 81.8311C95.0095 81.8311 92.5 84.3406 92.5 87.4363C92.5 90.532 95.0095 93.0415 98.1052 93.0415Z" fill="#F2F2F2"/>

<defs>
<clipPath id="clip0">
<rect width="125" height="125" fill="white"/>
</clipPath>
</defs>
</svg>
