<!-- Generated by IcoMoon.io -->
<svg version="1.1" xmlns="http://www.w3.org/2000/svg" width="32" height="32" viewBox="0 0 32 32">
<title>headphones</title>
<path d="M14.545 4.909c-4.017 0-7.273 3.256-7.273 7.273v11.636h-4.364c-1.607 0-2.909-1.302-2.909-2.909v-5.818c0-1.607 1.302-2.909 2.909-2.909h1.455c0-5.623 4.559-10.182 10.182-10.182h2.909c5.623 0 10.182 4.559 10.182 10.182h1.455c1.607 0 2.909 1.302 2.909 2.909v5.818c0 1.607-1.302 2.909-2.909 2.909h-1.638c-0.646 2.509-2.924 4.364-5.635 4.364h-1.844c-0.503 0.869-1.443 1.455-2.52 1.455-1.607 0-2.909-1.303-2.909-2.909s1.302-2.909 2.909-2.909c1.077 0 2.017 0.585 2.52 1.455h1.844c1.607 0 2.909-1.302 2.909-2.909v-10.182c0-4.017-3.256-7.273-7.273-7.273h-2.909zM4.364 15.091h-1.455v5.818h1.455v-5.818zM14.545 15.455c0 1.004-0.814 1.818-1.818 1.818s-1.818-0.814-1.818-1.818 0.814-1.818 1.818-1.818c1.004 0 1.818 0.814 1.818 1.818zM19.273 17.273c1.004 0 1.818-0.814 1.818-1.818s-0.814-1.818-1.818-1.818c-1.004 0-1.818 0.814-1.818 1.818s0.814 1.818 1.818 1.818zM27.636 15.091h1.455v5.818h-1.455v-5.818z"></path>
</svg>
