<!-- Generated by IcoMoon.io -->
<svg version="1.1" xmlns="http://www.w3.org/2000/svg" width="21" height="32" viewBox="0 0 21 32">
<title>microphone</title>
<path d="M6.895 1.562c1-1 2.357-1.562 3.771-1.562s2.771 0.562 3.771 1.562c1 1 1.562 2.357 1.562 3.771v10.667c0 1.415-0.562 2.771-1.562 3.771s-2.357 1.562-3.771 1.562-2.771-0.562-3.771-1.562c-1-1-1.562-2.357-1.562-3.771v-10.667c0-1.415 0.562-2.771 1.562-3.771zM10.667 2.667c-0.707 0-1.386 0.281-1.886 0.781s-0.781 1.178-0.781 1.886v10.667c0 0.707 0.281 1.385 0.781 1.886s1.178 0.781 1.886 0.781c0.707 0 1.386-0.281 1.886-0.781s0.781-1.178 0.781-1.886v-10.667c0-0.707-0.281-1.386-0.781-1.886s-1.178-0.781-1.886-0.781z"></path>
<path d="M1.333 12c0.736 0 1.333 0.597 1.333 1.333v2.667c0 2.122 0.843 4.157 2.343 5.657s3.535 2.343 5.657 2.343 4.157-0.843 5.657-2.343c1.5-1.5 2.343-3.535 2.343-5.657v-2.667c0-0.736 0.597-1.333 1.333-1.333s1.333 0.597 1.333 1.333v2.667c0 2.829-1.124 5.542-3.124 7.543s-4.714 3.124-7.543 3.124c-2.829 0-5.542-1.124-7.542-3.124s-3.124-4.714-3.124-7.543v-2.667c0-0.736 0.597-1.333 1.333-1.333z"></path>
<path d="M10.667 24c0.736 0 1.333 0.597 1.333 1.333v5.333c0 0.736-0.597 1.333-1.333 1.333s-1.333-0.597-1.333-1.333v-5.333c0-0.736 0.597-1.333 1.333-1.333z"></path>
<path d="M4 30.667c0-0.736 0.597-1.333 1.333-1.333h10.667c0.736 0 1.333 0.597 1.333 1.333s-0.597 1.333-1.333 1.333h-10.667c-0.736 0-1.333-0.597-1.333-1.333z"></path>
</svg>
