<!-- Generated by IcoMoon.io -->
<svg version="1.1" xmlns="http://www.w3.org/2000/svg" width="32" height="32" viewBox="0 0 32 32">
<title>promotion</title>
<path d="M31.836 11.305c-0.313-1.080-0.939-1.944-1.877-2.448-1.182-0.648-2.572-0.576-3.545-0.396l-2.051-7.417c-0.139-0.504-0.521-0.9-1.008-1.008s-1.008 0.036-1.356 0.432c-4.971 5.761-7.021 7.165-12.513 9.65l-4.31 1.296c-3.789 1.152-5.979 5.293-4.901 9.218 0.521 1.908 1.738 3.529 3.441 4.501 1.078 0.612 2.259 0.936 3.441 0.936 0.556 0 1.147-0.072 1.703-0.216l0.452 1.692c0.243 0.9 0.73 1.692 1.356 2.34l0.73 0.72c0.278 0.252 0.626 0.396 0.973 0.396 0.382 0 0.73-0.144 1.008-0.432 0.521-0.576 0.521-1.476-0.069-2.052l-0.73-0.72c-0.278-0.288-0.487-0.648-0.591-1.044l-0.452-1.692 2.016-0.612c5.77-0.9 8.377-0.828 15.433 1.26 0.139 0.036 0.243 0.072 0.382 0.072 0.348 0 0.73-0.144 0.973-0.432 0.348-0.36 0.487-0.9 0.348-1.404l-2.051-7.381c0.904-0.36 2.12-1.008 2.815-2.196 0.556-0.9 0.695-1.944 0.382-3.061zM5.106 22.647c-1.043-0.576-1.773-1.584-2.12-2.736-0.66-2.448 0.695-4.969 2.989-5.689l3.128-0.936 1.425 5.221 0.973 3.601-3.128 0.936c-1.078 0.324-2.259 0.18-3.267-0.396zM19.253 21.062c-1.564 0-3.128 0.144-4.971 0.396l-2.016-7.381-0.487-1.8c4.449-2.088 6.813-3.709 10.671-7.957l4.936 17.967c-3.337-0.864-5.701-1.224-8.134-1.224zM29.125 12.889c-0.209 0.396-0.73 0.684-1.217 0.9l-0.695-2.521c0.521-0.072 1.112-0.072 1.495 0.144 0.174 0.108 0.348 0.252 0.487 0.648 0.104 0.432 0 0.648-0.070 0.828zM20.331 10.513c0.382 0.576 0.278 1.368-0.278 1.764-1.286 0.936-2.746 1.764-2.816 1.8-0.174 0.108-0.382 0.144-0.556 0.144-0.452 0-0.869-0.252-1.077-0.684-0.313-0.612-0.070-1.368 0.521-1.692 0 0 1.39-0.756 2.503-1.584 0.521-0.468 1.286-0.324 1.703 0.252z"></path>
</svg>
