<svg width="100" height="100" viewBox="0 0 100 100" fill="none" xmlns="http://www.w3.org/2000/svg">
<mask id="mask0" mask-type="alpha" maskUnits="userSpaceOnUse" x="0" y="0" width="100" height="100">
<rect width="100" height="100" rx="25" fill="white"/>
</mask>
<g mask="url(#mask0)">
<rect width="100" height="100" fill="#FCE6F1"/>
<path d="M43.2998 41.1355C43.2998 41.1355 54.7998 30.9355 56.8998 22.0355C59.7998 28.4355 63.6998 32.0355 63.6998 32.0355L52.5998 48.5355L49.6998 92.9355C49.6998 92.9355 73.8998 103.435 85.8998 94.4355C71.6998 77.0355 89.9998 3.93549 44.9998 15.1355C13.9998 14.3355 68.7998 57.3355 49.0998 74.7355C58.1998 83.7355 40.5998 63.8355 47.6998 62.6355C59.1998 56.0355 43.2998 41.1355 43.2998 41.1355Z" fill="#993000"/>
<path d="M89.4 96.4363C88.4 91.8363 85.3 88.2363 81.2 86.6363C80.9 86.4363 80.7 86.3363 80.4 86.2363L49.1 74.7363L20.4 86.3363C20 86.5363 19.5 86.6363 19.1 86.8363C19.1 86.8363 19.1 86.8363 19 86.8363C15.3 88.6363 12.4 92.0363 11.5 96.3363L11 99.1363H90L89.4 96.4363Z" fill="#3B3A8F"/>
<path d="M35.1003 43.1356C36.2003 45.6356 36.1003 49.6355 33.8003 50.5355C31.4003 51.4355 28.6003 48.2355 27.5003 45.7355C26.4003 43.2355 27.1003 41.0355 29.4003 40.2355C31.8003 39.3355 34.0003 40.6356 35.1003 43.1356Z" fill="#FDE3D8"/>
<path d="M29.2998 43.2357C29.2998 43.2357 32.1998 42.4357 33.2998 46.3357" stroke="#2E2F37" stroke-width="0.4561" stroke-miterlimit="10" stroke-linecap="round" stroke-linejoin="round"/>
<path d="M65 43.1356C63.9 45.6356 64 49.6355 66.3 50.5355C68.7 51.4355 71.5 48.2355 72.6 45.7355C73.7 43.2355 73 41.0355 70.7 40.2355C68.4 39.3355 66.2 40.6356 65 43.1356Z" fill="#FDE3D8"/>
<path d="M70.7998 43.2357C70.7998 43.2357 67.8998 42.4357 66.7998 46.3357" stroke="#2E2F37" stroke-width="0.4561" stroke-miterlimit="10" stroke-linecap="round" stroke-linejoin="round"/>
<path d="M50.1002 52.6361C61.1002 52.6361 70.0002 44.1361 70.0002 33.5361C70.0002 22.9361 61.0002 14.5361 50.1002 14.5361C39.1002 14.5361 30.2002 23.0361 30.2002 33.6361C30.2002 44.2361 39.1002 52.6361 50.1002 52.6361Z" fill="#993000"/>
<path d="M56.2998 77.3361L54.0998 56.5361L44.2998 56.8361L42.0998 77.5361L28.2998 83.1361C28.2998 83.1361 29.4998 92.9361 49.6998 92.9361C69.9998 92.9361 71.2998 82.8361 71.2998 82.8361L56.2998 77.3361Z" fill="#F0D3C7"/>
<path d="M55.1 65.6357C54.3 66.0357 53.4 66.3357 52.5 66.6357C50.9 67.1357 49.2 67.1357 47.6 66.6357C46.1 66.1357 44.7 65.5357 43.5 64.8357L44.3 56.8357L54.1 56.6357L55.1 65.6357Z" fill="#DCB8AD"/>
<path d="M50.0998 16.7363C40.8998 16.7363 32.7998 23.8363 32.7998 32.6363L33.2998 43.1363C33.2998 43.1363 33.4998 58.0363 47.6998 62.6363C49.2998 63.1363 50.9998 63.1363 52.4998 62.6363C66.6998 58.1363 66.8998 43.1363 66.8998 43.1363L67.3998 32.6363C67.2998 23.8363 59.1998 16.7363 50.0998 16.7363Z" fill="white"/>
<path d="M50.0002 16.7363C40.8002 16.7363 32.7002 23.8363 32.7002 32.6363L33.2002 43.1363C33.2002 43.1363 33.4002 58.0363 47.6002 62.6363C49.2002 63.1363 50.9002 63.1363 52.4002 62.6363C66.6002 58.1363 66.8002 43.1363 66.8002 43.1363L67.3002 32.6363C67.3002 23.8363 59.2002 16.7363 50.0002 16.7363Z" fill="#FDE3D8"/>
<path d="M49.1001 37.4355L48.1001 46.1355C48.1001 47.1355 49.9001 47.9355 50.9001 47.9355" stroke="black" stroke-width="0.4561" stroke-miterlimit="10" stroke-linecap="round" stroke-linejoin="round"/>
<path d="M60.3002 41.1361C60.3002 42.2361 59.6002 43.1361 58.6002 43.2361C57.6002 43.2361 56.8002 42.4361 56.7002 41.3361C56.7002 40.2361 57.4002 39.3361 58.4002 39.2361C59.4002 39.1361 60.2002 40.0361 60.3002 41.1361Z" fill="#2E2F37"/>
<path d="M43.3002 41.1361C43.3002 42.2361 42.6002 43.1361 41.6002 43.2361C40.6002 43.2361 39.8002 42.4361 39.7002 41.3361C39.7002 40.2361 40.4002 39.3361 41.4002 39.2361C42.4002 39.1361 43.2002 40.0361 43.3002 41.1361Z" fill="#2E2F37"/>
<path d="M46.7002 51.9355C46.7002 51.9355 46.9002 54.1355 49.9002 54.1355C52.9002 54.1355 53.1002 51.9355 53.1002 51.9355H46.7002Z" fill="#FF4567"/>
<path d="M53.0002 51.9357C53.0002 51.9357 50.1002 50.3357 46.7002 51.9357C46.7002 51.9357 50.1002 53.4357 53.0002 51.9357Z" fill="#FF4567"/>
<path d="M45 51.6357C45 51.6357 50.5 53.6357 54.7 51.6357" stroke="#AD523F" stroke-width="0.4561" stroke-miterlimit="10" stroke-linecap="round" stroke-linejoin="round"/>
<path d="M58.5002 50.3355C60.5989 50.3355 62.3002 49.1267 62.3002 47.6355C62.3002 46.1444 60.5989 44.9355 58.5002 44.9355C56.4015 44.9355 54.7002 46.1444 54.7002 47.6355C54.7002 49.1267 56.4015 50.3355 58.5002 50.3355Z" fill="#F4B8B8"/>
<path d="M41.5002 50.3355C43.5989 50.3355 45.3002 49.1267 45.3002 47.6355C45.3002 46.1444 43.5989 44.9355 41.5002 44.9355C39.4015 44.9355 37.7002 46.1444 37.7002 47.6355C37.7002 49.1267 39.4015 50.3355 41.5002 50.3355Z" fill="#F4B8B8"/>
<path d="M32.6998 14.0354C39.8998 10.9354 53.5998 15.4354 60.4998 19.1354C60.5998 17.3354 61.8998 17.6354 61.8998 17.6354C74.1998 22.2354 69.7998 30.2354 69.7998 30.2354H69.6998C70.6998 32.8354 31.3998 31.9354 32.4998 29.0354C31.8998 28.5354 31.9998 40.4354 31.4998 39.9354C31.3998 39.9354 22.3998 18.4354 32.6998 14.0354Z" fill="#993000"/>
<path d="M54.7002 61.7356C54.7002 61.7356 57.0002 84.2356 58.8002 99.5356C80.4002 100.036 86.7002 99.5356 86.7002 99.5356C86.7002 99.5356 81.5002 91.3356 79.8002 72.0356C78.1002 52.8356 54.7002 61.7356 54.7002 61.7356Z" fill="#993000"/>
<path d="M53.2998 34.736L63.9998 36.036C63.9998 36.036 63.1998 33.236 58.7998 32.736C54.3998 32.236 53.2998 34.736 53.2998 34.736Z" fill="#993000"/>
<path d="M36.3999 36.136L46.9999 34.536C46.9999 34.536 45.3999 32.036 41.0999 32.736C36.7999 33.436 36.3999 36.136 36.3999 36.136Z" fill="#993000"/>
</g>
</svg>
