<svg width="100" height="100" viewBox="0 0 100 100" fill="none" xmlns="http://www.w3.org/2000/svg">
<mask id="mask0" mask-type="alpha" maskUnits="userSpaceOnUse" x="0" y="0" width="100" height="100">
<rect width="100" height="100" rx="25" fill="white"/>
</mask>
<g mask="url(#mask0)">
<rect width="100" height="100" fill="#F4F4FE"/>
<path d="M50.7004 88.9375C44.2004 88.9375 38.9004 83.6375 38.9004 77.1375V51.9375H62.5004V77.0375C62.5004 83.6375 57.2004 88.9375 50.7004 88.9375Z" fill="#F2BE9D"/>
<path d="M38.9004 59.9379C38.9004 59.9379 45.4004 72.0379 52.8004 71.4379C64.3004 70.5379 62.4004 56.3379 62.4004 56.3379C62.4004 56.3379 57.9004 65.8379 50.9004 65.8379C43.1004 65.8379 38.9004 59.9379 38.9004 59.9379Z" fill="#EDB18B"/>
<path d="M33.1004 43.2377L31.9004 31.3377C30.4004 23.7377 36.3004 19.6377 41.5004 19.6377H59.5004C65.0004 19.6377 71.6004 23.6377 68.8004 32.2377L67.2003 45.2377L33.1004 43.2377Z" fill="#651818"/>
<path d="M66.1003 49.8375C69.7003 52.4375 75.9003 40.4375 72.4003 37.6375C68.9003 34.8375 66.6003 40.0375 66.6003 40.0375L66.5003 44.4375L66.0003 48.5375L65.8003 49.8375H66.1003Z" fill="#F2BE9D"/>
<path d="M71.4005 41.2372C71.4005 41.2372 68.8005 40.3372 67.0005 44.2372" stroke="#2E2F37" stroke-width="0.4561" stroke-miterlimit="10" stroke-linecap="round" stroke-linejoin="round"/>
<path d="M68.2007 42.3369C68.2007 42.3369 71.0007 43.8369 69.2007 46.1369" stroke="#2E2F37" stroke-width="0.4561" stroke-miterlimit="10" stroke-linecap="round" stroke-linejoin="round"/>
<path d="M34.9002 49.8375C31.3002 52.4375 25.1002 40.4375 28.6002 37.6375C32.1002 34.8375 34.3002 40.0375 34.3002 40.0375L34.5002 44.4375L35.0002 48.5375L35.2002 49.8375H34.9002Z" fill="#F2BE9D"/>
<path d="M29.6001 41.2372C29.6001 41.2372 32.2001 40.3372 34.0001 44.2372" stroke="#2E2F37" stroke-width="0.4561" stroke-miterlimit="10" stroke-linecap="round" stroke-linejoin="round"/>
<path d="M32.7002 42.3369C32.7002 42.3369 29.9002 43.8369 31.7002 46.1369" stroke="#2E2F37" stroke-width="0.4561" stroke-miterlimit="10" stroke-linecap="round" stroke-linejoin="round"/>
<path d="M67.3002 34.3379C67.3002 41.7379 66.3002 48.2379 65.3002 52.7379C64.3002 57.2379 61.6002 61.1379 57.8002 63.6379L57.1002 64.0379C53.0002 66.7379 47.8002 66.7379 43.7002 64.2379C39.5002 61.6379 36.6002 57.4379 35.7002 52.7379C34.1002 44.0379 33.9002 34.4379 33.9002 34.4379C33.9002 34.4379 32.3002 15.5379 50.3002 15.9379C68.3002 16.2379 67.3002 34.3379 67.3002 34.3379Z" fill="#F9C6A7"/>
<path d="M67.5001 13.0377C61.8001 8.93772 50.5001 11.8377 44.3001 14.6377C44.4001 12.8377 43.3001 13.0377 43.3001 13.0377C32.5001 15.9377 35.3001 24.5377 35.3001 24.5377C35.3001 24.5377 35.3001 24.5377 35.4001 24.6377C34.3001 27.1377 32.8001 32.3377 34.2001 41.8377C34.2001 41.8377 37.1001 31.5377 37.2001 25.4377C42.0001 27.5377 55.2001 32.7377 63.8001 29.8377C64.6001 35.0377 66.9001 41.8377 66.9001 41.8377C67.8001 35.7377 67.4001 31.3377 66.8001 28.3377C67.3001 27.9377 67.8001 27.5377 68.3001 27.0377C68.2001 26.9377 75.6001 18.8377 67.5001 13.0377Z" fill="#651818"/>
<path d="M49.0005 41.5371V47.6371C49.0005 47.8371 49.0005 48.0371 49.1005 48.2371C49.4005 48.9371 50.2005 49.2371 50.9005 49.0371L52.5005 48.6371" stroke="#1A1A1A" stroke-width="0.7442" stroke-miterlimit="10" stroke-linecap="round" stroke-linejoin="round"/>
<path d="M44.5003 39.8373C44.5003 40.7373 43.8003 41.4373 42.9003 41.4373C42.0003 41.4373 41.3003 40.7373 41.3003 39.8373C41.3003 38.9373 42.0003 38.2373 42.9003 38.2373C43.8003 38.2373 44.5003 38.9373 44.5003 39.8373Z" fill="#1A1A1A"/>
<path d="M59.0003 39.8373C59.0003 40.7373 58.3003 41.4373 57.4003 41.4373C56.5003 41.4373 55.8003 40.7373 55.8003 39.8373C55.8003 38.9373 56.5003 38.2373 57.4003 38.2373C58.3003 38.2373 59.0003 38.9373 59.0003 39.8373Z" fill="#1A1A1A"/>
<path d="M45.8004 41.5371L41.9004 44.1371" stroke="#1A1A1A" stroke-width="0.7442" stroke-miterlimit="10" stroke-linecap="round" stroke-linejoin="round"/>
<path d="M55.0005 41.5371L58.4005 44.1371" stroke="#1A1A1A" stroke-width="0.7442" stroke-miterlimit="10" stroke-linecap="round" stroke-linejoin="round"/>
<path d="M50.4004 60.4375V62.1375" stroke="#1A1A1A" stroke-width="0.3561" stroke-miterlimit="10" stroke-linecap="round" stroke-linejoin="round"/>
<path d="M46.9005 34.8373L47.0005 31.7373L41.3005 31.8373C40.6005 31.8373 39.9005 32.1373 39.3005 32.5373L37.0005 35.1373L40.7005 34.5373L46.9005 34.8373Z" fill="#651818"/>
<path d="M53.6005 34.8373L53.5005 31.7373L59.2005 31.8373C59.9005 31.8373 60.6005 32.1373 61.2005 32.5373L63.5005 35.1373L59.8005 34.5373L53.6005 34.8373Z" fill="#651818"/>
<path d="M43.9004 51.0371H56.6004C56.6004 51.0371 55.9004 55.3371 50.1004 55.3371C44.3004 55.3371 43.9004 51.0371 43.9004 51.0371Z" fill="white"/>
<path opacity="0.19" d="M65.6005 41.4377C65.6005 45.1377 62.6005 48.2377 58.8005 48.2377C55.1005 48.2377 52.0005 45.2377 52.0005 41.4377C52.0005 37.6377 55.0005 34.6377 58.8005 34.6377C62.6005 34.6377 65.6005 37.6377 65.6005 41.4377Z" fill="white"/>
<path opacity="0.19" d="M49.0004 41.4377C49.0004 45.1377 46.0004 48.2377 42.2004 48.2377C38.5004 48.2377 35.4004 45.2377 35.4004 41.4377C35.4004 37.6377 38.4004 34.6377 42.2004 34.6377C46.0004 34.6377 49.0004 37.6377 49.0004 41.4377Z" fill="white"/>
<path d="M49.0004 41.4377C49.0004 45.1377 46.0004 48.2377 42.2004 48.2377C38.5004 48.2377 35.4004 45.2377 35.4004 41.4377C35.4004 37.6377 38.4004 34.6377 42.2004 34.6377C46.0004 34.6377 49.0004 37.6377 49.0004 41.4377Z" stroke="#1A1A1A" stroke-width="0.4282" stroke-miterlimit="10" stroke-linecap="round" stroke-linejoin="round"/>
<path d="M65.6005 41.4377C65.6005 45.1377 62.6005 48.2377 58.8005 48.2377C55.1005 48.2377 52.0005 45.2377 52.0005 41.4377C52.0005 37.6377 55.0005 34.6377 58.8005 34.6377C62.6005 34.6377 65.6005 37.6377 65.6005 41.4377Z" stroke="#1A1A1A" stroke-width="0.4282" stroke-miterlimit="10" stroke-linecap="round" stroke-linejoin="round"/>
<path d="M49.0005 41.4382C49.0005 41.4382 50.6005 39.9382 52.1005 41.4382" stroke="#1A1A1A" stroke-width="0.4282" stroke-miterlimit="10" stroke-linecap="round" stroke-linejoin="round"/>
<path d="M35.4003 41.4375H34.3003" stroke="#1A1A1A" stroke-width="0.4282" stroke-miterlimit="10"/>
<path d="M67.0003 41.4375H65.8003" stroke="#1A1A1A" stroke-width="0.4282" stroke-miterlimit="10"/>
<path d="M99 100.138H2C5.5 92.1385 13.7 89.1385 13.7 89.1385L38.2 77.4385H62.8L87.3 89.1385C87.2 89.1385 95.5 92.2385 99 100.138Z" fill="#3B3A8F"/>
<path d="M59.5994 73.0761C55.4374 77.1852 45.7261 76.833 41.4485 72.8413C38.4426 70.0237 33.9337 74.9546 37.0552 77.7722C44.1075 84.4641 56.9404 84.9337 63.9926 78.007C66.9985 75.072 62.6053 70.0237 59.5994 73.0761Z" fill="#12117C"/>
</g>
</svg>
