<svg width="100" height="100" viewBox="0 0 100 100" fill="none" xmlns="http://www.w3.org/2000/svg">
<mask id="mask0" mask-type="alpha" maskUnits="userSpaceOnUse" x="0" y="0" width="100" height="100">
<rect width="100" height="100" rx="25" fill="white"/>
</mask>
<g mask="url(#mask0)">
<rect width="100" height="100" fill="#FCE6F1"/>
<path d="M88.4 96.9002C87.4 92.3002 84.3 88.7002 80.2 87.1002C79.9 86.9002 79.7 86.8002 79.4 86.7002L48.1 75.2002L19.4 86.8002C19 87.0002 18.5 87.1002 18.1 87.3002C18.1 87.3002 18.1 87.3002 18 87.3002C14.3 89.1002 11.4 92.5002 10.5 96.8002L10 99.6002H89L88.4 96.9002Z" fill="#3B3A8F"/>
<path d="M56.4 16.5C56.4 16.5 64.3 12.4 70.9 19.8C77.5 27.2 72.9 32.1 78.7 35.7C84.6 39.3 80.3 49.4 87.1 54C93.9 58.6 89.4 69.9 82.4 71.5C82.4 71.5 79 82 71.6 81C71.6 81 64.8 90 51.4 84.3L46.5 81.9L56.4 16.5Z" fill="#FBE3A1"/>
<path d="M31.8999 19.2C31.8999 19.2 23.7999 20.6 22.2999 29.9C20.6999 39.3 21.2999 37.1 16.8999 41.8C12.3999 46.7 17.9999 52.1 14.4999 56.8C12.6999 59.2 11.8999 61.2 11.6999 63.5C11.3999 67.5 13.4999 71.1 16.4999 72.3C18.4999 73.1 20.1999 75.6 21.3999 79C23.7999 85.8 32.3999 82.9 32.3999 82.9C32.3999 82.9 40.4999 89.1 45.4999 84.5C50.4999 79.9 42.9999 16.5 42.9999 16.5L31.8999 19.2Z" fill="#FBE3A1"/>
<path d="M57.2998 16.6C57.2998 16.6 54.1998 9 42.9998 9C31.7998 9 28.2998 20.7 28.2998 20.7L44.5998 30.1L57.2998 16.6Z" fill="#FBE3A1"/>
<path d="M34.1003 43.6004C35.2003 46.1004 35.1003 50.1004 32.8003 51.0004C30.4003 51.9004 27.6003 48.7004 26.5003 46.2004C25.4003 43.7004 26.1003 41.5004 28.4003 40.7004C30.8003 39.8004 33.0003 41.1004 34.1003 43.6004Z" fill="#F2BE9D"/>
<path d="M28.2998 43.7005C28.2998 43.7005 31.1998 42.9005 32.2998 46.8005" stroke="#2E2F37" stroke-width="0.4561" stroke-miterlimit="10" stroke-linecap="round" stroke-linejoin="round"/>
<path d="M64 43.6004C62.9 46.1004 63 50.1004 65.3 51.0004C67.7 51.9004 70.5 48.7004 71.6 46.2004C72.7 43.7004 72 41.5004 69.7 40.7004C67.4 39.8004 65.2 41.1004 64 43.6004Z" fill="#F2BE9D"/>
<path d="M69.7998 43.7005C69.7998 43.7005 66.8998 42.9005 65.7998 46.8005" stroke="#2E2F37" stroke-width="0.4561" stroke-miterlimit="10" stroke-linecap="round" stroke-linejoin="round"/>
<path d="M49.1002 53.1C60.1002 53.1 69.0002 44.6 69.0002 34C69.0002 23.4 60.0002 15 49.1002 15C38.1002 15 29.2002 23.5 29.2002 34.1C29.2002 44.7 38.1002 53.1 49.1002 53.1Z" fill="#FBE3A1"/>
<path d="M55.2998 77.8L53.0998 57L43.2998 57.3L41.0998 78L27.2998 83.6C27.2998 83.6 28.4998 93.4 48.6998 93.4C68.8998 93.4 70.1998 83.3 70.1998 83.3L55.2998 77.8Z" fill="#F2BE9D"/>
<path d="M54.1 66C53.3 66.4 52.4 66.7 51.5 67C49.9 67.5 48.2 67.5 46.6 67C45.1 66.5 43.7 65.9 42.5 65.2L43.3 57.2L53.1 57L54.1 66Z" fill="#EDB18B"/>
<path d="M49.0998 17.2002C39.8998 17.2002 31.7998 24.3002 31.7998 33.1002L32.2998 43.6002C32.2998 43.6002 32.4998 58.5002 46.6998 63.1002C48.2998 63.6002 49.9998 63.6002 51.4998 63.1002C65.6998 58.6002 65.8998 43.6002 65.8998 43.6002L66.3998 33.1002C66.2998 24.3002 58.1998 17.2002 49.0998 17.2002Z" fill="#FBE3A1"/>
<path d="M49.0002 17.2002C39.8002 17.2002 31.7002 24.3002 31.7002 33.1002L32.2002 43.6002C32.2002 43.6002 32.4002 58.5002 46.6002 63.1002C48.2002 63.6002 49.9002 63.6002 51.4002 63.1002C65.6002 58.6002 65.8002 43.6002 65.8002 43.6002L66.3002 33.1002C66.3002 24.3002 58.2002 17.2002 49.0002 17.2002Z" fill="#F9C6A7"/>
<path d="M48.1001 45.9004V48.3004H49.9001" stroke="black" stroke-width="0.4561" stroke-miterlimit="10" stroke-linecap="round" stroke-linejoin="round"/>
<path d="M59.3002 41.6C59.3002 42.7 58.6002 43.6 57.6002 43.7C56.6002 43.7 55.8002 42.9 55.7002 41.8C55.7002 40.7 56.4002 39.8 57.4002 39.7C58.4002 39.6 59.2002 40.5 59.3002 41.6Z" fill="#2E2F37"/>
<path d="M42.3002 41.6C42.3002 42.7 41.6002 43.6 40.6002 43.7C39.6002 43.7 38.8002 42.9 38.7002 41.8C38.7002 40.7 39.4002 39.8 40.4002 39.7C41.4002 39.6 42.2002 40.5 42.3002 41.6Z" fill="#2E2F37"/>
<path d="M57.3999 33.0002C57.3999 33.0002 60.1999 33.3002 61.4999 34.0002C62.2999 34.4002 62.2999 35.2002 61.2999 35.4002C60.3999 35.6002 58.3999 35.5002 57.1999 35.4002C54.2999 35.1002 52.3999 34.3002 52.5999 33.6002C52.8999 32.6002 55.8999 32.8002 57.3999 33.0002Z" fill="#613F34"/>
<path d="M40.5002 32.9998C40.5002 32.9998 37.7002 33.0998 36.3002 33.6998C35.4002 34.0998 35.4002 34.7998 36.4002 35.0998C37.3002 35.3998 39.3002 35.3998 40.5002 35.2998C43.4002 35.1998 45.4002 34.4998 45.2002 33.7998C45.1002 32.8998 42.1002 32.8998 40.5002 32.9998Z" fill="#613F34"/>
<path d="M45.5996 52C45.5996 52 45.7996 54.9 48.7996 54.9C51.7996 54.9 51.9996 52 51.9996 52H45.5996Z" fill="#E34E39"/>
<path d="M51.8996 52.0003C51.8996 52.0003 48.6996 49.6003 45.5996 52.0003C45.5996 52.0003 48.9996 53.5003 51.8996 52.0003Z" fill="#E34E39"/>
<path d="M44.7998 51.7002C44.7998 51.7002 48.2998 53.7002 52.4998 51.7002" stroke="#AD523F" stroke-width="0.4561" stroke-miterlimit="10" stroke-linecap="round" stroke-linejoin="round"/>
<path d="M57.3002 16.5999C57.3002 16.5999 66.0002 21.4999 57.3002 22.7999C38.7002 22.6999 32.4002 46.1999 21.7002 44.8999C21.7002 44.8999 26.4002 25.7999 32.1002 19.4999C35.9002 15.3999 43.3002 11.8999 48.7002 12.4999C50.5002 12.5999 54.7002 15.9999 57.3002 16.5999Z" fill="#FBE3A1"/>
<path d="M56.2998 17.5996C56.2998 17.5996 63.9998 51.2996 73.3998 46.3996C73.3998 46.3996 75.8998 33.9996 69.8998 26.6996C67.9998 23.1996 56.2998 17.5996 56.2998 17.5996Z" fill="#FBE3A1"/>
</g>
</svg>
