<svg width="100" height="100" viewBox="0 0 100 100" fill="none" xmlns="http://www.w3.org/2000/svg">
<mask id="mask0" mask-type="alpha" maskUnits="userSpaceOnUse" x="0" y="0" width="100" height="100">
<rect width="100" height="100" rx="25" fill="white"/>
</mask>
<g mask="url(#mask0)">
<rect width="100" height="100" fill="#F4F4FE"/>
<path d="M28.6 98.9383L28.4 99.9383H2C2.5 97.6383 2.9 95.5383 3.3 93.6383C4.3 88.8383 7.8 85.1383 12.2 83.8383C13.4 83.4383 14.7 83.2383 15.9 83.2383C16.6 83.2383 17.2 83.2383 17.9 83.4383C22.4 84.1383 26 87.1383 27.7 90.9383C27.8 91.2383 27.9 91.5383 28.1 91.8383C28.9 94.0383 29.1 96.5383 28.6 98.9383Z" fill="#00B58F"/>
<path d="M99.0001 99.9383H72.7001L72.5001 98.9383C72.0001 96.4383 72.2001 94.0383 73.0001 91.8383C73.1001 91.5383 73.2001 91.3383 73.3001 91.0383C75.0001 87.1383 78.6001 84.1383 83.2001 83.4383C83.9001 83.3383 84.5001 83.2383 85.2001 83.2383C86.5001 83.2383 87.8001 83.4383 89.0001 83.8383C93.4001 85.1383 96.9001 88.8383 97.9001 93.6383C98.1001 95.5383 98.5001 97.6383 99.0001 99.9383Z" fill="#00B58F"/>
<path d="M88.7998 83.8383L87.9998 99.9383H13.0998L12.2998 83.8383L29.4998 76.4383L37.2998 73.1383L38.1998 72.7383H39.1998L50.2998 72.9383L58.9998 72.8383H61.6998H62.7998L68.8998 75.4383L88.7998 83.8383Z" fill="#00B58F"/>
<path d="M51 89.7383V99.9383" stroke="#1AD6AE" stroke-width="1.1505" stroke-miterlimit="10"/>
<path d="M48.5998 95.5387C48.5998 96.3387 47.9998 96.9387 47.1998 96.9387C46.3998 96.9387 45.7998 96.3387 45.7998 95.5387C45.7998 94.7387 46.3998 94.1387 47.1998 94.1387C47.9998 94.1387 48.5998 94.7387 48.5998 95.5387Z" fill="#1AD6AE"/>
<path d="M49.4998 87.9383C42.7998 87.9383 37.2998 82.4383 37.2998 75.7383V49.7383H61.6998V75.7383C61.6998 82.5383 56.2998 87.9383 49.4998 87.9383Z" fill="#F0D3C7"/>
<path d="M37.2998 54.1379C37.2998 54.1379 43.9998 66.6379 51.6998 66.0379C63.5998 65.1379 61.5998 50.3379 61.5998 50.3379C61.5998 50.3379 56.9998 60.1379 49.6998 60.1379C41.5998 60.1379 37.2998 54.1379 37.2998 54.1379Z" fill="#DCB8AD"/>
<path d="M69.8 17.2378C68.8 13.6378 66.4 8.53785 58.1 4.63785C44.2 -1.56215 34.8 11.8378 34.8 11.8378C31.1 11.4378 29 12.8378 28.2 16.2378C27.5 19.1378 28.4 24.7378 28.9 26.9378L31.7 41.5378L34.4 28.5378C37 19.9378 41 16.5378 41 16.5378L53.7 15.5378L67.1 40.3378L69.7 25.6378C70 23.7378 70.2 21.8378 70.1 20.0378C70.1 18.8378 70 17.9378 69.8 17.2378Z" fill="#D09A31"/>
<path d="M66.8 37.2382C66.8 37.2382 68.5 34.6382 71.9 35.9382C75.3 37.2382 73.8 45.5382 68.7 46.5382C68.7 46.5382 66.9 46.9382 65.4 45.6382C65.3 45.7382 66.6 39.5382 66.8 37.2382Z" fill="#FDE3D8"/>
<path d="M71.1998 38.8381C71.1998 38.8381 68.2998 37.8381 66.2998 42.1381" stroke="#2E2F37" stroke-width="0.4561" stroke-miterlimit="10" stroke-linecap="round" stroke-linejoin="round"/>
<path d="M67.6997 40.0381C67.6997 40.0381 70.7997 41.7381 68.7997 44.2381" stroke="#2E2F37" stroke-width="0.4561" stroke-miterlimit="10" stroke-linecap="round" stroke-linejoin="round"/>
<path d="M31.9 37.2382C31.9 37.2382 30.2 34.6382 26.8 35.9382C23.4 37.2382 24.9 45.5382 30 46.5382C30 46.5382 31.8 46.9382 33.3 45.6382C33.4 45.7382 32.1 39.5382 31.9 37.2382Z" fill="#FDE3D8"/>
<path d="M27.5 38.8381C27.5 38.8381 30.4 37.8381 32.4 42.1381" stroke="#2E2F37" stroke-width="0.4561" stroke-miterlimit="10" stroke-linecap="round" stroke-linejoin="round"/>
<path d="M30.9998 40.0381C30.9998 40.0381 27.8998 41.7381 29.8998 44.2381" stroke="#2E2F37" stroke-width="0.4561" stroke-miterlimit="10" stroke-linecap="round" stroke-linejoin="round"/>
<path d="M67.0999 29.4377C67.0999 34.4377 66.5999 44.8377 63.5 51.0377C60.6 56.8377 55.8999 59.9377 49.5999 60.1377C43.3999 60.3377 38.7 57.9377 35 50.3377C31.3 42.8377 31.5 29.4377 31.5 29.4377C31.5 29.4377 31.4999 11.6377 49.0999 11.6377C67.7 11.7377 67.0999 29.4377 67.0999 29.4377Z" fill="#FDE3D8"/>
<path d="M65.4998 13.9375C64.9998 14.1375 50.1998 9.9375 50.1998 9.9375L37.1998 13.9375C25.7998 17.0375 30.7998 27.8375 30.7998 27.8375C35.4998 25.4375 35.1998 20.4375 35.9998 16.9375C38.0998 19.6375 45.9998 24.6375 55.7998 24.4375C65.7998 24.2375 66.9998 20.3375 66.9998 20.3375C66.9998 20.3375 65.9998 13.7375 65.4998 13.9375Z" fill="#D09A31"/>
<path d="M48.0996 34.3379V42.3379C48.0996 42.5379 48.0996 42.6379 48.1996 42.8379C48.3996 43.4379 49.0996 43.7379 49.7996 43.5379L51.1996 43.1379" stroke="#1A1A1A" stroke-width="0.7442" stroke-miterlimit="10" stroke-linecap="round" stroke-linejoin="round"/>
<path d="M42.9 34.9373C42.9 35.8373 42.2 36.6373 41.2 36.6373C40.3 36.6373 39.5 35.9373 39.5 34.9373C39.5 33.9373 40.2 33.2373 41.2 33.2373C42.2 33.2373 42.9 34.0373 42.9 34.9373Z" fill="#2E2F37"/>
<path d="M44.5999 29.8377L44.6999 26.6377L38.7999 26.7377C38.0999 26.7377 37.2999 27.0377 36.7999 27.5377L33.3999 30.3377L38.2999 29.6377L44.5999 29.8377Z" fill="#2E2F37"/>
<path d="M54.7998 34.9373C54.7998 35.8373 55.4998 36.6373 56.4998 36.6373C57.3998 36.6373 58.1998 35.9373 58.1998 34.9373C58.1998 33.9373 57.4998 33.2373 56.4998 33.2373C55.4998 33.2373 54.7998 34.0373 54.7998 34.9373Z" fill="#2E2F37"/>
<path d="M53.1 29.8373L53 26.7373L58.9 26.8373C59.6 26.8373 60.4 27.1373 60.9 27.6373L64.3 30.4373L59.4 29.7373L53.1 29.8373Z" fill="#2E2F37"/>
<path d="M48 46.0372C47.3 46.4372 46.7 46.6372 46 46.8372C45.3 47.0372 44.7 47.1372 44 47.2372C43.3 47.3372 42.6 47.3372 41.9 47.2372C41.2 47.1372 40.6 47.0372 39.9 46.7372C39.6 46.6372 39.5 46.3372 39.6 46.1372C39.7 45.9372 39.9 45.7372 40.1 45.8372C40.7 45.9372 41.3 45.9372 41.9 45.9372C42.5 45.9372 43.1 45.7372 43.6 45.6372C44.2 45.4372 44.7 45.2372 45.2 45.0372C45.7 44.7372 46.2 44.4372 46.6 44.1372C47.1 43.7372 47.9 43.7372 48.3 44.2372C48.7 44.7372 48.7 45.5372 48.2 45.9372C48.1 46.0372 48.1 46.0372 48 46.0372Z" fill="#1A1A1A"/>
<path d="M51.8001 44.0374C52.2001 44.3374 52.7001 44.6374 53.2001 44.9374C53.7001 45.2374 54.2001 45.4374 54.8001 45.5374C55.4001 45.7374 55.9001 45.8374 56.5001 45.8374C57.1001 45.9374 57.7001 45.8374 58.3001 45.7374C58.6001 45.7374 58.8001 45.9374 58.9001 46.1374C58.9001 46.3374 58.8001 46.6374 58.6001 46.6374C58.0001 46.8374 57.3001 47.0374 56.6001 47.1374C55.9001 47.2374 55.2001 47.2374 54.5001 47.1374C53.8001 47.0374 53.1001 46.9374 52.5001 46.7374C51.8001 46.5374 51.2001 46.3374 50.5001 45.9374C49.9001 45.6374 49.7001 44.8374 50.0001 44.2374C50.3001 43.6374 51.1001 43.4374 51.7001 43.7374C51.7001 43.9374 51.7001 44.0374 51.8001 44.0374Z" fill="#1A1A1A"/>
<path d="M46.7998 53.4375C46.7998 53.4375 48.6998 54.0375 51.0998 53.4375" stroke="#1A1A1A" stroke-width="0.3561" stroke-miterlimit="10" stroke-linecap="round" stroke-linejoin="round"/>
<path d="M43.6997 48.1377H54.4997C54.4997 48.1377 52.6997 51.5377 48.6997 51.3377C44.6997 51.1377 43.6997 48.1377 43.6997 48.1377Z" fill="white"/>
<path d="M27 91.8383L40.4 75.7383L49.6 88.6383L58.2 75.7383L74 91.8383H27Z" fill="#00B58F"/>
<path d="M49.1002 87.838L42.9002 76.938C41.9002 75.138 40.5002 73.538 38.8002 72.338L35.6002 70.038C34.9002 69.538 34.0002 69.538 33.3002 69.938L30.1002 71.738C29.4002 72.138 29.0002 72.938 29.1002 73.838L30.4002 84.038C30.5002 85.038 31.8002 85.438 32.5002 84.738L39.5002 77.438C39.9002 77.038 40.6002 77.038 40.9002 77.538L49.2002 89.538V87.838H49.1002Z" fill="#1AD6AE"/>
<path d="M49.1 87.838L55.3 76.938C56.3 75.138 57.7 73.538 59.4 72.338L62.6 70.038C63.3 69.538 64.2 69.538 64.9 69.938L68.1 71.738C68.8 72.138 69.2 72.938 69.1 73.838L67.8 84.038C67.7 85.038 66.4 85.438 65.7 84.738L58.7 77.438C58.3 77.038 57.6 77.038 57.3 77.538L49 89.538V87.838H49.1Z" fill="#1AD6AE"/>
</g>
</svg>
