<svg width="100" height="100" viewBox="0 0 100 100" fill="none" xmlns="http://www.w3.org/2000/svg">
<mask id="mask0" mask-type="alpha" maskUnits="userSpaceOnUse" x="0" y="0" width="100" height="100">
<rect width="100" height="100" rx="25" fill="white"/>
</mask>
<g mask="url(#mask0)">
<rect width="100" height="100" fill="#FAF4D2"/>
<path d="M26.3997 42.4061C24.9997 46.4061 25.1997 51.0061 25.5997 55.3061C25.9997 59.6061 26.5997 64.0061 25.9997 68.3061C25.4997 71.5061 24.3997 74.4061 23.7997 77.5061C23.1997 80.6061 23.0997 84.1061 24.6997 86.8061C26.1997 89.3061 28.7997 90.6061 31.3997 91.4061C41.9997 95.0061 53.2997 94.3061 64.2997 93.6061C67.2997 93.4061 70.5997 93.1061 72.8997 90.9061C75.5997 88.3061 76.2997 83.8061 75.7997 79.8061C75.3997 75.8061 73.9997 72.0061 73.5997 68.0061C72.5997 60.2061 74.9997 52.3061 73.9997 44.6061C72.7997 34.9061 65.8997 26.5061 57.4997 24.5061C52.6997 23.3061 47.5997 24.3061 43.2997 26.8061C41.0997 28.1061 39.1997 29.8061 37.4997 31.8061C36.7997 32.7061 35.0997 34.8061 35.0997 34.8061C35.0997 34.8061 32.9997 35.4061 32.0997 35.8061C29.4997 36.9061 27.4997 39.5061 26.3997 42.4061Z" fill="#F88A62"/>
<path d="M81.7 100.006H18C23.6 91.0062 32.1 84.4062 42.1 82.2062V71.9062H57.5V82.2062C67.5 84.4062 76.1 91.0062 81.7 100.006Z" fill="#FDE3D8"/>
<path d="M57.5998 73.4062V80.5062C46.6998 82.1062 43.7998 76.1062 43.7998 76.1062L57.5998 73.4062Z" fill="#DCB8AD"/>
<path d="M18 100.006H81.7C76.4 91.4057 68.3 85.1057 59 82.5057C58.4 83.0057 57.7 83.5057 57 83.9057C53.5 85.9057 49.1 86.2057 45.4 84.7057C44 84.1057 42.7 83.3057 41.6 82.3057C31.8 84.7057 23.5 91.1057 18 100.006Z" fill="#3B3A8F"/>
<path d="M57.9001 80.1061C54.3001 83.6061 45.9001 83.3061 42.2001 79.9061C39.6001 77.5061 35.7001 81.7061 38.4001 84.1061C44.5001 89.8061 55.6001 90.2061 61.7001 84.3061C64.3001 81.8061 60.5001 77.5061 57.9001 80.1061Z" fill="#00B58F"/>
<path d="M69.1 50.5057C69.1 67.7057 60.5 77.9057 49.8 77.9057C39.2 77.9057 30.5 67.7057 30.5 50.5057C30.5 33.3057 39.1 27.8057 49.8 27.8057C60.5 27.8057 69.1 33.3057 69.1 50.5057Z" fill="#FDE3D8"/>
<path d="M36.9998 50.2061C37.8998 49.5061 38.9998 49.0061 40.0998 48.8061C41.1998 48.6061 42.3998 48.7061 43.4998 49.1061C43.7998 49.2061 43.9998 49.6061 43.8998 50.0061C43.7998 50.4061 43.4998 50.6061 43.0998 50.5061C43.0998 50.5061 43.0998 50.5061 42.9998 50.5061C42.0998 50.1061 41.0998 49.8061 40.0998 49.8061C39.0998 49.8061 38.0998 50.2061 37.0998 50.7061C36.9998 50.8061 36.8998 50.7061 36.7998 50.6061C36.8998 50.4061 36.8998 50.2061 36.9998 50.2061Z" fill="#643B2D"/>
<path d="M62.6999 50.2061C61.7999 49.5061 60.6999 49.0061 59.5999 48.8061C58.4999 48.6061 57.2999 48.7061 56.1999 49.1061C55.8999 49.2061 55.6999 49.6061 55.7999 50.0061C55.8999 50.4061 56.1999 50.6061 56.5999 50.5061C56.5999 50.5061 56.5999 50.5061 56.6999 50.5061C57.5999 50.1061 58.5999 49.8061 59.5999 49.8061C60.5999 49.8061 61.5999 50.2061 62.5999 50.7061C62.6999 50.8061 62.7999 50.7061 62.8999 50.6061C62.7999 50.4061 62.7999 50.2061 62.6999 50.2061Z" fill="#643B2D"/>
<path d="M43.7999 55.2057C43.7999 56.2057 43.0999 57.1057 42.0999 57.1057C41.1999 57.1057 40.3999 56.3057 40.3999 55.2057C40.3999 54.2057 41.0999 53.3057 42.0999 53.3057C42.9999 53.4057 43.7999 54.2057 43.7999 55.2057Z" fill="#292929"/>
<path d="M59.1998 55.2057C59.1998 56.2057 58.4998 57.1057 57.4998 57.1057C56.5998 57.1057 55.7998 56.3057 55.7998 55.2057C55.7998 54.2057 56.4998 53.3057 57.4998 53.3057C58.4998 53.4057 59.1998 54.2057 59.1998 55.2057Z" fill="#292929"/>
<path d="M49.7 59.3062C49.7 59.2062 49.6 59.1062 49.5 59.0062C49.4 58.9062 49.2 58.9062 49.1 58.9062C48.9 58.9062 48.8 59.0062 48.7 59.0062C48.4 59.1062 48.3 59.4062 48.2 59.7062C48.1 60.0062 48.1 60.3062 48.2 60.6062C48.3 60.9062 48.4 61.1063 48.6 61.4062C48.7 61.5062 48.8 61.5062 48.9 61.5062C49 61.5062 49.1 61.4062 49.2 61.4062C49.3 61.3063 49.3 61.2062 49.3 61.0062C49.3 60.9062 49.2 60.8062 49.2 60.7062C49.1 60.6062 49.1 60.5063 49 60.4062C49 60.3062 49 60.3062 49 60.2062V60.1062V60.0062C49 60.0062 49 60.0063 49 59.9062C49.1 59.9062 49.2 59.9062 49.3 59.9062C49.4 59.9062 49.5 59.8062 49.6 59.7062C49.7 59.6062 49.7 59.5062 49.7 59.3062Z" fill="#EB9F8F"/>
<path d="M60.7 62.0061C60.7 63.3061 59.8 64.3061 58.6 64.3061C57.4 64.3061 56.5 63.3061 56.5 62.0061C56.5 60.7061 57.4 59.7061 58.6 59.7061C59.8 59.7061 60.7 60.7061 60.7 62.0061Z" fill="#F4B0B0"/>
<path d="M43.2 62.0061C43.2 63.3061 42.3 64.3061 41.1 64.3061C39.9 64.3061 39 63.3061 39 62.0061C39 60.7061 39.9 59.7061 41.1 59.7061C42.2 59.7061 43.2 60.7061 43.2 62.0061Z" fill="#F4B0B0"/>
<path d="M53.8998 65.5063C51.2998 67.0063 48.0998 66.9063 45.6998 65.2063C45.2998 65.0063 44.9998 65.6063 45.3998 65.8063C48.0998 67.6063 51.4998 67.7063 54.2998 66.1063C54.5998 65.9063 54.2998 65.3063 53.8998 65.5063Z" fill="#EB9F8F"/>
<path d="M50.8996 68.9059C50.8996 68.7059 50.6996 68.6059 50.4996 68.7059C49.8996 68.9059 49.1996 68.9059 48.5996 68.6059C48.3996 68.5059 48.1996 68.6059 48.1996 68.7059C48.0996 68.9059 48.1996 69.1059 48.2996 69.2059C49.0996 69.6059 49.8996 69.7059 50.6996 69.4059C50.7996 69.3059 50.8996 69.1059 50.8996 68.9059Z" fill="#EB9F8F"/>
<path d="M37.0999 38.6066C37.4999 39.3066 37.9999 40.0066 38.6999 40.4066C39.3999 40.8066 40.2999 40.9066 40.8999 40.3066C41.4999 39.7066 41.4999 38.5066 40.7999 38.1066C42.3999 40.0066 44.3999 41.5066 46.5999 42.3066C47.5999 42.7066 48.6999 42.9066 49.5999 42.4066C50.5999 41.9066 51.1999 40.6066 50.6999 39.6066C54.6999 44.9066 60.5999 48.4066 66.7999 49.2066C66.9999 51.4066 67.7999 53.5066 68.9999 55.2066C70.3999 51.3066 70.1999 46.8066 69.7999 42.6066C69.4999 39.6066 68.9999 36.6066 67.4999 34.1066C65.8999 31.5066 63.2999 29.9066 60.6999 28.6066C56.6999 26.6066 52.4999 25.2066 48.1999 25.1066C43.7999 25.0066 39.3999 26.4066 36.0999 29.5066C32.8999 32.5066 30.9999 37.0066 30.2999 41.7066C29.9999 44.0066 29.8999 46.4066 29.9999 48.7066C30.0999 50.8066 30.1999 53.6066 30.9999 55.5066C32.6999 53.2066 33.9999 50.2066 34.8999 47.4066C35.3999 46.0066 35.8999 44.5066 36.1999 43.0066C36.3999 42.3066 37.3999 39.2066 37.0999 38.6066Z" fill="#F88A62"/>
</g>
</svg>
