<svg width="100" height="100" viewBox="0 0 100 100" fill="none" xmlns="http://www.w3.org/2000/svg">
<mask id="mask0" mask-type="alpha" maskUnits="userSpaceOnUse" x="0" y="0" width="100" height="100">
<rect width="100" height="100" rx="25" fill="white"/>
</mask>
<g mask="url(#mask0)">
<rect width="100" height="100" fill="#FCE6F1"/>
<path d="M89.4 96.9002C88.4 92.3002 85.3 88.7002 81.2 87.1002C80.9 86.9002 80.7 86.8002 80.4 86.7002L49.1 75.2002L20.4 86.8002C20 87.0002 19.5 87.1002 19.1 87.3002C19.1 87.3002 19.1 87.3002 19 87.3002C15.3 89.1002 12.4 92.5002 11.5 96.8002L11 99.6002H90L89.4 96.9002Z" fill="#AA2186"/>
<path d="M56.6 16.2C56.6 16.2 63.9 13 69.9 18.8C76 24.5 71.7 28.4 77.1 31.2C82.5 34 78.6 41.9 84.8 45.5C91.1 49.1 86.9 57.9 80.5 59.2C80.5 59.2 77.4 67.4 70.6 66.6C70.6 66.6 64.3 73.6 52 69.2L47.5 67.3L56.6 16.2Z" fill="#2E2F37"/>
<path d="M32.6998 18.6C32.6998 18.6 24.4998 19.7 22.9998 26.9C21.3998 34.1 21.9998 32.4 17.4998 36.1C12.9998 39.8 18.6998 44 15.0998 47.7C13.2998 49.6 12.3998 51.1 12.2998 52.9C11.9998 56 14.1998 58.8 17.1998 59.7C19.2998 60.3 20.9998 62.2 22.1998 64.9C24.5998 70.2 33.2998 67.9 33.2998 67.9C33.2998 67.9 41.4998 72.7 46.5998 69.1C51.5998 65.5 43.9998 16.5 43.9998 16.5L32.6998 18.6Z" fill="#2E2F37"/>
<path d="M58.2998 16.6C58.2998 16.6 55.1998 9 43.9998 9C32.7998 9 29.2998 20.7 29.2998 20.7L45.5998 30.1L58.2998 16.6Z" fill="#2E2F37"/>
<path d="M35.1003 43.6004C36.2003 46.1004 36.1003 50.1004 33.8003 51.0004C31.4003 51.9004 28.6003 48.7004 27.5003 46.2004C26.4003 43.7004 27.1003 41.5004 29.4003 40.7004C31.8003 39.8004 34.0003 41.1004 35.1003 43.6004Z" fill="#FDE3D8"/>
<path d="M29.2998 43.6995C29.2998 43.6995 32.1998 42.8995 33.2998 46.7995" stroke="#2E2F37" stroke-width="0.4561" stroke-miterlimit="10" stroke-linecap="round" stroke-linejoin="round"/>
<path d="M65 43.6004C63.9 46.1004 64 50.1004 66.3 51.0004C68.7 51.9004 71.5 48.7004 72.6 46.2004C73.7 43.7004 73 41.5004 70.7 40.7004C68.4 39.8004 66.2 41.1004 65 43.6004Z" fill="#FDE3D8"/>
<path d="M70.7998 43.6995C70.7998 43.6995 67.8998 42.8995 66.7998 46.7995" stroke="#2E2F37" stroke-width="0.4561" stroke-miterlimit="10" stroke-linecap="round" stroke-linejoin="round"/>
<path d="M50.1002 53.1C61.1002 53.1 70.0002 44.6 70.0002 34C70.0002 23.4 61.0002 15 50.1002 15C39.1002 15 30.2002 23.5 30.2002 34.1C30.2002 44.7 39.1002 53.1 50.1002 53.1Z" fill="#2E2F37"/>
<path d="M56.2998 77.8L54.0998 57L44.2998 57.3L42.0998 78L28.2998 83.6C28.2998 83.6 29.4998 93.4 49.6998 93.4C69.8998 93.4 71.1998 83.3 71.1998 83.3L56.2998 77.8Z" fill="#F0D3C7"/>
<path d="M55.1 66C54.3 66.4 53.4 66.7 52.5 67C50.9 67.5 49.2 67.5 47.6 67C46.1 66.5 44.7 65.9 43.5 65.2L44.3 57.2L54.1 57L55.1 66Z" fill="#DCB8AD"/>
<path d="M50.0998 17.2002C40.8998 17.2002 32.7998 24.3002 32.7998 33.1002L33.2998 43.6002C33.2998 43.6002 33.4998 58.5002 47.6998 63.1002C49.2998 63.6002 50.9998 63.6002 52.4998 63.1002C66.6998 58.6002 66.8998 43.6002 66.8998 43.6002L67.3998 33.1002C67.2998 24.3002 59.1998 17.2002 50.0998 17.2002Z" fill="white"/>
<path d="M50.0002 17.2002C40.8002 17.2002 32.7002 24.3002 32.7002 33.1002L33.2002 43.6002C33.2002 43.6002 33.4002 58.5002 47.6002 63.1002C49.2002 63.6002 50.9002 63.6002 52.4002 63.1002C66.6002 58.6002 66.8002 43.6002 66.8002 43.6002L67.3002 33.1002C67.3002 24.3002 59.2002 17.2002 50.0002 17.2002Z" fill="#FDE3D8"/>
<path d="M49.1001 45.9004V48.3004H50.9001" stroke="black" stroke-width="0.4561" stroke-miterlimit="10" stroke-linecap="round" stroke-linejoin="round"/>
<path d="M60.3002 41.6C60.3002 42.7 59.6002 43.6 58.6002 43.7C57.6002 43.7 56.8002 42.9 56.7002 41.8C56.7002 40.7 57.4002 39.8 58.4002 39.7C59.4002 39.6 60.2002 40.5 60.3002 41.6Z" fill="#2E2F37"/>
<path d="M43.3002 41.6C43.3002 42.7 42.6002 43.6 41.6002 43.7C40.6002 43.7 39.8002 42.9 39.7002 41.8C39.7002 40.7 40.4002 39.8 41.4002 39.7C42.4002 39.6 43.2002 40.5 43.3002 41.6Z" fill="#2E2F37"/>
<path d="M40.7999 31.9998C40.7999 31.9998 37.8999 32.3998 36.3999 33.2998C35.4999 33.8998 35.4999 34.8998 36.5999 35.1998C37.5999 35.4998 39.6999 35.2998 40.8999 35.1998C43.9999 34.8998 45.9999 33.6998 45.7999 32.7998C45.5999 31.4998 42.3999 31.6998 40.7999 31.9998Z" fill="#2E2F37"/>
<path d="M58.6998 31.9998C58.6998 31.9998 61.5998 32.3998 63.0998 33.2998C63.9998 33.8998 63.9998 34.8998 62.8998 35.1998C61.8998 35.4998 59.7998 35.2998 58.5998 35.1998C55.4998 34.8998 53.4998 33.6998 53.6998 32.7998C53.8998 31.4998 57.0998 31.6998 58.6998 31.9998Z" fill="#2E2F37"/>
<path d="M46.5996 52C46.5996 52 46.7996 54.2 49.7996 54.2C52.7996 54.2 52.9996 52 52.9996 52H46.5996Z" fill="#CD2DA3"/>
<path d="M52.8996 52.0002C52.8996 52.0002 49.9996 50.4002 46.5996 52.0002C46.5996 52.0002 49.9996 53.5002 52.8996 52.0002Z" fill="#CD2DA3"/>
<path d="M45.7998 51.7002C45.7998 51.7002 49.2998 53.7002 53.4998 51.7002" stroke="#911370" stroke-width="0.4561" stroke-miterlimit="10" stroke-linecap="round" stroke-linejoin="round"/>
<path d="M58.2998 16.6003C58.2998 16.6003 57.4998 24.9003 48.8998 26.2003C40.0998 27.5003 41.9998 33.1003 31.1998 31.8003C31.1998 31.8003 27.2998 25.7003 33.0998 19.4003C36.8998 15.3003 44.2998 11.8003 49.6998 12.4003C51.4998 12.6003 55.6998 16.0003 58.2998 16.6003Z" fill="#2E2F37"/>
<path d="M57.2998 17.5996C57.2998 17.5996 53.4998 23.1996 69.9998 33.9996C69.9998 33.9996 72.6998 30.1996 70.8998 26.6996C68.9998 23.1996 57.2998 17.5996 57.2998 17.5996Z" fill="#2E2F37"/>
</g>
</svg>
