<svg width="100" height="100" viewBox="0 0 100 100" fill="none" xmlns="http://www.w3.org/2000/svg">
<mask id="mask0" mask-type="alpha" maskUnits="userSpaceOnUse" x="0" y="0" width="100" height="100">
<rect width="100" height="100" rx="25" fill="white"/>
</mask>
<g mask="url(#mask0)">
<rect width="100" height="100" fill="#F4F4FE"/>
<path d="M99 100.051H2C5.5 92.0506 13.7 89.0506 13.7 89.0506L38.2 77.3506H62.8L87.3 89.0506C87.2 88.9506 95.5 92.0506 99 100.051Z" fill="#3B3A8F"/>
<path d="M62.9 77.351V51.251H38.2V77.351L32 80.251C32 80.251 32.5 91.851 50.8 92.051C69.1 92.251 70.9 81.251 70.9 81.251L62.9 77.351Z" fill="#F0D3C7"/>
<path d="M38.2998 59.3506C38.2998 59.3506 40.3998 69.8506 49.4998 71.0506C59.9998 72.4506 62.8998 59.5506 62.8998 59.5506C62.8998 59.5506 58.1998 65.3506 50.8998 65.3506C42.6998 65.5506 38.2998 59.3506 38.2998 59.3506Z" fill="#DCB8AD"/>
<path d="M32 43.051C32 43.051 32.3 37.351 27.8 34.751C24 32.551 23.3 28.451 25.1 25.351C25.5 24.651 26 24.051 26.7 23.551C27.1 23.251 27.6 22.551 27.2 21.351C26.6 19.651 27 17.951 27.8 17.151C28.7 16.251 29.5 15.151 32.4 15.451C36 16.051 35 12.251 35 9.35105C34.9 5.25105 42.1 2.15104 49.5 9.15104C49.5 9.15104 50.7 10.851 54.6 9.75104C58.5 8.65104 66.3 6.25105 71.9 10.951C77.5 15.651 72 20.551 73.9 24.351C75.8 28.151 77.6 31.651 73.3 34.851C69.1 38.051 69.1 45.051 69.1 45.051L32 43.051Z" fill="#6C392A"/>
<path d="M68.2002 42.3506C68.2002 42.3506 69.9002 39.6506 73.3002 40.9506C76.7002 42.2506 75.2002 50.6506 70.0002 51.6506C70.0002 51.6506 68.1002 52.0506 66.7002 50.7506C66.7002 50.8506 68.0002 44.6506 68.2002 42.3506Z" fill="#FDE3D8"/>
<path d="M72.6002 43.9504C72.6002 43.9504 69.7002 42.9504 67.7002 47.2504" stroke="#1A1A1A" stroke-width="0.4732" stroke-miterlimit="10" stroke-linecap="round" stroke-linejoin="round"/>
<path d="M69.1001 45.1504C69.1001 45.1504 72.2001 46.8504 70.2001 49.3504" stroke="#1A1A1A" stroke-width="0.4732" stroke-miterlimit="10" stroke-linecap="round" stroke-linejoin="round"/>
<path d="M32.9 42.3506C32.9 42.3506 31.2 39.6506 27.8 40.9506C24.4 42.2506 25.9 50.6506 31.1 51.6506C31.1 51.6506 33 52.0506 34.4 50.7506C34.4 50.8506 33.1 44.6506 32.9 42.3506Z" fill="#FDE3D8"/>
<path d="M28.5 43.9504C28.5 43.9504 31.4 42.9504 33.4 47.2504" stroke="#1A1A1A" stroke-width="0.4732" stroke-miterlimit="10" stroke-linecap="round" stroke-linejoin="round"/>
<path d="M31.9998 45.1504C31.9998 45.1504 28.8998 46.8504 30.8998 49.3504" stroke="#1A1A1A" stroke-width="0.4732" stroke-miterlimit="10" stroke-linecap="round" stroke-linejoin="round"/>
<path d="M68.6 34.3512C68.6 39.3512 68.1 49.9512 65 56.2512C62.1 62.1512 57.3 65.2512 51 65.4512C44.7 65.6512 40 63.2512 36.2 55.5512C32.4 47.8512 32.6 34.4512 32.6 34.4512C32.6 34.4512 32.6 16.4512 50.4 16.4512C69.1 16.4512 68.6 34.3512 68.6 34.3512Z" fill="#FDE3D8"/>
<path d="M49.2998 36.3516V47.8516C49.2998 48.0516 49.2998 48.2516 49.3998 48.3516C49.5998 48.9516 50.3998 49.2516 50.9998 49.0516L52.3998 48.6516" stroke="#2E2F37" stroke-width="0.6371" stroke-miterlimit="10" stroke-linecap="round" stroke-linejoin="round"/>
<path d="M42.1002 42.4514C42.8734 42.4514 43.5002 41.8246 43.5002 41.0514C43.5002 40.2782 42.8734 39.6514 42.1002 39.6514C41.327 39.6514 40.7002 40.2782 40.7002 41.0514C40.7002 41.8246 41.327 42.4514 42.1002 42.4514Z" fill="#2E2F37"/>
<path d="M58.0001 42.4514C58.7733 42.4514 59.4001 41.8246 59.4001 41.0514C59.4001 40.2782 58.7733 39.6514 58.0001 39.6514C57.2269 39.6514 56.6001 40.2782 56.6001 41.0514C56.6001 41.8246 57.2269 42.4514 58.0001 42.4514Z" fill="#2E2F37"/>
<path d="M44.5 50.8516C44.5 50.8516 46.1 52.0516 50.3 52.0516C54.1 52.0516 56.6 50.8516 56.6 50.8516" stroke="#1A1A1A" stroke-width="0.6371" stroke-miterlimit="10" stroke-linecap="round" stroke-linejoin="round"/>
<path d="M48 54.551C48 54.551 51.6 54.451 53.1 53.751" stroke="#1A1A1A" stroke-width="0.3676" stroke-miterlimit="10" stroke-linecap="round" stroke-linejoin="round"/>
<path d="M53.6001 35.1513L64.5001 37.9513C64.5001 37.9513 64.0001 34.8513 59.5001 33.7513C55.1001 32.6513 53.6001 35.1513 53.6001 35.1513Z" fill="#6C392A"/>
<path d="M47.1002 35.1513L36.2002 37.9513C36.2002 37.9513 36.7002 34.8513 41.2002 33.7513C45.6002 32.6513 47.1002 35.1513 47.1002 35.1513Z" fill="#6C392A"/>
<path d="M43.5531 48.6563C46.9176 47.254 48.5082 43.3899 47.1059 40.0255C45.7037 36.6611 41.8395 35.0704 38.4751 36.4727C35.1107 37.875 33.5201 41.7391 34.9223 45.1035C36.3246 48.4679 40.1887 50.0586 43.5531 48.6563Z" stroke="#1A1A1A" stroke-width="0.3676" stroke-miterlimit="10" stroke-linecap="round" stroke-linejoin="round"/>
<path d="M62.8361 48.4513C66.1039 46.8362 67.4437 42.8778 65.8286 39.61C64.2134 36.3421 60.255 35.0024 56.9872 36.6175C53.7194 38.2327 52.3796 42.1911 53.9948 45.4589C55.6099 48.7267 59.5683 50.0665 62.8361 48.4513Z" stroke="#1A1A1A" stroke-width="0.3676" stroke-miterlimit="10" stroke-linecap="round" stroke-linejoin="round"/>
<path d="M47.7002 43.0512C47.7002 43.0512 50.0002 39.4512 53.2002 43.0512" stroke="#1A1A1A" stroke-width="0.3676" stroke-miterlimit="10" stroke-linecap="round" stroke-linejoin="round"/>
<path d="M32.9001 41.351C32.9001 41.351 37.6001 27.151 32.5001 18.751L30.6001 32.151L32.9001 41.351Z" fill="#6C392A"/>
<path d="M34.7999 26.9508C34.7999 26.9508 36.7999 19.3508 43.8999 23.6508C48.1999 26.2508 57.8999 31.1508 68.4999 24.2508C68.4999 24.2508 62.5999 14.5508 48.8999 14.5508C30.9999 14.5508 34.7999 26.9508 34.7999 26.9508Z" fill="#6C392A"/>
</g>
</svg>
