<svg width="100" height="100" viewBox="0 0 100 100" fill="none" xmlns="http://www.w3.org/2000/svg">
<mask id="mask0" mask-type="alpha" maskUnits="userSpaceOnUse" x="0" y="0" width="100" height="100">
<rect width="100" height="100" rx="25" fill="white"/>
</mask>
<g mask="url(#mask0)">
<rect width="100" height="100" fill="#FAF4D2"/>
<path d="M82 100.3H19C24.5 91.4004 33 84.9004 42.9 82.7004V72.4004H58.2V82.6004C68 84.9004 76.5 91.3004 82 100.3Z" fill="#FDE3D8"/>
<path d="M58.1002 74.6006V81.6006C47.5002 83.2006 44.7002 77.3006 44.7002 77.3006L58.1002 74.6006Z" fill="#DCB8AD"/>
<path d="M82 100.3H19C21.1 96.8998 23.7 93.7998 26.6 91.1998C27.6 90.2998 28.7 89.3998 29.8 88.5998C33.6 85.8998 37.8 83.8998 42.3 82.7998C43.4 83.7998 44.7 84.5998 46.1 85.1998C49.8 86.6998 54.1 86.3998 57.6 84.3998C58.3 83.9998 58.9 83.4998 59.6 82.9998C64 84.1998 68.1 86.1998 71.8 88.9998C72.9 89.7998 74 90.6998 75 91.5998C77.6 94.0998 80 96.9998 82 100.3Z" fill="#00B58F"/>
<path d="M74.9001 91.5996C72.6001 92.4996 70.3001 93.1996 68.0001 93.7996C54.3001 97.2996 39.8001 96.4996 26.6001 91.1996C27.6001 90.2996 28.7001 89.3996 29.8001 88.5996C32.4001 89.4996 35.0001 90.2996 37.6001 90.8996C48.9001 93.3996 60.7001 92.6996 71.7001 88.9996C72.8001 89.7996 73.9001 90.6996 74.9001 91.5996Z" fill="#3B3A8F"/>
<path d="M81.9001 54.0998C81.7001 52.6998 81.3001 51.1998 80.6001 49.9998C79.7001 48.4998 78.2001 47.3998 76.6001 46.5998C74.3001 45.4998 71.6001 44.6998 69.1001 44.2998L71.3001 58.7998C73.1001 59.1998 74.7001 59.4998 76.5001 59.4998C78.6001 59.5998 81.2001 58.9998 81.9001 56.7998C82.1001 55.8998 82.0001 54.9998 81.9001 54.0998Z" fill="#F1A101"/>
<path d="M50.7999 26.0996C42.6999 26.0996 30.4999 28.4996 28.4999 39.8996C27.4999 45.4996 28.0999 52.9996 31.4999 57.3996C31.6999 57.6996 32.0999 57.8996 32.2999 57.5996C32.3999 57.3996 32.3999 57.1996 32.3999 56.9996C32.4999 56.7996 32.6999 56.6996 32.8999 56.6996C34.4999 56.2996 36.0999 55.9996 37.7999 55.7996C42.8999 55.0996 47.9999 54.2996 53.0999 54.2996C58.7999 54.3996 64.1999 55.7996 69.4999 57.7996C69.7999 57.8996 70.2999 57.6996 70.3999 57.3996C71.4999 54.2996 71.9999 50.9996 72.1999 47.6996C72.3999 44.5996 72.4999 40.9996 71.6999 37.9996C70.6999 34.4996 68.5999 31.6996 65.8999 29.8996C61.3999 26.6996 55.8999 26.0996 50.7999 26.0996Z" fill="#2E2F37"/>
<path d="M68.0999 63.5998C69.6999 65.3998 72.6999 65.0998 74.5999 62.8998C76.5999 60.6998 76.7999 57.4998 75.1999 55.5998C73.5999 53.6998 70.5999 54.0998 68.6999 56.2998C66.6999 58.4998 66.4999 61.7998 68.0999 63.5998Z" fill="#FDE3D8"/>
<path d="M74.5 57.8997C74.5 57.8997 71.6 57.0997 70.5 60.9997" stroke="#EB9F8F" stroke-width="0.4561" stroke-miterlimit="10" stroke-linecap="round" stroke-linejoin="round"/>
<path d="M32.3 63.5998C30.7 65.3998 27.7 65.0998 25.8 62.8998C23.8 60.6998 23.6 57.4998 25.2 55.5998C26.8 53.6998 29.8 54.0998 31.7 56.2998C33.6 58.4998 33.9 61.7998 32.3 63.5998Z" fill="#FDE3D8"/>
<path d="M25.8999 57.8997C25.8999 57.8997 28.7999 57.0997 29.8999 60.9997" stroke="#EB9F8F" stroke-width="0.4561" stroke-miterlimit="10" stroke-linecap="round" stroke-linejoin="round"/>
<path d="M69.5999 51.2998C69.5999 68.2998 61.0999 78.3998 50.4999 78.3998C39.8999 78.3998 31.3999 68.2998 31.3999 51.2998C31.3999 34.2998 39.8999 28.7998 50.4999 28.7998C61.0999 28.7998 69.5999 34.2998 69.5999 51.2998Z" fill="#FDE3D8"/>
<path d="M37.8002 51C38.7002 50.3 39.8002 49.8 40.9002 49.6C42.0002 49.4 43.2002 49.5 44.3002 49.9C44.6002 50 44.8002 50.4 44.7002 50.8C44.6002 51.2 44.3002 51.4 43.9002 51.3C43.9002 51.3 43.9002 51.3 43.8002 51.3C43.0002 50.7 42.0002 50.5 41.0002 50.5C40.0002 50.5 39.0002 50.9 38.0002 51.4C37.9002 51.5 37.8002 51.4 37.7002 51.3C37.7002 51.2 37.7002 51 37.8002 51Z" fill="#2E2F37"/>
<path d="M63.1999 51C62.2999 50.3 61.1999 49.8 60.0999 49.6C58.9999 49.4 57.7999 49.5 56.6999 49.9C56.3999 50 56.1999 50.4 56.2999 50.8C56.3999 51.2 56.6999 51.4 57.0999 51.3C57.0999 51.3 57.0999 51.3 57.1999 51.3C58.0999 50.9 59.0999 50.6 60.0999 50.7C61.0999 50.7 62.0999 51.1 63.0999 51.6C63.1999 51.7 63.2999 51.6 63.3999 51.5C63.2999 51.2 63.2999 51 63.1999 51Z" fill="#2E2F37"/>
<path d="M44.4998 55.9998C44.4998 56.9998 43.7998 57.7998 42.8998 57.7998C41.9998 57.7998 41.2998 56.9998 41.2998 55.9998C41.2998 54.9998 41.9998 54.1998 42.8998 54.1998C43.7998 54.0998 44.4998 54.8998 44.4998 55.9998Z" fill="#292929"/>
<path d="M59.8001 55.9998C59.8001 56.9998 59.1001 57.7998 58.2001 57.7998C57.3001 57.7998 56.6001 56.9998 56.6001 55.9998C56.6001 54.9998 57.3001 54.1998 58.2001 54.1998C59.1001 54.0998 59.8001 54.8998 59.8001 55.9998Z" fill="#292929"/>
<path d="M50.3001 59.9996C50.3001 59.8996 50.2001 59.7996 50.1001 59.6996C50.0001 59.5996 49.8001 59.5996 49.7001 59.5996C49.5001 59.5996 49.4001 59.6996 49.3001 59.6996C49.0001 59.7996 48.9001 60.0996 48.8001 60.3996C48.7001 60.6996 48.7001 60.9996 48.8001 61.2996C48.9001 61.5996 49.0001 61.7996 49.2001 62.0996C49.3001 62.1996 49.4001 62.1996 49.5001 62.1996C49.6001 62.1996 49.7001 62.0996 49.8001 62.0996C49.9001 61.9996 49.9001 61.8996 49.9001 61.7996C49.9001 61.6996 49.8001 61.5996 49.8001 61.4996C49.7001 61.3996 49.7001 61.2996 49.6001 61.1996C49.6001 61.0996 49.6001 61.0996 49.6001 60.9996V60.8996V60.7996C49.6001 60.7996 49.6001 60.7996 49.6001 60.6996C49.7001 60.6996 49.8001 60.6996 49.9001 60.6996C50.0001 60.6996 50.1001 60.5996 50.2001 60.4996C50.4001 60.2996 50.4001 60.1996 50.3001 59.9996Z" fill="#1A1A1A"/>
<path d="M61.3001 62.7004C61.3001 64.0004 60.4001 65.0004 59.2001 65.0004C58.1001 65.0004 57.1001 64.0004 57.1001 62.7004C57.1001 61.4004 58.0001 60.4004 59.2001 60.4004C60.3001 60.4004 61.3001 61.4004 61.3001 62.7004Z" fill="#F4B0B0"/>
<path d="M43.9002 62.7004C43.9002 64.0004 43.0002 65.0004 41.8002 65.0004C40.7002 65.0004 39.7002 64.0004 39.7002 62.7004C39.7002 61.4004 40.6002 60.4004 41.8002 60.4004C43.0002 60.4004 43.9002 61.4004 43.9002 62.7004Z" fill="#F4B0B0"/>
<path d="M54.6 66.1C52.1 67.6 48.9 67.5 46.4 65.8C46 65.6 45.7 66.2 46.1 66.4C48.8 68.2 52.2 68.3 54.9 66.7C55.3 66.5 54.9 65.9 54.6 66.1Z" fill="#1A1A1A"/>
<path d="M51.5002 69.6002C51.5002 69.4002 51.3002 69.3002 51.1002 69.4002C50.5002 69.6002 49.8002 69.6002 49.2002 69.3002C49.0002 69.2002 48.9002 69.3002 48.8002 69.4002C48.7002 69.6002 48.8002 69.8002 48.9002 69.9002C49.7002 70.3002 50.5002 70.3002 51.3002 70.1002C51.5002 69.9002 51.6002 69.7002 51.5002 69.6002Z" fill="#1A1A1A"/>
<path d="M70.2002 43.9005C69.5002 39.6005 67.7002 35.6005 65.1002 33.0005C62.1002 30.1005 58.4002 29.2005 54.8002 28.6005C50.0002 27.7005 44.9002 27.2005 40.4002 29.3005L40.7002 28.4005C36.7002 29.9005 33.2002 33.8005 31.4002 38.9005C29.6002 43.9005 29.7002 51.7005 31.4002 56.9005C35.1002 53.1005 37.1002 45.3005 37.3002 39.0005C39.1002 43.6005 44.5002 45.8005 51.3002 43.4005C55.1002 47.9005 61.5002 47.2005 65.7002 46.9005C67.1002 51.6005 67.3002 53.8005 69.6002 56.8005C70.6002 52.7005 70.9002 48.1005 70.2002 43.9005Z" fill="#2E2F37"/>
<path d="M50.3001 23C23.4001 23 28.3001 48.7 28.3001 48.7C28.3001 48.7 29.7001 42.4 49.2001 42.4C68.6001 42.4 72.2001 48.4 72.2001 48.4C72.2001 48.4 77.1001 23 50.3001 23ZM54.9001 38.8C49.7001 37.8 45.9001 38.8 45.9001 38.8C45.9001 38.8 44.2001 30.9 50.4001 30.9C56.6001 30.9 54.9001 38.8 54.9001 38.8Z" fill="#FDC31A"/>
</g>
</svg>
