<svg width="100" height="100" viewBox="0 0 100 100" fill="none" xmlns="http://www.w3.org/2000/svg">
<mask id="mask0" mask-type="alpha" maskUnits="userSpaceOnUse" x="0" y="0" width="100" height="100">
<rect width="100" height="100" rx="25" fill="white"/>
</mask>
<g mask="url(#mask0)">
<rect width="100" height="100" fill="#FCE6F1"/>
<path d="M89.4 97.3133C88.4 92.7133 85.3 89.1133 81.2 87.5133C80.9 87.3133 80.7 87.2133 80.4 87.1133L49.1 75.6133L20.4 87.2133C20 87.4133 19.5 87.5133 19.1 87.7133C19.1 87.7133 19.1 87.7133 19 87.7133C15.3 89.5133 12.4 92.9133 11.5 97.2133L11 100.013H90L89.4 97.3133Z" fill="#00B58F"/>
<path d="M35.1003 44.0135C36.2003 46.5135 36.1003 50.5135 33.8003 51.4135C31.4003 52.3135 28.6003 49.1135 27.5003 46.6135C26.4003 44.1135 27.1003 41.9135 29.4003 41.1135C31.8003 40.2135 34.0003 41.5135 35.1003 44.0135Z" fill="#FDE3D8"/>
<path d="M29.2998 44.013C29.2998 44.013 32.1998 43.213 33.2998 47.113" stroke="#2E2F37" stroke-width="0.4561" stroke-miterlimit="10" stroke-linecap="round" stroke-linejoin="round"/>
<path d="M65 44.0135C63.9 46.5135 64 50.5135 66.3 51.4135C68.7 52.3135 71.5 49.1135 72.6 46.6135C73.7 44.1135 73 41.9135 70.7 41.1135C68.4 40.2135 66.2 41.5135 65 44.0135Z" fill="#FDE3D8"/>
<path d="M70.7998 44.013C70.7998 44.013 67.8998 43.213 66.7998 47.113" stroke="#2E2F37" stroke-width="0.4561" stroke-miterlimit="10" stroke-linecap="round" stroke-linejoin="round"/>
<path d="M71.2999 83.7133C71.2999 83.7133 69.9999 87.8133 49.7999 87.8133C29.5999 87.8133 28.3999 84.0133 28.3999 84.0133L42.1999 78.4133L43.4999 65.6133C44.6999 66.3133 46.0999 66.9133 47.5999 67.4133C49.1999 67.9133 50.8999 67.9133 52.4999 67.4133C53.3999 67.1133 54.2999 66.8133 55.0999 66.4133L56.2999 78.2133L71.2999 83.7133Z" fill="#F0D3C7"/>
<path d="M54.9999 66.4131C54.1999 66.8131 53.2999 67.1131 52.3999 67.4131C50.7999 67.9131 49.0999 67.9131 47.4999 67.4131C45.9999 66.9131 44.5999 66.3131 43.3999 65.6131L44.1999 57.6131L53.9999 57.4131L54.9999 66.4131Z" fill="#DCB8AD"/>
<path d="M53.3997 18.913C53.3997 18.913 63.9997 10.813 56.6997 4.61303C49.3997 -1.58697 41.0997 4.71303 40.4997 8.41303C39.3997 15.013 46.2997 18.613 46.2997 18.613L53.3997 18.913Z" fill="#753044"/>
<path d="M45.3999 16.8133C45.3999 16.8133 41.0999 16.9133 38.3999 11.6133C38.3999 11.6133 39.8999 18.8133 46.9999 17.9133L45.3999 16.8133Z" fill="#753044"/>
<path d="M54 16.3133C54 16.3133 57.5 16.8133 61.3 11.1133C61.3 11.1133 59.6 18.0133 52.5 17.4133L54 16.3133Z" fill="#753044"/>
<path d="M50.0998 17.6133C40.8998 17.6133 32.7998 24.7133 32.7998 33.5133L33.2998 44.0133C33.2998 44.0133 33.4998 58.9133 47.6998 63.5133C49.2998 64.0133 50.9998 64.0133 52.4998 63.5133C66.5998 58.9133 66.7998 44.0133 66.7998 44.0133L67.2998 33.5133C67.2998 24.7133 59.1998 17.6133 50.0998 17.6133Z" fill="white"/>
<path d="M70.0999 33.4131C70.0999 44.7131 61.2999 53.9131 50.4999 53.9131C39.6999 53.9131 30.8999 44.7131 30.8999 33.4131C30.8999 22.1131 39.6999 14.4131 50.4999 14.4131C61.2999 14.4131 70.0999 22.1131 70.0999 33.4131Z" fill="#863C50"/>
<path d="M50.0002 17.6133C40.8002 17.6133 32.7002 24.7133 32.7002 33.5133L33.2002 44.0133C33.2002 44.0133 33.4002 58.9133 47.6002 63.5133C49.2002 64.0133 50.9002 64.0133 52.4002 63.5133C66.6002 58.9133 66.8002 44.0133 66.8002 44.0133L67.3002 33.5133C67.3002 24.7133 59.2002 17.6133 50.0002 17.6133Z" fill="#FDE3D8"/>
<path d="M46.6001 53.4131C46.6001 53.4131 46.8001 55.6131 49.8001 55.6131C52.8001 55.6131 53.0001 53.4131 53.0001 53.4131H46.6001Z" fill="#F92C10"/>
<path d="M52.9001 53.4133C52.9001 53.4133 50.0001 51.8133 46.6001 53.4133C46.6001 53.4133 50.0001 54.9133 52.9001 53.4133Z" fill="#F92C10"/>
<path d="M45.7998 53.1133C45.7998 53.1133 49.2998 55.1133 53.4998 53.1133" stroke="#8D1800" stroke-width="0.4561" stroke-miterlimit="10" stroke-linecap="round" stroke-linejoin="round"/>
<path d="M40.7999 33.4128C40.7999 33.4128 37.8999 33.8128 36.3999 34.7128C35.4999 35.3128 35.4999 36.3128 36.5999 36.6128C37.5999 36.9128 39.6999 36.7128 40.8999 36.6128C43.9999 36.3128 45.9999 35.1128 45.7999 34.2128C45.5999 32.9128 42.3999 33.1128 40.7999 33.4128Z" fill="#753044"/>
<path d="M58.6998 33.4128C58.6998 33.4128 61.5998 33.8128 63.0998 34.7128C63.9998 35.3128 63.9998 36.3128 62.8998 36.6128C61.8998 36.9128 59.7998 36.7128 58.5998 36.6128C55.4998 36.3128 53.4998 35.1128 53.6998 34.2128C53.8998 32.9128 57.0998 33.1128 58.6998 33.4128Z" fill="#753044"/>
<path d="M48.2998 45.4131V47.8131C48.2998 48.0131 48.2998 48.2131 48.3998 48.3131C48.6998 49.0131 49.3998 49.3131 50.0998 49.1131L50.8998 48.7131" stroke="black" stroke-width="0.4305" stroke-miterlimit="10" stroke-linecap="round" stroke-linejoin="round"/>
<path d="M32.6002 63.2131C29.7002 62.8131 27.3002 60.4131 27.0002 57.5131C26.6002 54.3131 28.6002 51.5131 31.5002 50.6131C31.7002 50.5131 31.8002 50.4131 31.8002 50.2131C31.8002 49.9131 31.5002 49.7131 31.2002 49.8131C28.0002 50.8131 25.8002 54.0131 26.2002 57.6131C26.6002 60.9131 29.2002 63.6131 32.5002 64.1131C36.1002 64.6131 39.0002 62.9131 40.1002 59.7131C39.9002 59.6131 39.5002 59.3131 39.5002 59.3131C38.5002 62.1131 35.9002 63.6131 32.6002 63.2131Z" fill="#863C50"/>
<path d="M66.2002 63.2131C69.1002 62.8131 71.5002 60.4131 71.8002 57.5131C72.2002 54.3131 70.2002 51.5131 67.3002 50.6131C67.1002 50.5131 67.0002 50.4131 67.0002 50.2131C67.0002 49.9131 67.3002 49.7131 67.6002 49.8131C70.8002 50.8131 73.0002 54.0131 72.6002 57.6131C72.2002 60.9131 69.6002 63.6131 66.3002 64.1131C62.7002 64.6131 59.8002 62.9131 58.7002 59.7131C58.9002 59.6131 59.3002 59.3131 59.3002 59.3131C60.4002 62.1131 62.9002 63.6131 66.2002 63.2131Z" fill="#863C50"/>
<path d="M57.5998 31.4133H68.0998C68.0998 31.4133 67.0998 14.6133 47.6998 15.8133C47.6998 15.8133 31.7998 16.0133 32.1998 31.4133H49.3998L49.7998 29.7133L50.1998 31.4133H56.2998L56.8998 27.4133L57.5998 31.4133Z" fill="#863C50"/>
<path d="M60.3002 43.0131C60.3002 44.1131 59.6002 45.0131 58.6002 45.1131C57.6002 45.1131 56.8002 44.3131 56.7002 43.2131C56.7002 42.1131 57.4002 41.2131 58.4002 41.1131C59.4002 41.0131 60.3002 41.9131 60.3002 43.0131Z" fill="#2E2F37"/>
<path d="M43.3002 43.0131C43.3002 44.1131 42.6002 45.0131 41.6002 45.1131C40.6002 45.1131 39.8002 44.3131 39.7002 43.2131C39.7002 42.1131 40.4002 41.2131 41.4002 41.1131C42.4002 41.0131 43.3002 41.9131 43.3002 43.0131Z" fill="#2E2F37"/>
</g>
</svg>
