<svg width="100" height="100" viewBox="0 0 100 100" fill="none" xmlns="http://www.w3.org/2000/svg">
<mask id="mask0" mask-type="alpha" maskUnits="userSpaceOnUse" x="0" y="0" width="100" height="100">
<rect width="100" height="100" rx="25" fill="white"/>
</mask>
<g mask="url(#mask0)">
<rect width="100" height="100" fill="#FCE6F1"/>
<path d="M42.1308 45.4152C42.1308 45.4152 53.6308 35.2152 55.7308 26.3152C58.6308 32.7152 62.5308 36.3152 62.5308 36.3152L51.3308 52.7152L54.6308 100.315C54.6308 100.315 74.9308 107.015 86.9308 98.1152C98.9308 89.2152 96.7308 71.3152 94.2308 67.2152C91.7308 63.0152 83.0308 58.0152 83.0308 54.7152C83.0308 51.4152 86.2308 42.0152 83.1308 39.1152C80.0308 36.2152 76.2308 34.3152 73.2308 31.8152C70.1308 29.4152 68.9308 9.41518 49.9308 10.0152C25.9308 10.8152 29.1308 32.3152 23.8308 36.7152C18.5308 41.1152 14.4308 41.0152 12.1308 45.5152C9.83084 50.0152 14.4308 57.4152 11.3308 61.6152C8.23084 65.8152 2.53085 72.8152 3.03085 80.7152C4.33085 99.6152 24.1308 108.515 37.5308 100.915C49.1308 94.3152 42.1308 45.4152 42.1308 45.4152Z" fill="#1F2976"/>
<path d="M88.231 97.6146C87.231 93.0146 84.131 89.4147 80.031 87.8147C79.731 87.6147 79.531 87.5147 79.231 87.4146L47.831 76.0146L19.231 87.5146C18.831 87.7146 18.331 87.8146 17.931 88.0146C17.931 88.0146 17.931 88.0146 17.831 88.0146C14.131 89.8146 11.231 93.2146 10.331 97.5146L9.73096 100.215H88.731L88.231 97.6146Z" fill="#AA2186"/>
<path d="M33.9308 44.4148C35.0308 46.9148 34.9308 50.9148 32.6308 51.8148C30.2308 52.7148 27.4308 49.5148 26.3308 47.0148C25.2308 44.5148 25.9308 42.3148 28.2308 41.5148C30.5308 40.6148 32.8308 41.9148 33.9308 44.4148Z" fill="#EDB18B"/>
<path d="M28.1309 44.4154C28.1309 44.4154 31.0309 43.6154 32.1309 47.5154" stroke="#2E2F37" stroke-width="0.4561" stroke-miterlimit="10" stroke-linecap="round" stroke-linejoin="round"/>
<path d="M63.8311 44.4148C62.7311 46.9148 62.8311 50.9148 65.1311 51.8148C67.5311 52.7148 70.3311 49.5148 71.4311 47.0148C72.5311 44.5148 71.8311 42.3148 69.5311 41.5148C67.2311 40.6148 64.9311 41.9148 63.8311 44.4148Z" fill="#EDB18B"/>
<path d="M69.6309 44.4154C69.6309 44.4154 66.7309 43.6154 65.6309 47.5154" stroke="#2E2F37" stroke-width="0.4561" stroke-miterlimit="10" stroke-linecap="round" stroke-linejoin="round"/>
<path d="M48.8312 53.9148C59.8312 53.9148 68.7311 45.4148 68.7311 34.8148C68.7311 24.2148 59.8312 15.7148 48.8312 15.7148C37.8312 15.7148 28.9312 24.2148 28.9312 34.8148C28.9312 45.4148 37.8312 53.9148 48.8312 53.9148Z" fill="#1F2976"/>
<path d="M55.1309 78.6145L52.9309 57.8145L43.1309 58.1145L40.9309 78.8145L27.1309 84.4145C27.1309 84.4145 28.3309 94.2145 48.5309 94.2145C68.7309 94.1145 70.0309 84.1145 70.0309 84.1145L55.1309 78.6145Z" fill="#F2BE9D"/>
<path d="M53.9311 66.8145C53.1311 67.2145 52.2311 67.5145 51.3311 67.8145C49.7311 68.3145 48.0311 68.3145 46.4311 67.8145C44.9311 67.3145 43.5311 66.7145 42.3311 66.0145L43.1311 58.0145L52.9311 57.8145L53.9311 66.8145Z" fill="#EDB18B"/>
<path d="M48.8308 18.0146C39.6308 18.0146 31.5308 25.1146 31.5308 33.9146L32.0308 44.4146C32.0308 44.4146 32.2308 59.3147 46.4308 63.9146C48.0308 64.4146 49.7308 64.4146 51.2308 63.9146C65.4308 59.4146 65.6308 44.4146 65.6308 44.4146L66.1308 33.9146C66.1308 25.1146 58.0308 18.0146 48.8308 18.0146Z" fill="white"/>
<path d="M48.8308 18.0146C39.6308 18.0146 31.5308 25.1146 31.5308 33.9146L32.0308 44.4146C32.0308 44.4146 32.2308 59.3147 46.4308 63.9146C48.0308 64.4146 49.7308 64.4146 51.2308 63.9146C65.4308 59.4146 65.6308 44.4146 65.6308 44.4146L66.1308 33.9146C66.1308 25.1146 57.9308 18.0146 48.8308 18.0146Z" fill="#F9C6A7"/>
<path d="M47.8311 44.7148V47.4148C47.8311 48.4148 48.6311 49.2148 49.6311 49.2148" stroke="black" stroke-width="0.4561" stroke-miterlimit="10" stroke-linecap="round" stroke-linejoin="round"/>
<path d="M59.1308 42.4153C59.1308 43.5153 58.4308 44.4153 57.4308 44.5153C56.4308 44.5153 55.6308 43.7153 55.5308 42.6153C55.5308 41.5153 56.2308 40.6153 57.2308 40.5153C58.2308 40.4153 59.0308 41.2153 59.1308 42.4153Z" fill="#2E2F37"/>
<path d="M42.1308 42.4153C42.1308 43.5153 41.4308 44.4153 40.4308 44.5153C39.4308 44.5153 38.6308 43.7153 38.5308 42.6153C38.5308 41.5153 39.2308 40.6153 40.2308 40.5153C41.2308 40.4153 42.0308 41.2153 42.1308 42.4153Z" fill="#2E2F37"/>
<path d="M39.4307 33.8145C39.4307 33.8145 42.4307 33.8145 43.9307 34.5145C44.8307 34.9145 45.0307 35.9145 44.0307 36.4145C43.1307 36.9145 34.5307 36.2145 34.6307 35.2145C34.6307 34.0145 37.8307 33.8145 39.4307 33.8145Z" fill="#1F2761"/>
<path d="M57.5309 33.8145C57.5309 33.8145 54.5309 33.7145 53.0309 34.4145C52.0309 34.8145 51.9309 35.8145 52.9309 36.3145C53.8309 36.8145 62.4309 36.2145 62.3309 35.2145C62.3309 34.0145 59.1309 33.8145 57.5309 33.8145Z" fill="#1F2761"/>
<path d="M38.5312 18.6147C38.5312 18.6147 43.3313 32.7147 68.4313 33.8147C68.4313 33.8147 72.6313 28.0147 67.3313 21.4147C63.8313 17.0147 56.5312 13.1147 51.2313 13.4147C49.4313 13.4147 41.1312 18.2147 38.5312 18.6147Z" fill="#1F2976"/>
<path d="M40.531 15.7148C40.531 15.7148 42.131 29.8148 29.731 33.6148C29.731 33.6148 27.231 29.6148 29.331 26.2148C31.231 22.9148 40.531 15.7148 40.531 15.7148Z" fill="#1F2976"/>
<path d="M41.9307 51.7148H54.6307C54.6307 51.7148 53.9307 56.0148 48.1307 56.0148C42.3307 56.0148 41.9307 51.7148 41.9307 51.7148Z" fill="white"/>
</g>
</svg>
