<svg width="100" height="100" viewBox="0 0 100 100" fill="none" xmlns="http://www.w3.org/2000/svg">
<mask id="mask0" mask-type="alpha" maskUnits="userSpaceOnUse" x="0" y="0" width="100" height="100">
<rect width="100" height="100" rx="25" fill="white"/>
</mask>
<g mask="url(#mask0)">
<rect width="100" height="100" fill="#F4F4FE"/>
<path d="M84.7633 80.893L61.3633 69.793H50.4633H48.7633H37.9633L14.5633 80.893C14.5633 80.893 0.963303 85.893 2.0633 100.493H48.8633H50.5633H97.3633C98.6633 85.993 84.7633 80.893 84.7633 80.893Z" fill="#3B3A8F"/>
<path d="M2.66309 93.6934H96.7631" stroke="white" stroke-width="1.1434" stroke-miterlimit="10" stroke-linejoin="round"/>
<path d="M5.56299 87.9932H94.063" stroke="white" stroke-width="1.1434" stroke-miterlimit="10" stroke-linejoin="round"/>
<path d="M11.7632 82.293H40.6632" stroke="white" stroke-width="1.1434" stroke-miterlimit="10" stroke-linejoin="round"/>
<path d="M22.9629 76.9932H33.6629" stroke="white" stroke-width="1.1434" stroke-miterlimit="10" stroke-linejoin="round"/>
<path d="M67.8633 76.9932H76.8633" stroke="white" stroke-width="1.1434" stroke-miterlimit="10" stroke-linejoin="round"/>
<path d="M60.4634 82.293H87.2634" stroke="white" stroke-width="1.1434" stroke-miterlimit="10" stroke-linejoin="round"/>
<path d="M61.5635 69.793V44.793H37.9635V69.693L32.0635 72.493C32.0635 72.493 32.5635 83.593 49.9635 83.793C67.4635 83.993 69.1635 73.493 69.1635 73.493L61.5635 69.793Z" fill="#F0D3C7"/>
<path d="M38.1631 52.5928C38.1631 52.5928 40.1631 62.6928 48.8631 63.7928C58.9631 65.0928 61.5631 52.7928 61.5631 52.7928C61.5631 52.7928 57.1631 58.3928 50.0631 58.3928C42.2631 58.4928 38.1631 52.5928 38.1631 52.5928Z" fill="#DCB8AD"/>
<path d="M40.4634 10.2927C40.4634 10.2927 43.9634 2.89272 56.2634 5.59272C64.9634 7.49272 68.2634 13.5927 69.5634 17.0927C70.0634 18.3927 70.1634 19.7927 69.9634 21.1927L67.1634 35.3927L53.9634 15.2927L41.7634 16.2927L40.4634 10.2927Z" fill="#38140B"/>
<path d="M66.6637 36.3925C66.6637 36.3925 68.2637 33.8925 71.5637 35.0925C74.8637 36.2925 73.3637 44.2925 68.4637 45.3925C68.4637 45.3925 66.6637 45.7925 65.2637 44.5925C65.2637 44.4925 66.4637 38.5925 66.6637 36.3925Z" fill="#FDE3D8"/>
<path d="M70.8636 37.8923C70.8636 37.8923 68.0636 36.9923 66.1636 40.9923" stroke="#1A1A1A" stroke-width="0.6108" stroke-miterlimit="10" stroke-linecap="round" stroke-linejoin="round"/>
<path d="M67.4634 38.9922C67.4634 38.9922 70.4634 40.5922 68.4634 42.9922" stroke="#1A1A1A" stroke-width="0.6108" stroke-miterlimit="10" stroke-linecap="round" stroke-linejoin="round"/>
<path d="M32.9635 36.3925C32.9635 36.3925 31.3635 33.8925 28.0635 35.0925C24.7635 36.2925 26.2635 44.2925 31.1635 45.3925C31.1635 45.3925 32.9635 45.7925 34.3635 44.5925C34.3635 44.4925 33.1635 38.5925 32.9635 36.3925Z" fill="#FDE3D8"/>
<path d="M28.7637 37.8923C28.7637 37.8923 31.5637 36.9923 33.4637 40.9923" stroke="#1A1A1A" stroke-width="0.6108" stroke-miterlimit="10" stroke-linecap="round" stroke-linejoin="round"/>
<path d="M32.0635 38.9922C32.0635 38.9922 29.0635 40.5922 31.0635 42.9922" stroke="#1A1A1A" stroke-width="0.6108" stroke-miterlimit="10" stroke-linecap="round" stroke-linejoin="round"/>
<path d="M66.9636 28.7924C66.9636 33.5924 66.4636 43.6924 63.5636 49.6924C60.7636 55.2924 56.1636 58.2924 50.1636 58.4924C44.1636 58.6924 39.6636 56.3924 36.0636 49.0924C32.4636 41.7924 32.6636 28.8924 32.6636 28.8924C32.6636 28.8924 32.6636 11.6924 49.6636 11.6924C67.4636 11.6924 66.9636 28.7924 66.9636 28.7924Z" fill="#FDE3D8"/>
<path d="M48.5635 30.5928V41.5928C48.5635 41.7928 48.5635 41.8928 48.6635 42.0928C48.8635 42.6928 49.5635 42.9928 50.1635 42.7928L51.4635 42.3928" stroke="#1A1A1A" stroke-width="0.8224" stroke-miterlimit="10" stroke-linecap="round" stroke-linejoin="round"/>
<path d="M41.7634 36.393C42.4813 36.393 43.0634 35.8109 43.0634 35.093C43.0634 34.375 42.4813 33.793 41.7634 33.793C41.0454 33.793 40.4634 34.375 40.4634 35.093C40.4634 35.8109 41.0454 36.393 41.7634 36.393Z" fill="#1A1A1A"/>
<path d="M58.1635 35.093C58.1635 35.793 57.5635 36.393 56.8635 36.393C56.1635 36.393 55.5635 35.793 55.5635 35.093C55.5635 34.393 56.1635 33.793 56.8635 33.793C57.5635 33.793 58.1635 34.393 58.1635 35.093Z" fill="#1A1A1A"/>
<path d="M43.9634 45.0928C43.9634 45.0928 45.4634 46.2928 49.5634 46.2928C53.2634 46.2928 55.5634 45.0928 55.5634 45.0928" stroke="#1A1A1A" stroke-width="0.8224" stroke-miterlimit="10" stroke-linecap="round" stroke-linejoin="round"/>
<path d="M48.1636 48.5926C48.1636 48.5926 50.0636 48.4926 51.5636 47.8926" stroke="#1A1A1A" stroke-width="0.4746" stroke-miterlimit="10" stroke-linecap="round" stroke-linejoin="round"/>
<path d="M52.5635 29.4928L62.9635 32.1928C62.9635 32.1928 62.4635 29.2928 58.2635 28.1928C53.9635 27.0928 52.5635 29.4928 52.5635 29.4928Z" fill="#38140B"/>
<path d="M46.0636 29.4928L35.6636 32.1928C35.6636 32.1928 36.1636 29.2928 40.3636 28.1928C44.6636 27.0928 46.0636 29.4928 46.0636 29.4928Z" fill="#38140B"/>
<path d="M32.5638 35.8928L29.8638 21.1928C29.6638 19.9928 29.8638 18.6928 30.3638 17.5928C31.6637 14.7928 35.3638 8.49279 40.3638 10.2928L41.6638 16.2928C41.6638 16.2928 35.3637 17.5928 32.8637 25.7928L32.5638 35.8928Z" fill="#38140B"/>
<path d="M68.3636 26.1929C68.3636 26.1929 66.4636 11.5929 57.0636 10.5929C47.7636 9.49286 39.9636 13.6929 39.9636 13.6929L37.9636 15.0929C37.9636 15.0929 38.2636 15.4929 38.8636 16.0929C31.4636 16.7929 32.5636 27.8929 32.5636 27.8929C37.0636 24.4929 39.7636 20.1929 40.9636 17.8929C45.3636 21.4929 54.4636 26.9929 68.3636 26.1929Z" fill="#38140B"/>
</g>
</svg>
