<svg width="100" height="100" viewBox="0 0 100 100" fill="none" xmlns="http://www.w3.org/2000/svg">
<mask id="mask0" mask-type="alpha" maskUnits="userSpaceOnUse" x="0" y="0" width="100" height="100">
<rect width="100" height="100" rx="25" fill="white"/>
</mask>
<g mask="url(#mask0)">
<rect width="100" height="100" fill="#FCE6F1"/>
<path d="M43.2998 42.4156C43.2998 42.4156 54.7998 32.2156 56.8998 23.3156C59.7998 29.7156 63.6998 33.3156 63.6998 33.3156L52.5998 49.7156L47.6998 63.8156C47.6998 63.8156 75.3998 68.7156 87.3998 59.8156C73.1998 42.4156 76.1998 11.0156 51.1998 11.0156C20.0998 10.2156 33.9998 40.4156 14.2998 57.8156C23.3998 66.8156 40.5998 65.1156 47.6998 63.8156C59.1998 57.3156 43.2998 42.4156 43.2998 42.4156Z" fill="#DD6026"/>
<path d="M89.4 97.6156C88.4 93.0156 85.3 89.4156 81.2 87.8156C80.9 87.6156 80.7 87.5156 80.4 87.4156L49.1 76.0156L20.4 87.5156C20 87.7156 19.5 87.8156 19.1 88.0156C19.1 88.0156 19.1 88.0156 19 88.0156C15.3 89.8156 12.4 93.2156 11.5 97.5156L11 100.416H90L89.4 97.6156Z" fill="#3B3A8F"/>
<path d="M35.1003 44.4158C36.2003 46.9158 36.1003 50.9158 33.8003 51.8158C31.4003 52.7158 28.6003 49.5158 27.5003 47.0158C26.4003 44.5158 27.1003 42.3158 29.4003 41.5158C31.8003 40.6158 34.0003 41.9158 35.1003 44.4158Z" fill="#FDE3D8"/>
<path d="M29.2998 44.4163C29.2998 44.4163 32.1998 43.6163 33.2998 47.5163" stroke="#2E2F37" stroke-width="0.4561" stroke-miterlimit="10" stroke-linecap="round" stroke-linejoin="round"/>
<path d="M65 44.4158C63.9 46.9158 64 50.9158 66.3 51.8158C68.7 52.7158 71.5 49.5158 72.6 47.0158C73.7 44.5158 73 42.3158 70.7 41.5158C68.4 40.6158 66.2 41.9158 65 44.4158Z" fill="#FDE3D8"/>
<path d="M70.7998 44.4163C70.7998 44.4163 67.8998 43.6163 66.7998 47.5163" stroke="#2E2F37" stroke-width="0.4561" stroke-miterlimit="10" stroke-linecap="round" stroke-linejoin="round"/>
<path d="M50.1002 53.9158C61.1002 53.9158 70.0002 45.4158 70.0002 34.8158C70.0002 24.2158 61.0002 15.7158 50.1002 15.7158C39.1002 15.7158 30.2002 24.2158 30.2002 34.8158C30.2002 45.4158 39.1002 53.9158 50.1002 53.9158Z" fill="#DD6026"/>
<path d="M56.2998 78.6164L54.0998 57.8164L44.2998 58.0164L42.0998 78.7164L28.2998 84.3164C28.2998 84.3164 44.3999 90.1164 49.6998 90.1164C54.9998 90.1164 71.1998 84.0164 71.1998 84.0164L56.2998 78.6164Z" fill="#F0D3C7"/>
<path d="M55.1 66.8164C54.3 67.2164 53.4 67.5164 52.5 67.8164C50.9 68.3164 49.2 68.3164 47.6 67.8164C46.1 67.3164 44.7 66.7164 43.5 66.0164L44.3 58.0164L54.1 57.8164L55.1 66.8164Z" fill="#DCB8AD"/>
<path d="M50.0998 18.0156C40.8998 18.0156 32.7998 25.1156 32.7998 33.9156L33.2998 44.4156C33.2998 44.4156 33.4998 59.3156 47.6998 63.9156C49.2998 64.4156 50.9998 64.4156 52.4998 63.9156C66.6998 59.4156 66.8998 44.4156 66.8998 44.4156L67.3998 33.9156C67.2998 25.1156 59.1998 18.0156 50.0998 18.0156Z" fill="white"/>
<path d="M50.0002 18.0156C40.8002 18.0156 32.7002 25.1156 32.7002 33.9156L33.2002 44.4156C33.2002 44.4156 33.4002 59.3156 47.6002 63.9156C49.2002 64.4156 50.9002 64.4156 52.4002 63.9156C66.6002 59.4156 66.8002 44.4156 66.8002 44.4156L67.3002 33.9156C67.3002 25.1156 59.2002 18.0156 50.0002 18.0156Z" fill="#FDE3D8"/>
<path d="M49.1001 39.7158V48.4158C49.1001 49.4158 49.9001 49.2158 50.9001 49.2158" stroke="black" stroke-width="0.4561" stroke-miterlimit="10" stroke-linecap="round" stroke-linejoin="round"/>
<path d="M60.3002 42.4162C60.3002 43.5162 59.6002 44.4162 58.6002 44.5162C57.6002 44.5162 56.8002 43.7162 56.7002 42.6162C56.7002 41.5162 57.4002 40.6162 58.4002 40.5162C59.4002 40.4162 60.2002 41.2162 60.3002 42.4162Z" fill="#0E886E"/>
<path d="M43.3002 42.4162C43.3002 43.5162 42.6002 44.4162 41.6002 44.5162C40.6002 44.5162 39.8002 43.7162 39.7002 42.6162C39.7002 41.5162 40.4002 40.6162 41.4002 40.5162C42.4002 40.4162 43.2002 41.2162 43.3002 42.4162Z" fill="#0E886E"/>
<path d="M58.6998 33.8165C58.6998 33.8165 55.6998 33.7165 54.1998 34.4165C53.1998 34.8165 53.0998 35.8165 54.0998 36.3165C54.9998 36.8165 63.5998 36.2165 63.4998 35.2165C63.4998 34.0165 60.2998 33.8165 58.6998 33.8165Z" fill="#D8746C"/>
<path d="M41.2999 33.8164C41.2999 33.8164 44.2999 33.8164 45.7999 34.5164C46.6999 34.9164 46.8999 35.9164 45.8999 36.4164C44.9999 36.9164 36.3999 36.2164 36.4999 35.2164C36.4999 34.0164 39.6999 33.8164 41.2999 33.8164Z" fill="#D8746C"/>
<path d="M68.8001 33.2164C66.0001 33.1164 63.5001 33.1164 61.0001 33.1164L56.0001 20.8164L59.5001 33.1164C58.8001 33.1164 55.1001 33.1164 54.4001 33.1164L53.1001 21.1164V33.1164C46.8001 33.2164 40.2001 33.2164 31.4001 32.8164C21.6001 28.3164 39.7001 18.5164 39.7001 18.5164C42.3001 18.1164 50.6001 13.3164 52.4001 13.2164C57.8001 13.0164 65.0001 16.9164 68.5001 21.2164C73.8001 27.9164 68.8001 33.2164 68.8001 33.2164Z" fill="#DD6026"/>
<path d="M46.7002 53.2158C46.7002 53.2158 46.9002 55.4158 49.9002 55.4158C52.9002 55.4158 53.1002 53.2158 53.1002 53.2158H46.7002Z" fill="#F38272"/>
<path d="M53.0002 53.216C53.0002 53.216 50.1002 51.616 46.7002 53.216C46.7002 53.216 50.1002 54.616 53.0002 53.216Z" fill="#F38272"/>
<path d="M45 52.916C45 52.916 50.5 54.916 54.7 52.916" stroke="#AD523F" stroke-width="0.4561" stroke-miterlimit="10" stroke-linecap="round" stroke-linejoin="round"/>
<path d="M43.2211 49.5186C46.5855 48.1163 48.1762 44.2522 46.7739 40.8878C45.3716 37.5234 41.5075 35.9328 38.1431 37.335C34.7787 38.7373 33.188 42.6014 34.5903 45.9658C35.9926 49.3302 39.8567 50.9209 43.2211 49.5186Z" stroke="#1A1A1A" stroke-width="0.3676" stroke-miterlimit="10" stroke-linecap="round" stroke-linejoin="round"/>
<path d="M62.4084 49.3576C65.6762 47.7424 67.016 43.784 65.4008 40.5162C63.7857 37.2484 59.8273 35.9086 56.5595 37.5238C53.2917 39.1389 51.9519 43.0973 53.567 46.3651C55.1822 49.633 59.1406 50.9727 62.4084 49.3576Z" stroke="#1A1A1A" stroke-width="0.3676" stroke-miterlimit="10" stroke-linecap="round" stroke-linejoin="round"/>
<path d="M47.3999 44.016C47.3999 44.016 49.6999 40.416 52.8999 44.016" stroke="#1A1A1A" stroke-width="0.3676" stroke-miterlimit="10" stroke-linecap="round" stroke-linejoin="round"/>
<mask id="mask1" mask-type="alpha" maskUnits="userSpaceOnUse" x="11" y="76" width="79" height="25">
<path d="M89.4 97.6C88.4 93 85.3 89.4 81.2 87.8C80.9 87.6 80.7 87.5 80.4 87.4L49.1 76L20.4 87.5C20 87.7 19.5 87.8 19.1 88C19.1 88 19.1 88 19 88C15.3 89.8 12.4 93.2 11.5 97.5L11 100.4H90L89.4 97.6Z" fill="#3B3A8F"/>
</mask>
<g mask="url(#mask1)">
<path d="M50 90.3235C46.546 89.3846 37.3585 86.1548 28.2401 83C23.7642 88.2412 26.8067 94.3932 30.3124 95.3937C38.0839 99.3371 42.7467 95.3937 50 90.3235Z" fill="#9695DE"/>
<path d="M50 90.3235C53.454 89.3846 62.6415 86.1548 71.7599 83C76.2358 88.2412 73.1933 94.3932 69.6876 95.3937C61.9161 99.3371 57.2533 95.3937 50 90.3235Z" fill="#9695DE"/>
</g>
</g>
</svg>
