<svg width="100" height="100" viewBox="0 0 100 100" fill="none" xmlns="http://www.w3.org/2000/svg">
<mask id="mask0" mask-type="alpha" maskUnits="userSpaceOnUse" x="0" y="0" width="100" height="100">
<rect width="100" height="100" rx="25" fill="white"/>
</mask>
<g mask="url(#mask0)">
<rect width="100" height="100" fill="#F4F4FE"/>
<path d="M97.1 100.223H2C4.9 91.223 13.9 87.923 13.9 87.923L37.6 76.623H61.4L85.1 87.923C85.2 87.923 94.3 91.323 97.1 100.223Z" fill="#3B3A8F"/>
<path d="M61.6002 76.6232V51.3232H37.6002V76.6232L31.7002 79.4232C31.7002 79.4232 32.2002 90.6232 49.9002 90.9232C67.6002 91.1232 69.4002 80.4232 69.4002 80.4232L61.6002 76.6232Z" fill="#F0D3C7"/>
<path d="M37.7998 59.2227C37.7998 59.2227 39.7998 69.4227 48.6998 70.6227C58.8998 71.9227 61.5998 59.5227 61.5998 59.5227C61.5998 59.5227 57.0998 65.2227 49.8998 65.2227C41.9998 65.1227 37.7998 59.2227 37.7998 59.2227Z" fill="#DCB8AD"/>
<path d="M69.7 23.1234C68.7 19.5234 66.4 14.5234 58.2 10.8234C44.6 4.62336 40.2 16.2234 40.2 16.2234C34 13.6234 30.4 19.3234 29.4 22.3234C28.8 24.1234 29.3 26.0234 29.5 27.3234L32.2 42.2234L32.5 32.0234C35.1 23.6234 41.5 22.3234 41.5 22.3234L53.9 21.3234L67.2 41.6234L70 27.3234C70.1 26.2234 70 24.3234 69.7 23.1234Z" fill="#2E2F37"/>
<path d="M66.6998 42.7236C66.6998 42.7236 68.2998 40.1236 71.6998 41.4236C74.9998 42.7236 73.4998 50.8236 68.4998 51.8236C68.4998 51.8236 66.6998 52.2236 65.2998 51.0236C65.2998 51.0236 66.4998 45.0236 66.6998 42.7236Z" fill="#FDE3D8"/>
<path d="M70.9997 44.2234C70.9997 44.2234 68.1997 43.3234 66.1997 47.4234" stroke="#1A1A1A" stroke-width="0.4583" stroke-miterlimit="10" stroke-linecap="round" stroke-linejoin="round"/>
<path d="M67.5996 45.4238C67.5996 45.4238 70.5996 47.0238 68.5996 49.5238" stroke="#1A1A1A" stroke-width="0.4583" stroke-miterlimit="10" stroke-linecap="round" stroke-linejoin="round"/>
<path d="M32.6002 42.7236C32.6002 42.7236 31.0002 40.1236 27.6002 41.4236C24.3002 42.7236 25.8002 50.8236 30.8002 51.8236C30.8002 51.8236 32.6002 52.2236 34.0002 51.0236C34.0002 51.0236 32.8002 45.0236 32.6002 42.7236Z" fill="#FDE3D8"/>
<path d="M28.3003 44.2234C28.3003 44.2234 31.1003 43.3234 33.1003 47.4234" stroke="#1A1A1A" stroke-width="0.4583" stroke-miterlimit="10" stroke-linecap="round" stroke-linejoin="round"/>
<path d="M31.7002 45.4238C31.7002 45.4238 28.7002 47.0238 30.7002 49.5238" stroke="#1A1A1A" stroke-width="0.4583" stroke-miterlimit="10" stroke-linecap="round" stroke-linejoin="round"/>
<path d="M67.1001 35.0234C67.1001 39.9234 66.6001 50.1234 63.6001 56.2234C60.8001 61.9234 56.1001 65.0234 50.0001 65.1234C43.9001 65.3234 39.3001 62.9234 35.7001 55.5234C32.0001 48.1234 32.2001 35.0234 32.2001 35.0234C32.2001 35.0234 32.2001 17.5234 49.5001 17.5234C67.6001 17.6234 67.1001 35.0234 67.1001 35.0234Z" fill="#FDE3D8"/>
<path d="M48.3999 36.9229V48.0229C48.3999 48.2229 48.3999 48.3229 48.4999 48.5229C48.6999 49.1229 49.3999 49.4229 50.0999 49.2229L51.3999 48.8229" stroke="#1A1A1A" stroke-width="0.6171" stroke-miterlimit="10" stroke-linecap="round" stroke-linejoin="round"/>
<path d="M41.4997 42.723C42.2177 42.723 42.7997 42.141 42.7997 41.423C42.7997 40.7051 42.2177 40.123 41.4997 40.123C40.7817 40.123 40.1997 40.7051 40.1997 41.423C40.1997 42.141 40.7817 42.723 41.4997 42.723Z" fill="#1A1A1A"/>
<path d="M56.8 42.723C57.518 42.723 58.1 42.141 58.1 41.423C58.1 40.7051 57.518 40.123 56.8 40.123C56.082 40.123 55.5 40.7051 55.5 41.423C55.5 42.141 56.082 42.723 56.8 42.723Z" fill="#1A1A1A"/>
<path d="M52.3999 35.7233L62.9999 38.4233C62.9999 38.4233 62.4999 35.4233 58.1999 34.4233C53.8999 33.3233 52.3999 35.7233 52.3999 35.7233Z" fill="#1A1A1A"/>
<path d="M45.8998 35.7233L35.2998 38.4233C35.2998 38.4233 35.7998 35.4233 40.0998 34.4233C44.3998 33.3233 45.8998 35.7233 45.8998 35.7233Z" fill="#1A1A1A"/>
<path d="M47.3999 55.123C47.3999 55.123 49.2999 55.723 51.6999 55.123" stroke="#1A1A1A" stroke-width="0.3561" stroke-miterlimit="10" stroke-linecap="round" stroke-linejoin="round"/>
<path d="M48.8 53.223C49.1 53.023 49.4 52.623 49.5 52.323C49.7 51.523 49.8 50.323 48.3 50.123C46.1 49.923 42.3 54.223 39.1 51.723C39 51.623 42.1 57.423 48.8 53.223Z" fill="#2E2F37"/>
<path d="M50 53.223C49.7 53.023 49.4 52.623 49.3 52.323C49.1 51.523 49 50.323 50.5 50.123C52.7 49.923 56.4 54.223 59.7 51.723C59.7 51.623 56.6 57.423 50 53.223Z" fill="#2E2F37"/>
<path d="M65.5002 19.8229C65.1002 19.9229 50.5002 15.9229 50.5002 15.9229L37.8002 19.8229C26.6002 22.8229 31.5002 33.4229 31.5002 33.4229C36.1002 31.0229 38.3002 25.6229 39.2002 22.1229C41.2002 24.8229 45.9002 28.7229 55.5002 28.5229C65.3002 28.3229 67.1002 34.9229 67.1002 34.9229C67.1002 34.9229 65.9002 19.7229 65.5002 19.8229Z" fill="#2E2F37"/>
</g>
</svg>
