<svg width="100" height="100" viewBox="0 0 100 100" fill="none" xmlns="http://www.w3.org/2000/svg">
<mask id="mask0" mask-type="alpha" maskUnits="userSpaceOnUse" x="0" y="0" width="100" height="100">
<rect width="100" height="100" rx="25" fill="white"/>
</mask>
<g mask="url(#mask0)">
<rect width="100" height="100" fill="#FCE6F1"/>
<path d="M42.1 44.1111C42.1 44.1111 53.6 33.9111 55.7 25.0111C58.6 31.4111 62.5 35.0111 62.5 35.0111L51.4 51.5111L54.7 103.111C54.7 103.111 81 101.511 93 92.5111C70.1 64.8111 85.5 1 50 12.8111C9.5 1.5 28.2 74.8111 7 93.8111C16.1 102.811 30.6 105.011 37.6 103.711C49.2 97.1111 42.1 44.1111 42.1 44.1111Z" fill="#C93D67"/>
<path d="M88.2998 97.4105C87.2998 92.8105 84.1998 89.2105 80.0998 87.6105C79.7998 87.4105 79.5998 87.3105 79.2998 87.2105L47.8998 75.8105L19.2998 87.3105C18.8998 87.5105 18.3998 87.6105 17.9998 87.8105C17.9998 87.8105 17.9998 87.8105 17.8998 87.8105C14.1998 89.6105 11.2998 93.0105 10.3998 97.3105L9.7998 100.011H88.7998L88.2998 97.4105Z" fill="#00B58F"/>
<path d="M33.9997 44.2107C35.0997 46.7107 34.9997 50.7107 32.6997 51.6107C30.2997 52.5107 27.4997 49.3107 26.3997 46.8107C25.2997 44.3107 25.9997 42.1107 28.2997 41.3107C30.5997 40.3107 32.7997 41.7107 33.9997 44.2107Z" fill="#FDE3D8"/>
<path d="M28.1997 44.2113C28.1997 44.2113 31.0997 43.4113 32.1997 47.3113" stroke="#2E2F37" stroke-width="0.4561" stroke-miterlimit="10" stroke-linecap="round" stroke-linejoin="round"/>
<path d="M63.8999 44.2107C62.7999 46.7107 62.8999 50.7107 65.1999 51.6107C67.5999 52.5107 70.3999 49.3107 71.4999 46.8107C72.5999 44.3107 71.8999 42.1107 69.5999 41.3107C67.1999 40.3107 64.9999 41.7107 63.8999 44.2107Z" fill="#FDE3D8"/>
<path d="M69.6997 44.2113C69.6997 44.2113 66.7997 43.4113 65.6997 47.3113" stroke="#2E2F37" stroke-width="0.4561" stroke-miterlimit="10" stroke-linecap="round" stroke-linejoin="round"/>
<path d="M48.9 53.7107C59.9 53.7107 68.8 45.2107 68.8 34.6107C68.8 24.0107 59.9 15.5107 48.9 15.5107C37.9 15.5107 29 24.0107 29 34.6107C29 45.2107 37.9 53.7107 48.9 53.7107Z" fill="#C93D67"/>
<path d="M55.0997 78.4113L52.8997 57.6113L43.0997 57.9113L40.9997 78.6113L27.1997 84.2113C27.1997 84.2113 28.3997 94.0113 48.5997 94.0113C68.7997 94.0113 70.0997 83.9113 70.0997 83.9113L55.0997 78.4113Z" fill="#F0D3C7"/>
<path d="M53.8998 66.6113C53.0998 67.0113 52.1998 67.3113 51.2998 67.6113C49.6998 68.1113 47.9998 68.1113 46.3998 67.6113C44.8998 67.1113 43.4998 66.5113 42.2998 65.8113L43.0998 57.8113L52.8998 57.6113L53.8998 66.6113Z" fill="#DCB8AD"/>
<path d="M48.8996 17.8105C39.6996 17.8105 31.5996 24.9105 31.5996 33.7105L32.0996 44.2105C32.0996 44.2105 32.2996 59.1105 46.4996 63.7105C48.0996 64.2105 49.7996 64.2105 51.2996 63.7105C65.4996 59.2105 65.6996 44.2105 65.6996 44.2105L66.1996 33.7105C66.1996 24.9105 58.0996 17.8105 48.8996 17.8105Z" fill="white"/>
<path d="M48.8 17.8105C39.6 17.8105 31.5 24.9105 31.5 33.7105L32 44.2105C32 44.2105 32.2 59.1105 46.4 63.7105C48 64.2105 49.7 64.2105 51.2 63.7105C65.4 59.2105 65.6 44.2105 65.6 44.2105L66.1 33.7105C66.1 24.9105 58 17.8105 48.8 17.8105Z" fill="#FDE3D8"/>
<path d="M48.8999 42.2109L47.8999 47.1109C47.8999 48.1109 48.6999 48.9109 49.6999 48.9109" stroke="black" stroke-width="0.4561" stroke-miterlimit="10" stroke-linecap="round" stroke-linejoin="round"/>
<path d="M59.1 42.1109C59.1 43.2109 58.4 44.1109 57.4 44.2109C56.4 44.2109 55.6 43.4109 55.5 42.3109C55.5 41.2109 56.2 40.3109 57.2 40.2109C58.2 40.2109 59.1 41.0109 59.1 42.1109Z" fill="#2E2F37"/>
<path d="M42.1 42.1109C42.1 43.2109 41.4 44.1109 40.4 44.2109C39.4 44.2109 38.6 43.4109 38.5 42.3109C38.5 41.2109 39.2 40.3109 40.2 40.2109C41.2 40.2109 42.1 41.0109 42.1 42.1109Z" fill="#2E2F37"/>
<path d="M39.5 33.6106C39.5 33.6106 42.5 33.6106 44 34.3106C44.9 34.7106 45.1 35.7106 44.1 36.2106C37.6 35.0106 34.5 36.0106 34.6 35.0106C34.7 33.8106 37.9 33.5106 39.5 33.6106Z" fill="#B04E66"/>
<path d="M57.4996 33.6114C57.4996 33.6114 54.4996 33.5114 52.9996 34.2114C51.9996 34.6114 51.8996 35.6114 52.8996 36.1114C53.7996 36.6114 62.3996 36.0114 62.2996 35.0114C62.2996 33.8114 59.1996 33.6114 57.4996 33.6114Z" fill="#B04E66"/>
<path d="M38.5 21.1113C38.5 21.1113 47.8 40.2113 81.1 40.2113C81.1 40.2113 72.6 27.7113 67.3 21.1113C63.8 16.7113 56.8 12.2005 51.5 12.5005C49.7 12.6005 41 17.1113 38.5 21.1113Z" fill="#C5315D"/>
<path d="M45.5 53.0107C45.5 53.0107 45.7 55.2107 48.7 55.2107C51.7 55.2107 51.9 53.0107 51.9 53.0107H45.5Z" fill="#FE91BF"/>
<path d="M51.8998 53.0109C51.8998 53.0109 48.9998 51.4109 45.5998 53.0109C45.4998 53.0109 48.9998 54.4109 51.8998 53.0109Z" fill="#FE91BF"/>
<path d="M43.7998 52.7109C43.7998 52.7109 49.2998 54.7109 53.4998 52.7109" stroke="#E65B95" stroke-width="0.4561" stroke-miterlimit="10" stroke-linecap="round" stroke-linejoin="round"/>
<path d="M57.4001 50.6107C59.4988 50.6107 61.2001 49.8049 61.2001 48.8107C61.2001 47.8166 59.4988 47.0107 57.4001 47.0107C55.3014 47.0107 53.6001 47.8166 53.6001 48.8107C53.6001 49.8049 55.3014 50.6107 57.4001 50.6107Z" fill="#F4B8B8"/>
<path d="M39.9001 50.8109C41.9988 50.8109 43.7001 50.005 43.7001 49.0109C43.7001 48.0168 41.9988 47.2109 39.9001 47.2109C37.8014 47.2109 36.1001 48.0168 36.1001 49.0109C36.1001 50.005 37.8014 50.8109 39.9001 50.8109Z" fill="#F4B8B8"/>
</g>
</svg>
